<svg version="1.1" id="图层_1" xmlns="http://www.w3.org/2000/svg" x="0" y="0" viewBox="0 0 200 200" xml:space="preserve"><style>.st0{fill:#ff9344}</style><path class="st0" d="M127.3 170.8H37.8c-5.6 0-10.2-4.6-10.2-10.2V39.3c0-5.6 4.6-10.2 10.2-10.2h89.6v-13H37.8c-12.8 0-23.2 10.4-23.2 23.2v121.4c0 12.8 10.4 23.2 23.2 23.2h89.6v-13.1h-.1z"/><path class="st0" d="M63.4 82.2c.2 0 .2 0 0 0zm-.7 2c0-.1 0 0 0 0zM185.4 100l-51.6-44.2c-1.1-.9-2.8-.2-2.8 1.3v18.1c0 .8-.6 1.6-1.5 1.7-6.8 1-36.1 5.8-50.7 18.4-14.8 12.8-17.3 41.6-17.7 49.3-.1 1 .8 1.9 1.9 1.8.6-.1 1.1-.4 1.3-.9 2.1-4.1 12.9-22.4 36.2-22.2 12.9.1 22.5.1 28.8.1.9 0 1.7.8 1.7 1.7v17.8c0 1.5 1.7 2.2 2.8 1.3l51.6-44.2z"/></svg>