<svg version="1.1" id="图层_1" xmlns="http://www.w3.org/2000/svg" x="0" y="0" viewBox="0 0 200 200" xml:space="preserve"><style>.st0{fill:#57b4fd}</style><path class="st0" d="M177.5 159.3h-63.8c-1.7 0-3.1-1.4-3.1-3.1v-12.5c0-1.7 1.4-3.1 3.1-3.1h63.8c1.7 0 3.1 1.4 3.1 3.1v12.5c0 1.8-1.4 3.1-3.1 3.1z"/><path class="st0" d="M155 118.1v63.8c0 1.7-1.4 3.1-3.1 3.1h-12.5c-1.7 0-3.1-1.4-3.1-3.1v-63.8c0-1.7 1.4-3.1 3.1-3.1h12.5c1.7 0 3.1 1.4 3.1 3.1z"/><path class="st0" d="M113.5 171.9H37.8c-4.3 0-7.9-3.6-7.9-7.9V34.9c0-4.3 3.6-7.9 7.9-7.9h124.1c4.3 0 7.9 3.6 7.9 7.9v87.6h11.9V34.9c0-10.9-8.9-19.9-19.9-19.9h-124C26.9 15 18 23.9 18 34.9V164c0 10.9 8.9 19.9 19.9 19.9h75.7v-12z"/><path class="st0" d="M63.6 51h17c.9 2.9 2 5 4.7 9.7l14.6 25.1 14.6-25c2.8-4.6 4-7.1 4.7-9.8h17.1c-1.3 1.7-5.2 7.3-7 10.2L115.8 83h5.5c4.4 0 7.1-.2 10.4-.8v11.3c-3.4-.6-6-.8-10.4-.8h-11.6l-3.3 5.1v2.9H121c4.4 0 6.9-.2 10.4-.8v11.3c-3.4-.6-6-.8-10.4-.8h-14.6v6.7c0 5.6.2 8.7.8 12.7H92.6c.5-3.9.8-7.8.8-12.7v-6.7H78.5c-4.4 0-7 .2-10.4.8V99.9c3.5.6 5.8.8 10.4.8h14.9v-3l-3.3-5H78.7c-4.5 0-7 .2-10.4.8V82.2c3.3.6 5.8.8 10.4.8h5.5L70.5 61.2c-2.9-4.4-5.4-8.3-6.9-10.2z"/></svg>