<svg version="1.1" id="图层_1" xmlns="http://www.w3.org/2000/svg" x="0" y="0" viewBox="0 0 200 200" xml:space="preserve"><style>.st0{fill:#57b4fd}</style><path class="st0" d="M82.3 146c-4.5 9.5-10.4 22.9-10.4 28.9 0 8.4 15.6 14.3 15.6 14.3s15.6-5.9 15.6-14.3c0-6-5.9-19.4-10.4-28.9-3.4 1.6-7.2 1.6-10.4 0zM87.4 129.5c-3.4 0-6.2 2.8-6.2 6.2s2.8 6.2 6.2 6.2c3.4 0 6.2-2.8 6.2-6.2 0-3.4-2.8-6.2-6.2-6.2z"/><path class="st0" d="M140.7 64.1c0-29.4-23.9-53.3-53.3-53.3S34.1 34.6 34.1 64c0 18 9 34.7 24.1 44.6-29.9 12.1-49.5 41-49.7 73.2 0 4 3.3 7.3 7.3 7.3s7.3-3.3 7.3-7.3c0-35.5 28.8-64.3 64.4-64.4 29.3 0 53.2-23.8 53.2-53.3 0 .1 0 0 0 0zm-92.1.1c0-21.4 17.4-38.8 38.8-38.8s38.8 17.4 38.8 38.8S108.8 103 87.4 103 48.6 85.6 48.6 64.2z"/><g><path class="st0" d="M183.5 157.7h-58c-4.4 0-8-3.6-8-8s3.6-8 8-8h58c4.4 0 8 3.6 8 8s-3.6 8-8 8z"/><path class="st0" d="M162.5 120.7v58c0 4.4-3.6 8-8 8s-8-3.6-8-8v-58c0-4.4 3.6-8 8-8s8 3.6 8 8z"/></g></svg>