<svg version="1.1" id="图层_1" xmlns="http://www.w3.org/2000/svg" x="0" y="0" viewBox="0 0 200 200" xml:space="preserve"><style>.st0{fill:#88bf25}</style><path class="st0" d="M85.6 146c-4.5 9.5-10.4 22.9-10.4 28.9 0 8.4 15.6 14.3 15.6 14.3s15.6-5.9 15.6-14.3c0-6-5.9-19.4-10.4-28.9-3.3 1.6-7.1 1.6-10.4 0zM90.8 129.5c-3.4 0-6.2 2.8-6.2 6.2 0 3.4 2.8 6.2 6.2 6.2 3.4 0 6.2-2.8 6.2-6.2-.1-3.4-2.8-6.2-6.2-6.2z"/><path class="st0" d="M144.1 64.1c0-29.4-23.9-53.3-53.3-53.3S37.5 34.6 37.5 64c0 18 9 34.7 24.1 44.6-29.9 12.1-49.5 41-49.7 73.2 0 4 3.3 7.3 7.3 7.3s7.3-3.3 7.3-7.3c0-35.5 28.8-64.3 64.4-64.4 29.3 0 53.2-23.8 53.2-53.3 0 .1 0 0 0 0zm-92.1.1c0-21.4 17.4-38.8 38.8-38.8s38.8 17.4 38.8 38.8S112.2 103 90.8 103C69.3 103 52 85.6 52 64.2z"/><g><path class="st0" d="M177.6 186.1h-30.5v-.2c-2.3-.6-3.9-2.6-3.9-4.9 0-2.3 1.6-4.4 3.9-4.9v-.5h22.1c2.2 0 4.4-.9 5.9-2.4 1.6-1.6 2.5-3.7 2.5-5.9v-35.7c0-2.2-.9-4.4-2.5-5.9-1.6-1.6-3.7-2.5-5.9-2.4h-29.4c-2.2 0-4.4.9-5.9 2.4-1.6 1.6-2.5 3.7-2.5 5.9V162h-.4c-.2 2.7-2.4 4.8-5.1 4.8-2.7 0-4.9-2.1-5.1-4.8v-38.8c0-2.8 1.1-5.5 3.1-7.4 2-2 4.6-3.1 7.4-3.1h46.3c2.8 0 5.5 1.1 7.4 3.1 2 2 3.1 4.6 3.1 7.4v52.4c0 2.8-1.1 5.5-3.1 7.4-1.9 2-4.6 3.1-7.4 3.1z"/><path class="st0" d="M142.3 135.1h25.5c2.8 0 5.1 2.3 5.1 5.1s-2.3 5.1-5.1 5.1h-25.5c-2.8 0-5.1-2.3-5.1-5.1s2.2-5.1 5.1-5.1zM142.3 152.4h25.5c2.8 0 5.1 2.3 5.1 5.1s-2.3 5.1-5.1 5.1h-25.5c-2.8 0-5.1-2.3-5.1-5.1s2.2-5.1 5.1-5.1z"/></g></svg>