<svg version="1.1" id="图层_1" xmlns="http://www.w3.org/2000/svg" x="0" y="0" viewBox="0 0 200 200" xml:space="preserve"><style>.st0{fill:#ff9344}</style><path class="st0" d="M143.8 44H96.4c-3.4 0-6.1 2.7-6.1 6.1 0 3.4 2.7 6.1 6.1 6.1h47.4c3.4 0 6.1-2.7 6.1-6.1s-2.7-6.1-6.1-6.1zM69.8 44H56.5c-3.4 0-6.1 2.7-6.1 6.1 0 3.4 2.7 6.1 6.1 6.1h13.3c3.4 0 6.1-2.7 6.1-6.1S73.2 44 69.8 44zM143.8 72H96.4c-3.4 0-6.1 2.7-6.1 6.1s2.7 6.1 6.1 6.1h47.4c3.4 0 6.1-2.7 6.1-6.1s-2.7-6.1-6.1-6.1zM69.8 72H56.5c-3.4 0-6.1 2.7-6.1 6.1s2.7 6.1 6.1 6.1h13.3c3.4 0 6.1-2.7 6.1-6.1S73.2 72 69.8 72zM70.5 100H57.2c-3.4 0-6.1 2.7-6.1 6.1s2.7 6.1 6.1 6.1h13.3c3.4 0 6.1-2.7 6.1-6.1s-2.8-6.1-6.1-6.1z"/><g><path class="st0" d="M163.5 15h-127c-11 0-20 9-20 20v130c0 11 9 20 20 20h68.6l-.1-12H36.5c-4.3 0-8-3.7-8-8V35c0-4.3 3.7-8 8-8h127c4.3 0 8 3.7 8 8v57.7l12-.2V35c0-11-9-20-20-20z"/></g><path class="st0" d="M110.8 106.2h17c.9 2.9 2 5 4.7 9.7l14.6 25.1 14.6-25c2.8-4.6 4-7.1 4.7-9.8h17.1c-1.3 1.7-5.2 7.3-7 10.2L163 138.2h5.5c4.4 0 7.1-.2 10.4-.8v11.3c-3.4-.6-6-.8-10.4-.8h-11.6l-3.3 5.1v2.9h14.6c4.4 0 6.9-.2 10.4-.8v11.3c-3.4-.6-6-.8-10.4-.8h-14.6v6.7c0 5.6.2 8.7.8 12.7h-14.6c.5-3.9.8-7.8.8-12.7v-6.7h-14.9c-4.4 0-7 .2-10.4.8v-11.3c3.5.6 5.8.8 10.4.8h14.9v-3l-3.3-5h-11.4c-4.5 0-7 .2-10.4.8v-11.3c3.3.6 5.8.8 10.4.8h5.5l-13.7-21.8c-2.9-4.4-5.4-8.3-6.9-10.2z"/></svg>