<svg version="1.1" id="图层_1" xmlns="http://www.w3.org/2000/svg" x="0" y="0" viewBox="0 0 200 200" xml:space="preserve"><style>.st0{fill:#ff9344}</style><path class="st0" d="M85.5 119.6c.1 0 0 0 0 0zm-.5 1.1zm74 9.6l-31-26.6c-.7-.6-1.7-.1-1.7.8v10.9c0 .5-.4.9-.9 1-4.1.6-21.7 3.5-30.5 11.1-8.9 7.7-10.4 25-10.6 29.7 0 .6.5 1.1 1.1 1.1.3 0 .6-.2.8-.5 1.3-2.5 7.7-13.5 21.8-13.4 7.8.1 13.5.1 17.3.1.6 0 1 .5 1 1v10.7c0 .9 1 1.3 1.7.8l31-26.7zM129.4 40.6H68.6c-6 0-10.9-5.2-10.9-11.7s4.9-11.7 10.9-11.7h60.9c6 0 10.9 5.2 10.9 11.7s-5 11.7-11 11.7z"/><path class="st0" d="M163 17.2h-19.8c3.5 2.5 5.8 6.8 5.8 11.7v.3h14c4.4 0 8 3.6 8 8v128c0 4.4-3.6 8-8 8H35c-4.4 0-8-3.6-8-8v-128c0-4.4 3.6-8 8-8h14.1v-.3c0-4.9 2.3-9.1 5.8-11.7H35c-11 0-20 9-20 20v128c0 11 9 20 20 20h128c11 0 20-9 20-20v-128c0-11-9-20-20-20z"/><path class="st0" d="M148 80.9H50c-3.3 0-6-2.7-6-6s2.7-6 6-6h98c3.3 0 6 2.7 6 6s-2.7 6-6 6zM50 105.9c-3.3 0-6 2.7-6 6s2.7 6 6 6h27.2c4.4-4.9 9.7-8.9 14.7-12H50zm-6 43c0 3.3 2.7 6 6 6h13.3c.2-3.3.8-7.4 1.8-12H50c-3.4 0-6 2.7-6 6z"/></svg>