<svg version="1.1" id="图层_1" xmlns="http://www.w3.org/2000/svg" x="0" y="0" viewBox="0 0 200 200" xml:space="preserve"><style>.st0{fill:#ff6161}</style><path class="st0" d="M130.1 17.2H69.2c-6 0-10.9 5.2-10.9 11.7s4.9 11.7 10.9 11.7h60.9c6 0 10.9-5.2 10.9-11.7s-4.9-11.7-10.9-11.7zm33.6 168c.6 0 1.3 0 1.9-.1l-11.8.1h9.9zm0-168h-19.8c3.5 2.5 5.8 6.8 5.8 11.7v.3h14.1c4.4 0 8 3.6 8 8v55.9l12 10.6V37.2c-.1-11-9.1-20-20.1-20zm-128 156c-4.4 0-8-3.6-8-8v-128c0-4.4 3.6-8 8-8h14.1v-.3c0-4.9 2.3-9.1 5.8-11.7H35.7c-11 0-20 9-20 20v128c0 11 9 20 20 20h65.7l-9.1-12H35.7z"/><path class="st0" d="M142.4 77.6h-92c-3.3 0-6-2.7-6-6s2.7-6 6-6h92c3.3 0 6 2.7 6 6s-2.6 6-6 6zM78.1 135.6H50.4c-3.3 0-6 2.7-6 6s2.7 6 6 6h27.7c3.3 0 6-2.7 6-6s-2.6-6-6-6zm9.5-35H50.4c-3.3 0-6 2.7-6 6s2.7 6 6 6h37.2c3.3 0 6-2.7 6-6s-2.7-6-6-6zM139.7 107.3c18.7 0 33.9 15.2 33.9 33.9s-15.2 33.9-33.9 33.9-33.9-15.2-33.9-33.9 15.2-33.9 33.9-33.9m0-10c-24.3 0-43.9 19.7-43.9 43.9s19.7 43.9 43.9 43.9 43.9-19.7 43.9-43.9-19.6-43.9-43.9-43.9z"/><path class="st0" d="M128.4 160.2h-.1c-3.1 0-5.6-2.5-5.6-5.6V128c0-3.1 2.5-5.6 5.6-5.6h.1c3.1 0 5.6 2.5 5.6 5.6v26.6c.1 3.1-2.5 5.6-5.6 5.6zM151.1 160.2h-.1c-3.1 0-5.6-2.5-5.6-5.6V128c0-3.1 2.5-5.6 5.6-5.6h.1c3.1 0 5.6 2.5 5.6 5.6v26.6c0 3.1-2.5 5.6-5.6 5.6z"/></svg>