<svg version="1.1" id="图层_1" xmlns="http://www.w3.org/2000/svg" x="0" y="0" viewBox="0 0 200 200" xml:space="preserve"><style>.st0{fill:#88bf25}</style><path class="st0" d="M158.5 119.6h0c.1 0 .1 0 0 0zm.6 1.1zm-73.9 9.6l31 26.6c.7.6 1.7.1 1.7-.8v-10.7c0-.6.5-1 1-1 3.8 0 9.6 0 17.3-.1 14-.1 20.5 10.9 21.8 13.4.2.3.5.5.8.5.6.1 1.2-.4 1.1-1.1-.2-4.7-1.7-22-10.6-29.7-8.8-7.6-26.4-10.5-30.5-11.1-.5-.1-.9-.5-.9-1v-10.9c0-.9-1-1.3-1.7-.8l-31 26.7zM130.4 40.6H69.6c-6 0-10.9-5.2-10.9-11.7s4.9-11.7 10.9-11.7h60.9c6 0 10.9 5.2 10.9 11.7s-5 11.7-11 11.7z"/><path class="st0" d="M164 17.2h-19.8c3.5 2.5 5.8 6.8 5.8 11.7v.3h14c4.4 0 8 3.6 8 8v128c0 4.4-3.6 8-8 8H36c-4.4 0-8-3.6-8-8v-128c0-4.4 3.6-8 8-8h14.1v-.3c0-4.9 2.3-9.1 5.8-11.7H36c-11 0-20 9-20 20v128c0 11 9 20 20 20h128c11 0 20-9 20-20v-128c0-11-9-20-20-20z"/><path class="st0" d="M149 80.9H51c-3.3 0-6-2.7-6-6s2.7-6 6-6h98c3.3 0 6 2.7 6 6s-2.7 6-6 6zM51 117.9h27.4l14-12H51c-3.3 0-6 2.7-6 6s2.6 6 6 6zm27.9 25H51c-3.3 0-6 2.7-6 6s2.7 6 6 6h41.9l-14-12z"/></svg>