<svg xmlns="http://www.w3.org/2000/svg" viewBox="0 0 200 200"><path d="M71.7 62.2h17.2c.9 2.9 2 5.1 4.8 9.8l14.8 25.4 14.8-25.3c2.8-4.7 4-7.2 4.8-9.9h17.3c-1.3 1.7-5.3 7.4-7.1 10.3l-13.8 22h5.6c4.5 0 7.2-.2 10.5-.8v11.4c-3.4-.6-6.1-.8-10.5-.8h-11.7l-3.3 5.2v2.9h14.8c4.5 0 7-.2 10.5-.8V123c-3.4-.6-6.1-.8-10.5-.8H115v6.8c0 5.7.2 8.8.8 12.8H101c.5-3.9.8-7.9.8-12.8v-6.8h-15c-4.5 0-7.1.2-10.5.8v-11.4c3.5.6 5.9.8 10.5.8h15.1v-3l-3.3-5.1H87c-4.6 0-7.1.2-10.5.8V93.7c3.3.6 5.9.8 10.5.8h5.6l-13.9-22c-2.9-4.5-5.5-8.4-7-10.3zm35.5 130.6c-27.5 0-52.2-12-69.1-31.1l11.3-8.8c14.4 15.7 34.9 25.6 57.9 25.6 43.4 0 78.5-35.2 78.5-78.5s-35.2-78.5-78.5-78.5c-35.4 0-65.2 23.4-75 55.6L44 64.6c2.5-2.7 6.6-2.7 9-.1 2.4 2.6 2.4 6.8-.1 9.5L30 98.1c-1.8 1.9-4.3 2.4-6.4 1.7-2.6.6-5.4-.6-6.8-3.2L.8 67.2C-1 64 .1 59.8 3.1 57.9c3.1-1.9 7-.8 8.7 2.5l6.7 12.2c11.8-37.8 47-65.4 88.7-65.4 51.2 0 92.8 41.5 92.8 92.8s-41.5 92.8-92.8 92.8z" fill="#ff6161"/></svg>