<svg version="1.1" id="图层_1" xmlns="http://www.w3.org/2000/svg" x="0" y="0" viewBox="0 0 200 200" xml:space="preserve"><style>.st0{fill:#95bf25}</style><path class="st0" d="M151.2 107h-.2c-3.3.3-6.3-2.2-6.5-5.6-.3-3.3 2.2-6.3 5.6-6.5h.5c12.2-3.1 20.8-14.1 20.8-26.7 0-11.4-7-21.6-17.7-25.7-1.9-4.3-4.3-8.4-7.3-12.1 15.7 1.1 29.1 11.8 33.7 26.9 4.8 16.1-1.5 33.5-15.6 42.7 21.3 8.6 35.3 29.3 35.4 52.3 0 2.9-2.3 5.2-5.2 5.2s-5.2-2.3-5.2-5.2c.2-22.9-16.5-41.7-38.3-45.3zM49 107h.2c3.3.3 6.3-2.2 6.5-5.6.3-3.3-2.2-6.3-5.6-6.5h-.5c-12.2-3.1-20.8-14.1-20.8-26.7 0-11.4 7-21.6 17.7-25.7 1.9-4.3 4.3-8.4 7.3-12.1-15.7 1.1-29.1 11.8-33.7 26.9-5 16.1 1.4 33.4 15.4 42.6C14.2 108.6.2 129.2.1 152.2c0 2.9 2.3 5.2 5.2 5.2s5.2-2.3 5.2-5.2c0-22.8 16.7-41.6 38.5-45.2zm45.9 32.9c-4.1 8.5-9.3 20.5-9.3 25.8 0 7.5 13.9 12.8 13.9 12.8s13.9-5.2 13.9-12.8c0-5.3-5.2-17.3-9.3-25.8-2.9 1.5-6.3 1.5-9.2 0zm4.6-14.7c-3.1 0-5.5 2.5-5.5 5.5 0 3.1 2.5 5.5 5.5 5.5 3.1 0 5.5-2.5 5.5-5.5 0-3.1-2.4-5.5-5.5-5.5zm42.7-9.3c-2.8-2.2-6.9-1.6-9.1 1.2-2.2 2.8-1.6 6.9 1.2 9.1 14.3 10.8 22.7 28.9 22.6 46.9 0 3.6 2.9 7.6 6.5 7.6s6.5-4.1 6.5-7.6c.1-22-10.2-43.9-27.7-57.2z"/><path class="st0" d="M147.1 66.9c0-26.3-21.3-47.6-47.6-47.6-26.2 0-47.5 21.2-47.6 47.5 0 16 8.1 31 21.5 39.8-26.7 10.8-44.2 36.6-44.3 65.3 0 3.6 2.9 6.5 6.5 6.5s6.5-2.9 6.5-6.5c0-31.7 25.7-57.4 57.4-57.5 26.3 0 47.6-21.3 47.6-47.5zm-82.2 0c0-19.1 15.5-34.6 34.6-34.6s34.6 15.5 34.6 34.6-15.5 34.6-34.6 34.6S64.9 86 64.9 66.9z"/></svg>