<svg version="1.1" id="图层_1" xmlns="http://www.w3.org/2000/svg" x="0" y="0" viewBox="0 0 200 200" xml:space="preserve"><style>.st0{fill:#ff6161}</style><path class="st0" d="M40.6 107l8.7-.8c.2 2 .6 3.5 1.1 4.5.9 1.7 2.3 2.5 4 2.5 1.3 0 2.3-.4 3-1.3.7-.9 1.1-1.8 1.1-3 0-1.1-.3-2-1-2.9-.7-.8-2.2-1.6-4.7-2.4-4-1.3-6.8-2.9-8.5-5-1.7-2.1-2.6-4.7-2.6-8 0-2.1.4-4.1 1.3-6 .9-1.9 2.2-3.4 4-4.4 1.8-1.1 4.2-1.6 7.2-1.6 3.8 0 6.6 1 8.6 2.9 2 2 3.2 5.1 3.5 9.4l-8.6.7c-.2-1.9-.7-3.2-1.4-4.1-.7-.8-1.7-1.3-3-1.3-1.1 0-1.9.3-2.4.9-.5.6-.8 1.4-.8 2.3 0 .7.2 1.2.7 1.8.4.5 1.4 1.1 3.1 1.5 4 1.2 6.8 2.4 8.6 3.6 1.7 1.2 3 2.8 3.8 4.6.8 1.8 1.2 3.9 1.2 6.1 0 2.6-.5 5.1-1.6 7.3-1 2.2-2.5 3.9-4.4 5.1s-4.2 1.7-7.1 1.7c-5 0-8.5-1.4-10.4-4.1-2.1-2.4-3.2-5.9-3.4-10zM69.8 79.4h27.7v10.2h-9.3v31.1h-9.1V89.6h-9.3V79.4zM99 100c0-6.7 1.3-12 4-15.7 2.7-3.8 6.4-5.6 11.2-5.6 4.9 0 8.7 1.8 11.3 5.5 2.7 3.7 4 8.8 4 15.5 0 4.8-.6 8.8-1.7 11.9-1.2 3.1-2.8 5.5-5 7.2s-4.9 2.6-8.2 2.6-6.1-.7-8.3-2.2c-2.2-1.5-3.9-3.8-5.3-7-1.3-3.3-2-7.4-2-12.2zm9.2.1c0 4.2.6 7.2 1.7 9 1.1 1.8 2.6 2.7 4.5 2.7 2 0 3.5-.9 4.5-2.7 1.1-1.8 1.6-5 1.6-9.6 0-3.9-.6-6.7-1.7-8.5-1.1-1.8-2.6-2.7-4.6-2.7-1.8 0-3.3.9-4.4 2.7-1.1 1.9-1.6 4.9-1.6 9.1zM134.4 79.4h15.1c3.3 0 5.8 1.1 7.4 3.3 1.6 2.2 2.5 5.3 2.5 9.4 0 4.2-.9 7.4-2.7 9.8-1.8 2.3-4.5 3.5-8.2 3.5h-5v15.3h-9.1V79.4zm9.2 17.6h2.2c1.8 0 3-.4 3.7-1.3.7-.9 1.1-1.9 1.1-3.3 0-1.3-.3-2.4-.9-3.3-.6-.9-1.8-1.4-3.5-1.4h-2.6V97z"/><g><path class="st0" d="M100 25.5c41.1 0 74.5 33.4 74.5 74.5s-33.4 74.5-74.5 74.5-74.5-33.4-74.5-74.5S58.9 25.5 100 25.5m0-15c-49.4 0-89.5 40.1-89.5 89.5s40.1 89.5 89.5 89.5 89.5-40.1 89.5-89.5-40.1-89.5-89.5-89.5z"/></g></svg>