<svg version="1.1" id="图层_1" xmlns="http://www.w3.org/2000/svg" x="0" y="0" viewBox="0 0 200 200" xml:space="preserve"><style>.st0{fill:#ff9344}</style><path class="st0" d="M190 80.3V64.9s-25.7 21.9-25.7 41.1c0 15.4 11.6 27 11.6 27v34.7c0 3.9-2.6 6.4-6.4 6.4H28c-1.3 0-5.1-2.6-5.1-6.4v-33.4c1.3-1.3 12.9-15.4 12.9-28.3 0-15.4-11.6-28.3-11.6-28.3V44.3c0-3.9 2.6-6.4 6.4-6.4h82.3l11.6-14.1H29.3C15.1 23.7 10 34 10 44.3v33.4C10 88 22.9 91.9 22.9 106c0 14.1-12.9 20.6-12.9 28.3v33.4c0 11.6 7.7 19.3 19.3 19.3h140.1c11.6 0 19.3-9 19.3-19.3V133c0-9-11.6-16.7-11.6-27 0-11.5 12.9-20.5 12.9-25.7zm0 0"/><path class="st0" d="M55 154.9h90c3.9 0 6.4-2.6 6.4-6.4 0-3.9-2.6-6.4-6.4-6.4H55c-3.9 0-6.4 2.6-6.4 6.4 0 3.8 2.5 6.4 6.4 6.4zm83.6-45c0 3.9 2.6 6.4 6.4 6.4 3.9 0 6.4-2.6 6.4-6.4 0-3.9-2.6-6.4-6.4-6.4-3.9 0-6.4 2.5-6.4 6.4zM55 77.8h12.9c3.9 0 6.4-2.6 6.4-6.4 0-3.9-2.6-6.4-6.4-6.4H55c-3.9 0-6.4 2.6-6.4 6.4 0 3.8 2.5 6.4 6.4 6.4zm0 38.5h12.9c3.9 0 6.4-2.6 6.4-6.4 0-3.9-2.6-6.4-6.4-6.4H55c-3.9 0-6.4 2.6-6.4 6.4 0 3.9 2.5 6.4 6.4 6.4zm30.9 0h34.7l63-61.7c2.6-2.6 5.1-6.4 6.4-11.6 0-5.1-1.3-9-3.8-12.9L172 16c-3.9-2.6-7.7-3.9-12.9-2.6-3.9 0-9 2.6-11.6 6.4L85.9 81.6v34.7zm12.8-29.5l57.9-59.1c1.3-1.3 2.6-1.3 3.9-1.3h2.6l14.1 14.1V43c0 1.3-1.3 2.6-2.6 3.9l-59.1 56.6H98.7V86.8zm0 0"/></svg>