<svg version="1.1" id="图层_1" xmlns="http://www.w3.org/2000/svg" x="0" y="0" viewBox="0 0 185.7 199.6" xml:space="preserve"><style>.st0{fill:#57b4fd}</style><path class="st0" d="M166 159.8h-51.7c-5.2 0-9.4-4.2-9.4-9.4s4.2-9.4 9.4-9.4H166c5.2 0 9.4 4.2 9.4 9.4s-4.2 9.4-9.4 9.4z"/><path class="st0" d="M149.5 124.5v51.7c0 5.2-4.2 9.4-9.4 9.4s-9.4-4.2-9.4-9.4v-51.7c0-5.2 4.2-9.4 9.4-9.4s9.4 4.2 9.4 9.4z"/><path class="st0" d="M107.8 172.4H31.5c-4.3 0-8-3.7-8-8v-130c0-4.3 3.7-8 8-8h125c4.3 0 8 3.7 8 8v88.2h12V34.4c0-11-9-20-20-20h-125c-11 0-20 9-20 20v130c0 11 9 20 20 20h76.2v-12z"/><path class="st0" d="M136.8 50.2H89.4c-3.4 0-6.1 2.7-6.1 6.1 0 3.4 2.7 6.1 6.1 6.1h47.4c3.4 0 6.1-2.7 6.1-6.1s-2.7-6.1-6.1-6.1zM62.8 50.2H49.5c-3.4 0-6.1 2.7-6.1 6.1 0 3.4 2.7 6.1 6.1 6.1h13.3c3.4 0 6.1-2.7 6.1-6.1s-2.7-6.1-6.1-6.1zM136.8 78.2H89.4c-3.4 0-6.1 2.7-6.1 6.1 0 3.4 2.7 6.1 6.1 6.1h47.4c3.4 0 6.1-2.7 6.1-6.1 0-3.4-2.7-6.1-6.1-6.1zM62.8 78.2H49.5c-3.4 0-6.1 2.7-6.1 6.1 0 3.4 2.7 6.1 6.1 6.1h13.3c3.4 0 6.1-2.7 6.1-6.1 0-3.4-2.7-6.1-6.1-6.1z"/><g><path class="st0" d="M107.5 106.1H90c-3.4 0-6.1 2.7-6.1 6.1s2.7 6.1 6.1 6.1h17.4c3.4 0 6.1-2.7 6.1-6.1s-2.7-6.1-6-6.1zM63.5 106.1H50.2c-3.4 0-6.1 2.7-6.1 6.1s2.7 6.1 6.1 6.1h13.3c3.4 0 6.1-2.7 6.1-6.1s-2.8-6.1-6.1-6.1z"/></g></svg>