<svg data-name="图层 1" xmlns="http://www.w3.org/2000/svg" viewBox="0 0 184.03 184"><path d="M125.02 78.84a6.57 6.57 0 1 0 0-13.14h-23l-.24-.24 21-21a6.87 6.87 0 0 0-9.71-9.71l-21 21-21-21a6.87 6.87 0 0 0-9.71 9.71l21 21-.23.22H59.26a6.57 6.57 0 1 0 0 13.14h26.28V92H59.26a6.57 6.57 0 1 0 0 13.14h26.28v19.71a6.57 6.57 0 1 0 13.14 0v-19.73h26.28a6.57 6.57 0 1 0 0-13.14H98.68V78.84zM181.43 92c-4.87-8.72-12.47-6.54-12.47-6.54h-11.14V26.28A26.28 26.28 0 0 0 131.54 0H52.7a26.29 26.29 0 0 0-26.28 26.28V85.5H12.89S8 84.24 4.39 89.26c-6.83 9.5-5.64 18.62 3.3 27.55l66 59.59a25.85 25.85 0 0 0 36.61 0l66-59.59c8-8.08 9.83-16.29 5.08-24.78zm-14.23 15.6l-66 59.46a12.94 12.94 0 0 1-18.29 0l-66-59.46c-2.48-6.67-2.77-4.52.2-9.06h22.44V26.27a13.14 13.14 0 0 1 13.14-13.14h78.84a13.14 13.14 0 0 1 13.14 13.14v72.27h22.53c1.62 4.59 2.68 3.58 0 9.06z" fill="#57b4fd"/></svg>