<svg version="1.1" id="图层_1" xmlns="http://www.w3.org/2000/svg" x="0" y="0" viewBox="0 0 200 200" xml:space="preserve"><style>.st0{fill:#88bf25}</style><path class="st0" d="M124.5 169.8H35.1c-5.7 0-10.3-4.6-10.3-10.3V38.4c0-5.7 4.6-10.3 10.3-10.3h89.5v-13H35.1c-12.9 0-23.3 10.4-23.3 23.3v121.2c0 12.9 10.4 23.3 23.3 23.3h89.5v-13.1h-.1z"/><path class="st0" d="M183.4 81.2h.2-.2zm.9 1.9c0 .1 0 0 0 0zM61.5 99l54.4 46.6v-23.2c6.3 0 16.4 0 30.5-.1 23.3-.2 34 18.1 36.2 22.2.3.5.8.9 1.3.9l1.9.2s-.5-36.5-17.7-51.3c-16.7-14.3-52.2-18.6-52.2-18.6V52.4L61.5 99z"/></svg>