<svg xmlns="http://www.w3.org/2000/svg" viewBox="0 0 200 200"><path d="M188.9 0H9.9C4.1 0 0 4.7 0 10.5v147.3L41.5 200h147.3c5.8 0 11.1-4.7 11.1-10.5v-179c.1-5.8-5.2-10.5-11-10.5zM68.4 173.7c0 2.9-2.4 5.3-5.3 5.3H52.6c-2.9 0-5.3-2.4-5.3-5.3v-21.1c0-2.9 2.4-5.3 5.3-5.3h10.5c2.9 0 5.3 2.4 5.3 5.3v21.1zm36.9 0c0 2.9-2.4 5.3-5.3 5.3H89.5c-2.9 0-5.3-2.4-5.3-5.3v-21.1c0-2.9 2.4-5.3 5.3-5.3H100c2.9 0 5.3 2.4 5.3 5.3v21.1zm36.8 0c0 2.9-2.4 5.3-5.3 5.3h-10.5c-2.9 0-5.3-2.4-5.3-5.3v-21.1c0-2.9 2.4-5.3 5.3-5.3h10.5c2.9 0 5.3 2.4 5.3 5.3v21.1zm36.8 0c0 2.9-2.4 5.3-5.3 5.3h-10.5c-2.9 0-5.3-2.4-5.3-5.3v-21.1c0-2.9 2.4-5.3 5.3-5.3h10.5c2.9 0 5.3 2.4 5.3 5.3v21.1zm0-68.4H21.1V89.5H179v15.8zm0-52.7c0 5.8-5.3 10.5-11.1 10.5H31c-5.8 0-9.9-4.8-9.9-10.5V10.5H179v42.1z"/></svg>