<svg version="1.1" id="图层_1" xmlns="http://www.w3.org/2000/svg" x="0" y="0" viewBox="0 0 200 200" xml:space="preserve"><style>.st0{fill:#95b327}</style><path class="st0" d="M100 0C58.9 0 25.6 33.2 25.6 74.2c0 18.9 7.3 44.3 19 57.4l48.3 60.9c7.2 10 7.2 10 13.8 0l48.1-60.9c12.2-13.2 19.6-38 19.6-57.4 0-41-33.3-74.2-74.4-74.2z"/><circle cx="100" cy="74.5" r="61.5"/><path class="st0" d="M106.2 113.3H95.3v-15l-7.8 7.5c-.7-.7-1.8-1.6-3.4-2.7-1.4-1.4-2.5-2.4-3.4-3.1-4.3 5.2-9.1 9.5-14.3 12.9-2.3-3.2-4.6-6.1-7.1-8.8 4.8-2.5 9.3-6.5 13.6-11.9-4.1-3.4-7.9-6.8-11.6-10.2 1.8-6.3 3.4-13.9 4.8-22.8H60v-9.9h7.8c.2-1.1.5-2.7.7-4.8.7-4.8 1.1-8.4 1.4-10.9l10.9 1c-.7 5-1.5 9.9-2.4 14.6H93c0 3.4-.2 6.7-.7 9.9 5.2-5.2 10.6-13.8 16.3-25.8l11.9 3.4c-5 7.9-10.2 15.3-15.6 22.1 2.3-.2 5.4-.5 9.5-.7 4.3-.2 7.5-.3 9.5-.3-1.8-4.1-3.7-7.9-5.8-11.6l8.8-3.4c4.5 7.5 9.2 16 13.9 25.5l-9.9 4.1c-.9-2-1.9-4.2-3.1-6.5-15.9 1.4-26.7 2.5-32.6 3.4L92.3 62c-.9 11.6-2.9 21.1-6.1 28.5 1.6 1.1 3.6 2.7 6.1 4.8 1.4 1.1 2.4 1.9 3.1 2.4V75.6h40.4V113h-10.9v-4.8h-18.7v5.1zM72.6 79.7c1.8 1.4 3.5 2.7 5.1 4.1 2.7-6.6 4.3-14.7 4.8-24.5h-5.8c-1.4 7-2.8 13.8-4.1 20.4zm52.3 19V85.8h-18.7v12.9h18.7z"/></svg>