<svg xmlns="http://www.w3.org/2000/svg" viewBox="0 0 200 200"><path d="M168.7 155.1H14.2c-4.7 0-7.9-4.4-7.1-9.7l14.1-90.8c.8-5.4 5.4-9.7 10.1-9.7h154.5c4.7 0 7.9 4.4 7.1 9.7l-14.1 90.8c-.9 5.4-5.4 9.7-10.1 9.7z" fill="none" stroke="#000" stroke-width="8" stroke-miterlimit="10"/><path d="M154.2 80.6l-24-19.7c-3.9-2.7-8.9-.4-8.9 4.3V74H99.7c-3.1 0-5.4 2.3-5.4 5v10.4c0 3.1 2.3 5.4 5.4 5.4h21.7v9.3c0 4.6 5.4 7 8.9 4.3l24-19.7c2.6-1.9 2.6-6.2-.1-8.1zM99.6 105.1H78.3v-8.5c0-4.6-5.4-7-8.9-4.3l-23.6 19.3c-2.7 2.3-2.7 6.2 0 8.1L69.4 139c3.5 2.7 8.9.4 8.9-4.3v-9.3h21.3c2.7 0 5-2.3 5-5V110c0-2.6-2.3-4.9-5-4.9z"/></svg>