<svg xmlns="http://www.w3.org/2000/svg" viewBox="0 0 200 200"><path d="M185.7 0H32.2c-7.9 0-14.3 7.1-14.3 15.8v33.5H9c-5 0-9 3.7-9 8.2 0 4.5 4 8.2 9 8.2h9v68.5H9c-5 0-9 3.7-9 8.2 0 4.5 4 8.2 9 8.2h9v33.6c0 8.7 6.4 15.8 14.3 15.8h153.5c7.9 0 14.3-7.1 14.3-15.8V15.8C200 7.1 193.6 0 185.7 0zM182 159.7h-1.2c-5.9 3.5-34.4 6.2-68.9 6.2-34.4 0-63-2.7-68.9-6.2h-.9c0-.2.1-.4.1-.6-.2-.2-.4-.5-.4-.8 0-.3.3-.6.6-1 .6-3.9 2.2-7.6 4.9-10.8 2.6-3 6-5.3 9.7-7.3 8.4-4.4 18.1-6.5 27-10.3 4-1.8 8.3-4.1 9.9-7.9.6-4.3.4-8.7.4-13-2-1.2-3.3-3.1-4.4-4.8-2-3.2-3.5-6.7-4.1-10.3-2.3-.3-4-1.9-4.8-3.7-1-1.9-1.5-4-1.6-6-.1-2.1.9-4.2 2.9-5.5-1.9-6.3-3.2-12.8-2.9-19.3.2-4 1.1-8.1 3.2-11.8 1.7-3 4.3-5.6 7.5-7.6 6.4-3.9 14.6-5 22.3-5.1 4.4.1 9 .6 12.8 2.5 1.4.7 2.6 1.7 3.5 2.9 3.7.5 7.4 1.6 10.2 3.8 4 3.1 5.9 7.7 6.5 12.2.9 7.6-.9 15.1-3.4 22.4 2.1 1.4 3.1 3.6 2.9 5.8-.3 2.5-.9 5.1-2.6 7.2-.9 1.1-2.3 1.9-3.9 2.2-.6 3.8-2.1 7.5-4.3 10.8-1.1 1.6-2.2 3.2-4 4.3 0 4.3-.2 8.7.4 13 1.3 3.2 4.6 5.3 7.8 7 9.8 4.7 21.2 6.7 30.5 12.1 4.7 2.7 8.8 6.3 11 10.7 1.1 2.2 1.8 4.5 2.1 6.9.1.2.2.3.2.5 0 .1-.1.2-.1.3-.1.5 0 .8 0 1.2z"/></svg>