<svg data-name="图层 1" xmlns="http://www.w3.org/2000/svg" viewBox="0 0 200 199.99"><path d="M12.9 185.04l58.71-16.44 6.07-6.09-41.33-41.3-6.14 6.11zm30.31-70.74l41.34 41.33 80.78-80.79-41.3-41.33zM184 31.49l-16.63-16.63c-9.51-9.51-15.18-9.51-24.7 0l-11.76 11.77 41.3 41.32L184 56.21c9.51-9.51 9.51-15.19 0-24.7zM70.9 16.04c-9.51-9.52-15.19-9.52-24.7 0L6.89 55.34 0 48.45 41.33 7.13a24.36 24.36 0 0 1 34.44 0L98.54 29.9l-6.89 6.88zM24.11 58.79l13.78-13.78 6.89 6.89L31 65.68l-.79-.82 7.69 7.71L58.55 51.9l6.89 6.89-20.66 20.66 2.1 2.11-6.89 6.89-33.1-33.11 6.89-6.89zm96.44 96.42l20.66 20.68 10.33 10.32 32.43-32.43c9.51-9.5 9.51-15.2 0-24.7l-21.76-21.73 6.89-6.9 23.77 23.76a24.36 24.36 0 0 1 0 34.44l-34.44 34.46-6.89 6.88-6.88-6.88-34.1-34.11 6.89-6.88zm27.56-13.77l-20.67 20.67-6.89-6.9 20.66-20.65zm3.43 10.32l6.89 6.89-17.22 17.24-6.88-6.89zm0 0"/></svg>