<svg xmlns="http://www.w3.org/2000/svg" xmlns:xlink="http://www.w3.org/1999/xlink" viewBox="0 0 200 200"><defs><path id="a" d="M0 9.7h200v180.5H0z"/></defs><clipPath id="b"><use xlink:href="#a" overflow="visible"/></clipPath><path d="M153.9 115.8c7.6 0 14.2-6.6 14.2-14.2s-6.6-14.2-14.2-14.2-14.2 6.6-14.2 14.2c.1 7.6 6.7 14.2 14.2 14.2zm-49.9 0c7.6 0 14.2-6.6 14.2-14.2s-6.6-14.2-14.2-14.2c-7.5 0-14.2 6.6-14.2 14.2.1 7.6 6.7 14.2 14.2 14.2zm-49.8 0c7.6 0 14.2-6.6 14.2-14.2s-6.6-14.2-14.2-14.2C46.7 87.4 40 94 40 101.6s6.6 14.2 14.2 14.2zM14.3 85.9v-51c0-5.9 4.8-10.6 10.6-10.6h149.9c5.9 0 10.6 4.8 10.6 10.6v51h14.4v-51c0-13.8-11.2-25-25-25H25c-13.8 0-25 11.2-25 25v51h14.3zM185.5 117v48c0 5.9-4.8 10.6-10.6 10.6H25c-5.9 0-10.6-4.8-10.6-10.6v-48H0v48c0 13.8 11.2 25 25 25h149.9c13.8 0 25-11.2 25-25v-48h-14.4zm0 0" clip-path="url(#b)"/></svg>