<svg xmlns="http://www.w3.org/2000/svg" viewBox="0 0 200 200"><path d="M18.2 32.9h163.5v134.2H18.2z"/><path d="M143.8 105.6H56.2c-3.1 0-5.6-2.5-5.6-5.6 0-3.1 2.5-5.6 5.6-5.6h87.6c3.1 0 5.6 2.5 5.6 5.6-.1 3.1-2.6 5.6-5.6 5.6z"/><path d="M105.6 56.2v87.6c0 3.1-2.5 5.6-5.6 5.6-3.1 0-5.6-2.5-5.6-5.6V56.2c0-3.1 2.5-5.6 5.6-5.6 3.1 0 5.6 2.6 5.6 5.6z"/><path d="M100 200c-4.2 0-8.3-1.6-11.5-4.8L4.7 111.5c-3-3.1-4.7-7.2-4.7-11.5 0-4.4 1.7-8.4 4.7-11.5L88.5 4.7C91.6 1.7 95.6 0 100 0s8.4 1.7 11.5 4.7l83.8 83.8c6.3 6.3 6.3 16.7 0 23l-83.8 83.8c-3.2 3.1-7.3 4.7-11.5 4.7zm0-190.1c-1.7 0-3.3.7-4.5 1.8L11.8 95.5c-1.2 1.2-1.8 2.8-1.8 4.5s.7 3.3 1.8 4.5l83.8 83.8c2.5 2.5 6.5 2.5 8.9 0l83.8-83.8c2.5-2.5 2.5-6.5 0-8.9l-83.8-83.8c-1.2-1.2-2.8-1.9-4.5-1.9z"/></svg>