<svg xmlns="http://www.w3.org/2000/svg" xmlns:xlink="http://www.w3.org/1999/xlink" viewBox="0 0 200 200"><defs><path id="a" d="M7.8 0h184.4v200H7.8z"/></defs><clipPath id="b"><use xlink:href="#a" overflow="visible"/></clipPath><path d="M150.1 30.4c-3.8-2.5-7.8-4.7-11.9-6.6-3.8-1.7-8.4-.1-10.2 3.8-1.8 3.9-.1 8.4 3.8 10.2 3.4 1.6 6.7 3.4 9.9 5.5 21.9 14.2 34.9 38.3 34.9 64.4 0 42.3-34.4 76.8-76.8 76.8-42.3 0-76.8-34.4-76.8-76.8 0-26 13-50.1 34.9-64.4 3-2 6.2-3.7 9.5-5.3 3.8-1.8 5.5-6.4 3.7-10.2-1.8-3.9-6.4-5.5-10.2-3.7-3.9 1.8-7.7 3.9-11.4 6.3-26.2 17.1-41.8 46-41.8 77.2 0 50.8 41.3 92.1 92.1 92.1s92.1-41.3 92.1-92.1c.1-31.3-15.5-60.1-41.8-77.2zm0 0" clip-path="url(#b)"/><path d="M99.9 107.6c4.2 0 7.7-3.4 7.7-7.7V7.8c0-4.2-3.4-7.7-7.7-7.7-4.2 0-7.7 3.4-7.7 7.7v92.1c0 4.3 3.4 7.7 7.7 7.7zm0 0"/></svg>