<svg xmlns="http://www.w3.org/2000/svg" viewBox="0 0 200 200"><path d="M183 17h-12.8v21.3c0 26.8-12.4 50.9-33.7 63.9 21.3 13 33.7 36.9 33.7 63.7v17H183c4.4 0 8.4 3 8.4 8.8 0 4.5-3.5 8.2-7.9 8.2H16.4c-4.4 0-7.9-3.7-7.9-8.2 0-4.5 3.1-8.8 8.5-8.8h12.8v-17c0-26.8 13.2-50.7 34.5-63.7-21.3-13-34.5-37.1-34.5-63.9V17H17c-4.4 0-8.4-4.2-8.4-8.8 0-4.5 4-8.2 8.4-8.2h166.6c4.4 0 7.9 4 7.9 8.5 0 4.6-4.2 8.5-8.5 8.5zm-29.8 0H46.8v21.3c0 26.5 14 49.5 38.6 55.9 1 .3 1.9.7 2.7 1.3.1 0 .1.1.2.2l.1.1s.1 0 .1.1c1.2 1.1 2.1 2.5 2.6 4.3.4 1.9.3 3.7-.4 5.3 0 .1-.1.2-.1.3 0 0 0 .1-.1.1 0 .1-.1.1-.1.2s-.1.1-.1.2c0 0 0 .1-.1.1-.1.2-.3.4-.4.6-.1.1-.1.2-.2.3-.1.1-.1.2-.2.2v.1c-.1.1-.1.2-.2.2l-.3.3c-.2.2-.4.3-.6.5-.1.1-.2.1-.3.2-.8.6-1.8 1-2.8 1.2-24.5 6.6-38.3 29.3-38.3 55.7v17h106.4v-17c0-26.5-14.1-49.3-38.7-55.7-.1 0-.3-.1-.4-.1h-.1c-.1 0-.1-.1-.2-.1s-.1 0-.2-.1h-.1c-1-.4-1.9-1-2.6-1.8l-.2-.2-.1-.1-.1-.1c-.1-.1-.1-.1-.1-.2 0 0 0-.1-.1-.1-.1-.1-.1-.2-.2-.3-.3-.4-.6-.9-.8-1.3-.1-.1-.1-.2-.1-.3 0-.1-.1-.2-.1-.3v-.1c0-.1-.1-.2-.1-.3 0-.1-.1-.3-.1-.4 0-.1 0-.2-.1-.3v-.1c0-.1 0-.2-.1-.3v-.5c-.4-4 2.1-7.8 5.9-8.8 24.6-6.5 38.7-29.5 38.7-55.9V17zm-42 64.9c-4.6 1.2-8.5 4-11.2 7.6-.9-1.1-1.8-2.2-2.9-3.1l-.6-.5-.4-.4-.5-.3c-2.1-1.5-4.4-2.6-6.9-3.3C76 78.6 66.5 68.7 62.2 55.3h75.6c-4.3 13.4-13.8 23.2-26.6 26.6zm-15.4 47.9s.7-.6.8-.6l.1-.1.5-.4.1-.1c.3-.3.7-.6 1-.9l.4-.4.6-.7.6-.7.2-.3 1.2 1.8.5.3.2.1c1.5 1.5 3.1 2.7 5 3.5 0 0 .5.2.7.3.1 0 .6.2.6.2.3.1.6.2.8.3 14.3 4 23 15.8 23 34.6v3.6h-64v-3.6c0-18.6 8.6-30.4 22.6-34.5 1.7-.4 3.3-1.2 4.8-2.2l.3-.2zm0 0"/></svg>