<svg xmlns="http://www.w3.org/2000/svg" xmlns:xlink="http://www.w3.org/1999/xlink" viewBox="0 0 200 200"><defs><path id="a" d="M.1 0h199.8v200H.1z"/></defs><clipPath id="b"><use xlink:href="#a" overflow="visible"/></clipPath><path d="M99.9.1C44.8.1.1 44.8.1 99.9c0 55.1 44.7 99.8 99.8 99.8 55.1 0 99.8-44.7 99.8-99.8C199.7 44.8 155 .1 99.9.1zm60.6 160.5c-16.1 16.1-37.9 25.2-60.6 25.1-22.8 0-44.6-9-60.7-25.1A85.683 85.683 0 0 1 14.1 100c0-11.6 2.3-22.8 6.7-33.4 4.3-10.2 10.6-19.5 18.4-27.3 16.1-16.1 37.9-25.1 60.6-25.1 11.6 0 22.8 2.3 33.4 6.7 10.2 4.3 19.5 10.6 27.3 18.4 16.1 16.1 25.1 37.9 25.1 60.6 0 11.6-2.3 22.8-6.7 33.4-4.3 10.2-10.5 19.5-18.4 27.3zm-21.6-63.3L82.1 48.9c-.8-.7-1.8-1.1-2.8-1.1-2.1 0-4.1 1.5-4.1 3.7v96.7c0 2.2 2 3.7 4.1 3.7 1 0 2-.4 2.8-1l56.8-48.4c1.6-1.4 1.6-3.8 0-5.2zm0 0" clip-path="url(#b)"/></svg>