<svg xmlns="http://www.w3.org/2000/svg" viewBox="0 0 200 200"><path d="M68.2 5.6C73.5 2.5 82.7 0 89 0h22c6.2 0 15.5 2.5 20.7 5.6l58.7 34.3c5.3 3.1 9.5 10.6 9.5 16.6v87c0 6.1-4.3 13.6-9.5 16.6l-58.7 34.3c-5.3 3.1-14.5 5.6-20.7 5.6H89c-6.2 0-15.5-2.5-20.7-5.6L9.5 160.1C4.3 157 0 149.6 0 143.5v-87C0 50.4 4.3 43 9.5 39.9L68.2 5.6zm7.5 138.8c0 6.1 4.9 11.1 11 11.1h26.5c6.1 0 11-5 11-11.1V107h37.5c6.1 0 7.2-3.2 2.5-7.1l-47.3-39.3c-9.4-7.8-24.7-7.8-34.2 0l-47 39.4c-4.7 3.9-3.5 7.1 2.5 7.1h37.5v37.3z"/></svg>