<svg xmlns="http://www.w3.org/2000/svg" viewBox="0 0 200 200"><path d="M40.9 112.8V87.2v25.6zM185.7 0H32.2c-7.9 0-14.3 7.1-14.3 15.8v33.5H9c-5 0-9 3.7-9 8.2s4 8.2 9 8.2h9v68.5H9c-5 0-9 3.7-9 8.2 0 4.5 4 8.2 9 8.2h9v33.6c0 8.7 6.4 15.8 14.3 15.8h153.5c7.9 0 14.3-7.1 14.3-15.8V15.8C200 7.1 193.6 0 185.7 0zM108 180.2c-35.5 0-64.2-12.1-64.2-27.1 0-12.6 20.4-23.2 48.1-26.2v-8.6c-12.5-8-21.8-24.7-21.8-43.3 0-26.1 8.7-47.2 37.8-47.2s37.8 21.1 37.8 47.2c0 18.6-9.3 35.3-21.7 43.4v8.6c27.6 3 48.1 13.6 48.1 26.2.1 14.9-28.6 27-64.1 27z"/></svg>