<svg class="icon" viewBox="0 0 1024 1024" xmlns="http://www.w3.org/2000/svg" width="200" height="200"><defs><style/></defs><path d="M511.984 1022.006c-177.414 0-356.431-48.132-356.431-155.653 0-83.936 122.605-135.998 236.55-148.836l6.236-.719-157.475-252.17a318.088 318.088 0 0 1-14.094-28.513l-4.154-8.4-.653-3.361c-13.843-35.849-20.853-73.371-20.853-111.499 0-171.404 139.485-310.86 310.918-310.86 171.427 0 310.887 139.456 310.887 310.86 0 38.165-7.025 75.67-20.906 111.499l-2.082 5.389h.194l-1.603 3.3c-4.536 10.694-9.553 20.965-15.001 30.699L511.854 914.597l-64.346-105.092-2.43.212c-104.228 8.933-170.699 37.702-188.13 53.72l-3.15 2.898 3.15 2.914c22.738 21.125 110.174 54.536 248.787 55.521l12.376.02-.016-.02c138.357-.97 225.97-34.304 248.899-55.385l3.23-2.968-3.286-2.898c-12.722-11.272-59.075-33.511-130.37-46.567l54.754-87.675c114.248 25.745 177.125 74.36 177.125 137.074 0 107.528-179.017 155.654-356.453 155.654h-.01zm-.007-876.847c-73.081 0-132.527 59.489-132.527 132.599 0 73.05 59.44 132.48 132.527 132.48 73.133 0 132.623-59.43 132.623-132.48 0-73.11-59.49-132.599-132.623-132.599zm0 0"/></svg>