<svg version="1.1" id="图层_1" xmlns="http://www.w3.org/2000/svg" x="0" y="0" viewBox="0 0 200 200" xml:space="preserve"><style>.st1{fill:#d37f22}.st2{fill:#fff2e2}</style><circle cx="100" cy="100" r="100" fill="#fbab4a"/><path class="st1" d="M132.6 62.4h-25L97.3 62l.3 9.3v68.8l-9.6-.4v11.9l10.7-.4h14.9c-3.7-5.4-5.9-12-5.9-19.1 0-7.9 2.7-15.1 7.2-20.9h-5.4V98H129v2.9c3.6-1.4 7.5-2.2 11.6-2.3V73l.4-10.9-8.4.3zM129 87.1h-19.5V73H129v14.1zm-33.6 32.4c.3-.2.9-.5 1.7-1-1.3-2.3-2.8-4.8-4.4-7.5-1.7-2.7-3.3-5.3-4.7-8-.6.4-2.7 1.7-6.3 4V96.2h7.7l5.6.2V84.5l-5.6.3h-7.7V71.5l3.6-.8 6.3-1.1c.8-.1 2-.4 3.6-.9-2.3-4.6-3.6-7.2-3.9-7.9-.3-.7-.7-1.9-1.2-3.5-4.5 1.7-9.8 3.2-16.1 4.4-6.2 1.2-13.7 1.8-22.3 1.7l1.3 3.1c.8 1.8 1.7 4.7 2.7 8.7 6.8-.9 11.7-1.5 14.7-1.9v11.4H61l-8.7-.3v11.9l8.3-.2h9.2c-1.4 3.6-2.8 6.7-4.2 9.4-1.3 2.7-3.2 5.8-5.6 9.2-2.4 3.4-5.5 6.2-9.3 8.6l1.6 3.7c1 2.4 2.1 5.6 3.3 9.7l4.3-4.1c2.3-2.1 5.8-6.3 10.4-12.5v24l-.4 10.2h12l-.4-10.2v-30.3l2.8 5c.3.6 1.2 2.6 2.6 5.8l2-1.1 6.5-4z"/><path class="st1" d="M142.7 106.7c-14.1 0-25.5 11.4-25.5 25.5s11.4 25.5 25.5 25.5 25.5-11.4 25.5-25.5-11.4-25.5-25.5-25.5zm16.7 25.8c0 2.3-1.9 4.3-4.3 4.3h-24.8c-2.3 0-4.3-1.9-4.3-4.3v-.6c0-2.3 1.9-4.3 4.3-4.3h24.8c2.3 0 4.3 1.9 4.3 4.3v.6z"/><g><path class="st2" d="M91.4 115.5c.3-.2.9-.5 1.7-1-1.3-2.3-2.8-4.8-4.4-7.5-1.7-2.7-3.3-5.3-4.7-8-.6.4-2.7 1.7-6.3 4V92.2h7.7l5.6.2V80.5l-5.6.3h-7.7V67.5l3.6-.8 6.3-1.1c.8-.1 2-.4 3.6-.9-2.3-4.6-3.6-7.2-3.9-7.9-.3-.7-.7-1.9-1.2-3.5-4.5 1.7-9.8 3.2-16.1 4.4-6.2 1.2-13.7 1.8-22.3 1.7l1.3 3.1c.8 1.8 1.7 4.7 2.7 8.7 6.8-.9 11.7-1.5 14.7-1.9v11.4H57l-8.7-.3v11.9l8.3-.2h9.2c-1.4 3.6-2.8 6.7-4.2 9.4-1.3 2.7-3.2 5.8-5.6 9.2-2.4 3.4-5.5 6.2-9.3 8.6l1.6 3.7c1 2.4 2.1 5.6 3.3 9.7l4.3-4.1c2.3-2.1 5.8-6.3 10.4-12.5v24l-.4 10.2h12l-.4-10.2v-30.3l2.8 5c.3.6 1.2 2.6 2.6 5.8l2-1.1 6.5-4zm37.2-57.1h-25L93.3 58l.3 9.3v68.8l-9.6-.4v11.9l10.7-.4h14.9c-3.7-5.4-5.9-12-5.9-19.1 0-7.9 2.7-15.1 7.2-20.9h-5.4V94H125v2.9c3.6-1.4 7.5-2.2 11.6-2.3V69l.4-10.9-8.4.3zM125 83.1h-19.5V69H125v14.1z"/><path class="st2" d="M138.7 102.7c-14.1 0-25.5 11.4-25.5 25.5s11.4 25.5 25.5 25.5 25.5-11.4 25.5-25.5-11.4-25.5-25.5-25.5zm16.7 25.8c0 2.3-1.9 4.3-4.3 4.3h-24.8c-2.3 0-4.3-1.9-4.3-4.3v-.6c0-2.3 1.9-4.3 4.3-4.3h24.8c2.3 0 4.3 1.9 4.3 4.3v.6z"/></g></svg>