<svg xmlns="http://www.w3.org/2000/svg" viewBox="0 0 200 200"><path d="M34.7 73.2H8.5c-4.1 0-7.5-3.4-7.5-7.5v-.5c0-4.1 3.4-7.5 7.5-7.5h26.2c4.1 0 7.5 3.4 7.5 7.5v.5c0 4.1-3.3 7.5-7.5 7.5zM34.7 107.7H8.5c-4.1 0-7.5-3.4-7.5-7.5v-.5c0-4.1 3.4-7.5 7.5-7.5h26.2c4.1 0 7.5 3.4 7.5 7.5v.5c0 4.2-3.3 7.5-7.5 7.5zM34.7 142.3H8.5c-4.1 0-7.5-3.4-7.5-7.5v-.5c0-4.1 3.4-7.5 7.5-7.5h26.2c4.1 0 7.5 3.4 7.5 7.5v.5c0 4.1-3.3 7.5-7.5 7.5z"/><path d="M98.6 122.8c2.2-.4 3.3-1.1 3.3-2.3l.1-43.1h-3.4v45.4zm93.4-97H22.4c-4.4 0-8 3.6-8 8v19.8h20.5c6.3 0 11.5 5.2 11.5 11.5v.7c0 6.3-5.2 11.5-11.5 11.5H14.4v10.8h20.5c6.3 0 11.5 5.2 11.5 11.5v.7c0 6.3-5.2 11.5-11.5 11.5H14.4v10.8h20.5c6.3 0 11.5 5.2 11.5 11.5v.7c0 6.3-5.2 11.5-11.5 11.5H14.4v19.8c0 4.4 3.6 8 8 8H192c4.4 0 8-3.6 8-8V33.8c0-4.5-3.6-8-8-8zm-79.7 50.6v49.3c0 1.7-.1 2.9-.4 3.6-.3.8-1.3 1.5-3.2 2.4-1.8.8-4.3 1.4-7.2 1.7-.5-3.1-1.1-5.1-1.6-6.1l-1.3-2.5-.1 13.4.4 9.6H87.4l.4-9.7V77.4h-2.9v42.9l.3 9.8H73.8l.3-12.1V76.4l-.3-9.6 5.8.3h8.1v-6.6l-.4-8.6h11.5l-.4 8.6V67h7.5l6.6-.3-.2 9.7zm56 64.5c-1 1.1-2.4 3.4-4.2 6.9-2.2-1.5-4.2-2.9-5.9-4.2-1.7-1.4-3.7-3.4-6.1-6.1-2.3-2.7-4.3-5.5-5.7-8.4-1.5-2.9-2.9-6.5-4.2-10.8-1.3-4.3-2.2-7.7-2.6-10.2l-1.3-7.3h-5.9v27.5c3.2-2.5 6.2-4.9 8.8-7.2.4 1.7.8 3.4 1.2 5.2.4 1.7.8 2.9 1.1 3.5l1.1 2.3c-.9.8-1.6 1.3-2.1 1.6l-9.5 7c-3.5 2.6-6.8 5.6-10.2 8.9-.4-1.3-.8-2.5-1.2-3.7s-1.9-4.1-4.4-8.7c.7-.4 1.5-1 2.3-1.8.8-.8 1.2-2.5 1.2-5.3v-29.4l-6.6.3V89.4l6.6.4V61.7l-.4-10.1h12.4l-.4 10.1v11c6.8-3.3 11.7-6.2 14.8-8.6 3.1-2.4 6.2-5.1 9.1-8.2 3 3.9 5.2 6.4 6.6 7.6l2.7 2.5c-6.4 4.1-11.8 7.7-16.3 10.7-4.5 3-7.1 4.7-7.8 5.1l-4.9 2.9c-.9-2.6-1.6-4.2-2.1-5l-2.2-3.2v13.3h27.3l8.4-.2V101l-8.4-.3h-10c.5 3.1 1.1 6.1 1.7 8.9.6 2.8 1.6 6 3.1 9.4 1.4 3.5 3.3 6.6 5.5 9.4 2.2 2.8 4.2 4.8 5.9 6 1.8 1.2 3.6 2.2 5.5 3.1-.8 1.1-1.9 2.3-2.9 3.4z"/></svg>