<svg version="1.1" id="图层_1" xmlns="http://www.w3.org/2000/svg" x="0" y="0" viewBox="0 0 200 200" xml:space="preserve"><style>.st1{fill:#f5fce3}</style><circle cx="100" cy="100" r="100" fill="#8bbf1c"/><path class="st1" d="M105.8 50.5V46a6.7 6.7 0 0 0-13.4 0v4.5H81.2v6.7H117v-6.7h-11.2z"/><path class="st1" d="M138.3 50.5h-16.8v11.1H76.7V50.5H61.8c-4.8 0-8.8 3.9-8.8 8.8v87.1c0 4.8 3.9 8.8 8.8 8.8h76.5c4.8 0 8.8-3.9 8.8-8.8V59.3c-.1-4.8-4-8.8-8.8-8.8zM83.7 81c4.8-3.4 10.4-5.2 16.2-5.2h.5c.7 0 1.5 0 2.3.1.3 0 .6.1.9.1.4.1.9.1 1.3.2.2 0 .3.1.5.1.3.1.7.2 1 .2.6.1 1.2.3 1.8.5.2.1.5.2.7.2.7.2 1.3.5 2 .7.1 0 .2.1.3.2 4.1 1.8 7.7 4.5 10.6 8.1.1.1.1.1.1.2.4.5.9 1.1 1.2 1.6 0 .1.1.2.1.2 3.1 4.6 5 10.2 5 16.2h5c.1 0 .3.1.3.2.1.1.1.3 0 .4l-8.4 12.8c-.1.1-.2.2-.3.2-.1 0-.2-.1-.3-.2l-8.4-12.8c-.1-.1-.1-.3 0-.4.1-.1.2-.2.3-.2h5c0-5.2-1.8-10.1-4.9-13.8v-.1c-2.2-2.7-5-4.8-8.1-6.2-.1 0-.1 0-.2-.1-.5-.2-1.1-.4-1.6-.6-.2-.1-.3-.1-.5-.2-.5-.1-1-.3-1.5-.4-.2 0-.4-.1-.7-.1-.5-.1-1-.2-1.5-.2-.2 0-.4-.1-.6-.1-.6-.1-1.3-.1-1.9-.1-4.5 0-8.8 1.3-12.5 3.9-1.5 1.1-3.7.7-4.7-.8-.9-1.4-.5-3.5 1-4.6zm-17.4 23l8.4-12.8c.1-.1.2-.2.3-.2.1 0 .2.1.3.2l8.4 12.8c.1.1.1.3 0 .4-.1.1-.2.2-.3.2h-5c0 5.1 1.8 9.9 4.7 13.6l.3.3c.4.5.8 1 1.3 1.4 0 0 0 .1.1.1 1.5 1.5 3.1 2.7 4.9 3.7h.1c.5.3 1.1.6 1.6.8.1 0 .2.1.3.1.5.2 1 .4 1.5.5.2.1.4.1.6.2.4.1.9.2 1.3.3.3.1.5.1.8.2.4.1.9.2 1.4.2.2 0 .5.1.7.1.6.1 1.2.1 1.8.1 4.5.1 8.9-1.3 12.6-3.9 1.5-1.1 3.7-.7 4.7.8 1.1 1.6.7 3.7-.8 4.8-4.8 3.4-10.5 5.2-16.2 5.2-.9 0-1.9-.1-2.8-.2-.2 0-.4-.1-.6-.1-.5-.1-1.1-.1-1.6-.2-.2 0-.3-.1-.5-.1-.4-.1-.7-.2-1.1-.3-.6-.1-1.1-.3-1.7-.4l-.9-.3c-.6-.2-1.2-.4-1.8-.7-.2-.1-.3-.2-.5-.2-.7-.3-1.4-.6-2.1-1-.1 0-.1-.1-.2-.1-2.3-1.3-4.5-2.9-6.4-4.8l-.2-.2c-.6-.6-1.1-1.2-1.6-1.8-.1-.2-.3-.3-.4-.5-.4-.4-.7-.9-1-1.4 0-.1-.1-.1-.1-.2-3.2-4.6-5-10.2-5-16.3h-5c-.1 0-.3-.1-.3-.2-.1.1-.1 0 0-.1zm70.1 44.8H63.6c-1.3 0-2.3-1-2.3-2.3 0-1.3 1-2.3 2.3-2.3h72.7c1.3 0 2.3 1 2.3 2.3 0 1.3-1 2.3-2.2 2.3z"/></svg>