<svg version="1.1" id="图层_1" xmlns="http://www.w3.org/2000/svg" x="0" y="0" viewBox="0 0 200 200" xml:space="preserve"><style>.st1{fill:none}.st2{fill:#4f92db}.st3{fill:#ecf8ff}</style><circle cx="100" cy="100" r="100" fill="#6ca6ef"/><circle class="st1" cx="105" cy="97" r="100"/><circle class="st1" cx="100" cy="100" r="100"/><path class="st2" d="M130.4 114.1l-17 57.2-4.4-53.8h-6l-4.2 51-19.6-54.3s-45-1.3-54.6 43.5v8c18.3 21 45.3 34.3 75.4 34.3 36.4 0 68.3-19.5 85.8-48.6-12.5-38.4-55.4-37.3-55.4-37.3z"/><ellipse transform="rotate(-45.001 106 80.102)" class="st2" cx="106" cy="80.1" rx="28.1" ry="28.1"/><circle class="st1" cx="100" cy="100" r="100"/><g><path class="st3" d="M181.5 156.6c-9.7-44.7-57.1-43.5-57.1-43.5l-17 57.2-4.4-53.8h-6l-4.2 51-19.6-54.3s-45-1.3-54.6 43.5v1.4C36.7 183.5 66.4 200 100 200c33.6 0 63.4-16.6 81.5-42v-1.4z"/><ellipse transform="rotate(-45.001 100 79.101)" class="st3" cx="100" cy="79.1" rx="28.1" ry="28.1"/></g></svg>