<svg xmlns="http://www.w3.org/2000/svg" viewBox="0 0 200 200"><path d="M60 20H28.3C18.2 20 10 28.2 10 38.3v143.5c0 10.1 8.2 18.3 18.3 18.3h143.5c10.1 0 18.3-8.2 18.3-18.3V38.3c0-10-8.2-18.3-18.3-18.3H140v1.8c0 10-8.1 18.2-18.1 18.2H78.2C68.1 40 60 31.8 60 21.8V20zm86.8 75.1l-46.9 53.8c-1.3 1.9-3.8 3.3-6.5 3.3-2.2 0-4.7-.6-6.5-2.2l-27.8-23.7c-3.7-3.6-4-8.9-1.1-13 3.9-4.1 9.4-4.3 13.1-1.2l21.1 17.8L133 83c3.7-3.7 9.1-4 12.9-.8 3.7 3.7 4 9.1.9 12.9zM70 15c0-8.3 6.7-15 15-15h30c8.3 0 15 6.7 15 15s-6.6 15-15 15H85c-8.3 0-15-6.7-15-15z"/></svg>