<svg xmlns="http://www.w3.org/2000/svg" viewBox="0 0 200 200"><path d="M100 177c47.4 0 85.7-39.6 85.7-88.5C185.7 39.7 147.2 0 100 0S14.3 39.7 14.3 88.5c0 48.9 38.5 88.5 85.7 88.5zm0-161.5c38.9 0 70.4 32.8 70.4 73.2 0 40.4-31.5 73.2-70.4 73.2-38.9-.2-70.4-33-70.4-73.2 0-40.4 31.5-73.2 70.4-73.2zm0 0"/><path d="M176.5 146.1c-4.1-1.8-8.8.2-10.7 4.2-1.5 3.7-.2 7.9 3.1 10 5.5 2.9 6.8 5.2 7 5.7-.6 5.3-26.9 17.5-76 17.5-48.3 0-75.4-12.5-75.8-17.5 0-.4 1.3-2.6 6.6-5.5 3.9-2.2 5.2-7.2 2.9-11.1-2.2-3.7-6.8-5.2-10.7-3.1C10.8 152.9 8 160.6 8 166c0 23.2 47.7 33.7 92 33.7 44.2 0 92-10.5 92-33.7 0-5.4-2.6-13.1-15.5-19.9zm-76.5-99c-21.9 0-39.6 17.7-39.6 39.6 0 21.9 17.7 39.6 39.6 39.6 21.9 0 39.6-17.7 39.6-39.6 0-21.8-17.7-39.5-39.6-39.6zM86.4 86.9c-9 0-16.2-7.2-16.2-16.2s7.2-16.2 16.2-16.2 16.2 7.2 16.2 16.2c0 8.8-7.4 16.2-16.2 16.2zm0 0"/><path d="M8 0h184v200H8z"/></svg>