<svg class="icon" viewBox="0 0 1024 1024" xmlns="http://www.w3.org/2000/svg" width="200" height="200"><defs><style/></defs><path d="M511.037 735.127c-38.292 0-70.202 35.522-70.202 78.149 0 42.626 31.91 78.269 70.202 78.269 38.291 0 70.201-35.522 70.201-78.27-.12-42.626-32.03-78.148-70.201-78.148zm-255.278-92.478l51.056 56.835c57.437-56.835 127.638-85.373 204.101-85.373 76.584 0 153.046 35.522 204.102 85.373l51.055-56.835c-70.2-71.044-159.548-113.791-255.157-113.791-95.608.12-184.956 49.851-255.157 113.791zM128.241 500.44l51.055 56.836c89.227-85.253 204.102-142.089 331.74-142.089 127.64 0 242.394 56.836 331.741 149.313l51.056-63.94C791.722 393.875 657.82 329.935 511.037 329.935c-146.785-.12-280.806 71.044-382.796 170.506zm382.796-369.67c-197.72 0-376.414 85.373-503.933 227.461l51.056 56.836c114.634-127.88 274.182-206.149 452.877-206.149 178.574 0 338.122 78.27 459.379 206.149l51.055-56.836C887.331 216.143 708.756 130.77 511.037 130.77z"/></svg>