<svg data-name="图层 1" xmlns="http://www.w3.org/2000/svg" viewBox="0 0 198.12 171.1"><path d="M98.43 118.04c-7.48 0-13.72 6.94-13.72 15.26s6.24 15.29 13.72 15.29 13.71-6.94 13.71-15.29-6.26-15.26-13.71-15.26zM48.57 99.98l10 11.1C69.79 99.98 83.5 94.4 98.43 94.4s29.89 6.94 39.87 16.68l10-11.1c-13.71-13.88-31.16-22.23-49.84-22.23s-36.18 9.71-49.89 22.23zM23.66 72.2l10 11.1c17.4-16.65 39.84-27.75 64.77-27.75s47.34 11.1 64.79 29.16l10-12.48C153.25 51.39 127.06 38.9 98.43 38.9S43.58 52.78 23.66 72.2zM98.43 0C59.81 0 24.91 16.68 0 44.46l10 11.1c22.36-25.01 53.52-40.3 88.43-40.3s66 15.29 89.72 40.27l10-11.1C171.92 16.68 137.06 0 98.43 0zm90.03 127.63h-4.76v-7.37a17 17 0 0 0-33.91 0v7.37h-4.81a9.66 9.66 0 0 0-9.66 9.66v24.17a9.66 9.66 0 0 0 9.66 9.66h43.48a9.65 9.65 0 0 0 9.66-9.66v-24.17a9.65 9.65 0 0 0-9.66-9.66zm-33.83-7.37a12.11 12.11 0 0 1 24.22 0v7.37h-24.22zm38.66 41.2a4.83 4.83 0 0 1-4.83 4.83h-43.48a4.83 4.83 0 0 1-4.83-4.83v-24.17a4.83 4.83 0 0 1 4.83-4.83h43.48a4.83 4.83 0 0 1 4.83 4.83z"/></svg>