<svg data-name="图层 1" xmlns="http://www.w3.org/2000/svg" viewBox="0 0 198.1 199.07"><path d="M148.75 14.38a99 99 0 1 0 45.94 60l-.12-.46h-12.21c.36 1.15.7 2.32 1 3.49a87.29 87.29 0 1 1-40.48-52.9l-8.28 14.34 42.51-1.37L157.02 0l-8.3 14.38z"/><path d="M85.35 86.91h27.34V73.24a13.67 13.67 0 0 0-27.34 0zm8.59 36.34v16.2h10.16v-16.2a13.67 13.67 0 1 0-10.16 0zM75.19 86.91V73.24a23.83 23.83 0 0 1 47.66 0v13.67h7.22a6.65 6.65 0 0 1 6.65 6.7v49.21a6.64 6.64 0 0 1-6.65 6.64H68.02a6.64 6.64 0 0 1-6.65-6.64V93.61a6.65 6.65 0 0 1 6.65-6.7z"/></svg>