<svg data-name="图层 1" xmlns="http://www.w3.org/2000/svg" viewBox="0 0 144.38 193.29"><path d="M11.6 81.64h121.18a11.74 11.74 0 0 1 11.6 12v87.73a11.73 11.73 0 0 1-11.6 12H11.6a11.73 11.73 0 0 1-11.6-12V93.64a11.74 11.74 0 0 1 11.6-12zm54.14 58.49v18.6a1.28 1.28 0 0 0 1.29 1.33h10.32a1.29 1.29 0 0 0 1.29-1.33v-18.6a14.71 14.71 0 0 0 7.73-13.3c0-8-6.45-14.62-14.18-14.62s-14.18 6.65-14.18 14.62c0 6.65 2.58 10.64 7.73 13.29z"/><path d="M101.39 50.5c0-15.94-13.3-30.57-30.58-30.57-16 0-30.57 13.29-30.57 30.57v31.91H22.96V49.18a49.19 49.19 0 0 1 98.37 0v32.9h-18.61l-1.33-31.57z"/></svg>