<svg xmlns="http://www.w3.org/2000/svg" viewBox="0 0 200 200"><path d="M197.6 71C143.8 17.2 56.2 17.2 2.4 71c-3.2 3.2-3.2 8.3 0 11.5 3.2 3.2 8.3 3.2 11.5 0C61.4 35 138.6 35 186.1 82.5c3.2 3.2 8.3 3.2 11.5 0 3.2-3.2 3.2-8.3 0-11.5z"/><circle cx="99.2" cy="148.8" r="20.6"/><path d="M141.5 89.6c5.2-2.6 11.1-4.1 17.3-4.1 2.4 0 4.7.2 7 .6C124.4 53 63.7 55.7 25.4 94c-3.2 3.2-3.2 8.3 0 11.5 3.2 3.2 8.3 3.2 11.5 0 28.2-28.3 70.9-33.6 104.6-15.9z"/><path d="M48.3 117c-3.2 3.2-3.2 8.3 0 11.5 3.2 3.2 8.3 3.2 11.5 0 16.4-16.4 40.4-20.7 60.8-12.8 1.1-5.5 3.4-10.5 6.7-14.8-26.4-10.6-57.7-5.2-79 16.1zM189.9 101.1c-1.5-1.3-3.2-2.4-5.1-3.2-1.9-.8-3.9-1.2-5.9-1.2-2.3 0-4.4.4-6.4 1.2-1.9.8-3.6 1.8-5.1 3.2-1.4 1.3-2.6 2.9-3.4 4.7-.8 1.8-1.2 3.7-1.2 5.8v9.6h8.1v-7.8c0-2.7.7-4.8 2.1-6.3 1.4-1.5 3.3-2.2 5.6-2.2 2.6 0 4.6.7 6.1 2.2 1.5 1.5 2.3 3.6 2.3 6.3v7.7h7.8v-9.5c0-2.1-.4-4-1.3-5.8-.9-1.7-2.1-3.3-3.6-4.7zM174.6 125h-39.7c-1.1 0-2.1.4-2.9 1.2-.8.8-1.3 1.8-1.3 3v20.4c0 1.1.2 2.1.5 3 .4.9.9 1.8 1.6 2.5.7.7 1.5 1.3 2.4 1.7.9.4 2 .6 3.1.6h32.5c1.2 0 2.2-.2 3.2-.6 1-.4 1.8-1 2.5-1.7s1.3-1.6 1.7-2.6c.4-1 .6-2.1.6-3.3v-19.9c0-1.2-.4-2.2-1.2-3-.8-.9-1.8-1.3-3-1.3z"/></svg>