<svg version="1.1" id="图层_1" xmlns="http://www.w3.org/2000/svg" x="0" y="0" viewBox="0 0 200 200" xml:space="preserve"><style>.st0{fill-rule:evenodd;clip-rule:evenodd}</style><circle class="st0" cx="99.2" cy="148.8" r="20.6"/><path class="st0" d="M88.2 96.6C73.6 99 59.6 105.8 48.3 117c-3.2 3.2-3.2 8.3 0 11.5 3.2 3.2 8.3 3.2 11.5 0 5.8-5.8 12.5-10.1 19.8-12.8v.1c5.2-2 10.7-3.2 16.2-3.7l-7.6-15.5zM73.5 66.5C55.8 71.1 39.1 80.2 25.4 94c-3.2 3.2-3.2 8.3 0 11.5 3.2 3.2 8.3 3.2 11.5 0 6.6-6.6 13.9-11.9 21.8-16 0 0 .1 0 .1.1 7-3.7 14.4-6.4 22-8.1l-7.3-15zM174.9 94c-20.6-20.6-47.7-30.9-74.8-30.9l8.1 16.6c11.5 1.1 22.8 4.3 33.3 9.8 0 0 .1 0 .1-.1 7.8 4.1 15.2 9.4 21.8 16 3.2 3.2 8.3 3.2 11.5 0 3.2-3.1 3.2-8.2 0-11.4zM58.9 36.9C38.2 43.3 18.8 54.7 2.4 71c-3.2 3.2-3.2 8.3 0 11.5 3.2 3.2 8.3 3.2 11.5 0 15-15.1 33.1-25.3 52.3-30.8l-7.3-14.8zM197.6 71c-30.8-30.8-72.7-44-113-39.5l7.6 15.6c33.7-2.1 68.1 9.7 93.8 35.4 3.2 3.2 8.3 3.2 11.5 0 3.3-3.2 3.3-8.3.1-11.5z"/></svg>