<svg version="1.1" id="隔离模式" xmlns="http://www.w3.org/2000/svg" x="0" y="0" viewBox="0 0 200 200" xml:space="preserve"><style>.st1{fill-rule:evenodd;clip-rule:evenodd}</style><g id="图层_1"><circle class="st1" cx="99.2" cy="148.8" r="20.6"/><path class="st1" d="M88.2 96.6C73.6 99 59.6 105.8 48.3 117c-3.2 3.2-3.2 8.3 0 11.5 3.2 3.2 8.3 3.2 11.5 0 5.8-5.8 12.5-10.1 19.8-12.8v.1c5.2-2 10.7-3.2 16.2-3.7l-7.6-15.5zM73.5 66.5C55.8 71.1 39.1 80.2 25.4 94c-3.2 3.2-3.2 8.3 0 11.5 3.2 3.2 8.3 3.2 11.5 0 6.6-6.6 13.9-11.9 21.8-16 0 0 .1 0 .1.1 7-3.7 14.4-6.4 22-8.1l-7.3-15zM58.9 36.9C38.2 43.3 18.8 54.7 2.4 71c-3.2 3.2-3.2 8.3 0 11.5 3.2 3.2 8.3 3.2 11.5 0 15-15.1 33.1-25.3 52.3-30.8l-7.3-14.8zM197.6 71c-30.8-30.8-72.7-44-113-39.5l7.6 15.6c33.7-2.1 68.1 9.7 93.8 35.4 3.2 3.2 8.3 3.2 11.5 0 3.3-3.2 3.3-8.3.1-11.5z"/><circle cx="99.2" cy="148.8" r="20.6"/><path d="M100.1 63.1l8.1 16.6c.7.1 1.4.1 2 .2h.3c.6.1 1.2.1 1.8.2h.3c.7.1 1.3.2 2 .3.7.1 1.4.2 2.1.4.6.1 1.3.3 1.9.4.2 0 .3.1.5.1l1.5.3c.2 0 .4.1.5.1.5.1 1 .3 1.5.4.1 0 .3.1.4.1.6.2 1.3.4 1.9.5.1 0 .2.1.4.1.5.2 1 .3 1.5.5.2.1.5.2.7.2.4.1.8.3 1.2.4.3.1.5.2.8.3.4.1.8.3 1.2.4.2.1.5.2.7.3l1.5.6.9.3c.4.2.8.3 1.2.5.3.1.6.2.8.4.3.1.7.3 1 .4.3.1.6.3.9.4.3.1.6.3 1 .5.3.1.6.3.9.4.4.2.7.4 1.1.6l.6.3s.1 0 .1-.1c5.2-2.5 11-4 17.2-4 2.4 0 4.7.2 7 .6-18.7-15-41.4-22.6-64.2-23h-.2c-.2.3-.6.3-1.1.3zm65.6 38c-1.5-1.3-3.2-2.4-5.1-3.2-1.9-.8-3.9-1.2-5.9-1.2-2.3 0-4.4.4-6.4 1.2-1.9.8-3.6 1.8-5.1 3.2-1.4 1.3-2.6 2.9-3.4 4.7-.8 1.8-1.2 3.7-1.2 5.8v9.6h8.1v-7.8c0-2.7.7-4.8 2.1-6.3 1.4-1.5 3.3-2.2 5.6-2.2 2.6 0 4.6.7 6.1 2.2 1.5 1.5 2.3 3.6 2.3 6.3v7.7h7.8v-9.5c0-2.1-.4-4-1.3-5.8-1-1.7-2.2-3.3-3.6-4.7zm8.7 23.9h-39.7c-1.1 0-2.1.4-2.9 1.2-.8.8-1.3 1.8-1.3 3v20.4c0 1.1.2 2.1.5 3 .4.9.9 1.8 1.6 2.5.7.7 1.5 1.3 2.4 1.7.9.4 2 .6 3.1.6h32.5c1.2 0 2.2-.2 3.2-.6 1-.4 1.8-1 2.5-1.7s1.3-1.6 1.7-2.6c.4-1 .6-2.1.6-3.3v-19.9c0-1.2-.4-2.2-1.2-3-.8-.9-1.8-1.3-3-1.3z"/></g></svg>