<svg xmlns="http://www.w3.org/2000/svg" viewBox="0 0 200 200"><path d="M153.4 28.8H46.6c-9.8 0-17.8 8-17.8 17.8v5.9h142.5v-5.9c0-9.9-8-17.8-17.9-17.8m-31.1-11.9l2.6 18.7H75.1l2.6-18.7h44.6M123.8 5H76.2c-4.9 0-9.5 4-10.1 8.8l-3.5 24.8c-.7 4.9 2.8 8.8 7.7 8.8h59.4c4.9 0 8.4-4 7.7-8.8l-3.5-24.8C133.2 9 128.7 5 123.8 5m32.6 59.4H43.6c-6.5 0-11.4 5.3-10.8 11.8l9.7 107c.6 6.5 6.4 11.8 12.9 11.8h89.1c6.5 0 12.4-5.3 12.9-11.8l9.7-107c.7-6.5-4.2-11.8-10.7-11.8M76.2 171.2H58.4l-5.9-83.1h23.8l-.1 83.1zm35.7 0H88.1V88.1h23.8v83.1zm29.7 0h-17.8V88.1h23.8l-6 83.1z"/></svg>