<svg xmlns="http://www.w3.org/2000/svg" viewBox="0 0 199.7 199.7"><path fill="none" d="M529.4 71.3h108.2v108.4H529.4z"/><path d="M99.9-.1C44.7-.1-.1 44.7-.1 99.9s44.8 100 100 100 100-44.8 100-100c0-55.3-44.8-100-100-100zm46.2 146.2c-3.8 3.8-10 3.8-13.9 0l-32.4-32.4-32.4 32.4c-3.8 3.8-10 3.8-13.9 0-3.8-3.8-3.8-10 0-13.9L86 99.9 53.6 67.5c-3.5-3.8-3.5-9.5 0-13.3 3.7-4 9.9-4.3 13.9-.6L99.9 86l32.4-32.4c3.8-3.8 10-3.8 13.9 0 3.8 3.8 3.8 10 0 13.9l-32.4 32.4 32.4 32.4c3.8 3.8 3.8 10-.1 13.8z"/></svg>