<svg xmlns="http://www.w3.org/2000/svg" viewBox="0 0 200 200"><path fill="#fff" d="M25 55h154v82H25z"/><path d="M139.1 115.7h17.7v-11h-17.7v11zM0 38.5v115.4c0 4.2 3.7 7.7 8.3 7.7l93.4-15.4 89.9 15.4c4.6 0 8.3-3.4 8.3-7.7V38.5H0zM38.4 69c1.5 1.5 4.2 4.9 8.2 10.1.9 1.1 1.6 2 2 2.5L43 85.3c-2.8-4.7-6-9-9.6-12.9l5-3.4zm-6.7 45c3.9-5.1 7.5-12.7 10.7-22.8l5.1 5.1c-2.8 8.4-6.2 15.9-10.1 22.5l-5.7-4.8zm23.6 4c-1.9 1.9-3.2 3.3-3.9 4.2l-6.5-3.1c6.4-3.9 11.1-9.2 14.1-15.8 4.7 1.3 7 2.4 7 3.4 0 .4-.3.8-.8 1.1-1.5.8-2.9 2-4.2 3.7-1 1.3-2.9 3.5-5.7 6.5zm21.1.8c0 2.4-.9 4.3-2.8 5.6-1.3 1.1-4.6 2-9.8 2.5v-.8c-.2-2.8-1-5.2-2.5-7 3.6.8 5.9 1 7 .8 1.3-.4 2-1.5 2-3.4V98.3H59.8c-2.8 0-5.5.5-8.2 1.4l-2-6.2c2.6-.4 5.9-4.6 9.8-12.7.6-1.3 1-2.3 1.4-2.8H58c-4.9 0-8 .3-9.3.8v-6.5c1.5.4 4.7.6 9.6.6h4.5c.6-.6 1.4-2.7 2.5-6.5.6-1.9.9-3.2 1.1-3.9 4.9 1.1 7.4 2.1 7.6 2.8 0 .4-.3.8-.8 1.4-1.7 1.5-3.1 3.6-4.2 6.2h13.5c6.6 0 10.5-.2 11.8-.6v6.5C93 78.2 89 78 82.5 78H67.1c-2.8 5.3-5.6 10.3-8.4 15.2h11.5V89c0-2.8-.2-4.6-.6-5.3 4.9 0 7.4.3 7.6.8 0 .2-.1.5-.3.8-.4 1.3-.6 2.5-.6 3.7v4.2H82c5.1 0 8.2-.3 9.6-.8v6.5c-1.3-.4-4.4-.6-9.3-.6h-5.9v20.5zm13.8 2c-2.8-4.7-6.7-9.4-11.5-14.1l5.1-3.1c4.3 3.8 8.5 8.3 12.7 13.5l-6.3 3.7zm38.8-2.5c-1.3.2-3.4.6-6.2 1.1-8.8 1.5-14.4 2.5-16.9 3.1l-1.4-7c7.5-.4 15.9-1.3 25.3-2.8l-.8 5.6zm1.9-37.7c-.2.2-.5.4-.8.6-.8.6-1.4 1.2-2 2-4.5 6.4-9.1 12.8-13.8 19.4 2.3-.4 5.3-.7 9.3-1.1 2.6-.4 4.5-.7 5.6-.8l-1.1 5.9c-7.9.4-14.9 1.1-21.1 2.3l-1.1-6.2c2.3.4 6.3-3.9 12.1-12.9-5.8.4-9.8.8-12.1 1.4l-1.4-5.9c4.3-1.5 8.2-8.7 11.5-21.7 4.9 1.5 7.5 2.8 7.9 3.9 0 .4-.3.8-.8 1.1-1.1.6-2 1.4-2.5 2.5-1.9 3.2-3.9 6.6-6.2 10.1-1.3 2.1-2.2 3.5-2.5 4.2l8.7-.6c2.3-4.3 3.5-7 3.7-8.2 4.6 2.5 6.8 3.8 6.6 4zm31.8 25.8v13.2c-.2 1.9 0 4 .6 6.5h-7c.4-1.7.6-3.2.6-4.5v-1.1h-17.7v1.1c0 1.1.2 2.6.6 4.5h-7.6c.6-2.4.8-4.8.8-7v-11.8c.2-1.9 0-4.6-.6-8.2 3.2.4 5.5.6 7 .6h17.2c2.1 0 4.3-.3 6.8-.8-.7 3.3-.9 5.9-.7 7.5zm4.8-27c-3.2-.2-6.9-.4-11.3-.6h-6.5v9.6h4.5c3 0 6.2-.2 9.6-.6V94c-2.8-.4-5.9-.6-9.3-.6H141c-3.2 0-6.5.2-9.8.6v-6.2c1.7.2 4.9.4 9.6.6h3.4v-9.6H140c-5.3 0-8.6.1-10.1.3v-5.6h5.1c2.3.2 3.8.3 4.8.3h4.5v-5.9c0-1.3-.1-2.9-.3-4.8 5.1.6 7.4 1.1 7 1.7 0 .2-.1.5-.3.8-.6 1.1-.8 2.3-.8 3.7v4.5h6.8c3.6 0 7.2-.2 11-.6v6.2h-.2z" fill="#fd6969"/></svg>