<svg xmlns="http://www.w3.org/2000/svg" viewBox="0 0 200 200"><path d="M174.5 4.3h-149C11.5 4.3 0 15.7 0 29.8v85.5c0 4.2 3.4 7.7 7.7 7.7s7.7-3.4 7.7-7.7V29.8c0-5.6 4.6-10.2 10.2-10.2h148.9c5.6 0 10.2 4.6 10.2 10.2v140.4c0 5.6-4.6 10.2-10.2 10.2H75.3c-4.2 0-7.7 3.4-7.7 7.7s3.4 7.7 7.7 7.7h99.2c14.1 0 25.5-11.5 25.5-25.5V29.8c0-14.1-11.5-25.5-25.5-25.5z"/><path d="M105.2 139.9v14.7c0 4.6 5.4 7.2 9 4.3l55-44.5c2.7-2.2 2.7-6.4 0-8.6l-54.8-49.3c-3.6-2.9-9.2-.3-9.2 4.3v14.9c0 2.8-1.9 4.8-4.7 5.5C27.5 97.9 9 183.6 9.7 189.5c23.8-22.5 47.8-57.3 90.2-55 3 .1 5.4 2.4 5.3 5.4z"/></svg>