<svg xmlns="http://www.w3.org/2000/svg" viewBox="0 0 200 200"><path d="M99.8-.2C44.6-.2-.2 44.6-.2 99.8s44.8 100 100 100 100-44.8 100-100S155-.2 99.8-.2zm59 159c-7.7 7.7-16.6 13.7-26.5 17.9-7.7 3.2-15.7 5.3-23.9 6.1v-32.5H91.7v32.5c-8.4-.8-16.6-2.9-24.4-6.2-9.9-4.2-18.8-10.2-26.5-17.9-7.7-7.7-13.7-16.6-17.9-26.5-3.2-7.7-5.3-15.7-6.1-23.9h33V91.8h-33c.8-8.4 2.9-16.6 6.2-24.4 4.2-9.9 10.2-18.8 17.9-26.5 7.7-7.7 16.6-13.7 26.5-17.9 7.8-3.3 16-5.4 24.4-6.2v32.9h16.6V16.8c8.2.8 16.3 2.9 23.9 6.1 9.9 4.2 18.8 10.2 26.5 17.9 7.7 7.7 13.7 16.6 17.9 26.5 3.3 7.8 5.4 16 6.2 24.4h-32.7v16.6h32.7c-.8 8.2-2.9 16.3-6.1 23.9-4.3 10-10.3 18.9-18 26.6z"/><path d="M100.8 81.1c-11 0-19.7 8.5-19.7 19.5s8.7 19.9 19.7 19.9 19.7-8.9 19.7-19.9-8.7-19.5-19.7-19.5z"/></svg>