<svg version="1.1" id="图层_1" xmlns="http://www.w3.org/2000/svg" x="0" y="0" viewBox="0 0 200 200" xml:space="preserve"><style>.st0{fill:#ff8736}</style><path class="st0" d="M100 0C58.9 0 25.6 33.2 25.6 74.2c0 18.9 7.3 44.3 19 57.4l48.3 60.9c7.2 10 7.2 10 13.8 0l48.1-60.9c12.2-13.2 19.6-38 19.6-57.4 0-41-33.3-74.2-74.4-74.2z"/><circle cx="100" cy="74.5" r="61.5"/><path class="st0" d="M70.2 59.6c1.4 0 3.2-.1 5.4-.3 1.8-3.2 3.5-6.6 5.1-10.2l9.2 3.7c-.9 1.6-2.3 4-4.1 7.1-2.3 4.5-6.1 11.4-11.6 20.7 2-.2 5.2-.7 9.5-1.4 1.1-.2 2-.3 2.7-.3-.2 2.9-.6 6.2-1 9.9-10.2.7-17.4 1.7-21.8 3.1L61 82.7c2.7-2.7 6-7.5 9.9-14.3-2.9.2-5.8.6-8.5 1l-3.1-9.2c2.5-2.5 6.6-11.1 12.2-25.8l9.9 3.1c-4.1 8.4-7.8 15.8-11.2 22.1zm-8.9 50.3l-1.7-10.5c1.8-.2 4.3-.7 7.5-1.4 5.7-.7 12.6-1.8 20.7-3.4-.2 4.8-.3 8.3-.3 10.5-6.3 1.1-14.6 2.6-24.8 4.4-.7.3-1.1.4-1.4.4zM109.6 42h25.8v8.8c-3.4 6.3-7.8 12.1-13.3 17.3 5.2 2.5 11.4 4.4 18.7 5.8-1.4 3.4-2.7 6.9-4.1 10.5-9.5-2.7-17.3-6-23.4-9.9-6.3 4.1-13.8 7.4-22.4 9.9-1.4-3.4-2.9-6.6-4.8-9.5 7-1.8 13.4-4.1 19-6.8-2.5-2.5-4.8-5.1-6.8-7.8-1.8 2.7-3.7 5.2-5.8 7.5-2-2.5-4.3-4.9-6.8-7.1 7.2-8.2 12.7-16.9 16.3-26.2l10.2 1.7c-.2.5-.6 1.2-1 2.4-.6 1.5-1.2 2.7-1.6 3.4zm-19.4 63.5l2.7-9.2c14.5 2.3 27.9 4.8 40.1 7.5l-2.4 9.9c-13.8-3-27.2-5.7-40.4-8.2zm8.2-14.9l2.4-8.8c12.2 2 21.8 3.7 28.5 5.1l-2.4 9.5c-9-2.1-18.6-4-28.5-5.8zm5.8-38.1c2 4.1 5.1 7.6 9.2 10.5 4.8-3.4 8.3-7.2 10.5-11.6h-19.4v.3c-.2.3-.3.6-.3.8z"/></svg>