<svg version="1.1" id="图层_1" xmlns="http://www.w3.org/2000/svg" x="0" y="0" viewBox="0 0 200 200" xml:space="preserve"><style>.st0{fill:#3ba547}.st1{fill:#fff}</style><path class="st0" d="M184.1 42.8v144.5c0 7-5.6 12.6-12.6 12.6H28c-7 0-12.6-5.6-12.6-12.6V13.7c0-7 5.6-12.6 12.6-12.6h113.7"/><path class="st0" d="M184.5 42.8h-30.2c-7 0-12.6-5.6-12.6-12.6V0"/><path class="st1" d="M184.5 45.3h-30.2c-8.3 0-15.1-6.8-15.1-15.1V0h5v30.2c0 5.5 4.5 10.1 10.1 10.1h30.2v5zm0 0M172.6 131.7v47.2c0 6-4.9 10.9-10.9 10.9H38.1c-6 0-10.9-4.9-10.9-10.9v-47.2h145.4z"/><text transform="translate(38.977 182.068)" class="st0" font-size="58.477" font-family="Arial-Black">XLS</text><path class="st1" d="M133.6 36.5h-74c-2 0-4 2-4 4v64c0 2 2 4 4 4h74c2 0 4-2 4-4v-64c0-2-2-4-4-4zm0 15.3v15.3h-22V51.8h22zm-48 34V71.2h22v14.7h-22zm22 4v14.7h-22V89.8h22zm-26-4h-22V71.2h22v14.6zm26-34v15.3h-22V51.8h22zm4 19.4h22v14.7h-22V71.2zM86.3 40.5c2 0 4 2 4 4s-2 4-4 4-4-2-4-4 2-4 4-4zm-11.3 0c2 0 4 2 4 4s-2 4-4 4-4-2-4-4 2-4 4-4zm-11.4 0c2 0 4 2 4 4s-2 4-4 4-4-2-4-4 1.4-4 4-4zm0 11.3h18.7v15.3h-22V51.8h3.3zm-4 38h22v14.7h-22V89.8zm52 14.7V89.8h22v14.7h-22zm0 0"/></svg>