<svg xmlns="http://www.w3.org/2000/svg" viewBox="0 0 200 200"><path d="M123.2 32.3c.7 1.3 1.5 2.5 2.6 3.6 1 1 2.4 1.5 3.8 1.5h30.2v-3.2c0-1-.1-2-.4-3-.4-1.4-1.2-2.8-2.2-3.9-1.5-2-3.2-3.8-5-5.6-2.2-2.2-5.1-4.9-8.8-8.1s-6.2-5.5-8.2-7.1c-2-1.6-4.2-3.2-5.7-4.2-1.2-.8-2.6-1.5-4-1.9-1.2-.1-2.3-.1-3.5 0h-.4v23.8c0 1.2.2 2.3.6 3.5.3 1.4.8 2.8 1.5 4l-.5.6z"/><path d="M129.8 49.9c-3.4.1-6.8-.8-9.8-2.5-2.7-1.5-4.9-3.6-6.7-6.1-1.7-2.5-3-5.2-3.8-8.1-.8-2.6-1.2-5.3-1.2-8.1V0H30c-3.3-.1-6.5.8-9.3 2.5-2.9 1.7-5.4 3.7-7.7 6.1-2.2 2.4-4 5.1-5.3 8.1-1.3 2.8-1.9 5.9-1.9 9v136c0 3.4.9 6.7 2.7 9.6 1.8 3 4 5.7 6.6 8.1 2.6 2.3 5.5 4.2 8.6 5.7 2.5 1.3 5.3 2 8.1 2.2h56.6l39.8-40.4c-2.1 1.7-4.8 2.5-7.5 2.4H44.1c-3.4.1-6.6-1.2-9-3.6-2.3-2.1-3.7-5.1-3.7-8.2-.1-3.4 1.3-6.6 3.7-8.9 2.3-2.5 5.6-3.8 9-3.7H121c3.4-.1 6.7 1.3 9.1 3.7 2.5 2.3 3.8 5.5 3.8 8.9 0 2.5-.8 4.9-2.3 7l28.1-28.4V49.9h-29.9zm0 46.3c-2.5 2.3-5.7 3.6-9.1 3.6H44.1c-3.3.1-6.6-1.2-9-3.6-2.4-2.3-3.8-5.5-3.7-8.8-.1-3.4 1.3-6.6 3.7-8.9 2.4-2.4 5.6-3.7 9-3.6H121c3.4-.1 6.7 1.2 9.1 3.6 2.5 2.3 3.8 5.5 3.8 8.9 0 3.3-1.3 6.5-3.8 8.8h-.3zM194.2 135.1c-.1-1.4-.4-2.7-.8-4-.9-2-2.1-3.7-3.6-5.3-1.2-1.4-2.7-2.6-4.4-3.5-1.5-.8-3.1-1.2-4.8-1.3-1.9-.2-3.9.5-5.3 1.9l-2.6 2.2c-.9.9-1.8 1.7-2.7 2.4l17.4 16.8 1.5-1.2 1.5-1.5 1.9-1.9c1.2-1.2 2-2.9 1.9-4.6zm-51 18.5l-7.4 7.3-6.8 6.7-5.1 5-2.7 2.6c-1.4 1.3-2.5 2.8-3.3 4.5-.4 1-.8 2-1.1 3.1l-1.5 4.7-1.5 4.9c-.4 1.6-.6 2.8-.8 3.6-.3 1.1-.2 2.4.4 3.4.6.6 1.6.9 3.3.6 1.2-.2 2.4-.5 3.6-.9 1.8-.4 3.5-.8 5.2-1.4 1.8-.5 3.5-1.1 5.3-1.7l4.3-1.9 2.4-1.5 2.3-1.7 2.2-2.2 4.8-4.8 6.8-6.6 7.4-7.2 19.9-19.3-17.2-16.8-20.5 19.6z"/></svg>