<svg xmlns="http://www.w3.org/2000/svg" viewBox="0 0 200 200"><path d="M185.7 0H32.2c-7.9 0-14.3 7.1-14.3 15.8v33.5H9c-5 0-9 3.7-9 8.2 0 4.5 4 8.2 9 8.2h9v68.5H9c-5 0-9 3.7-9 8.2 0 4.5 4 8.2 9 8.2h9v33.6c0 8.7 6.4 15.8 14.3 15.8h153.5c7.9 0 14.3-7.1 14.3-15.8V15.8C200 7.1 193.6 0 185.7 0zm-7.6 168.6H47.9V151l41.2-27.1 7.2-4.7v-1.8H71.5V68.5c0-20.5 18.6-37.1 41.5-37.1s41.5 16.6 41.5 37.1v48.8h-24.8v1.8l48.5 32v17.5zm-83.2-18.8c11.9 11.5 18-6 18-6s6.1 17.4 18 6c0 0 5.2-3.4 5.8-26l-23.8 20-23.8-20c.6 22.7 5.8 26 5.8 26z"/></svg>