<svg xmlns="http://www.w3.org/2000/svg" viewBox="0 0 200 200"><path d="M100 0C44.8 0 0 44.8 0 100s44.8 100 100 100 100-44.8 100-100S155.2 0 100 0zM41.5 89.3c.7-4.4 1.8-8.7 3.6-12.8 8.9-22.3 30.7-37 55-36.9 29.1 0 54.2 21.4 58.5 49.7 0 1.6-1 3.4-4 3.4s-3.7-1.3-3.9-2.9c-3.9-25.6-24.3-42.7-50.6-42.7-21.7.2-38.3 10.6-46.6 30.2l3.8-1.3c1.3-.3 2.5.4 3.1 1.5s.3 2.5-.8 3.4L46 91.9c-.6.4-1.5.7-2.2.6-.7-.1-1.4-.5-1.8-1.1-.5-.6-.7-1.3-.5-2.1zm79.3 1.3v5.7h-17v9.4h17v5.7h-17v18.9h-5.7v-18.9h-17v-5.7h17v-9.4h-17v-5.7H95L81.1 69.8h7.6L101 88.2l12.3-18.4h7.5l-13.9 20.8h13.9zm37.7 20c-.6 4.5-1.8 8.8-3.5 12.9-8.9 22.3-30.7 37-55 36.9-29.1 0-54.2-21.4-58.5-49.7 0-1.6 1-3.4 3.9-3.4s3.7 1.3 3.9 2.9c3.9 25.6 24.3 42.7 50.6 42.7 21.7-.2 38.4-10.6 46.7-30.2l-3.8 1.3c-1.3.3-2.5-.4-3.1-1.5s-.3-2.5.8-3.4l13.5-11c.6-.4 1.5-.7 2.2-.6.7.1 1.4.5 1.8 1 .5.7.7 1.4.5 2.1z"/></svg>