<svg xmlns="http://www.w3.org/2000/svg" viewBox="0 0 200 200"><path d="M188.4 111.8c-1.2-.2-2.5.2-3.5.9L163.7 130c-1.6 1.3-2.1 3.5-1.2 5.3.9 1.8 2.9 2.8 4.9 2.4l5.9-2.1c-13.1 30.8-39.3 47.2-73.4 47.5-41.3 0-73.3-26.9-79.5-67.2-.4-2.4-1.5-4.5-6.2-4.5S8 114.3 8 116.8c6.8 44.6 46.3 78.2 92 78.2 38.2.1 72.5-22.9 86.5-58 2.6-6.5 4.5-13.3 5.5-20.3.2-1.2-.1-2.3-.8-3.3-.6-.8-1.7-1.5-2.8-1.6zM11.6 88.2c1.2.2 2.5-.2 3.5-.9L36.3 70c1.6-1.3 2.1-3.5 1.2-5.3-.9-1.8-2.9-2.8-4.9-2.4l-5.9 2.1C39.8 33.6 65.9 17.2 100 16.9c41.3 0 73.3 26.9 79.5 67.2.4 2.4 1.5 4.5 6.2 4.5 4.8 0 6.3-2.9 6.3-5.4C185.2 38.6 145.7 5 100 5c-38.2-.1-72.5 22.9-86.5 58-2.7 6.5-4.5 13.3-5.6 20.2-.2 1.2.1 2.3.8 3.3.7.9 1.8 1.6 2.9 1.7zm109.2-35.7l-19.3 28.9-19.3-28.9H70.3l21.8 32.7H70.3v8.9H97v14.8H70.3v8.9H97v29.7h8.9v-29.7h26.7v-8.9h-26.7V94.1h26.7v-8.9h-21.8l21.8-32.7h-11.8z"/></svg>