<svg data-name="图层 1" xmlns="http://www.w3.org/2000/svg" viewBox="0 0 185.7 199.62"><defs><clipPath id="a" transform="translate(-7.03 -.15)"><path fill="none" d="M7.06 0h185.87v200H7.06z"/></clipPath></defs><g clip-path="url(#a)"><path d="M170.8 38.31L138.05 5.24C134.77 2.45 129.7 0 125.28 0H14.74A14.89 14.89 0 0 0-.03 14.73v161.3a14.89 14.89 0 0 0 14.74 14.74v-.33h100.74a42.53 42.53 0 0 1-11.13-28.82c0-23.58 20-43.56 44.37-43.56a44 44 0 0 1 27.51 9.66V50.6c-.16-3.61-2.45-9.5-5.4-12.29zM28.33 35.85h66.32a5.24 5.24 0 0 1 0 10.48H28.33c-3.27 0-5.24-2-5.24-5.24a5.39 5.39 0 0 1 5.24-5.24zm88.27 69.92H28.33a5.24 5.24 0 1 1 0-10.48h88.27a5.24 5.24 0 1 1 0 10.48zm32.75-30h-121c-3.27 0-5.24-2-5.24-5.24a5.39 5.39 0 0 1 5.24-5.24h121a5.24 5.24 0 1 1 0 10.48zm8.68-21.12h-21.46c-8 0-14.73-6.71-14.73-14.41V18.66c0-4.74 2.45-5.24 5.24-2.45l33.57 33.08c2.62 2.94 1.8 5.4-2.62 5.4zm0 0"/></g><path d="M148.53 125.27a37.17 37.17 0 0 0 0 74.34c20.79 0 36.68-16.37 37.17-37.17a36.83 36.83 0 0 0-37.17-37.17zm22.76 36.35l-8 7.53.81 10.32c0 1.64 0 2.46-1.63 3.6-.82 0-.82.82-2.46.82a2.54 2.54 0 0 1-1.64-.82l-9.68-5.22-9.33 5.41a4.13 4.13 0 0 1-4.42-.82 6.1 6.1 0 0 1-1.64-3.6l2.46-11.14-8-7.53c-1.64-.82-2.45-2.46-1.64-3.6.82-1.64 2.46-2.79 3.61-2.79l10.24-1.66 5.24-9.66c1.64-2.78 6.06-2.78 7.54 0l5.24 9.66 10.31 1.64a12.29 12.29 0 0 1 3.6 2.79c.17 1.47.17 3.93-.65 5.07zm0 0"/></svg>