<svg xmlns="http://www.w3.org/2000/svg" viewBox="0 0 200.2 200"><path d="M142.7 43.8H95.3c-3.4 0-6.1 2.7-6.1 6.1 0 3.4 2.7 6.1 6.1 6.1h47.4c3.4 0 6.1-2.7 6.1-6.1s-2.7-6.1-6.1-6.1zM68.7 43.8H55.4c-3.4 0-6.1 2.7-6.1 6.1 0 3.4 2.7 6.1 6.1 6.1h13.3c3.4 0 6.1-2.7 6.1-6.1s-2.7-6.1-6.1-6.1zM142.7 71.8H95.3c-3.4 0-6.1 2.7-6.1 6.1s2.7 6.1 6.1 6.1h47.4c3.4 0 6.1-2.7 6.1-6.1s-2.7-6.1-6.1-6.1zM68.7 71.8H55.4c-3.4 0-6.1 2.7-6.1 6.1S52 84 55.4 84h13.3c3.4 0 6.1-2.7 6.1-6.1s-2.7-6.1-6.1-6.1zM113.4 99.8H95.9c-3.4 0-6.1 2.7-6.1 6.1s2.7 6.1 6.1 6.1h17.4c3.4 0 6.1-2.7 6.1-6.1s-2.7-6.1-6-6.1zM69.4 99.8H56.1c-3.4 0-6.1 2.7-6.1 6.1s2.7 6.1 6.1 6.1h13.3c3.4 0 6.1-2.7 6.1-6.1s-2.8-6.1-6.1-6.1zM180.3 133.5c-.7-2.2-2.6-3.8-4.9-4.1l-22-3.2-9.8-19.9c-1-2.1-3.1-3.4-5.4-3.4-2.3 0-4.4 1.3-5.4 3.4l-9.8 19.9-22 3.2c-2.3.3-4.2 1.9-4.9 4.1-.7 2.2-.1 4.6 1.5 6.2l15.9 15.5-3.8 21.9c-.4 2.3.6 4.6 2.4 5.9 1.9 1.4 4.3 1.5 6.4.5l19.7-10.3 19.7 10.4c.9.5 1.9.7 2.8.7 1.3 0 2.5-.4 3.6-1.2 1.9-1.4 2.8-3.7 2.4-5.9l-3.8-21.9 15.9-15.5c1.6-1.7 2.2-4.1 1.5-6.3zm-28.2 15.2c-1.4 1.4-2.1 3.4-1.7 5.4l2.2 12.9-11.6-6.1c-.9-.5-1.9-.7-2.8-.7-1 0-1.9.2-2.8.7l-11.6 6.1 2.2-12.9c.3-2-.3-4-1.7-5.4l-9.4-9.2 13-1.9c2-.3 3.7-1.5 4.6-3.3l5.8-11.8 5.8 11.8c.9 1.8 2.6 3 4.6 3.3l13 1.9-9.6 9.2z"/><g><path d="M162.4 14.8h-127c-11 0-20 9-20 20v130c0 11 9 20 20 20H97l2.9-12H35.4c-4.3 0-8-3.7-8-8v-130c0-4.3 3.7-8 8-8h127c4.3 0 8 3.7 8 8v84.7l12 1.8V34.8c0-11-9-20-20-20z"/></g></svg>