<svg xmlns="http://www.w3.org/2000/svg" viewBox="0 0 200.2 200"><path d="M184.5 115.5H73.4c-8.6 0-15.6-6.9-15.6-15.5s7-15.5 15.6-15.5h111.1c8.6 0 15.5 6.9 15.5 15.5s-6.9 15.5-15.5 15.5zm0-62H73.4c-8.6 0-15.6-6.9-15.6-15.5s7-15.5 15.6-15.5h111.1c8.6 0 15.5 6.9 15.5 15.5.1 8.5-6.9 15.5-15.5 15.5zM32.6 168.2l2.3 11.8v.5c0 .3-.1.6-.2.8-.2.2-.4.3-.8.3-.3 0-.7-.1-1-.3L21.4 176l-11.3 5.7c-.4.2-.7.3-1 .3-.4 0-.6-.1-.8-.3-.2-.2-.3-.5-.3-.8v-.5l2-11.8-9.4-8.3c-.4-.4-.6-.8-.6-1.1 0-.6.5-.9 1.4-1.1l12.7-1.9 5.6-10.8c.3-.6.7-1 1.2-1s.9.3 1.3.9l5.9 10.7 12.8 1.6c.9.1 1.4.5 1.4 1.1 0 .3-.2.7-.6 1.1l-9.1 8.4zm0-64.2l2.3 11.8v.5c0 .3-.1.6-.2.8-.2.2-.4.3-.8.3-.3 0-.7-.1-1-.3l-11.5-5.4-11.3 5.7c-.4.2-.7.3-1 .3-.4 0-.6-.1-.8-.3-.2-.2-.3-.5-.3-.8v-.5l2-11.8L.7 96c-.4-.4-.6-.8-.6-1.1 0-.6.5-.9 1.4-1.1l12.7-1.9 5.6-10.8c.3-.7.7-1 1.2-1s.9.3 1.3.9l5.9 10.7L41 93.3c.9.1 1.4.5 1.4 1.1 0 .3-.2.7-.6 1.1l-9.2 8.5zm0-62.1l2.3 11.8v.5c0 .3-.1.6-.2.8-.2.2-.4.4-.8.4-.3 0-.7-.1-1-.3l-11.5-5.4-11.3 5.7c-.4.2-.7.3-1 .3-.4 0-.6-.1-.8-.3-.2-.3-.3-.5-.3-.9V54l2-11.8-9.4-8.3c-.4-.4-.6-.8-.6-1.1 0-.6.5-.9 1.4-1.1l12.7-1.9L19.8 19c.3-.6.7-1 1.2-1s.9.3 1.3.9l5.9 10.7L41 31.2c.9.1 1.4.5 1.4 1.1 0 .3-.2.7-.6 1.1l-9.2 8.5zm40.8 106.8h111.1c8.6 0 15.6 6.9 15.6 15.5s-7 15.5-15.6 15.5H73.4c-8.6 0-15.6-6.9-15.6-15.5s7-15.5 15.6-15.5z"/></svg>