<svg data-name="图层 1" xmlns="http://www.w3.org/2000/svg" viewBox="0 0 199.84 186.94"><defs><clipPath id="a" transform="translate(.03 -6.48)"><path fill="none" d="M0 6.35h200v187.3H0z"/></clipPath></defs><g clip-path="url(#a)"><path d="M189.44 17.9c0-9.58-7.5-17.9-17.07-17.9H17.03c-9.54 0-17 7.91-17 17.9v20h189.41v-20m-37.47 60.37a55 55 0 0 1 37.88 15V64.11H.03v74.53a17.23 17.23 0 0 0 17 17.48h80.39a67.57 67.57 0 0 1-2.91-18.32c.42-32.89 25.81-59.53 57.46-59.53m44.13 40.38a49.76 49.76 0 0 0-10.41-15.82c-4.16-4.58-9.58-7.91-15.41-10.82a46.44 46.44 0 0 0-18.31-3.75 47 47 0 0 0-18.74 3.75 49.23 49.23 0 0 0-15.4 10.82 52 52 0 0 0-10.41 15.82 49.06 49.06 0 0 0-3.75 19.15 47.64 47.64 0 0 0 3.75 19.16 49.59 49.59 0 0 0 10.41 15.82 43.82 43.82 0 0 0 15.4 10.41 47.19 47.19 0 0 0 18.74 3.74 45.12 45.12 0 0 0 18.31-3.74 55.94 55.94 0 0 0 15.41-10.41 52.41 52.41 0 0 0 10.41-15.82 50.92 50.92 0 0 0 0-38.31m-15.82 43.72c-2.92-8.33-10.83-14.57-20-14.57v22.06a5.51 5.51 0 0 1-5.41 5.42 5.77 5.77 0 0 1-4.58-2.5l-29.56-30.81a5.12 5.12 0 0 1-2.08-4.17 4 4 0 0 1 1.66-3.74L151.12 102a4.75 4.75 0 0 1 3.33-1.25 5.51 5.51 0 0 1 5.42 5.41v16.66c13.32 0 24.14 11.24 24.14 25.39a24.18 24.18 0 0 1-3.74 14.16"/></g></svg>