<svg xmlns="http://www.w3.org/2000/svg" viewBox="0 0 200 200"><path d="M67.2 160.6c-1.6-5.4-2.7-11-2.7-16.8 0-2.7.6-5.3.9-8-34.5-4-59.5-15.4-59.5-31.9V125c0 16.7 25.9 30.8 61.3 35.6zM156.9 76c15.3-6.7 24.7-15.9 24.7-26V37.5C181.6 16.8 142.3 0 93.8 0S5.9 16.8 5.9 37.5V50c0 20.7 39.3 37.5 87.8 37.5 1.9 0 3.6-.2 5.5-.3C112.3 79.6 128 75 145 75c4.1 0 8 .5 11.9 1z"/><path d="M68.6 123.2c3.2-8.8 8.4-16.7 15.1-23.6C40 98 5.9 85.6 5.9 66.4v21.1c0 16.9 26.5 31.1 62.7 35.7zM75.5 178c-.8-1.3-1.7-2.6-2.4-3.9-38.5-3.1-67.2-15-67.2-32.7v21.1c0 5.5 2.8 10.8 7.8 15.5 13.8 13 44.5 22 80 22 1.7 0 3.2-.2 4.9-.2-9.5-5.7-17.3-13.2-23.1-21.8zM105.2 136.5h88.9v17.8h-88.9v-17.8z"/></svg>