<svg xmlns="http://www.w3.org/2000/svg" viewBox="0 0 199.9 200"><path d="M143.5 141.8c.6 0 1.1-.2 1.5-.5l-1.7.5h.2zM100 0C44.7 0 0 44.8 0 100s44.8 100 100 100 100-44.8 100-100S155.2 0 100 0zM48 116.5c-1.7-.1-3-1.5-2.9-3.2V112v-.1c0-1.6 1.3-3.1 3-3.1h25.8l-.6-.4c-1.5-.9-1.9-2.8-1.1-4.3l.6-1.2c0-.1 0-.1.1-.2.8-1.4 2.7-1.8 4-1l10.5 6.4 1.6 1c1.9 1.9 1.9 4.8.2 6.7l-1.9 1.2-10.6 6.4c-.1.1-.1.1-.2.1-1.4.8-3.2.2-3.9-1.2l-.6-1.2c-.8-1.5-.3-3.4 1.1-4.3l.6-.4H48v.1zm102.9-62.8V143.6c0 1.7-1.4 3.1-3.2 3.1h-22.1l-26 7.2c-1 .3-1.8-.7-1.8-2.3v-4.9H62.9c-1.7 0-3.1-1.4-3.1-3.1v-19.5h4.5v14.8c0 1.5 1.2 2.8 2.8 2.8h30.6V68.6c0-1.6.8-3.1 1.8-3.4l44-12.2H67.1c-1.6 0-2.8 1.2-2.8 2.8v45.4h-4.5v-50c0-1.8 1.4-3.2 3.2-3.2h84.7c1.8 0 3.2 1.4 3.2 3.2v2.5z"/></svg>