<svg xmlns="http://www.w3.org/2000/svg" viewBox="0 0 200 200"><path d="M169.2 0H30.8C13.8 0 0 13.8 0 30.8v138.5C0 186.2 13.8 200 30.8 200h138.5c16.9 0 30.8-13.8 30.8-30.8V30.8C200 13.8 186.2 0 169.2 0zm-30.7 146.2c0 4.3-3.4 7.7-7.7 7.7h-77c-4.3 0-7.7-3.4-7.7-7.7 0-4.3 3.4-7.7 7.7-7.7h76.9c4.4 0 7.8 3.3 7.8 7.7zM46.2 100c0-4.3 3.4-7.7 7.7-7.7h61.5c4.3 0 7.7 3.4 7.7 7.7s-3.4 7.7-7.7 7.7H53.8c-4.3 0-7.6-3.4-7.6-7.7zm100-38.5H53.8c-4.3 0-7.7-3.4-7.7-7.7s3.4-7.7 7.7-7.7h92.3c4.3 0 7.7 3.4 7.7 7.7s-3.3 7.7-7.6 7.7z"/></svg>