<svg version="1.1" id="图层_1" xmlns="http://www.w3.org/2000/svg" x="0" y="0" viewBox="0 0 200 200" xml:space="preserve"><style>.st0{fill:#77bf22}</style><path class="st0" d="M153.2 169.6V116h14.6v53.6c0 8.1-6.5 14.6-14.6 14.6H41.3c-8.1 0-14.5-6.5-14.5-14.6V116h14.5v53.6h111.9zm1.6-107.1L99 15.4 21.8 77.1H3v14.6h23.6L99 35l43.7 36.5 12.1-9z"/><path class="st0" d="M91.6 158.7v-17H66.1v-8.4h25.4v-7.6l-1.9-3.8H66.1v-8.4h19.6L68.6 85.2h11.8l16.5 28.2 16.9-28.2h11.8l-16.8 28.2h19.6v8.4h-23.6l-1.8 3.8v7.6h25.5v8.4H103v17.1H91.6zM186 83.9c3.4 2 7.7 7.6 9.4 14.2 1.7 6.6 1.5 12.6 1.5 12.6s-2.2-3.7-3.2-4.9c-.9-1.3-4.8-6-10.8-8.8-6-2.8-16-2.2-16-2.2v11.5l-27.6-19.6L166.9 67v11.6s6.6.5 10.1 1.3c5.8 1.1 9 4 9 4z"/><path d="M3 15.5h194v169.1H3z"/></svg>