<svg version="1.1" id="图层_1" xmlns="http://www.w3.org/2000/svg" x="0" y="0" viewBox="0 0 200 200" xml:space="preserve"><style>.st0{fill:#55a9f1}</style><path class="st0" d="M160.3 87.6c-4.6-1.2-9.4-1.8-14.1-1.8V43.3c0-3.7-1.5-7.3-4.2-10-2.6-2.6-6.3-4.2-10-4.2H47c-3.7 0-7.3 1.5-10 4.2-2.6 2.6-4.2 6.3-4.2 10v113.3c0 3.7 1.5 7.3 4.2 10 2.6 2.6 6.3 4.2 10 4.2h50.1c3.1 5.4 7 10.1 11.6 14.1H47c-15.7 0-28.3-12.7-28.3-28.3V43.3C18.7 27.7 31.3 15 47 15h85c15.7 0 28.3 12.7 28.3 28.3v44.3z"/><path class="st0" d="M54.1 57.5h70.8c2.6 0 4.9 1.4 6.1 3.6 1.3 2.2 1.3 4.9 0 7.1-1.3 2.2-3.6 3.6-6.1 3.6H54.1c-2.6 0-4.9-1.4-6.1-3.6a6.95 6.95 0 0 1 0-7.1c1.2-2.3 3.5-3.6 6.1-3.6zm0 35.4h42.5c3.9 0 7.1 3.1 7.1 7.1 0 3.9-3.1 7.1-7.1 7.1H54.1c-2.6 0-4.9-1.4-6.1-3.6a6.95 6.95 0 0 1 0-7.1c1.2-2.1 3.5-3.5 6.1-3.5zm0 35.4h21.3c2.6 0 4.9 1.4 6.1 3.6 1.3 2.2 1.3 4.9 0 7.1-1.3 2.2-3.6 3.6-6.1 3.6H54.1c-2.6 0-4.9-1.4-6.1-3.6s-1.3-4.9 0-7.1c1.2-2.2 3.5-3.6 6.1-3.6zm85.9 54.2c-22.7 0-41.2-18.8-41.2-41.9a6.7 6.7 0 0 1 13.4 0c0 15.7 12.4 28.5 27.8 28.5 3.9 0 7.7-.9 11.2-2.5 3.4-1.5 7.3 0 8.9 3.3 1.5 3.4 0 7.3-3.3 8.9-5.3 2.5-11 3.7-16.8 3.7zm34.5-35.1c-3.7 0-6.7-3-6.7-6.7 0-15.7-12.4-28.5-27.8-28.5-3.7 0-7.2.8-10.6 2.1-3.4 1.4-7.3-.2-8.8-3.6-1.4-3.4.2-7.3 3.6-8.8 5-2.1 10.4-3.2 15.9-3.2 22.7 0 41.2 18.8 41.2 41.9-.1 3.7-3.1 6.8-6.8 6.8z"/><path class="st0" d="M128.5 123.9H117c-2.3 0-4.4-1.2-5.7-3.1-1.2-2-1.4-4.4-.3-6.5l5.8-11.7c1.1-2.3 3.5-3.7 6-3.7s4.9 1.4 6 3.7l5.8 11.7c1 2 .9 4.5-.3 6.5-1.3 1.9-3.5 3.1-5.8 3.1zm28.7 60.5h-.3c-2.3-.1-4.4-1.4-5.6-3.3l-5.8-10c-1.2-2-1.2-4.4-.1-6.5 1.1-2 3.1-3.4 5.4-3.6l13-.9c2.6-.2 4.9 1.1 6.3 3.3 1.3 2.2 1.2 4.9-.3 7.1l-7.3 10.8c-1.1 2-3.1 3.1-5.3 3.1z"/></svg>