<svg version="1.1" id="图层_1" xmlns="http://www.w3.org/2000/svg" x="0" y="0" viewBox="0 0 200 200" xml:space="preserve"><style>.st0{fill:#77bf22}</style><path class="st0" d="M69.4 113.2c-25.1 0-45.7-20.5-45.7-45.7 0-25.1 20.5-45.7 45.7-45.7 25.1 0 45.7 20.5 45.7 45.7 0 25.2-20.1 45.7-45.7 45.7zm0-80.3c-19.2 0-34.7 15.5-34.7 34.7 0 19.2 15.5 34.7 34.7 34.7s34.7-15.5 34.7-34.7c0-19.2-15.5-34.7-34.7-34.7zm0 0"/><path class="st0" d="M133.3 178.1c-3.2 0-5.5-2.3-5.5-5.5 0-32.9-26-59.4-58.4-59.4-32 0-58.4 26.5-58.4 59.4 0 3.2-2.3 5.5-5.5 5.5S0 175.8 0 172.6c0-38.8 31.1-70.3 69.4-70.3 38.4 0 69.4 31.5 69.4 70.3 0 3.2-2.3 5.5-5.5 5.5zm0-65.3c-3.2 0-5.5-2.3-5.5-5.5s2.3-5.5 5.5-5.5c18.3 0 32.9-14.6 32.9-32.9 0-18.3-14.6-32.9-32.9-32.9-3.7 0-7.3.5-11 1.8-2.7.9-5.9-.5-6.8-3.2-.9-2.7.5-5.9 3.2-6.8 4.6-1.8 9.6-2.3 14.6-2.3 24.2 0 43.8 19.6 43.8 43.8.1 23.9-19.6 43.5-43.8 43.5zm0 0"/><path class="st0" d="M194.5 174.9c-3.2 0-5.5-2.3-5.5-5.5 0-31.1-24.7-56.2-55.3-56.2-3.7 0-7.8.5-11.4 1.4-3.2.5-5.9-1.4-6.4-4.1-.5-2.7 1.4-5.9 4.1-6.4 4.6-.9 9.1-1.4 13.7-1.4 36.5 0 66.2 30.1 66.2 67.1.1 2.3-2.6 5.1-5.4 5.1zm0 0"/></svg>