<svg xmlns="http://www.w3.org/2000/svg" viewBox="0 0 200 200"><path d="M181.1 110.8c-1.1-.2-2.3.2-3.2.9l-19.4 15.8c-1.5 1.1-1.9 3.2-1.1 4.8.8 1.7 2.7 2.6 4.5 2.2l5.4-1.9c-12.1 28.3-36.1 43.4-67.4 43.7-38 0-67.4-24.7-73-61.8-.4-2.2-1.3-4.1-5.8-4.1s-5.8 2.7-5.8 5c6.2 40.9 42.6 71.8 84.6 71.8 35.1.1 66.6-21 79.5-53.3 2.4-5.9 4.1-12.3 5.1-18.6.2-1.1-.1-2.1-.8-3-.6-.8-1.5-1.4-2.6-1.5zM18.7 89.2c1.1.2 2.3-.2 3.1-.9l19.5-15.8c1.5-1.1 1.9-3.2 1-4.8-.7-1.7-2.6-2.7-4.3-2.3l-5.4 1.9c12-28.2 36.1-43.3 67.3-43.6 38 0 67.4 24.7 73 61.8.3 2.2 1.3 4.1 5.8 4.1 4.4 0 5.8-2.7 5.8-5-6.2-40.9-42.6-71.8-84.6-71.8-35-.2-66.5 21-79.5 53.2-2.5 5.9-4.1 12.3-5.1 18.6-.2 1.1.1 2.2.8 3 .6.9 1.6 1.4 2.6 1.6zM119 56.3l-17.8 26.6-17.7-26.6H72.6l20 30h-20v8.2h24.6v13.6H72.6v8.2h24.6v27.3h8.2v-27.3H130v-8.2h-24.6V94.6H130v-8.2h-20l20-30c0-.1-11-.1-11-.1z"/><path d="M15.3 12.5h169.4v175H15.3z"/></svg>