<svg version="1.1" id="图层_1" xmlns="http://www.w3.org/2000/svg" x="0" y="0" viewBox="0 0 200 200" xml:space="preserve"><style>.st1{fill:#55a9f1}</style><path d="M15.3 12.5h169.4v175H15.3z"/><path class="st1" d="M187.5 80.8v-15s-25 21.3-25 40c0 15 11.3 26.3 11.3 26.3v33.8c0 3.8-2.5 6.2-6.2 6.2H30c-1.2 0-5-2.5-5-6.2v-32.5c1.2-1.2 12.5-15 12.5-27.5 0-15-11.3-27.5-11.3-27.5V45.8c0-3.8 2.5-6.2 6.2-6.2h80l11.3-13.7H31.2c-13.7 0-18.7 10-18.7 19.9v32.5c0 10.1 12.5 13.8 12.5 27.6s-12.5 20-12.5 27.5v32.5c0 11.3 7.5 18.7 18.7 18.7h136.2c11.3 0 18.7-8.8 18.7-18.7V132c0-8.8-11.3-16.3-11.3-26.3.2-11 12.7-19.8 12.7-24.9z"/><path class="st1" d="M56.3 153.4h87.5c3.8 0 6.2-2.5 6.2-6.2 0-3.8-2.5-6.2-6.2-6.2H56.3c-3.8 0-6.2 2.5-6.2 6.2-.1 3.6 2.4 6.2 6.2 6.2zm81.2-43.8c0 3.8 2.5 6.2 6.2 6.2 3.8 0 6.2-2.5 6.2-6.2 0-3.8-2.5-6.2-6.2-6.2s-6.2 2.5-6.2 6.2zM56.3 78.4h12.5c3.8 0 6.2-2.5 6.2-6.2 0-3.8-2.5-6.2-6.2-6.2H56.3c-3.8 0-6.2 2.5-6.2 6.2s2.4 6.2 6.2 6.2zm0 37.4h12.5c3.8 0 6.2-2.5 6.2-6.2 0-3.8-2.5-6.2-6.2-6.2H56.3c-3.8 0-6.2 2.5-6.2 6.2-.1 3.8 2.4 6.2 6.2 6.2zm30 0H120l61.2-60c2.5-2.5 5-6.2 6.2-11.3 0-5-1.2-8.8-3.8-12.5L170 18.4c-3.8-2.5-7.5-3.8-12.5-2.5-3.8 0-8.8 2.5-11.3 6.2L86.3 82.2v33.6zm12.5-28.7L155 29.7c1.2-1.2 2.5-1.2 3.8-1.2h2.5L175 42.2v2.5c0 1.2-1.2 2.5-2.5 3.8l-57.5 55H98.8V87.1z"/></svg>