<svg xmlns="http://www.w3.org/2000/svg" viewBox="0 0 200 200"><path d="M158.1 87.2c-4.7-1.2-9.6-1.8-14.5-1.8V41.7c0-3.9-1.6-7.5-4.3-10.3-2.7-2.7-6.5-4.3-10.3-4.3H41.6c-3.8 0-7.5 1.6-10.3 4.3-2.7 2.7-4.3 6.5-4.3 10.3v116.5c0 3.8 1.6 7.5 4.3 10.3 2.7 2.7 6.5 4.3 10.3 4.3h51.5c3.1 5.5 7.2 10.4 11.9 14.5H41.6c-16.1 0-29.1-13-29.1-29.1V41.7c.1-16.1 13.1-29.1 29.1-29.1H129c16.1 0 29.1 13 29.1 29.1v45.5zM49 56.3h72.8c2.6 0 5 1.4 6.3 3.7 1.3 2.3 1.3 5 0 7.3s-3.7 3.7-6.3 3.7H49c-2.6 0-5-1.4-6.3-3.7s-1.3-5 0-7.3c1.2-2.4 3.7-3.7 6.3-3.7zm0 36.4h43.7c4 0 7.3 3.2 7.3 7.3s-3.2 7.3-7.3 7.3H49c-2.6 0-5-1.4-6.3-3.7s-1.3-5 0-7.3c1.2-2.3 3.7-3.6 6.3-3.6zm0 36.4h21.9c2.6 0 5 1.4 6.3 3.7 1.3 2.3 1.3 5 0 7.3s-3.7 3.7-6.3 3.7H49c-2.6 0-5-1.4-6.3-3.7-1.3-2.3-1.3-5 0-7.3 1.2-2.4 3.7-3.7 6.3-3.7zm94.6 58.2c-24.2 0-43.7-19.5-43.7-43.7s19.5-43.7 43.7-43.7 43.7 19.5 43.7 43.7c-.1 24.1-19.6 43.7-43.7 43.7zm0-14.6c10.4 0 20-5.5 25.2-14.5 5.2-9 5.2-20.1 0-29.1s-14.8-14.5-25.2-14.5c-16.1 0-29.1 13-29.1 29.1-.1 16 13 29 29.1 29zm0-18.2l-6.3 3.3c-1.2.6-2.7.5-3.8-.3-1.1-.8-1.7-2.2-1.5-3.6l1.2-7-5.1-5c-1-1-1.3-2.4-1-3.8.4-1.3 1.6-2.3 3-2.5l7.1-1 3.2-6.4c.6-1.2 1.8-2 3.2-2 1.4 0 2.6.8 3.2 2l3.2 6.4 7.1 1c1.4.2 2.5 1.1 3 2.5s.1 2.8-1 3.8l-5.1 5 1.2 7c.3 1.4-.3 2.7-1.5 3.6-1.1.8-2.6 1-3.9.3l-6.2-3.3z"/><path d="M12.6 12.5h174.8v175H12.6z"/></svg>