<svg version="1.1" id="图层_1" xmlns="http://www.w3.org/2000/svg" x="0" y="0" viewBox="0 0 200 200" xml:space="preserve"><style>.st0{fill:#9bc035}</style><path class="st0" d="M175.2 20H47.1c-2.6 0-4.8 2.2-4.8 4.8v75.5h6.9V31.8c0-2.4 1.8-4.2 4.2-4.2h115.3c2.4 0 4.2 1.8 4.2 4.2v125.7c0 2.4-1.9 4.2-4.2 4.2H53.5c-2.4 0-4.2-1.9-4.2-4.2V135h-6.9v29.4c0 2.6 2.2 4.7 4.7 4.7h128.1c2.6 0 4.8-2.2 4.8-4.7V24.8c0-2.6-2.2-4.8-4.8-4.8z"/><path class="st0" d="M177.3 25.1l-74.7 20.8c-1.5.5-2.7 2.6-2.7 5v125.5c0 2.4 1.3 3.9 2.7 3.4l74.7-20.8c1.5-.5 2.7-2.6 2.7-5V28.6c0-2.4-1.1-3.9-2.7-3.5zm-90.8 87.4L84 111l-15.9-9.7c-2.1-1.3-4.8-.6-6.1 1.5-.1.1-.1.2-.1.2l-1 1.8c-1.3 2.3-.6 5.2 1.7 6.5l.9.6h-39c-2.6.1-4.6 2.2-4.6 4.7v2.2c-.1 2.6 1.8 4.7 4.5 4.8h39.1l-1 .6c-2.2 1.4-3 4.2-1.7 6.5l1 1.8c1 2.2 3.8 3 5.8 1.8.1-.1.2-.1.2-.2l16-9.7 2.9-1.8c2.7-2.9 2.7-7.3-.2-10.1zm-4-1.9l.3.1-.3-.1z"/></svg>