<svg version="1.1" id="图层_1" xmlns="http://www.w3.org/2000/svg" x="0" y="0" viewBox="0 0 200 200" xml:space="preserve"><style>.st0{fill:#f8985d}</style><path class="st0" d="M20.1 24.9v139.4c0 2.6 2.2 4.7 4.8 4.7h116c2.6 0 4.8-2.1 4.8-4.7v-29.4h-6.9v22.4c0 2.4-1.9 4.3-4.3 4.3H31.3c-2.4 0-4.3-1.9-4.3-4.3V31.7c0-2.4 1.9-4.3 4.2-4.3h103.2c2.4 0 4.3 1.9 4.3 4.3v68.6h6.9V24.9c0-2.6-2.2-4.8-4.8-4.8H24.9c-2.7 0-4.8 2.1-4.8 4.8z"/><path class="st0" d="M20 28.6V154c0 2.4 1.3 4.6 2.7 5l74.7 20.8c1.5.5 2.9-1.1 2.9-3.5V50.9c0-2.4-1.3-4.6-2.9-5L22.7 25.2c-1.4-.6-2.7 1-2.7 3.4zm160 88.8c0-1.8-.6-3.5-1.8-4.9l-2.9-1.8-16-9.8c-2.1-1.3-4.8-.6-6.1 1.5-.1.1-.1.2-.2.2l-1 1.8c-1.3 2.2-.6 5.1 1.7 6.5l1 .6h-38.9c-2.6.1-4.6 2.2-4.6 4.8v2.1c-.1 2.6 1.9 4.7 4.5 4.8h39l-1 .6c-2.2 1.4-2.9 4.2-1.7 6.5l1 1.8c1.1 2.2 3.8 3 5.9 1.9.1-.1.2-.1.2-.2l15.9-9.7 2.6-1.5c1.7-1.3 2.4-3.2 2.4-5.2zm-5.8 7c-.2 0-.2.1-.3.1.2-.1.2-.1.3-.1z"/></svg>