<svg xmlns="http://www.w3.org/2000/svg" viewBox="0 0 200 200"><path d="M0 64.2C0 56.5 6.6 50 14.7 50h81.8c-2.3 6.5-3.6 13.3-3.6 20.5 0 3.2.2 6.5.7 9.5H0V64.2zM153.8 131.3c-22.3 0-41.7-12-52.3-29.8H0v59.8c0 7.7 6.6 14.2 14.7 14.2h135.1c8.3 0 14.9-6.3 14.9-14.2v-30.9c-3.5.5-7.1.9-10.9.9zm-37.5 22.4H104v-13.5h12.2v13.5zm14.9 0H119v-13.5h12.2v13.5zm15.8 0h-12.2v-13.5H147v13.5zM200 70.7c0-25.5-20.7-46.2-46.2-46.2-18.1 0-33.8 10.5-41.3 25.5-3.1 6.1-4.9 13.1-4.9 20.5 0 3.2.4 6.5 1.1 9.5 1.8 8.1 5.6 15.5 11 21.4 8.4 9.2 20.7 15.1 34.1 15.1 3.8 0 7.4-.4 11-1.3 20.1-4.8 35-22.9 35.2-44.5zm-19.8 3.8c-.9.9-2.3 1.6-4 1.6h-17.1V93c0 3.1-2.5 5.4-5.4 5.4-1.4 0-2.9-.5-3.8-1.6-1.1-.9-1.6-2.3-1.6-4V75.7h-17.1c-3.1 0-5.4-2.5-5.4-5.4 0-1.4.5-2.9 1.6-4 1.1-.9 2.3-1.6 4-1.6h17.1V48.1c0-3.1 2.5-5.4 5.4-5.4 1.4 0 2.9.5 4 1.6s1.6 2.3 1.6 4v17.1h17.1c2.7-.2 5.2 2.2 5.2 5.2.1 1.4-.5 2.8-1.6 3.9z"/></svg>