<svg xmlns="http://www.w3.org/2000/svg" viewBox="0 0 200 200"><path d="M116.2 59.2l-45.1 79.6 9 4.2 45.2-79.7-9.1-4.1zM82 81.3c.1 5.3-4.2 9.7-9.5 9.7h-.3c-2.6.1-5-.9-6.9-2.8-3.8-3.8-3.9-10.1 0-13.9 3.9-3.7 9.9-3.7 13.8 0 1.9 1.9 3 4.5 2.9 7.2v-.2zm-29.9 0c0 2.7.5 5.4 1.5 7.8 1.1 2.4 2.5 4.5 4.3 6.4 1.8 1.9 4 3.3 6.4 4.3 5 2.2 10.8 2.2 15.8 0 2.4-1 4.6-2.5 6.4-4.3 1.8-1.9 3.2-4 4.3-6.4 1-2.5 1.6-5.2 1.5-7.8 0-2.7-.5-5.4-1.5-7.8-1.1-2.4-2.5-4.5-4.3-6.4-1.8-1.9-4-3.3-6.4-4.3-5-2.2-10.8-2.2-15.8 0-2.4 1-4.6 2.5-6.4 4.3-1.8 1.9-3.2 4-4.3 6.4-1.1 2.6-1.6 5.3-1.5 8.1v-.3zm81.4 39.1c.1 2.6-.9 5-2.8 6.9-3.8 4-10.2 4.2-14.2.4-4-3.8-4.2-10.2-.4-14.2 3.8-4 10.2-4.2 14.2-.4 2.1 1.9 3.3 4.6 3.2 7.3zm-29.9 0c0 2.7.5 5.4 1.5 7.8 1.1 2.4 2.6 4.6 4.4 6.4 1.9 1.8 4 3.3 6.4 4.3 2.5 1 5.2 1.6 7.8 1.5 2.7 0 5.4-.5 7.8-1.5 2.4-1.1 4.5-2.5 6.4-4.3 1.9-1.8 3.3-4 4.3-6.4a20.6 20.6 0 0 0 0-15.8c-1-2.4-2.5-4.6-4.3-6.4-1.9-1.8-4-3.2-6.4-4.3-2.5-1-5.2-1.5-7.8-1.5-2.7 0-5.4.5-7.8 1.5-2.4 1-4.5 2.5-6.4 4.3-1.9 1.8-3.4 4-4.4 6.4-1.1 2.6-1.6 5.4-1.5 8.2v-.2zm-29.3 74.1c-2.9 1.8-6.6.9-8.4-2-.2-.3-.3-.6-.5-.9l-8-20.3-22.1 2.7c-3.3.4-6.3-2-6.7-5.4v-1l1.5-22.1-20.7-7c-3.2-1.1-4.9-4.6-3.8-7.7.1-.3.3-.7.5-1l11.1-18.9-15.4-15c-2.4-2.4-2.4-6.2 0-8.6.3-.3.5-.5.8-.7l18.1-12.4-7.4-20.6c-1.1-3.1.4-6.5 3.5-7.7.4-.1.7-.2 1.1-.3L40 42.4l2.3-22.1c.5-3.3 3.5-5.5 6.8-5 .2 0 .5.1.7.2l21 6.4L81.9 3.2c1.7-2.8 5.4-3.7 8.2-2 .3.2.7.5 1 .7l16.1 14.6 18.5-11.1c2.9-1.8 6.6-.9 8.4 2 .2.3.3.6.5.9l8.1 20.3 22.1-2.7c3.3-.4 6.3 1.9 6.7 5.1.1.4.1.9 0 1.3L170 54.4l20.3 6.2c3.2 1.1 4.8 4.6 3.6 7.8-.1.3-.3.6-.4.9l-10.9 18.9 15.7 15.4c2.4 2.4 2.4 6.2 0 8.6-.3.3-.5.5-.8.7l-18.1 12.4 7.5 20.6c1.1 3.2-.6 6.6-3.8 7.7-.3.1-.6.2-1 .2l-22.1 3.3-2.2 22.1c-.4 3.3-3.4 5.8-6.7 5.4-.4 0-.7-.1-1-.2l-21-6.4-11.1 18.8c-1.7 2.8-5.4 3.7-8.2 2-.3-.2-.7-.5-1-.7l-16.1-14.8-18.4 11.2z"/></svg>