<svg xmlns="http://www.w3.org/2000/svg" viewBox="0 0 200 200"><path d="M122.4 54.3h-81c-3.4 0-6.9-3.4-6.9-6.9s3.4-6.9 6.9-6.9h81c3.4 0 6.9 3.4 6.9 6.9 0 5.2-3.4 6.9-6.9 6.9zM87.9 87.1H43.1c-3.4 0-6.9-3.4-6.9-6.9s3.4-6.9 6.9-6.9h44.8c3.4 0 6.9 3.4 6.9 6.9 1.8 3.4-1.7 6.9-6.9 6.9zM62.1 118.1H44.8c-3.4 0-6.9-3.4-6.9-6.9s3.4-6.9 6.9-6.9H62c3.4 0 6.9 3.4 6.9 6.9s-3.4 6.9-6.8 6.9zM141.4 81.9c-32.8 0-58.6 25.9-58.6 58.6 0 32.8 25.9 58.6 58.6 58.6s58.6-25.9 58.6-58.6-25.9-58.6-58.6-58.6zm0 103.4c-24.1 0-44.8-20.7-44.8-44.8 0-24.1 19-44.8 44.8-44.8 24.1 0 44.8 20.7 44.8 44.8s-20.7 44.8-44.8 44.8z"/><path d="M143.1 114.7l5.2 12.1c0 1.7 1.7 1.7 1.7 1.7l15.5 1.7c1.7 0 3.4 3.4 1.7 5.2l-10.3 10.3c-1.7 1.7-1.7 1.7-1.7 3.4l1.7 13.8c0 1.7-1.7 3.4-3.4 3.4l-12.1-6.9H138l-12.1 5.2c-1.7 1.7-5.2-1.7-3.4-3.4l1.7-13.8c0-1.7 0-1.7-1.7-3.4l-6.9-8.6c-1.7-1.7-1.7-5.2 1.7-5.2l13.8-1.7c1.7 0 1.7-1.7 1.7-1.7l5.2-12.1c1.7-1.8 5.1-1.8 5.1 0zM63.8 168.1H19c-3.4 0-5.2-3.4-5.2-5.2V19.8c0-3.4 3.4-5.2 5.2-5.2h124.1c3.4 0 5.2 3.4 5.2 5.2v44.8h13.8V19.8c0-10.3-8.6-19-19-19H19C8.7.8 0 9.4 0 19.8v143.1c0 10.3 8.6 19 19 19h44.8v-13.8z"/></svg>