<svg xmlns="http://www.w3.org/2000/svg" viewBox="0 0 200 200"><path d="M190.9 121.1H155v-14.4c0-7.8-9.1-11.8-15-7.2l-39.8 32.7c-4.6 3.9-4.6 10.5 0 13.7l39.8 32.7c5.9 4.6 15 .7 15-7.2v-15.7h35.9c4.6 0 8.5-3.9 8.5-8.5v-17.6c0-4.6-3.9-8.5-8.5-8.5zM13.8 128.9c-8 0-13.3 5.3-13.3 13.3s5.3 13.3 13.3 13.3S27 150.2 27 142.2s-5.3-13.3-13.2-13.3zm39.8-39.7c0 8 5.3 13.3 13.3 13.3h44.4L137.8 76h-71c-7.9-.1-13.2 5.2-13.2 13.2zm119.3-66.3H66.8c-8 0-13.3 5.3-13.3 13.3s5.3 13.3 13.3 13.3h106.1c8 0 13.3-5.3 13.3-13.3s-5.3-13.3-13.3-13.3zM84.4 129.2l.3-.3H66.8c-8 0-13.3 5.3-13.3 13.3s5.3 13.3 13.3 13.3h26.3l-8.8-8.8c-4.7-4.8-4.7-12.6.1-17.5zM13.8 22.9C5.8 22.9.5 28.2.5 36.2s5.3 13.3 13.3 13.3S27 44.1 27 36.1s-5.3-13.2-13.2-13.2zm0 53C5.8 75.9.5 81.2.5 89.2s5.3 13.3 13.3 13.3S27 97.1 27 89.2c0-8-5.3-13.3-13.2-13.3z"/></svg>