<svg xmlns="http://www.w3.org/2000/svg" viewBox="0 0 200 200"><path d="M13.6 127.4c-8 0-13.3 5.3-13.3 13.3S5.7 154 13.6 154c8 0 13.3-5.3 13.3-13.3s-5.3-13.3-13.3-13.3zm40-39.9c0 8 5.3 13.3 13.3 13.3h57.6l26.6-26.6H66.9c-8 0-13.3 5.3-13.3 13.3zM173.4 21H66.9c-8 0-13.3 5.3-13.3 13.3s5.3 13.3 13.3 13.3h106.5c8 0 13.3-5.3 13.3-13.3S181.3 21 173.4 21zM53.6 140.7c0 8 5.3 13.3 13.3 13.3h18.8v-26.6H66.9c-8 0-13.3 5.4-13.3 13.3zm-40-66.5C5.6 74.2.3 79.5.3 87.5s5.3 13.3 13.3 13.3 13.3-5.3 13.3-13.3-5.3-13.3-13.3-13.3zm0-53.2C5.6 21 .3 26.3.3 34.3s5.3 13.3 13.3 13.3 13.3-5.3 13.3-13.3S21.6 21 13.6 21zM105.3 124.1c-4.6 0-8.5 3.9-8.5 8.5v17.6c0 4.6 3.9 8.5 8.5 8.5h35.9v15.7c0 7.9 9.1 11.8 15 7.2l39.8-32.7c4.6-3.2 4.6-9.8 0-13.7l-39.8-32.7c-5.9-4.6-15-.6-15 7.2v14.4h-35.9z"/></svg>