<svg xmlns="http://www.w3.org/2000/svg" viewBox="0 0 200 200"><path d="M143.7 25.1h46c5.7 0 10.3 4.2 10.3 9.5 0 5.2-4.6 9.5-10.3 9.5h-46c-5.7 0-10.3-4.2-10.3-9.5 0-5.2 4.6-9.5 10.3-9.5zM143.9 62.4h19.7c5.8 0 10.5 4.3 10.5 9.6s-4.7 9.6-10.5 9.6h-19.7c-5.8 0-10.5-4.3-10.5-9.6s4.7-9.6 10.5-9.6zM143.9 99.9h37.4c5.8 0 10.5 4.3 10.5 9.6s-4.7 9.6-10.5 9.6h-37.4c-5.8 0-10.5-4.3-10.5-9.6s4.7-9.6 10.5-9.6zM46.5 112.5c-.6 1.8-.9 3.7-.9 5.7v18.2c0 10.1 8.2 18.3 18.3 18.3h18.3c10.1 0 18.3-8.2 18.3-18.3v-18.2c0-2-.3-3.9-.9-5.7 27.2 7.3 46.5 25.5 46.5 46.8V173c0 10.1-8.2 18.3-18.3 18.3H18.3C8.2 191.3 0 183.1 0 173v-13.7c0-21.3 19.3-39.5 46.5-46.8z"/><path d="M73 118.2c5 0 9.1 4.1 9.1 9.1v9.1c0 5-4.1 9.1-9.1 9.1s-9.1-4.1-9.1-9.1v-9.1c0-5 4.1-9.1 9.1-9.1zM73 109.1c-25.2 0-45.6-22.5-45.6-50.2C27.4 31.2 47.8 8.7 73 8.7s45.6 22.5 45.6 50.2c.1 27.7-20.4 50.2-45.6 50.2z"/></svg>