<svg xmlns="http://www.w3.org/2000/svg" viewBox="0 0 200.2 200"><path d="M7.3 129.3h43c4 0 7.2-5.1 7.2-11.5s-3.2-11.5-7.2-11.5h-43c-4 0-7.2 5.1-7.2 11.5s3.2 11.5 7.2 11.5zM7.3 43.3h129c4 0 7.2-5.1 7.2-11.5s-3.2-11.5-7.2-11.5H7.3c-4 0-7.2 5.1-7.2 11.5s3.2 11.5 7.2 11.5zM64.6 63.4H7.3c-4 0-7.2 5.1-7.2 11.5 0 6.3 3.2 11.5 7.2 11.5h57.3c4 0 7.2-5.1 7.2-11.5s-3.3-11.5-7.2-11.5zM64.6 149.4H7.3c-4 0-7.2 5.1-7.2 11.5s3.2 11.5 7.2 11.5h57.3c4 0 7.2-5.1 7.2-11.5s-3.3-11.5-7.2-11.5zM141.6 62.7c-32.2 0-58.5 26.3-58.5 58.5s26.3 58.5 58.5 58.5 58.5-26.3 58.5-58.5-26.3-58.5-58.5-58.5zm0 105.2c-25.7 0-46.8-21-46.8-46.8s21-46.8 46.8-46.8 46.8 21 46.8 46.8-21 46.8-46.8 46.8z"/><path d="M129.1 96c3.5 0 6.3 2.8 6.3 6.3V140c0 3.5-2.8 6.3-6.3 6.3s-6.3-2.8-6.3-6.3v-37.7c0-3.4 2.8-6.3 6.3-6.3zM154.2 96c3.5 0 6.3 2.8 6.3 6.3V140c0 3.5-2.8 6.3-6.3 6.3s-6.3-2.8-6.3-6.3v-37.7c0-3.4 2.8-6.3 6.3-6.3z"/></svg>