<svg class="icon" viewBox="0 0 1024 1024" xmlns="http://www.w3.org/2000/svg" width="200" height="200"><defs><style/></defs><path d="M547.584 802.836c20.9 20.9 20.9 54.805 0 75.705-20.9 20.91-54.794 20.91-75.704 0L143.176 549.847c-10.445-10.455-15.668-24.146-15.668-37.847s5.233-27.402 15.668-37.847L471.88 145.459c20.91-20.91 54.804-20.91 75.704 0 20.9 20.9 20.9 54.794 0 75.705L256.748 512l290.836 290.836zM589.967 512l290.837-290.836c20.9-20.91 20.9-54.805 0-75.705-20.9-20.91-54.794-20.91-75.704 0L476.396 474.153c-10.445 10.455-15.668 24.146-15.668 37.847s5.233 27.402 15.668 37.847L805.1 878.541c20.91 20.91 54.804 20.91 75.704 0 20.9-20.9 20.9-54.805 0-75.705L589.967 512z"/></svg>