<svg xmlns="http://www.w3.org/2000/svg" viewBox="0 0 200 200"><circle cx="153.4" cy="99" r="8"/><circle cx="129.8" cy="83.2" r="9.8"/><path d="M145.4 73.9v24.6h15.9V86c4.3.6 7.7 2.6 10.3 6.1 2.6 3.5 3.9 7.9 3.9 13.1 0 6.2-2.1 11.1-6.2 14.6-4.1 3.6-9.8 5.3-17 5.3-7.2 0-12.8-1.8-16.9-5.3-4.1-3.6-6.2-8.4-6.2-14.6 0-3.3.7-6.3 2.2-9 .9-1.7 2.2-3.4 3.8-4.9l-12-15.3c-2.9 2.8-5.3 6-7.1 9.5-2.9 5.7-4.4 12.3-4.4 19.7 0 5.7.9 11 2.8 15.9s4.7 9.3 8.4 13.1c3.8 3.8 8.1 6.7 12.8 8.7 4.7 1.9 10 2.9 15.6 2.9 5.4 0 10.6-1 15.6-3s9.2-4.8 12.9-8.4c3.8-3.8 6.6-8 8.5-12.8 1.8-4.8 2.8-10.3 2.8-16.4 0-12.5-3.6-22.2-10.8-29.1-6.5-6.1-15.3-9.5-26.4-10.1-.2 0-.3-.1-.5-.1-4.4 0-8 3.6-8 8z"/><path d="M168.4 44.5c-8.4-9-20.3-14.7-33.6-14.7-14.2 0-27.5 6.5-36.2 17.5-2.5-.4-4.9-.6-7.4-.6-14.1 0-27.1 6.6-35.4 17.6-1.1-.1-2.1-.1-3.2-.1-24.3 0-44.1 19.8-44.1 44.1 0 12 4.8 23.2 13.4 31.6 7.9 8 18.5 12.5 29.7 12.5H111c5.1-.3 9.2-4.5 9.2-9.7 0-5.2-4.1-9.4-9.2-9.7v-.1H51.7c-6 0-11.7-2.4-15.9-6.7l-.2-.2c-4.9-4.7-7.5-11-7.5-17.7 0-13.6 11-24.6 24.6-24.6 1.8 0 3.7.2 5.7.7l7.3 1.7 3.5-6.6c4.3-8.2 12.8-13.3 22-13.3 2.8 0 5.6.5 8.4 1.5l7.8 2.8 4-7.2c4.7-8.5 13.7-13.9 23.4-13.9 7.4 0 14.1 3.1 19 8 1.8 2.6 4.8 4.4 8.1 4.4 5.4 0 9.8-4.4 9.8-9.8 0-3.1-1.3-5.7-3.3-7.5z"/></svg>