<svg xmlns="http://www.w3.org/2000/svg" xmlns:xlink="http://www.w3.org/1999/xlink" viewBox="0 0 199.8 186.9"><defs><path id="a" d="M10.3.9h179.2V186H10.3z"/></defs><clipPath id="b"><use xlink:href="#a" overflow="visible"/></clipPath><path d="M185.7 104.9c-1.2-.2-2.4.2-3.4.9l-20.6 16.8c-1.5 1.2-2 3.4-1.1 5.1.9 1.8 2.8 2.7 4.8 2.3l5.8-2c-12.8 29.9-38.2 45.9-71.3 46.2-40.2 0-71.3-26.1-77.2-65.3-.4-2.3-1.4-4.4-6.1-4.4s-6.1 2.9-6.1 5.2c6.6 43.3 45.1 76 89.5 76 37.1.1 70.4-22.2 84.1-56.3 2.6-6.3 4.4-12.9 5.4-19.7.2-1.1-.1-2.3-.8-3.2-.9-.8-1.9-1.4-3-1.6zM14 82c1.2.2 2.4-.2 3.4-.9L38 64.3c1.5-1.2 2-3.4 1.1-5.1-.9-1.8-2.8-2.7-4.8-2.3l-5.8 2C41.3 29 66.7 13 99.8 12.7c40.2 0 71.3 26.1 77.2 65.3.4 2.3 1.4 4.4 6.1 4.4 4.6 0 6.1-2.8 6.1-5.2-6.6-43.3-45.1-76-89.5-76-37-.2-70.3 22.2-84 56.3-2.5 6.3-4.4 12.9-5.4 19.7-.2 1.1.1 2.3.8 3.2.7.9 1.8 1.5 2.9 1.6zm106-34.7l-18.7 28.1-18.8-28.1H71L92.1 79H71v8.7h26v14.4H71v8.7h26v28.8h8.7v-28.8h26v-8.7h-26V87.7h26V79h-21.2l21.2-31.7H120zm0 0" clip-path="url(#b)"/></svg>