<svg xmlns="http://www.w3.org/2000/svg" xmlns:xlink="http://www.w3.org/1999/xlink" viewBox="0 0 200 200"><defs><path id="a" d="M18.9 19H181v162.1H18.9z"/></defs><clipPath id="b"><use xlink:href="#a" overflow="visible"/></clipPath><path d="M51.1 37.6c-8.7 0-15.8 7.1-15.8 15.8v95.2c0 8.7 7.1 15.7 15.8 15.7h95.3c8.7 0 15.7-7 15.7-15.7V86.1l16.3-15.8v84.2c0 14.6-12.3 26.4-26.9 26.4H45.3c-6.9 0-13.7-2.8-18.6-7.7-4.9-4.9-7.7-11.6-7.7-18.6V49.3c0-14.6 11.8-27.9 26.3-27.9h84.2l-15.6 16.3H51.1zm26.1 84.8l9.4-33 23.5 23.5-32.9 9.5zm37.3-13.1l-24.1-24 52.9-53 24.1 24-52.9 53zM171.8 52L148 28.2l7.1-7.1c2.6-2.6 6.8-2.7 9.2-.3l14.9 14.8c2.5 2.5 2.3 6.6-.3 9.2l-7.1 7.2z" clip-path="url(#b)"/></svg>