<svg xmlns="http://www.w3.org/2000/svg" viewBox="0 0 200 200"><path d="M100.1 25c4.7 0 9.3.9 13.7 2.7 4.4 1.8 8.3 4.2 11.7 7.3 3.4 3.1 6.2 6.7 8.2 10.9 2.1 4.2 3.1 8.6 3.1 13.3v21.9H119V63.4c0-6.2-1.8-11.1-5.3-14.5-3.5-3.5-8.2-5.2-14.2-5.2-5.3 0-9.6 1.7-12.9 5.2-3.3 3.5-4.9 8.3-4.9 14.5v18.1H63.1V59.3c0-4.7.9-9.2 2.8-13.3a34 34 0 0 1 7.8-10.9c3.3-3.1 7.2-5.6 11.7-7.3 4.5-1.9 9.4-2.8 14.7-2.8zm55.5 101.1v19.7c0 2.7-.5 5.2-1.4 7.6-.9 2.4-2.2 4.4-3.9 6.1-1.6 1.7-3.6 3-5.8 4-2.2 1-4.7 1.5-7.3 1.5h-75c-2.7 0-5.1-.5-7.3-1.4-2.2-.9-4.1-2.2-5.6-3.9-1.6-1.6-2.8-3.5-3.6-5.7-.8-2.2-1.3-4.5-1.3-7V99.9c0-2.8 1-5.1 2.9-7 1.9-1.9 4.2-2.8 6.7-2.8h91.8c2.8 0 5.1.9 7 2.8 1.9 1.9 2.8 4.2 2.8 7v26.2z"/><path d="M100 8c50.7 0 92 41.3 92 92s-41.3 92-92 92-92-41.3-92-92S49.3 8 100 8m0-8C44.8 0 0 44.8 0 100s44.8 100 100 100 100-44.8 100-100S155.2 0 100 0z"/></svg>