<svg data-name="图层 1" xmlns="http://www.w3.org/2000/svg" viewBox="0 0 200 160"><path d="M194.93 113.21l.36 1.77-105.58 21.94-.38-1.77zm-106 15.56l105.59-21.94.43 2.11-105.59 21.94zm106.31-8.36l.37 1.78-105.59 21.93-.35-1.76zm-111.31 4a39.8 39.8 0 0 0 .93 27.87l113.38-25.74 1.58 7.07L83.57 160l-3.37-.6-76.51-47.71c-4.21-9.63-5.59-19.39 0-29.46l7.46-1.16v2.55l98 22c2.72-6.66 4.37-15.23.7-23L10.44 62.46l.93-6.92.49-.15h.06l6-1.84.23-6.16 91.15 22.17c2.41-6.74 3.83-13.41.68-21.26L17.87 27.9v-9.37L90.34 0l83.94 17.16c4.44 8.24 3.33 16 0 23.49l-6.07 3.5 11.2 1.73c4.8 8.67 3.62 17.08 0 25.38l-18.39 11.5 39 10.69-.25 7.47z"/></svg>