<svg xmlns="http://www.w3.org/2000/svg" viewBox="0 0 185.7 199.6"><path d="M155.4 87c-4.7-1.2-9.7-1.9-14.7-1.9v-44c0-3.9-1.6-7.6-4.3-10.3-2.8-2.8-6.5-4.3-10.3-4.3h-88c-3.9 0-7.6 1.6-10.3 4.3-2.8 2.8-4.3 6.5-4.3 10.3v117.3c0 3.9 1.6 7.6 4.3 10.3 2.8 2.8 6.5 4.3 10.3 4.3h51.8c3.2 5.5 7.3 10.5 12 14.7H38.1c-16.2 0-29.3-13.1-29.3-29.3V41.1c0-16.2 13.1-29.3 29.3-29.3h88c16.2 0 29.3 13.1 29.3 29.3V87z"/><path d="M45.4 55.8h73.3c2.6 0 5 1.4 6.3 3.6 1.3 2.2 1.3 5 0 7.3-1.3 2.2-3.7 3.6-6.3 3.6H45.4c-2.6 0-5-1.4-6.3-3.6-1.3-2.2-1.3-5 0-7.3 1.3-2.2 3.7-3.6 6.3-3.6zm0 36.7h44c4.1 0 7.3 3.3 7.3 7.3 0 4.1-3.3 7.3-7.3 7.3h-44c-2.6 0-5-1.4-6.3-3.6-1.3-2.2-1.3-5 0-7.3s3.7-3.7 6.3-3.7zm0 36.6h22c2.6 0 5 1.4 6.3 3.6s1.3 5 0 7.3c-1.3 2.2-3.7 3.6-6.3 3.6h-22c-2.6 0-5-1.4-6.3-3.6-1.3-2.2-1.3-5 0-7.3 1.3-2.2 3.7-3.6 6.3-3.6z"/><path d="M8.8 11.7h176.1V188H8.8z"/><path d="M134.4 185.2c-23.5 0-42.6-19.4-42.6-43.4 0-3.8 3.1-7 7-7 3.8 0 7 3.1 7 7 0 16.3 12.9 29.5 28.7 29.5 4 0 7.9-.8 11.6-2.5 3.5-1.6 7.6 0 9.2 3.4 1.6 3.5 0 7.6-3.4 9.2-5.6 2.5-11.4 3.8-17.5 3.8zm35.7-36.4c-3.8 0-7-3.1-7-7 0-16.3-12.9-29.5-28.7-29.5-3.8 0-7.5.7-11 2.2-3.5 1.5-7.6-.2-9.1-3.6-1.5-3.5.2-7.6 3.6-9.1 5.2-2.2 10.8-3.3 16.5-3.3 23.5 0 42.6 19.4 42.6 43.4.1 3.8-3.1 6.9-6.9 6.9z"/><path d="M122.6 124.5h-11.9c-2.4 0-4.7-1.2-5.9-3.3-1.3-2-1.4-4.6-.4-6.7l6-12.2c1.2-2.4 3.5-3.9 6.2-3.9s5.1 1.5 6.2 3.9l6 12.2c1 2.1.9 4.7-.4 6.7s-3.5 3.3-5.8 3.3zm29.6 62.7h-.3c-2.4-.1-4.6-1.4-5.8-3.4l-6-10.3c-1.2-2-1.2-4.7-.1-6.7 1.1-2.1 3.3-3.5 5.7-3.6l13.5-.9c2.6-.2 5.1 1.2 6.5 3.4 1.3 2.3 1.2 5.1-.3 7.3l-7.5 11.3c-1.3 1.7-3.4 2.9-5.7 2.9z"/></svg>