<svg xmlns="http://www.w3.org/2000/svg" xmlns:xlink="http://www.w3.org/1999/xlink" viewBox="0 0 200 200"><path d="M45.8 142.1h41.8v8.3H45.8v-8.3zm0-38.1h57.7v8.3H45.8V104zm0-36h40.4v8.3H45.8V68zm100.9 70.7c-.5-1.6-1.6-2.1-3.2-2.7l-10.1-1.6-4.8-9.1c-1.1-2.7-5.3-2.7-6.9 0l-4.8 9.1-10.1 1.6c-1.6 0-2.7 1.1-3.2 2.7s0 2.7 1.1 3.7l7.5 6.9L111 160c0 1.6.5 2.7 1.6 3.7 1.1 1.1 2.7 1.1 4.3.5l9.1-4.8 9.1 4.8c.5.5 1.1.5 1.6.5 1.1 0 1.6-.5 2.1-.5 1.1-1.1 1.6-2.1 1.6-3.7l-1.6-10.1 7.5-6.9c.4-1.7.4-3.3.4-4.8zm-13.7 7.7c-1.3 1.3-1.3 2.8-1.3 4.1l.7 6.2-4.8-3.5c-.7-.7-1.3-.7-2-.7s-1.3 0-2 .7L118 156l.7-5.5c0-1.3 0-3.5-1.3-4.1l-4.1-4.1 6.2-.7c1.3 0 2.8-1.3 3.5-2.8l2.8-5.5 2.8 5.5c.7 1.3 2 2 3.5 2.8l6.2.7-5.3 4.1z"/><defs><path id="a" d="M19 16.3h160v167.6H19z"/></defs><clipPath id="b"><use xlink:href="#a" overflow="visible"/></clipPath><path d="M156.2 119.4h11v51.9c0 6.8-5.5 12.4-12.4 12.4H31.4c-6.8 0-12.4-5.5-12.4-12.4V36.8c0-6.8 5.5-12.4 12.4-12.4h94.1l-9.9 11H35.4c-3 0-5.5 2.5-5.5 5.5v126.3c0 3 2.5 5.5 5.5 5.5h115.3c3 0 5.5-2.5 5.5-5.5v-47.8z" clip-path="url(#b)"/><defs><path id="c" d="M19 16.3h160v167.6H19z"/></defs><clipPath id="d"><use xlink:href="#c" overflow="visible"/></clipPath><path d="M176.7 54.8c-9.2-11.5-18.3-22.8-27.6-34.1-4.6-5.7-6.8-5.8-11.3-.3-9.3 11.5-18.6 23-27.7 34.7-2 2.4-2.6 5.6-1.8 9.2.8 3.6 2.6 5.8 5.2 6.5 1.7.4 3.4.1 5 0 1.3-.1 1.7.5 1.7 2.5 0 10.8 0 21.7.1 32.6 0 6.5 2.2 10.2 6.8 10.4 6 .2 11.7 0 17.8 0h13c6 0 8.7-3.5 8.7-12.1 0-10.4.1-20.8.1-31.2 0-1.7.3-2.2 1.5-2.1 1.5.2 2.9.1 4.4-.1 2.8-.2 4.9-2.3 5.8-6.1.9-3.9.4-7.3-1.7-9.9zm-10.1 5.8c-1.1 1.6-1.8 1.6-2.4 1.6-1.9 0-3.6.1-5.5 0-1.3-.1-1.9 2.4-1.9 4.7.1 9.6.1 23.4.1 33v2.8c-.1 3.5-.5 3.4-2.7 3.4H132c-2.8 0-2.8.3-2.8-4.1 0-10.2 0-24.6.1-34.8 0-2.2-.4-4.9-1.8-4.8-2 .2-2.2 0-4.2.1-.6 0-2 .5-3.2-1.3-1.6-2.4.7-5.2.7-5.2L141 32.2s1.9-3.2 4.3.1l20.3 23.6c-.1 0 2.2 2.8 1 4.7z" clip-path="url(#d)"/></svg>