<svg data-name="图层 1" xmlns="http://www.w3.org/2000/svg" viewBox="0 0 200.64 169.81"><path d="M200.26 81.88a14.8 14.8 0 0 0-17-11.8c-1.4.2-3.8-2.6-4.6-4.5q-6.69-16.91-12.8-34.1a21 21 0 0 0-14.84-13.9c-9.4-2.6-19.4-4.2-29.4-6.2a144.81 144.81 0 0 0-42.9 0l-.3-.4c-5.5.9-11.2 1.6-16.7 2.6a33.94 33.94 0 0 0-14.85 4.79h3.52a9.9 9.9 0 0 1 9.9 9.9v1a87.83 87.83 0 0 1 16.23-2.16c20.7.2 41.5.9 62.2 1.8a16.59 16.59 0 0 1 16.6 13.3c2.6 10 6.3 19.9 10 31a316.08 316.08 0 0 1-130.8 0c1.31-3.47 2.5-6.92 3.75-10.29H22.86c-.37.88-.72 1.78-1.1 2.66-.7 1.8-3 4.2-4.2 4.2-10.3-.9-14.3 5.3-17.3 13.3a11.56 11.56 0 0 0 0 4.9l10.6 2.8c-.6 14.6-.6 29.1-.6 43.6 0 7.8 0 15.4.6 23.4a18 18 0 0 0 3.6 10.6 95.08 95.08 0 0 0 32.8 0c2.2-.8 3.3-12.2 5.2-19h97.2c2.4 6.4-2.2 14.3 5.2 19a93.71 93.71 0 0 0 32-.6 15.82 15.82 0 0 0 3.4-9.2v-55.4a98.42 98.42 0 0 0-1.4-12l11.4-3.1a12.75 12.75 0 0 0 0-6.2zm-140 33a10 10 0 0 1-6.5 4.9 49.13 49.13 0 0 1-10.7.6l.5-.2c-5.6-.5-10.5-.7-15.6-1.7-6.5-1.4-8.5-6.2-6.5-14.9 1-5.9 5.8-6.2 10-4.8a233.42 233.42 0 0 1 25 10c2 .9 4.3 4.6 3.8 6.1zm113.8 3.5a145.18 145.18 0 0 1-15.7 2v-.1a113 113 0 0 1-13.5-1.2c-5-1.1-6.6-6.9-2.2-9a216.47 216.47 0 0 1 30-11.4c4.1-1.2 6.9 1.3 7.1 6.6s1.8 11.4-5.74 13.1z"/><path d="M47.65 21.61h-4.26v-6.6a15.21 15.21 0 0 0-30.41 0v6.6H8.66a8.66 8.66 0 0 0-8.64 8.66v21.67a8.66 8.66 0 0 0 8.66 8.66h39a8.67 8.67 0 0 0 8.64-8.66V30.27a8.67 8.67 0 0 0-8.67-8.66zm-30.33-6.6a10.86 10.86 0 0 1 21.72 0v6.6H17.32zm34.7 36.93a4.33 4.33 0 0 1-4.34 4.33h-39a4.33 4.33 0 0 1-4.35-4.33V30.27a4.33 4.33 0 0 1 4.33-4.33h39a4.33 4.33 0 0 1 4.36 4.33z"/></svg>