<svg data-name="图层 1" xmlns="http://www.w3.org/2000/svg" viewBox="0 0 200 170.83"><path d="M197 107.73c-2-2-5-2-6.19-2-6.85 0-11.49-1.44-14.7-4.64-3.53-3.54-5.52-9.17-5.52-15.58 0-6.08 1.88-11 5.52-14.81l.22-.22c3.1-3.53 7.85-5.3 14.48-5.3a8.46 8.46 0 0 0 3-.66c.22-.11.44-.11.67-.23h1.43l1.22-1.21c2-2 2-4.31 2-6.3V22.54C199.13 6.07 193.05 0 176.59 0H22.43c-8.18 0-13.48 1.54-17 5.08C1.66 8.73 0 14.14 0 22.65V56.9a10.16 10.16 0 0 0 2.87 6.3c2 2 4.31 2 6.19 2 7.18 0 12.16 1.33 15.69 4 3.25 3.28 4.53 8.14 4.53 16.21 0 13.59-6.63 20.33-20.22 20.33a8.08 8.08 0 0 0-8.29 8.29v34.25c0 16.47 6.08 22.54 22.54 22.54h154.15c16.35 0 22.54-6.07 22.54-22.54v-34.25a10.92 10.92 0 0 0-3-6.3zm-53 14.92H58.23a6.52 6.52 0 1 1 0-13H144a6.52 6.52 0 1 1 0 13zm0-61.44H58.23a6.52 6.52 0 0 1 0-13H144a6.54 6.54 0 0 1 6.52 6.52 6.46 6.46 0 0 1-6.52 6.48zm0 0"/></svg>