<svg xmlns="http://www.w3.org/2000/svg" viewBox="0 0 200 200"><path d="M52.5 28.8H40.6c-13.1 0-23.7 10.6-23.7 23.7v106.8c0 13.2 10.6 23.8 23.7 23.8h118.7c13.1 0 23.7-10.6 23.7-23.7V52.5c0-13.1-10.6-23.7-23.7-23.7h-11.9v11.9h11.9c6.6 0 11.9 5.3 11.9 11.9v106.8c0 6.6-5.3 11.9-11.9 11.9H40.6c-6.6 0-11.9-5.3-11.9-11.9V52.5c0-6.6 5.3-11.9 11.9-11.9h11.9V28.8z"/><path d="M58.4 28.8c-3.3 0-6 2.7-6 6s2.7 6 6 6h83.1c3.3 0 6-2.7 6-6s-2.7-6-6-6H58.4zm0-11.9h83.1c9.9 0 17.8 8 17.8 17.8s-8 17.8-17.8 17.8H58.4c-9.9 0-17.8-8-17.8-17.8s8-17.8 17.8-17.8zm11.9 71.2h59.4c3.3 0 6-2.7 6-6s-2.7-6-6-6H70.3c-3.3 0-6 2.7-6 6 .1 3.4 2.7 6 6 6zm0 23.8h59.4c3.3 0 6-2.7 6-6s-2.7-6-6-6H70.3c-3.3 0-6 2.7-6 6 .1 3.3 2.7 6 6 6zm0 23.7h59.4c3.3 0 6-2.7 6-6s-2.7-6-6-6H70.3c-3.3 0-6 2.7-6 6 .1 3.4 2.7 6 6 6z"/></svg>