<svg xmlns="http://www.w3.org/2000/svg" xmlns:xlink="http://www.w3.org/1999/xlink" viewBox="0 0 200 177.8"><defs><path id="a" d="M21.5 1h157v175.9h-157z"/></defs><clipPath id="b"><use xlink:href="#a" overflow="visible"/></clipPath><path d="M162 28.6h-36.2V16.5c0-8.8-6.6-15.4-15.4-15.4H89.6c-8.8 0-15.4 6.6-15.4 15.4v12.1H36.8c-8.8 0-15.4 6.6-15.4 15.4v19.7c0 3.3 2.2 5.5 5.5 5.5h6.6v82.3c0 14.3 11 25.2 25.2 25.2H140c15.4 0 28.5-11 28.5-26.3V69.2h5.5c3.3 0 4.4-3.3 4.4-4.4V43.9c.1-8.7-6.5-15.3-16.4-15.3zM84 16.5c0-3.3 2.2-5.5 5.5-5.5h19.7c3.3 0 5.5 2.2 5.5 5.5v12.1H84V16.5zM32.4 43.9c0-3.3 2.2-5.5 4.4-5.5H162c3.3 0 5.5 2.2 5.5 5.5v15.4h-135l-.1-15.4zm125.2 106.5c0 8.8-6.6 15.4-15.4 15.4H59.9c-8.8 0-15.4-6.6-15.4-15.4V69.2h113.1v81.2z" clip-path="url(#b)"/><path d="M100.1 132.7l-.7 17.3-.1 1-19.8-1.4c-1.1-.1-2.2-.6-3.2-1.5s-1.7-1.9-2.2-3.1c-.3-.9-.6-1.7-.7-2.6-.1-.9 0-1.9.2-3.1.2-1.2.4-2 .6-2.6.1-.6.5-1.6 1-3s.8-2.3.9-2.5c2.5.5 10.4 1 24 1.5zM81.9 105l8.5 17.9-6.9-4.3c-2 2.3-3.7 4.5-5.3 6.8-1.5 2.3-2.7 4.2-3.4 5.9-.8 1.6-1.4 3.1-1.9 4.5-.5 1.3-.8 2.3-.9 3l-.2 1-9-16.8c-.5-.8-.8-1.7-.9-2.6 0-1 .1-1.7.3-2.2l.4-.9c1.1-2 2.9-4.9 5.4-8.9l-6.5-4 20.4.6zm58 24.4l-8.9 16.9c-.4.9-1 1.6-1.7 2.2-.8.5-1.4.9-2.1 1l-.9.2c-2.2.2-5.7.4-10.3.6l.4 7.7-10.9-17.3 10-17.1.3 8.2c5.3.5 9.8.6 13.4.2 3.6-.3 6.2-.9 8-1.6l2.7-1zm-37-43.6c-1.5 2-5.6 8.8-12.5 20.5l-14.9-8.8-.9-.6 10.6-16.8c.6-1 1.6-1.7 2.8-2.1 1.2-.4 2.5-.6 3.8-.5.8.1 1.5.2 2.3.6.8.3 1.4.6 2 1 .5.3 1.2.9 2 1.6s1.3 1.2 1.7 1.6c.4.4 1 1 1.7 1.9.6.9 1.1 1.4 1.4 1.6zm30.9 14.5l10 17.1c.6 1.2.8 2.4.6 3.6s-.6 2.4-1.3 3.5c-.4.6-.9 1.2-1.6 1.7-.6.5-1.2 1-1.8 1.3s-1.3.7-2.3 1-1.7.6-2.2.8c-.5.1-1.3.4-2.4.7-1.1.3-1.8.5-2.2.6-1.1-2.3-5.2-9.1-12.5-20.6l14.7-9.2 1-.5zM127 89.7l6.7-3.9-10.4 17.6-19.7-1 7.1-4.1c-1.1-2.8-2.3-5.4-3.5-7.8-1.3-2.4-2.5-4.4-3.6-5.8-1.1-1.5-2.1-2.7-3-3.8-1-1.1-1.7-1.8-2.2-2.2l-.8-.6h19.1c1-.1 1.9.1 2.7.5.9.4 1.5.9 1.8 1.3l.5.7c1.3 2 3 5 5.3 9.1z"/></svg>