<svg xmlns="http://www.w3.org/2000/svg" xmlns:xlink="http://www.w3.org/1999/xlink" viewBox="0 0 200 200"><path d="M104.2 48.7H71.6c-4.2 0-7.6 2.8-7.6 6.2 0 3.4 3.4 6.2 7.6 6.2h32.6c4.2 0 7.6-2.8 7.6-6.2s-3.4-6.2-7.6-6.2z"/><defs><path id="a" d="M13.1 16.3H187v167.3H13.1z"/></defs><clipPath id="b"><use xlink:href="#a" overflow="visible"/></clipPath><path d="M31.7 101h83.7c8.8 0 15.3-4.7 17.3-12.6.2-.7.5-1.8.7-3.1.5-2 1.6-6.5 2.5-9.2h32.3c3.4 0 6.2 2.8 6.2 6.2v.5l-2.3 29.2c0 3.4 2.8 6.2 6.2 6.2 3.4 0 6.2-2.8 6.2-6.2v-.2l2.3-29.6c0-10.3-8.4-18.6-18.6-18.6h-3.6V33.7c0-9.6-7.8-17.3-17.3-17.3h-95c-9.6 0-17.3 7.8-17.3 17.3v54.8h-3.4c-10.3 0-18.6 8.4-18.6 19.1l6.2 57c0 10.3 8.4 18.6 18.6 18.6h90.4c3.3-.3 5.8-2.9 5.8-6.2 0-3.3-2.5-5.9-5.8-6.2H37.9c-3.4 0-6.2-2.8-6.2-6.7l-6.2-57c0-3.3 2.7-6.1 6.2-6.1zm15.8-67.3c0-2.8 2.3-5.1 5.1-5.1h94.9c2.8 0 5.1 2.3 5.1 5.1v29.9h-20.2c-.2 0-.3.2-.5.2-.6 0-1.4.2-2 .5-.2 0-.2.2-.3.2-.6.3-1.3.6-1.7 1.1-3.3 3.1-4.8 9.4-6.7 17.1-.3 1.1-.5 2-.6 2.8-.3 1.1-.7 3.3-5.3 3.3H47.5V33.7z" clip-path="url(#b)"/><defs><path id="c" d="M13.1 16.3H187v167.3H13.1z"/></defs><clipPath id="d"><use xlink:href="#c" overflow="visible"/></clipPath><path d="M166 128c-1.1-.9-2.5-1.4-3.9-1.4-1.7 0-3.1.6-4.3 1.7L139 145.7c-2.5 2.5-2.5 6.3 0 8.8 1.3 1.3 2.8 1.8 4.3 1.8 1.6 0 3.3-.6 4.3-1.8l8.1-8.3v30.9c0 3.4 2.8 6.2 6.2 6.2 3.4 0 6.2-2.8 6.2-6.2v-31l8.1 8.3c1.3 1.3 2.8 1.8 4.3 1.8 1.6 0 3.1-.6 4.3-1.8 2.5-2.5 2.5-6.3 0-8.8L166 128z" clip-path="url(#d)"/></svg>