<svg xmlns="http://www.w3.org/2000/svg" xmlns:xlink="http://www.w3.org/1999/xlink" viewBox="0 0 200 170.8"><defs><path id="a" d="M15.1 3.2H185v164.4H15.1z"/></defs><clipPath id="b"><use xlink:href="#a" overflow="visible"/></clipPath><path d="M184.7 66.7V52.1s-24.2 20.6-24.2 38.8c0 14.6 10.9 25.5 10.9 25.5v32.8c0 3.6-2.4 6-6 6H32c-1.2 0-4.9-2.4-4.9-6v-31.5c1.2-1.2 12.2-14.6 12.2-26.6 0-14.6-10.9-26.6-10.9-26.6V32.8c0-3.6 2.4-6 6-6H112l11-13.4H33.2C19.9 13.4 15 23.2 15 32.8v31.5c0 9.7 12.2 13.3 12.2 26.6S15 110.3 15 117.6v31.6c0 10.9 7.3 18.2 18.2 18.2h132.2c10.9 0 18.2-8.5 18.2-18.2v-32.8c0-8.5-10.9-15.8-10.9-25.5-.1-10.8 12-19.3 12-24.2z" clip-path="url(#b)"/><defs><path id="c" d="M15.1 3.2H185v164.4H15.1z"/></defs><clipPath id="d"><use xlink:href="#c" overflow="visible"/></clipPath><path d="M57.5 137h84.9c3.6 0 6-2.4 6-6s-2.4-6-6-6H57.5c-3.6 0-6 2.4-6 6-.1 3.6 2.3 6 6 6zm78.8-42.4c0 3.6 2.4 6 6 6s6-2.4 6-6-2.4-6-6-6-6 2.4-6 6zM57.5 64.3h12.2c3.6 0 6-2.4 6-6s-2.4-6-6-6H57.5c-3.6 0-6 2.4-6 6-.1 3.6 2.3 6 6 6zm0 36.4h12.2c3.6 0 6-2.4 6-6s-2.4-6-6-6H57.5c-3.6 0-6 2.4-6 6-.1 3.5 2.3 6 6 6zm29.1 0h32.8l59.4-58.2c2.4-2.4 4.9-6 6-10.9 0-4.9-1.2-8.5-3.6-12.2L167.8 6.1c-3.6-2.4-7.3-3.6-12.2-2.4-3.6 0-8.5 2.4-10.9 6L86.6 68v32.7zm12-27.8l54.6-55.7c1.3-1.2 2.4-1.2 3.6-1.2h2.4l13.3 13.3v2.4c0 1.2-1.2 2.4-2.4 3.6l-55.7 53.3H98.6V72.9z" clip-path="url(#d)"/></svg>