<svg xmlns="http://www.w3.org/2000/svg" viewBox="0 0 200 200"><path d="M158.3 40.3c-3.2-2.9-6.8-5.2-10.9-6.8-4.1-1.7-8.3-2.5-12.7-2.5-5 0-9.5.8-13.7 2.5-4.2 1.7-7.8 3.9-10.9 6.8-3.1 2.9-5.5 6.3-7.2 10.1-1.7 3.9-2.6 8-2.6 12.4v20.7h17.4V66.7c0-5.8 1.5-10.3 4.5-13.5 3-3.2 7-4.8 12-4.8 5.5 0 9.9 1.6 13.2 4.8 3.3 3.2 4.9 7.7 4.9 13.5v16.5H169V62.8c0-4.4-1-8.5-2.9-12.4-2.1-3.8-4.6-7.2-7.8-10.1zm-33 51.2H40.1c-2.4 0-4.5.9-6.3 2.6-1.8 1.7-2.7 3.9-2.7 6.5v43.8c0 2.3.4 4.5 1.2 6.5.8 2 1.9 3.8 3.4 5.3s3.2 2.7 5.2 3.6c2 .9 4.3 1.3 6.7 1.3h69.7c2.5 0 4.8-.5 6.8-1.4 2.1-.9 3.9-2.2 5.4-3.7 1.5-1.6 2.7-3.4 3.6-5.6.9-2.2 1.3-4.5 1.3-7v-42.7c0-2.6-.9-4.7-2.6-6.5-1.7-1.9-3.9-2.7-6.5-2.7z"/><path d="M99 7c50.7 0 92 41.3 92 92s-41.3 92-92 92S7 149.7 7 99 48.3 7 99 7m0-8C43.8-1-1 43.8-1 99S43.8 199 99 199s100-44.8 100-100S154.2-1 99-1z"/></svg>