<svg class="icon" viewBox="0 0 1024 1024" xmlns="http://www.w3.org/2000/svg" width="200" height="200"><defs><style/></defs><path d="M859.4 133c8.5 0 16 3.1 22.2 9.3 6.2 6.2 9.3 13.7 9.3 22.2v205.3c0 4.6-1.5 8.4-4.5 11.3-3 3-6.7 4.5-11.3 4.5h-31.6c-4.6 0-8.4-1.5-11.3-4.5-3-3-4.5-6.7-4.5-11.3V240.5l-188.5 189c41.4 51.3 62.2 110.3 62.2 177.2 0 38.5-7.5 75.2-22.4 110.3-14.9 35.1-35.2 65.3-60.7 90.8s-55.7 45.8-90.8 60.7S455.8 891 417.3 891 342 883.5 307 868.6c-35.1-14.9-65.3-35.2-90.8-60.7s-45.8-55.7-60.7-90.8c-15-35.1-22.5-71.9-22.5-110.4s7.5-75.2 22.4-110.3c14.9-35.1 35.2-65.3 60.7-90.8s55.7-45.8 90.8-60.7c35.1-14.9 71.8-22.4 110.3-22.4 66.7 0 125.8 20.8 177.2 62.2L783 196.1H654.1c-4.6 0-8.4-1.5-11.3-4.5-3-3-4.5-6.7-4.5-11.3v-31.6c0-4.6 1.5-8.4 4.5-11.3 3-3 6.7-4.5 11.3-4.5h205.3zM261.1 762.9c43.3 43.3 95.3 64.9 156.2 64.9 60.8 0 112.9-21.6 156.2-64.9 43.3-43.3 64.9-95.3 64.9-156.2 0-60.8-21.6-112.9-64.9-156.2-43.3-43.3-95.3-64.9-156.2-64.9-60.8 0-112.9 21.6-156.2 64.9s-64.9 95.3-64.9 156.2c0 60.9 21.6 112.9 64.9 156.2z"/></svg>