<svg data-name="图层 1" xmlns="http://www.w3.org/2000/svg" viewBox="0 0 200 137.47"><path d="M174 39.16l5.36 7.87.22.11 6.34-10.17c3.29-4.93 6.91-8.82 8.86-15.31C198.56 9.09 189.59-.21 177.72.01l-2.51.44a15.63 15.63 0 0 0-7.44 4.7 22.23 22.23 0 0 0-3.61 5.69c-2.23 5.54-.51 12 1.86 15.85l8 12.47zm-2.51-24.61c1.18-3.79 3.71-4.56 7.32-6 11.37-.17 11.58 15.91 1.1 17.5-5.36.8-10.14-6-8.42-11.49zM52.91 106.42c6.61-9.25 12.86-16.54 16.73-28.87 8.67-27.59-8.89-50.23-35.87-49.76-2.11.82-5.23.55-7.33 1.2-6.29 1.94-12.27 5.68-16 10.28-3.23 4-6.15 8-8.2 13.23-4.81 12.34-1.3 25.38 4 34.12 6.19 10.14 12.48 20 19.25 29.64l10.72 15.86a3.62 3.62 0 0 1 .32.22l6.68-10.83c3.18-5.12 6.16-10.25 9.62-15.09zM18.68 60.16a19.41 19.41 0 0 1 11.26-12.25c1.68-.68 3.71-.49 5.58-1.2 12.48-.08 23 12.59 17.83 26a19 19 0 0 1-15.53 12.58c-12.22 2-23-12.92-19.14-25.15zm164.7 37.07L155.93 79.3l-9.41-6.46-18.59-10.17c-3.32-1.94-7.22-3.57-9.84-6.23l-.22-.11c12.39-2.57 25.29-2.73 38.28-4.92l20-2.3V49c-1-1.39-3.93-5.31-5.36-6l-5 .44-18.15 1.09c-4.72.73-9.56.1-14.55.87L91 49.22l19 14.66c6.8 4.54 14.09 8.11 20.67 12.79l25.15 19.58.22.32-60.59 3.83-12.25.55c-5 .77-9.59 1-14.21 1.86l-6.68 1q-9.89 16.68-19.79 33.36l-.22.33c22.42-5 45.58-8.66 68.35-13.67l37-6.57 52.38-9v-.11l-16.62-10.94z"/></svg>