<svg data-name="图层 1" xmlns="http://www.w3.org/2000/svg" viewBox="0 0 200.03 193.99"><defs><clipPath id="a" transform="translate(0 -2.97)"><path d="M0 2.72h200v194.56H0z"/></clipPath></defs><g clip-path="url(#a)"><path d="M174.27 51.52H92.42a25.76 25.76 0 0 1 0-51.49h81.85a25.76 25.76 0 0 1 0 51.52zm0 142.46H92.42a25.76 25.76 0 1 1 0-51.51h81.85a25.76 25.76 0 1 1 0 51.51zm0-69.71H92.42a25.76 25.76 0 1 1 0-51.51h81.85a25.76 25.76 0 1 1 0 51.51zM28.78 51.52h-3A25.76 25.76 0 0 1 25.76.03h3a25.76 25.76 0 0 1 0 51.52zm0 142.46h-3a25.76 25.76 0 1 1 0-51.51h3a25.76 25.76 0 1 1 0 51.51zm0-69.71h-3a25.76 25.76 0 1 1 0-51.51h3a25.76 25.76 0 1 1 0 51.51zm0 0"/></g></svg>