<svg xmlns="http://www.w3.org/2000/svg" viewBox="0 0 200 200"><path d="M121.8 85.7H78.2c-1.4 0-2.5 1.1-2.5 2.5v109.3c0 1.4 1.1 2.5 2.5 2.5h43.5c1.4 0 2.5-1.1 2.5-2.5V88.2c.1-1.4-1-2.5-2.4-2.5z"/><path d="M108.3 91.5h-33c-4 0-7.3-3.3-7.3-7.3l-35-77c0-4 3.3-7.3 7.3-7.3h33c4 0 7.3 3.3 7.3 7.3l35 77c-.1 4.1-3.3 7.3-7.3 7.3z"/><path d="M91.7 91.5h33c4 0 7.3-3.3 7.3-7.3l35-77c0-4-3.3-7.3-7.3-7.3h-33c-4 0-7.3 3.3-7.3 7.3l-35 77c.1 4.1 3.3 7.3 7.3 7.3z"/><path d="M29.1 83h141.7v15H29.1zM35.4 137.1h129.1v17.8H35.4z"/></svg>