<svg data-name="图层 1" xmlns="http://www.w3.org/2000/svg" viewBox="0 0 200 141.07"><path d="M189.29 117.86h-14.54a28.54 28.54 0 0 0-56.64 0h-11a10.72 10.72 0 0 1-10.71-10.71V10.72A10.72 10.72 0 0 1 107.11 0h82.15A10.72 10.72 0 0 1 200 10.72v96.43a10.72 10.72 0 0 1-10.71 10.71m-110.72 0h-7.39a28.55 28.55 0 0 0-56.65 0H7.14A7.14 7.14 0 0 1 0 110.72V71.43c0-14.27 24.43-50 35.71-50h42.86a7.14 7.14 0 0 1 7.14 7.11v82.14a7.14 7.14 0 0 1-7.14 7.14M64.28 39.29s-11.25-.52-24.76 0c-5.77.25-21.66 21.25-21.66 32.14V75h46.42V39.29m-21.42 64.25A17.86 17.86 0 1 1 25 121.43a17.85 17.85 0 0 1 17.86-17.89m104.46 0a18.75 18.75 0 1 1-18.75 18.75 18.74 18.74 0 0 1 18.75-18.75"/></svg>