<svg xmlns="http://www.w3.org/2000/svg" viewBox="0 0 200 200"><path d="M106.5 125.4c.2-4.6 1.7-9.1 4.2-13 4.8-6.2 8.2-13.2 10.2-20.7 5.7-4.7 9.3-11.4 10-18.6.6-11.1-2.1-11.7-2.1-11.7 4-12.1 5.3-57.6-24-52.3C100.2-.5 69.5-8 55.2 17.5 47.5 31 46 47.1 51 61.8c0 1-1.9-1-2.6 5.5-.3 6.9 1.6 13.8 5.4 19.6 1.3 1.6 3 2.9 5 3.7 1.8 7.9 5.4 15.3 10.6 21.6.9 5.2-1.6 10.4-6.3 12.9-27.8 5.7-53.2 21-53.2 37.6v12.9c3.2 23.2 66.4 21.6 109 20.7 1.7-1.2 2.2-3.4 1.2-5.2-2.7-3.8-6.5-6.7-10.9-8.3 0-.4-1.3-.6-1.4-.9-1.7-3.6-2.3-7.6-1.7-11.5.1-.2.2-44.4.4-45z"/><path d="M178.4 113H131c-6.1-.2-11.3 4.7-11.5 10.8v49.6c.4 2.4 1.4 4.6 2.9 6.5l27.3 18.7c1.5 1 3.2 1.6 5 1.4 1.9 0 3.7-.7 5-2.2l26.6-18c2.1-1.2 3.4-3.4 3.6-5.8v-49.6c.7-5.6-3.3-10.8-8.9-11.5-.8 0-1.7 0-2.6.1zm.5 28.3l-10.1 9.8 2.5 13.6c.2.9-.2 1.8-.9 2.4-.4.3-.9.5-1.4.5-.4.1-.8.1-1.2 0l-12.7-6.3-12.8 6.3c-.4.1-.7.1-1.1 0-.5 0-1.1-.2-1.5-.5-.7-.6-1.1-1.5-.9-2.4l2.7-13.6-10.1-9.4c-.7-.6-1-1.6-.6-2.5.3-.9 1.1-1.5 2-1.7l14.1-2.8 6.1-12.4c.6-1.2 2.2-1.7 3.4-1.1.5.2.8.6 1.1 1.1l6.3 12.7 14 2.4c.9.2 1.6.8 1.9 1.7 0 .8-.2 1.6-.8 2.2z"/></svg>