<svg xmlns="http://www.w3.org/2000/svg" viewBox="0 0 200 200"><path d="M188 32.2V82c0 5.8-4.9 9.6-10.7 9.6-5.5 0-9.7-3.5-10.5-8.4-.2-.3-.3-.6-.3-.9-5.1-30.5-35-54.5-67.1-54.5-32.2 0-62 24-67.1 54.5-.5 3-3 5.2-6.2 5.2H18c-4 0-6.5-3.5-6-7.2C18.2 39.1 57.2 6.9 99.8 6.9c25.3 0 50.4 11.5 67.7 30.1v-4.8c0-5.7 4.3-10.7 9.8-10.8 5.9.1 10.7 5.1 10.7 10.8zM31.3 116.7l.5.5c5.1 30.4 35.4 54.5 67.7 54.5 32.2 0 62-24 67.1-54.5.5-3 3.1-5.2 6.2-5.2h8.1c4 0 6.5 3.5 6 7.2-6.2 41.2-45.2 73.4-87.8 73.4-25.3 0-50.3-11.4-67.6-29.9v3.6c0 5.6-4.3 9.7-9.7 9.8-6-.1-10.9-4.2-10.9-9.8v-49.8c0-5.7 4.8-10.6 10.5-10.6 6 0 10 4.8 10 10.6-.1 0-.1.2-.1.2z"/><path d="M141.1 80.9L120.3 62c-.7-.5-1.5 0-1.5.9v12.4H71.4c-3.1 0-5.7 2.7-5.7 6s2.6 6 5.7 6h47.4v13.4c0 .9.9 1.3 1.5.9l20.8-18.9c.3-.2.5-.6.5-.9 0-.4-.2-.7-.5-.9zm-75 37.7l20.8 18.9c.7.5 1.5 0 1.5-.9v-11.5h47.5c3.1 0 5.7-2.7 5.7-6s-2.6-6-5.7-6H88.4V98.8c0-.9-.9-1.3-1.5-.9l-20.8 18.9c-.3.2-.5.6-.5.9 0 .3.2.7.5.9z"/></svg>