<svg data-name="图层 1" xmlns="http://www.w3.org/2000/svg" viewBox="0 0 171.43 200"><path d="M24 161.57a13.68 13.68 0 1 0 13.72-13.68 13.69 13.69 0 0 0-13.68 13.68zM67.87.2H7.5A7.58 7.58 0 0 0 0 7.84v184.45A7.64 7.64 0 0 0 7.5 200h60.37a7.7 7.7 0 0 0 7.57-7.71V7.84A7.64 7.64 0 0 0 67.87.2zm-45.22 23h30.14v76.86H22.65zm15.07 162.23a23.87 23.87 0 1 1 23.43-23.86 23.87 23.87 0 0 1-23.43 23.86zm91.94-40.22a13.45 13.45 0 0 0-11.36 15.14 13.23 13.23 0 0 0 14.86 11.58 13.474 13.474 0 0 0-3.5-26.72zm41.71 37.93l-23-176.72a7.36 7.36 0 0 0-8.21-6.36L82.37 7.84a7.47 7.47 0 0 0-6.29 8.36l23 176.73a7.35 7.35 0 0 0 8.22 6.36l57.79-7.79a7.46 7.46 0 0 0 6.28-8.36zM99.65 28l28.93-3.93 9.58 73.65-28.93 3.93zm34.72 153.44a22.69 22.69 0 0 1-25.43-19.79 23 23 0 0 1 19.5-25.93 22.72 22.72 0 0 1 25.36 19.86 23 23 0 0 1-19.43 25.86zm0 0"/></svg>