<svg xmlns="http://www.w3.org/2000/svg" viewBox="0 0 200 200"><path d="M68.9 22.4H26.5C15.8 22.4 7 31.1 7 41.9v42.3c0 10.8 8.7 19.5 19.4 19.5h42.4c10.7 0 19.4-8.7 19.4-19.5V41.9c.1-10.8-8.7-19.5-19.3-19.5zm0 88.8H26.5C15.8 111.2 7 120 7 130.7v42.4c0 10.7 8.7 19.4 19.4 19.4h42.4c10.7 0 19.4-8.7 19.4-19.4v-42.4c.1-10.7-8.7-19.5-19.3-19.5zm118.4-68.1l-29.9-29.9c-3.7-3.7-8.6-5.7-13.8-5.7-5.2 0-10 2-13.8 5.7l-30 29.9c-7.6 7.6-7.6 19.9 0 27.5l29.9 29.9c3.7 3.7 8.6 5.7 13.8 5.7 5.2 0 10-2 13.8-5.7l29.9-29.9c3.7-3.7 5.7-8.6 5.7-13.8s-2-10-5.6-13.7zm-4.4 23.2l-29.9 30c-2.5 2.5-5.9 3.9-9.4 3.9s-6.9-1.4-9.4-3.9l-29.9-29.9c-5.2-5.2-5.2-13.7 0-18.9l29.9-29.9c2.5-2.5 5.9-3.9 9.4-3.9s6.9 1.4 9.4 3.9l29.9 29.9c2.5 2.5 3.9 5.9 3.9 9.4s-1.4 6.9-3.9 9.4zm-25.2 44.9h-42.4c-10.7 0-19.4 8.7-19.4 19.4V173c0 10.7 8.7 19.4 19.4 19.4h42.4c10.7 0 19.4-8.7 19.4-19.4v-42.4c.1-10.6-8.7-19.4-19.4-19.4z"/></svg>