<svg xmlns="http://www.w3.org/2000/svg" viewBox="0 0 200 200"><path d="M73.3 163.1H46.9V178h41.3l-14.3-14.3-.6-.6zm-4.6-35.2H21.3V33.2h144.9v35.2l10.2-7.3 11.1 11.1V12.8H0v137.8h68.7v-22.7zM200 139.5v-22.1l-16.9-2.8c-.7-2.1-1.5-4.1-2.5-6l9.9-13.9L175 79l-13.9 10c-1.9-1-4-1.8-6.1-2.5l-2.8-16.8h-22.1l-2.8 16.8c-2.1.7-4.1 1.5-6.1 2.5l-13.8-10-15.6 15.6 9.9 13.9c-1 1.9-1.8 3.9-2.5 6l-16.9 2.8v22.1l16.9 2.8c.7 2.1 1.5 4.1 2.5 6l-10 14 15.6 15.6 14-10c1.9 1 3.9 1.8 5.9 2.5l2.8 16.9h22.1l2.8-16.9c2-.7 4-1.5 5.9-2.5l14 10 15.6-15.6-10-14c1-1.9 1.8-3.9 2.5-6l17.1-2.7zm-58.8 6.5c-9.7 0-17.6-7.9-17.6-17.6 0-9.7 7.9-17.6 17.6-17.6 9.7 0 17.6 7.9 17.6 17.6 0 9.7-7.9 17.6-17.6 17.6z"/></svg>