<svg xmlns="http://www.w3.org/2000/svg" viewBox="0 0 200 200"><path d="M48.2 172.3c0 4.3 4.3 8.5 8.5 8.5h134.8c4.3 0 8.5-4.3 8.5-8.5v-5.7c0-4.3-4.3-8.5-8.5-8.5H56.7c-4.3 0-8.5 4.3-8.5 8.5v5.7zM17 152.5c-8.5 0-17 7.1-17 17 0 8.5 7.1 15.6 17 15.6 8.5 0 17-7.1 17-17-1.4-8.5-8.5-15.6-17-15.6zm31.2-49.7c0 4.3 4.3 8.5 8.5 8.5h134.8c4.3 0 8.5-4.3 8.5-8.5v-5.7c0-4.3-4.3-8.5-8.5-8.5H56.7c-4.3 0-8.5 4.3-8.5 8.5v5.7zM17 83c-9.9 0-17 8.5-17 17s7.1 17 17 17c8.5 0 17-7.1 17-17-1.4-8.5-8.5-17-17-17zm39.7-62.4c-4.3 0-8.5 4.3-8.5 8.5v5.7c0 4.3 4.3 8.5 8.5 8.5h134.8c4.3 0 8.5-4.3 8.5-8.5v-7.1c0-4.3-4.3-8.5-8.5-8.5H56.7v1.4zM17 14.9C7.1 14.9 0 22 0 30.5s7.1 17 17 17c8.5 0 17-7.1 17-17-1.4-8.5-8.5-15.6-17-15.6z"/></svg>