<svg xmlns="http://www.w3.org/2000/svg" viewBox="0 0 199.9 200"><path d="M184.4 10H40.5c-3 0-5.4 2.4-5.4 5.4v84.9h7.7V23.2c0-2.7 2.1-4.8 4.8-4.8h129.6c2.7 0 4.8 2.1 4.8 4.8v141.2c0 2.7-2.2 4.8-4.8 4.8H47.7c-2.7 0-4.8-2.2-4.8-4.8v-25.2h-7.7v33.1c0 3 2.4 5.3 5.3 5.3h143.9c3 0 5.4-2.4 5.4-5.3V15.4c0-3-2.4-5.4-5.4-5.4z"/><path d="M186.7 15.8l-84 23.4c-1.7.5-3.1 3-3.1 5.7V186c0 2.7 1.4 4.4 3.1 3.9l84-23.4c1.7-.5 3.1-3 3.1-5.7V19.7c0-2.7-1.3-4.4-3.1-3.9zm-102 98.1l-2.8-1.7L64 101.3c-2.3-1.4-5.4-.6-6.8 1.7-.1.1-.1.2-.1.3l-1.1 2c-1.4 2.6-.6 5.8 1.9 7.3l1 .6H15.1c-2.9.1-5.1 2.5-5.1 5.3v2.4c-.1 2.9 2.1 5.3 5 5.4h43.9l-1.1.7c-2.4 1.6-3.3 4.8-1.9 7.3l1.1 2c1.2 2.4 4.2 3.4 6.6 2.1.1-.1.2-.1.3-.2l18-10.9 3.2-2c2.9-3.3 2.8-8.2-.4-11.4zm-4.5-2.1l.4.1-.4-.1z"/></svg>