<svg xmlns="http://www.w3.org/2000/svg" viewBox="0 0 200 200"><path d="M63.2 105.6c-.8 1-4.1 4.7-4.8 5.7-3.1 4.7-4.1 10.5-2.9 16 1.8 6.1 7.9 6.8 12.5 7.3 10.5 1.1 21.3.4 31.9.4 10.4 0 20.8-.1 31.1.1 6.1.1 11.3-1.6 13.9-7.4 2.7-6.2 1.3-12-3.3-16.9-1.6-1.7-3.3-3.4-5-5.1-3.9-3.9-3.8-7.8-.4-12 3.3-3.8 6.4-7.8 9.2-12 14.5-22.8 9.5-52.8-11.7-69.6-21.3-17.3-52.2-15.8-71.4 3.3-20.8 20.7-17.4 55 1.1 78.2 4.3 5.4 2.3 8.7-.2 12z"/><path d="M18.8 125.3h162.4c3.3 0 6 2.7 6 6v25.5c0 3.3-2.7 6-6 6H18.8c-3.3 0-6-2.7-6-6v-25.5c0-3.3 2.7-6 6-6zM29.9 171.9H170c3.3 0 6 2.7 6 6V194c0 3.3-2.7 6-6 6H29.9c-3.3 0-6-2.7-6-6v-16.1c0-3.3 2.7-6 6-6z"/></svg>