<svg data-name="图层 1" xmlns="http://www.w3.org/2000/svg" viewBox="0 0 174.44 200"><path d="M50.39 105.57c-.82 1-4.13 4.74-4.81 5.67a20.62 20.62 0 0 0-2.87 16c1.79 6.12 7.93 6.81 12.48 7.26 10.54 1.06 21.25.35 31.89.35 10.38 0 20.76-.15 31.13.07 6.13.1 11.29-1.58 13.85-7.36 2.72-6.16 1.33-12-3.3-16.94-1.64-1.73-3.33-3.44-5-5.13-3.89-3.89-3.81-7.79-.37-12a125.05 125.05 0 0 0 9.17-12 52.71 52.71 0 0 0-11.67-69.62C99.6-5.24 68.68-3.66 49.54 15.44c-20.79 20.75-17.42 55 1.09 78.19 4.27 5.34 2.32 8.72-.24 11.94z"/><rect y="125.31" width="174.44" height="37.49" rx="6" ry="6"/><rect x="11.15" y="171.92" width="152.14" height="28.08" rx="6" ry="6"/></svg>