<svg xmlns="http://www.w3.org/2000/svg" viewBox="0 0 200 200"><path d="M147.7 108.3c8 0 15.6 1.8 22.5 5.1V52.2L121.2 0H34.6C22.2 0 12.2 10 12.2 22.3v141.5c0 12.3 10 22.3 22.3 22.3h66.7c-4.1-7.5-6.4-16-6.4-25.1.1-29 23.8-52.7 52.9-52.7zM121.9 12l39 40.2h-39V12zM91.2 129.5h-62v-12h62v12zm-62-42v-12h116v12h-116z"/><path d="M183.8 156.9l-6.6-1.5-.2-.5c-.4-1.4-1-2.8-1.7-4.2l-.2-.5 3.6-5.9c1.1-1.7 1.5-4.1.1-5.5l-3.3-3.3c-.8-.8-1.9-1-2.7-1-1 0-2.1.3-3 .9l-5.8 3.7-.5-.2c-1.4-.7-2.8-1.3-4.2-1.8l-.5-.2-1.5-6.7c-.3-1.9-2-3.9-4.1-3.9h-4.7c-2 0-3.4 2-3.8 4l-1.6 6.6-.5.2c-1.5.5-3 1.1-4.4 1.9l-.5.3-5.9-3.7c-.8-.6-2-.9-3-.9-.8 0-1.8.2-2.7 1l-3.3 3.3c-1.4 1.4-1 3.8.1 5.5l3.7 6.2-.2.5c-.7 1.4-1.2 2.7-1.6 3.9l-.2.5-6.6 1.5c-1.9.3-3.9 2-3.9 4.1v4.7c0 2 2 3.4 4 3.8l6.6 1.6.2.5c.4 1.2.9 2.4 1.5 3.6l.2.5-3.6 6.1c-1.1 1.7-1.5 4.1-.1 5.5l3.3 3.3c.8.8 1.9 1 2.7 1 1 0 2.1-.3 3-.9l5.9-3.8.5.3c1.5.8 2.9 1.4 4.5 1.9l.5.2 1.6 6.5c.5 2 1.8 4 3.8 4h4.7c2.1 0 3.7-2 4.1-3.9l1.5-6.7.5-.2c1.4-.5 2.8-1 4.1-1.7l.5-.2 5.8 3.7c.8.6 1.9.9 3 .9.8 0 1.8-.2 2.7-1l3.3-3.3c1.4-1.4 1-3.8-.1-5.5l-3.6-5.9.2-.5c.7-1.3 1.2-2.6 1.6-3.9l.2-.5 6.6-1.6c2-.5 4-1.8 4-3.8v-4.7c-.1-2.3-2.2-4-4-4.3zm-32.9 24.5c-10.1 0-18.3-8.2-18.3-18.3 0-10.1 8.2-18.3 18.3-18.3s18.3 8.2 18.3 18.3c0 10.1-8.2 18.3-18.3 18.3z"/></svg>