<svg data-name="图层 1" xmlns="http://www.w3.org/2000/svg" viewBox="0 0 177.91 200"><path d="M113.22 92.9a8.13 8.13 0 1 1 0 16.26H97.09v17.92a8.14 8.14 0 0 1-16.27 0v-17.92H64.55a8.13 8.13 0 1 1 0-16.26h16.27v-7.63H64.55a8.13 8.13 0 0 1 0-16.14h11.69l-12.7-12.69A8.181 8.181 0 1 1 75.1 44.86l13.85 13.85 14.11-14.27a8.143 8.143 0 1 1 11.43 11.6l-12.7 12.71h11.84a8.13 8.13 0 1 1 0 16.14H97.09v7.63zM152.49 0H25.41A25.42 25.42 0 0 0 0 25.44v163.65a6 6 0 0 0 10.16 4.35l19.47-18.71a6 6 0 0 1 8.38 0l11.06 22.88a8.51 8.51 0 0 0 11.82 0l23.74-22.88a6 6 0 0 1 8.39 0l23.61 22.88a8.66 8.66 0 0 0 12 0l11.31-22.88a6 6 0 0 1 8.39 0l19.3 18.71a6.09 6.09 0 0 0 10.29-4.32V25.44A25.42 25.42 0 0 0 152.49 0zm0 0"/></svg>