<svg xmlns="http://www.w3.org/2000/svg" viewBox="0 0 200 200"><path d="M163.9 89.1c-14.1-3.2-28.8-1.4-41.8 5-4.8.8-9.8 1.2-14.7 1.2-11.6 0-22-2.2-29.9-5.8-1.3-.6-2.6-1.3-3.8-2.1-2.6 2.3-3.8 4.6-3.8 6.6-.2 3.2 3.2 7.3 10.1 10.5 5.7 2.7 13.5 4.6 22.3 5.1-9.6 11.3-14.9 25.6-14.8 40.4 0 6.5 1 12.8 2.8 18.7l-1.2-.9-71.6-60.3c-1.6-1.8-2.5-4.1-2.5-6.4.1-4.5 3.1-8.3 7.4-9.4 0 0 1-.4 2.5-.4H31V42.8c0-5.8 2.9-10.6 7.4-13.3-1.5 2.5-2.3 5.5-2.3 8.5v53.3h10v-63c0-9 7.1-15.8 16.5-15.8h84.9c9.4 0 16.5 6.7 16.5 15.8-.1 0-.1 60.7-.1 60.8zm-158 17.5c-1.6 3.5-1 7.6 1.7 10.4l71.6 60.3c5 3.8 11.2 5.7 17.5 5.3.7 1.2 1.4 2.3 2.2 3.4-8.4 3-17.7 1.6-24.7-3.8L2.5 121.9c-1.6-1.8-2.5-4.1-2.5-6.4 0-3.9 2.3-7.4 5.9-8.9zm138.6-56.2c-.2-.5-.4-.9-.6-1.3-.2-.4-.5-.8-.8-1.2-1.6-2-4.3-4.1-8.1-5.8-6.8-3.2-16.6-5.3-27.4-5.3-1.8 0-3.6.1-5.3.2l-.9.1c-8.3.6-15.7 2.4-21.2 5-3.8 1.7-6.4 3.8-8.1 5.8l-.4.5c-.1.2-.3.4-.4.6-.2.3-.4.7-.6 1.1l-.1.3-.3.9-.1.3c-.2.3-.2.7-.2 1 0 .4.1.7.1 1.1.1.1.1.3.1.4l.2.7c.1.4.3.8.6 1.1l.1.2c1.4 2.4 4.2 4.8 8.6 6.9l.4.2c.8.4 1.7.7 2.6 1.1l.9.3 1.8.7 1.2.3c.6.1 1.1.3 1.7.5.5.1.9.3 1.4.3.6.1 1.2.3 1.7.4.5.1 1.1.2 1.6.3l1.7.3 1.8.3c.5.1 1 .2 1.6.2.7.1 1.3.2 2 .2.3 0 .7 0 1 .1 2.1.2 4.2.3 6.4.3 10.8 0 20.6-2.1 27.4-5.3 2.6-1.2 4.8-2.6 6.3-4 .5-.4.9-.8 1.3-1.3.3-.3.5-.6.7-.9l.3-.3c.2-.2.3-.5.5-.7.1-.1.2-.3.3-.4l.3-.6c.1-.2.2-.4.2-.6 0-.2.1-.3.1-.5.1-.4.1-.7.1-1.1 0-.4 0-.7-.1-1.1-.1-.6-.2-.9-.4-1.3zm.1 20.9c-.2-.5-.4-1-.7-1.5l-.3-.5c-.7-1-1.5-1.8-2.4-2.6l-1.8 1.1-2 1c-1 .5-2.1.9-3.1 1.3-.3.1-.5.2-.8.3-.8.3-1.7.6-2.6.9-.2.1-.4.1-.6.2-1.1.3-2.3.6-3.4.9-1.2.3-2.3.5-3.5.8-9.9 1.9-20.1 2-30.1.3-2.8-.4-5.5-1.1-8.2-1.9h-.2c-1.2-.4-2.3-.7-3.4-1.2-2.7-.9-5.3-2.1-7.7-3.6-2.7 2.2-3.8 4.5-3.8 6.5 0 .3 0 .7.1 1 0 .2.1.3.1.5s.1.3.1.5c1 2.8 4.2 6 9.7 8.6 6.8 3.2 16.6 5.3 27.4 5.3 10.8 0 20.6-2 27.4-5.3 4.7-2.2 7.8-4.8 9.2-7.3.1-.1.2-.3.2-.3.2-.4.4-.9.5-1.3.3-1 .3-2 .1-3 0-.2-.1-.4-.2-.7z"/><path d="M150 200c-27.6 0-50-22.4-50-50s22.4-50 50-50 50 22.4 50 50-22.4 50-50 50zm-17.9-53.4c-1.6-1.6-4.1-1.7-5.7-.1l-.1.1a4.35 4.35 0 0 0 0 6l15.7 16.1c.9 1 2.3 1.4 3.6 1.2 1.3.2 2.5-.2 3.4-1.1l29.8-30.6c1.5-1.6 1.5-4.2 0-5.8-1.5-1.5-3.9-1.6-5.5-.1l-.1.1-27.4 28.1-13.7-13.9z"/></svg>