<svg data-name="图层 1" xmlns="http://www.w3.org/2000/svg" viewBox="0 0 199.88 186.47"><rect x="69.1" y="155.32" width="130.77" height="22.7" rx="8.51" ry="8.51"/><rect x="69.1" y="85.81" width="130.77" height="22.7" rx="8.51" ry="8.51"/><path d="M77.61 17.73c-4.26 0-8.51 4.25-8.51 8.51v5.67c0 4.26 4.25 8.51 8.51 8.51h113.75c4.25 0 8.51-4.25 8.51-8.51v-7.09c0-4.26-4.26-8.51-8.51-8.51H77.61zM61.75 6.21L26.93 48.84c.16.52-.63.63-1.15.16L.45 28.28a1.19 1.19 0 0 1-.15-1.73l4.24-5.19a1.19 1.19 0 0 1 1.73-.15l19.19 15.88L55.25.65a1.09 1.09 0 0 1 1.73-.36l4.93 4c.52.42.83.79-.16 1.94zm0 68.09l-34.82 42.62c.16.53-.63.63-1.15.16L.45 96.37a1.19 1.19 0 0 1-.15-1.73l4.24-5.19a1.19 1.19 0 0 1 1.73-.16l19.19 15.87 29.79-36.42a1.09 1.09 0 0 1 1.73-.37l4.93 4c.52.42.83.78-.16 1.94zm0 69.08l-34.82 42.63c.16.52-.63.63-1.15.16L.45 165.46a1.2 1.2 0 0 1-.15-1.74l4.24-5.19a1.19 1.19 0 0 1 1.73-.15l19.19 15.88 29.79-36.44a1.09 1.09 0 0 1 1.73-.36l4.93 4c.52.42.83.79-.16 1.94z"/></svg>