<svg data-name="图层 1" xmlns="http://www.w3.org/2000/svg" viewBox="0 0 154.31 200"><path d="M77.96 118.78l-5.87-5.94-4.62-4.63a41.14 41.14 0 0 1-3.08-3.3 14 14 0 0 0-4.62-2.51 4.22 4.22 0 0 0-4.85 1.19 4.81 4.81 0 0 0-.88 4.72 12.88 12.88 0 0 0 2 3.62l3.3 3.08q2.43 2.64 5.29 5.72c2.2 2.35 4.62 4.84 7.23 7.46l-.22 4.62h-15a4.44 4.44 0 0 0-3.39 1.54 4.75 4.75 0 0 0-1.42 3.3 4.23 4.23 0 0 0 1.32 3.08 4.75 4.75 0 0 0 3.52 1.28h14.94v7.68H56.67a5.05 5.05 0 0 0-3.4 1.2 4 4 0 0 0-1.42 3.18 3.16 3.16 0 0 0 1.2 3 5.36 5.36 0 0 0 3.62 1.2h14.94v4.4c.14 2.06.8 3.47 2 4.28a7.55 7.55 0 0 0 4.4 1.2 4.9 4.9 0 0 0 4.28-1.64 5.73 5.73 0 0 0 1.63-3.84v-4.4h15.36a6.36 6.36 0 0 0 3.62-1 3.17 3.17 0 0 0 1.2-3.17c0-3.08-2.06-4.62-6.14-4.62H83.88l.21-7.47 14.28-.22c2 .14 3.52-.25 4.4-1.2a4.83 4.83 0 0 0 1.32-3.4 4.38 4.38 0 0 0-1.42-3.18 6.13 6.13 0 0 0-4.5-1.42H83.9v-4.18c2.5-2.34 4.77-4.62 6.8-6.79q2.64-2.64 5.28-5.38a53.07 53.07 0 0 1 4-3.84c3.38-2.93 4.11-5.5 2.2-7.68a4.78 4.78 0 0 0-4-2 6.49 6.49 0 0 0-4.4 1.76c-.73.59-2 1.64-3.74 3.18s-3.52 3.11-5.28 4.72c-2 1.88-4.3 4-6.8 6.36zm23.28-67.41a88 88 0 0 0 6.58 7.64c2.2 2.49 4.91 5.3 8.11 8.46s6.95 6.48 11.2 10a130.52 130.52 0 0 1 10.88 10.85 66.58 66.58 0 0 1 9.78 14.69 64 64 0 0 1 5.82 19.22 78.64 78.64 0 0 1-.54 24.25 61.67 61.67 0 0 1-7.8 20.76 59.37 59.37 0 0 1-15.47 17 76.88 76.88 0 0 1-22.94 11.52 98.09 98.09 0 0 1-30.19 4.25q-17.35 0-30.73-4.94a75.37 75.37 0 0 1-22.74-12.84 65.12 65.12 0 0 1-14.82-17.67 61.38 61.38 0 0 1-7.23-19.44 63.16 63.16 0 0 1-.54-20.64 72.93 72.93 0 0 1 14.48-34.47 91.22 91.22 0 0 1 12.19-13q5.72-5 10.32-9.53a103.92 103.92 0 0 0 7.68-8.24c2.49-2.78 4.69-5.42 6.57-7.89h49.39zM76.42 7.46a2.15 2.15 0 0 0 1.1-.45 25.38 25.38 0 0 0 3.57-3.07A18.45 18.45 0 0 1 86.33.42q2.64-1.09 7 .66a8.84 8.84 0 0 1 3.52 1.86l2.52 2.3a13.35 13.35 0 0 0 2.64 1.85 7.5 7.5 0 0 0 3.62.76 9.48 9.48 0 0 0 3.74-.66c1-.44 2-.83 3-1.2a13.73 13.73 0 0 1 2.86-.75 7.32 7.32 0 0 1 3.4.44 5.13 5.13 0 0 1 3 2.51 5.48 5.48 0 0 1 .44 3.4 9.27 9.27 0 0 1-1.54 3.52 10 10 0 0 1-3 2.86 25 25 0 0 0-6.36 5.38c-1.47 1.84-2.93 3.77-4.4 5.82-.73 1-1.54 2.2-2.42 3.52s-1.69 2.64-2.42 4a46.51 46.51 0 0 1-2.84 4.58h-45.5c-1-1.76-2.06-3.44-3.08-5.06-.88-1.46-1.84-2.93-2.86-4.4s-1.91-2.78-2.64-4a32.24 32.24 0 0 0-4.92-5.8c-1.84-1.68-3.62-3.18-5.38-4.5a10.09 10.09 0 0 1-4-5.37c-.74-2.28-.07-4.21 2-5.82a4.87 4.87 0 0 1 3.52-.88 23.17 23.17 0 0 1 4.18.88c1.47.44 2.88.88 4.28 1.32a7 7 0 0 0 3.84.22 8.62 8.62 0 0 0 4.62-2.3 29.71 29.71 0 0 1 5.28-4.06A9.12 9.12 0 0 1 64.79.32a9.38 9.38 0 0 1 5.3 2.3 10.91 10.91 0 0 0 1.86 1.86 20.41 20.41 0 0 0 2.07 1.42 12.67 12.67 0 0 0 2.42 1.56zm0 0"/></svg>