<svg xmlns="http://www.w3.org/2000/svg" xmlns:xlink="http://www.w3.org/1999/xlink" viewBox="0 0 200 200"><defs><path id="a" d="M7.4 7h186v186.3H7.4z"/></defs><clipPath id="b"><use xlink:href="#a" overflow="visible"/></clipPath><path d="M7.4 177.5c0 8.6 7 15.5 15.5 15.5H178c8.6 0 15.5-7 15.5-15.5v-42.6c0-8.6-7-15.5-15.5-15.5h-46.5V78.7c0-5.4-4.3-9.7-9.7-9.7-5.4 0-9.7 4.3-9.7 9.7v40.7H22.9c-8.6 0-15.5 7-15.5 15.5v42.6zm19.3-21.3c0-5.4 4.3-9.7 9.7-9.7 5.4 0 9.7 4.3 9.7 9.7s-4.3 9.7-9.7 9.7c-5.3 0-9.7-4.4-9.7-9.7zm34.9 0c0-5.4 4.3-9.7 9.7-9.7 5.4 0 9.7 4.3 9.7 9.7s-4.3 9.7-9.7 9.7c-5.3 0-9.7-4.4-9.7-9.7zm60.1-118.3C99.2 37.9 81 56.1 81 78.6c0 5.4 4.3 9.7 9.7 9.7 5.4 0 9.7-4.3 9.7-9.7 0-11.8 9.5-21.3 21.3-21.3S143 66.8 143 78.6c0 5.4 4.3 9.7 9.7 9.7s9.7-4.3 9.7-9.7c0-22.4-18.2-40.7-40.7-40.7zm0-30.9C82.1 7 50 39.1 50 78.7c0 5.4 4.3 9.7 9.7 9.7s9.7-4.3 9.7-9.7c0-29 23.4-52.4 52.4-52.4s52.4 23.4 52.4 52.4c0 5.4 4.3 9.7 9.7 9.7s9.7-4.3 9.7-9.7C193.4 39.1 161.3 7 121.7 7z" clip-path="url(#b)"/></svg>