<svg data-name="图层 1" xmlns="http://www.w3.org/2000/svg" viewBox="0 0 200 198.18"><path d="M100 0C44.54 0 0 40.9 0 91.81a86.21 86.21 0 0 0 34.53 69.11c1.82 2.74 5.46 18.21 7.28 30.89 0 1.82 1.82 4.55 3.64 5.46.91.91 1.82.91 3.64.91a3.34 3.34 0 0 0 2.73-.91l29.07-13.66H100c55.47 0 100-41.8 100-91.8S155.47 0 100 0zM49.51 110.07a16.94 16.94 0 1 1 16.94-16.93 16.89 16.89 0 0 1-16.94 16.93zm51.82 0a16.94 16.94 0 1 1 16.94-16.93 16.89 16.89 0 0 1-16.94 16.93zm50.35 0a16.94 16.94 0 1 1 16.96-16.93 16.89 16.89 0 0 1-17 16.93z"/></svg>