<svg data-name="图层 1" xmlns="http://www.w3.org/2000/svg" viewBox="0 0 199.71 199.71"><defs><clipPath id="a" transform="translate(-.13 -.02)"><path fill="none" d="M.13 0h199.73v200H.13z"/></clipPath></defs><g clip-path="url(#a)"><path d="M99.87-.02a99.86 99.86 0 1 0 99.87 99.84A99.88 99.88 0 0 0 99.87-.02zm11.5 109.2a17.9 17.9 0 1 1-19.1-16.43l31.75-17.41zm59.73-5.89a7.13 7.13 0 0 1-7.13-7.13 64.08 64.08 0 0 0-128.16 0 7.13 7.13 0 1 1-14.26 0 78.34 78.34 0 1 1 156.68 0 7.14 7.14 0 0 1-7.13 7.13zm0 0"/></g></svg>