<svg xmlns="http://www.w3.org/2000/svg" viewBox="0 0 200 200"><path d="M0 199.9V0h99.2v199.9H0zM37.1 24.4c-7.8 0-15.3-.1-22.7.2-1 0-2.6 2.1-2.6 3.3-.2 7.1-.1 14.2-.1 21.8h25.5V24.4h-.1zM11.6 99.6H37V74.8c-7.8 0-15.3-.1-22.7.1-.9 0-2.5 1.7-2.5 2.7-.2 7.4-.2 14.8-.2 22zm25.6 29.2c-.1-1.4-2.5-3.6-4-3.7-5.8-.4-11.7-.4-17.6 0-1.4.1-3.7 1.7-3.8 2.7-.3 7.4-.2 14.8-.2 22.4h25.7c.1-7.7.3-14.5-.1-21.4zM87.6 28.2c-.1-1.4-2.2-3.7-3.5-3.7-7-.4-14.1-.2-21.6-.2V50c7.5 0 14.8.2 22-.2 1.1 0 3-2.2 3-3.5.4-6 .5-12.1.1-18.1zm.2 46.5c-8.1 0-15.2-.1-22.3.1-1.1 0-3 1.4-3.1 2.2-.2 7.6-.1 15.3-.1 23.2 7.8 0 14.5.2 21.1-.2 1.5-.1 4.1-2.3 4.2-3.6.4-6.9.2-13.8.2-21.7zm-.2 54c-.1-1.3-2.3-3.5-3.6-3.6-6.9-.4-13.8-.2-21.3-.2v24.9h25.1c0-7.4.2-14.3-.2-21.1zm88.6 71.2v-49.5h-38.8V200h-23.8V88.5H200V200h-23.8v-.1zM113.3 74.2v-11H200v11h-86.7z"/></svg>