<svg xmlns="http://www.w3.org/2000/svg" viewBox="0 0 200 200"><path d="M155.3 13.9c0-5-4.1-8.9-9.2-8.9s-9.2 4-9.2 8.9v17.8c0 5 4.1 8.9 9.2 8.9s9.2-4 9.2-8.9V13.9zm-46.1 0c0-5-4.1-8.9-9.2-8.9s-9.2 4-9.2 8.9v17.8c0 5 4.1 8.9 9.2 8.9s9.2-4 9.2-8.9V13.9zm-46 0C63.2 8.9 59 5 54 5s-9.2 4-9.2 8.9v17.8c0 5 4.1 8.9 9.2 8.9s9.2-4 9.2-8.9V13.9z"/><path d="M179.8 22.8h-15.3v8.9c0 9.8-8.2 17.8-18.5 17.8-10.1 0-18.5-8-18.5-17.8v-8.9h-9.2v8.9c0 9.8-8.2 17.8-18.5 17.8s-18.5-8-18.5-17.8v-8.9h-9.2v8.9c0 9.8-8.2 17.8-18.5 17.8-10.1 0-18.5-8-18.5-17.8v-8.9H20.2c-5.1 0-9.2 4-9.2 8.9v154.4c0 5 4.1 8.9 9.2 8.9h159.7c5.1 0 9.2-4 9.2-8.9V31.7c0-4.8-4.1-8.9-9.3-8.9zM61.7 166.5c0 4.2-3.5 7.6-7.7 7.6s-7.7-3.4-7.7-7.6v-20.2c0-4.1 3.5-7.5 7.7-7.5s7.7 3.4 7.7 7.5v20.2zm30.7 0c0 4.2-3.5 7.6-7.7 7.6s-7.7-3.4-7.7-7.6v-40.2c0-4.1 3.5-7.5 7.7-7.5s7.7 3.4 7.7 7.5v40.2zm30.7 0c0 4.2-3.5 7.6-7.7 7.6s-7.7-3.4-7.7-7.6v-60.4c0-4.2 3.5-7.6 7.7-7.6s7.7 3.4 7.7 7.6v60.4zm30.7 0c0 4.2-3.5 7.6-7.7 7.6s-7.7-3.4-7.7-7.6V86c0-4.1 3.5-7.5 7.7-7.5s7.7 3.4 7.7 7.5v80.5z"/></svg>