<svg xmlns="http://www.w3.org/2000/svg" viewBox="0 0 200 200"><path d="M172.4 30.4l-9.9-3.2c-9.9-3.2-19.7-6.4-29.6-9.6-8.7-2.8-17.5-5.6-26.2-8.4-2.1-.7-4.1-1.4-6.2-2.2h-1c-2.7.9-5.5 1.8-8.2 2.7l-29.4 9.5c-8.8 2.8-17.5 5.6-26.3 8.4-7.5 2.4-15 4.9-22.5 7.4h-.2v85.1c.2.9.4 1.7.5 2.6.7 4.8 2.2 9.5 4.5 13.8 2.3 4.7 5.3 9 8.9 13 3.1 3.5 6.6 6.8 10.2 9.9 5.1 4.3 10.5 8.3 16.4 11.7 5.1 3 10.3 5.9 15.5 8.7 3.3 1.8 6.7 3.5 10.3 5 6.3 2.6 12.7 5 19.1 7.5.5.2 1 .4 1.4.6h1c2.8-1.1 5.7-2.1 8.5-3.2 3.1-1.2 6.2-2.4 9.2-3.8 6-2.8 12-5.5 17.8-8.5 6.1-3.1 12-6.7 17.5-10.7 2.9-2.2 5.8-4.3 8.7-6.6 5.6-4.4 10.6-9.5 14.8-15.2 4.3-5.6 7.4-12 9.1-18.8.4-1.7.5-3.5.8-5.3 0-.2.2-.4.2-.7v-85l-14.9-4.7zM146 90.6h-35.9v14.2H146v13.7h-35.9v27.8H89.9v-27.8H54v-13.7h35.9V90.7H54V77h20.5V53.7h15.1v23.2h20.6V53.7h15.1v23.2H146v13.7zm0 0"/></svg>