<svg xmlns="http://www.w3.org/2000/svg" viewBox="0 0 200 200"><path d="M10.1 15.4v156.8c0 3 2.4 5.3 5.4 5.3H146c3 0 5.4-2.3 5.4-5.3v-33h-7.7v25.2c0 2.7-2.2 4.9-4.9 4.9H22.7c-2.7 0-4.9-2.2-4.9-4.9V23.1c0-2.7 2.2-4.9 4.8-4.9h116.1c2.7 0 4.9 2.2 4.9 4.9v77.1h7.7V15.4c0-3-2.4-5.4-5.4-5.4H15.5c-3 0-5.4 2.4-5.4 5.4z"/><path d="M10 19.6v141.1c0 2.7 1.4 5.2 3.1 5.7l84.1 23.4c1.7.5 3.2-1.3 3.2-4V44.7c0-2.7-1.4-5.2-3.2-5.7L13.1 15.8c-1.7-.6-3.1 1.2-3.1 3.8zm180 100c0-2-.7-4-2.1-5.5l-3.2-2-18-11c-2.3-1.4-5.4-.6-6.8 1.7-.1.1-.1.2-.2.3l-1.1 2c-1.4 2.5-.6 5.8 1.9 7.3l1.1.6h-43.7c-2.9.1-5.1 2.5-5.1 5.4v2.3c-.1 2.9 2.2 5.3 5 5.4h43.9l-1.1.6c-2.4 1.5-3.2 4.8-1.9 7.3l1.1 2c1.3 2.4 4.2 3.3 6.7 2.2.1-.1.2-.1.3-.2l17.9-10.9 2.9-1.7c1.6-1.5 2.4-3.6 2.4-5.8zm-6.5 7.8c-.2 0-.3.1-.4.1.2-.1.2-.1.4-.1z"/></svg>