<svg xmlns="http://www.w3.org/2000/svg" viewBox="0 0 174.4 200"><path d="M54.4 105c-.7.9-3.7 4.3-4.3 5.1-2.8 4.2-3.7 9.3-2.5 14.2 1.6 5.4 7.1 6.1 11.2 6.4 9.4.9 19 .3 28.5.3 9.2 0 18.5-.1 27.7.1 5.4.1 10.1-1.5 12.3-6.5 2.4-5.5 1.2-10.7-2.9-15.1-1.5-1.5-3-3.1-4.4-4.5-3.4-3.4-3.4-7-.4-10.7 2.9-3.4 5.7-7 8.2-10.7 13-20.3 8.4-47.2-10.4-62.1-19-15.2-46.6-13.8-63.7 3.2-18.6 18.5-15.6 49.1.9 69.7 3.8 4.7 2 7.7-.2 10.6z"/><path d="M14.7 122.6h144.9c3 0 5.3 2.4 5.3 5.3v22.8c0 3-2.4 5.3-5.3 5.3H14.7c-3 0-5.3-2.4-5.3-5.3v-22.8c0-3 2.4-5.3 5.3-5.3zm10 41.5h125c3 0 5.3 2.4 5.3 5.3v14.3c0 3-2.4 5.3-5.3 5.3h-125c-3 0-5.3-2.4-5.3-5.3v-14.3c0-2.8 2.3-5.3 5.3-5.3z"/></svg>