<svg xmlns="http://www.w3.org/2000/svg" viewBox="0 0 200 200"><path d="M200 159.1h-36.9c-2.4-16.2-10.2-30.8-22.7-40.9-1.6-3.1-2.4-6.2-2.4-9.2 0-13.1 11-23.9 24.3-23.9s24.3 10.8 24.3 23.9c0 8.5-4.7 16.2-11.8 20 13.5 4.7 22.9 16.2 25.2 30.1zM60.4 109c0 2.3-.8 5.4-1.6 7.7-13.3 10-22.7 25.4-25.1 42.4H0c1.6-13.9 11.8-25.4 24.3-29.3-7.1-3.9-11.8-11.6-11.8-20 0-13.1 11-23.9 24.3-23.9s23.6 10 23.6 23.1zm98.9 50.1H38.5c3.1-22.4 19.6-40.9 40.8-48.6-11.8-6.9-19.6-19.3-19.6-33.1 0-21.6 17.3-38.5 39.2-38.5s39.2 17 39.2 38.5c0 13.9-7.8 27-19.6 33.1 21.9 7.7 37.6 26.2 40.8 48.6z"/></svg>