<svg xmlns="http://www.w3.org/2000/svg" viewBox="0 0 200 200"><path d="M190.5 85.1h-9c-4.4-.1-8.3-2.9-9.8-7.1l-5.1-12.5c-2-3.5-1.2-9 1.6-12.2l6.3-6.3c3.1-3.1 3.1-7.8 0-10.6l-10.6-11c-3-2.7-7.6-2.7-10.6 0l-6.3 6.3c-3.3 3-8.1 3.7-12.2 2l-12.5-5.1c-4.2-1.5-7-5.4-7.1-9.8V9.5c-.3-4.1-3.7-7.3-7.8-7.4H92.5c-4.1 0-7.4 3.3-7.4 7.4v9c-.1 4.4-2.9 8.3-7.1 9.8l-12.5 5.1c-3.5 2-9 1.2-12.2-2l-6.7-5.9c-3-2.7-7.6-2.7-10.6 0L25.5 36.1c-2.7 3-2.7 7.6 0 10.6l6.3 6.3c3.1 2.7 3.9 8.2 2 12.2l-5.1 12.5c-1.5 4.2-5.4 7-9.8 7.1h-9c-4.4.3-7.9 3.4-7.9 7.8v14.9c0 4.1 3.3 7.4 7.4 7.4h9c4.4.1 8.3 2.9 9.8 7.1l5.1 12.5c2 3.5 1.2 9-2 12.2l-5.9 6.7c-2.7 3-2.7 7.6 0 10.6L36 174.6c3 2.7 7.6 2.7 10.6 0l6.3-6.3c2.7-2.7 8.2-3.9 11.8-1.6l12.5 5.1c4.2 1.5 7 5.4 7.1 9.8v9c0 4.1 3.3 7.4 7.4 7.4h14.9c4.1 0 7.4-3.3 7.4-7.4v-9c.1-4.4 2.9-8.3 7.1-9.8l12.5-5.1c3.5-2 9-1.2 12.2 1.6l6.3 6.3c3 2.7 7.6 2.7 10.6 0l10.6-10.6c2.9-2.6 3.1-7.2.5-10.1l-.5-.5-5.1-6.3c-2.7-2.7-3.9-8.2-1.6-12.2l5.1-12.5c1.5-4.2 5.4-7 9.8-7.1h9c4.1 0 7.4-3.3 7.4-7.4v-15c.2-4.2-3.1-7.7-7.2-7.8h-.2M137.6 100c0 20.8-16.8 37.6-37.6 37.6S62.4 120.8 62.4 100 79.2 62.4 100 62.4s37.6 16.8 37.6 37.6"/></svg>