<svg xmlns="http://www.w3.org/2000/svg" xmlns:xlink="http://www.w3.org/1999/xlink" viewBox="0 0 178.9 199.5"><defs><path id="a" d="M4.5 4.8h170.2v190H4.5z"/></defs><clipPath id="b"><use xlink:href="#a" overflow="visible"/></clipPath><g clip-path="url(#b)"><path d="M18.2 60.4v83.9l65.8 33v-84L18.2 60.4z"/><path d="M170.5 44.5L92.8 5.8c-2-1.1-4.4-1.1-6.5 0L9.2 44.3c-2.7 1.2-4.6 3.8-4.6 6.9v97.2c0 2.7 1.6 5.3 4.1 6.4l77.7 39c2.1.9 4.4.9 6.5 0l77.1-38.5c2.8-1.1 4.6-3.8 4.6-6.8V51.1c-.1-2.7-1.7-5.2-4.1-6.6zm-81-24.1l64.7 32.4-26 12.9-64.6-32.4 25.9-12.9zm0 64.7L24.8 52.7l29.1-14.6 64.7 32.3-29.1 14.7zm70.4 58.7L93.8 177V92.6c22.1-11 44-22.1 66.1-33v84.2z"/></g></svg>