<svg class="icon" viewBox="0 0 1024 1024" xmlns="http://www.w3.org/2000/svg" width="200" height="200"><defs><style/></defs><path d="M901.5 909.5h-512v-60c0-11.046-8.954-20-20-20h-24c-11.046 0-20 8.954-20 20v60h-192c-35.346 0-64-28.654-64-64v-84.143c0-16.822 11.341-31.417 27.56-35.879C191.859 699.396 261.5 612.587 261.5 509.5S191.859 319.604 97.06 293.522c-16.219-4.462-27.56-19.057-27.56-35.879V173.5c0-35.346 28.654-64 64-64h192v60c0 11.046 8.954 20 20 20h24c11.046 0 20-8.954 20-20v-60h512c35.346 0 64 28.654 64 64v672c0 35.346-28.654 64-64 64zm-512-636c0-11.046-8.954-20-20-20h-24c-11.046 0-20 8.954-20 20v88c0 11.046 8.954 20 20 20h24c11.046 0 20-8.954 20-20v-88zm0 192c0-11.046-8.954-20-20-20h-24c-11.046 0-20 8.954-20 20v88c0 11.046 8.954 20 20 20h24c11.046 0 20-8.954 20-20v-88zm0 192c0-11.046-8.954-20-20-20h-24c-11.046 0-20 8.954-20 20v88c0 11.046 8.954 20 20 20h24c11.046 0 20-8.954 20-20v-88zm354.377-336.746l-54.932 127.441c-4.559 10.742-7.896 18.963-10.01 24.658h-.977l-66.406-152.1h-81.055l90.82 169.678h-68.848v48.34h83.984v41.748h-83.984v48.34h83.984v70.068h76.904v-70.068h81.299v-48.34h-81.299v-41.748h81.299v-48.34h-67.383l93.506-169.678h-76.902z"/></svg>