<svg xmlns="http://www.w3.org/2000/svg" viewBox="0 0 200 200"><path d="M125.4 74.6H74.6c-7.5 0-13.4-6-13.4-13.4V20.9c0-7.5 6-13.4 13.4-13.4h50.7c7.5 0 13.4 6 13.4 13.4v40.3c.1 7.5-5.9 13.4-13.3 13.4zM74.6 19.4c-1.5 0-1.5 0-1.5 1.5v40.3c0 1.5 0 1.5 1.5 1.5h50.7c1.5 0 1.5 0 1.5-1.5V20.9c0-1.5 0-1.5-1.5-1.5H74.6zm112 167.2h-50.7c-4.5 0-7.5-3-7.5-7.5v-41.8c0-4.5 3-7.5 7.5-7.5h50.7c4.5 0 7.5 3 7.5 7.5v40.3c-.1 4.5-3.1 9-7.5 9z"/><path d="M186.6 192.5h-50.7c-7.5 0-13.4-6-13.4-13.4v-41.8c0-7.5 6-13.4 13.4-13.4h50.7c7.5 0 13.4 6 13.4 13.4v40.3c0 7.5-6 14.9-13.4 14.9zm-50.8-56.7c-1.5 0-1.5 0-1.5 1.5v41.8c0 1.5 0 1.5 1.5 1.5h50.7c1.5 0 1.5-1.5 1.5-3v-40.3c0-1.5 0-1.5-1.5-1.5h-50.7zm-71.6 50.8H13.4c-4.5 0-7.5-3-7.5-7.5v-40.3c0-4.5 3-7.5 7.5-7.5h50.7c4.5 0 7.5 3 7.5 7.5v40.3c0 4.5-4.4 7.5-7.4 7.5z"/><path d="M64.2 192.5H13.4c-7.5 0-13.4-6-13.4-13.4v-40.3c0-7.5 6-13.4 13.4-13.4h50.7c7.5 0 13.4 6 13.4 13.4v40.3c.1 7.5-7.4 13.4-13.3 13.4zm-50.8-55.2c-1.5 0-1.5 0-1.5 1.5v40.3c0 1.5 0 1.5 1.5 1.5h50.7l1.5-1.5v-40.3c0-1.5 0-1.5-1.5-1.5H13.4zm82.1-67.2h9V97h-9V70.1zm62.7 32.9h7.5v23.9h-7.5V103z"/><path d="M34.3 101.5h9v26.9h-9v-26.9z"/><path d="M34.3 94h131.3v9H34.3v-9z"/></svg>