<svg data-name="图层 1" xmlns="http://www.w3.org/2000/svg" viewBox="0 0 200 193.33"><path d="M81 23.14h-.28a18.12 18.12 0 0 1-1.42 5.73l-7.08 21.48h18.14l-7.94-21.77c-.57-1.9-1-3.72-1.42-5.44zM114.49 0h-69a13.34 13.34 0 0 0-13.32 13.34v65.6a13.33 13.33 0 0 0 13.34 13.33h69a13.33 13.33 0 0 0 13.34-13.33v-65.6A13.34 13.34 0 0 0 114.49 0zm-17 75l-4.58-13.76H69.1l-4.54 13.75H49.25l23.25-63h17l23.52 63zm-1.79 39.41a13.33 13.33 0 0 0-13.33-13.34h-69A13.33 13.33 0 0 0 0 114.4V180a13.33 13.33 0 0 0 13.33 13.34h69A13.33 13.33 0 0 0 95.66 180zM50 180.22H19.37v-63h29.2q21 .59 22.11 14.9 0 11.17-12.19 14.9 13 2.86 14.74 14.6 0 18.63-23.25 18.62zm-2.26-26.92h-14.2v16.9h13.89q10.49 0 10.78-8.6-.85-8-10.49-8.3zm7.91-18.63q-.28-6.88-9.35-6.88H33.54v14.88H46.3q9.08-.28 9.35-8zm131-33.62h-69a13.33 13.33 0 0 0-13.33 13.34v65.6a13.33 13.33 0 0 0 13.33 13.34h69A13.33 13.33 0 0 0 200 180v-65.6a13.33 13.33 0 0 0-13.33-13.34zm-32.34 80.32q-28.92-1.44-30.31-32.7 1.42-30.64 30.33-32.36 20.41.57 26.64 19.19l-13.62 3.17q-2.83-9.72-13-10.31-14.5.88-15.35 20.31.57 19.77 15.31 20.92 11.63-.28 13.61-14l13.6 4.3q-4.82 21.48-27.21 21.48zm0 0"/></svg>