<svg data-name="图层 1" xmlns="http://www.w3.org/2000/svg" viewBox="0 0 199.85 170.09"><defs><clipPath id="a" transform="translate(.03 -14.87)"><path d="M0 14.79h200v170.42H0z"/></clipPath></defs><g clip-path="url(#a)"><path d="M199.77 71.26v1.14a9.41 9.41 0 0 1-9.37 9.45h-8.3l-20.08 81a9.37 9.37 0 0 1-8.99 7.28H46.84a9.36 9.36 0 0 1-9.06-7.17l-20.09-81H9.37a9.45 9.45 0 0 1 0-18.89h181.91a9.38 9.38 0 0 1 8.43 7.88l.06.38zM71.82 91.34a9.37 9.37 0 1 0-18.74 0v50.4a9.37 9.37 0 1 0 18.74 0zm37.47 0a9.37 9.37 0 1 0-18.74 0v50.4a9.37 9.37 0 1 0 18.74 0zm37.47 0a9.37 9.37 0 1 0-18.74 0v50.4a9.37 9.37 0 1 0 18.74 0zm-36.28-77.21a9.39 9.39 0 1 1 16.55-8.88l25.36 48.32h-21.2zm-21.11 0L68.66 53.55h-21.2L72.82 5.23a9.32 9.32 0 0 1 17.71 4.2 9.43 9.43 0 0 1-1.23 4.6zm0 0"/></g></svg>