<svg xmlns="http://www.w3.org/2000/svg" viewBox="0 0 200.2 200"><path d="M130.1 35.4l-4.7 11.2 31.1-9.9-14.6-29.2-4.9 11.6c-30.4-13.2-66.8-8.8-93.4 14.3l11.6 13.3c21.3-18.5 50.5-22 74.9-11.3zM69.9 164.6l4.7-11.2-31.1 9.9L58 192.5l4.9-11.6c30.4 13.2 66.8 8.8 93.4-14.3l-11.6-13.3c-21.2 18.5-50.4 22-74.8 11.3zM35.4 69.7l11.2 4.7-9.9-31.1L7.5 57.9l11.6 4.9c-13.2 30.4-8.8 66.8 14.3 93.4l13.3-11.6c-18.5-21.3-22-50.4-11.3-74.9zm145.5 67.1c13.2-30.4 8.8-66.8-14.3-93.4L153.2 55c18.6 21.3 22 50.5 11.4 74.9l-11.2-4.7 9.9 31.1 29.2-14.5-11.6-5z"/></svg>