<svg class="icon" viewBox="0 0 1024 1024" xmlns="http://www.w3.org/2000/svg" width="200" height="200"><defs><style/></defs><path d="M640 960H192c-32 0-64-25.6-64-64V320c0-38.4 32-64 64-64v-64c-70.4 0-128 57.6-128 128v576c0 70.4 57.6 128 128 128h448c70.4 0 128-57.6 128-128h-64c0 32-32 64-64 64zM704 0H384c-70.4 0-128 57.6-128 128v576c0 70.4 57.6 128 128 128h448c70.4 0 128-57.6 128-128V256L704 0zm-96 768H352c-19.2 0-32-12.8-32-32s12.8-32 32-32h256c19.2 0 32 12.8 32 32s-12.8 32-32 32zm192-128H352c-19.2 0-32-12.8-32-32s12.8-32 32-32h448c19.2 0 32 12.8 32 32s-12.8 32-32 32zm0-128H352c-19.2 0-32-12.8-32-32s12.8-32 32-32h448c19.2 0 32 12.8 32 32s-12.8 32-32 32zm-96-256V96l160 160H704z"/></svg>