<svg xmlns="http://www.w3.org/2000/svg" viewBox="0 0 200 200"><path d="M176.5 27.5h-20.6v33.8H43.7V27.5H23.5c-4.2 0-7.7 3.4-7.7 7.7v157.2c0 4.2 3.4 7.7 7.7 7.7h153c4.2 0 7.7-3.4 7.7-7.7V35.2c0-4.3-3.5-7.7-7.7-7.7zm-17 65.6l-66.4 81.3c.3 1-1.2 1.2-2.2.3l-48.3-39.5c-1-.8-1.2-2.3-.3-3.3l8.1-9.9c.8-1 2.3-1.2 3.3-.3L90.3 152l56.8-69.5c.8-1.4 2.3-1.6 3.3-.7l9.4 7.6c1 .8 1.6 1.5-.3 3.7zm-30.8-75.4v-6.2c0-6.3-5.1-11.4-11.4-11.4H82.7c-6.3 0-11.4 5.1-11.4 11.4v6.2H57.8v30.8H142V17.7h-13.3zM100 37.1c-7 0-12.6-5.6-12.6-12.6S93 11.9 100 11.9s12.6 5.6 12.6 12.6c0 8-5.6 12.6-12.6 12.6z"/></svg>