<svg version="1.1" id="图层_1" xmlns="http://www.w3.org/2000/svg" xmlns:xlink="http://www.w3.org/1999/xlink" x="0" y="0" viewBox="0 0 200 200" xml:space="preserve"><style>.st0{clip-path:url(#SVGID_2_)}</style><defs><path id="SVGID_1_" d="M14.9 5.5H184v188.8H14.9z"/></defs><clipPath id="SVGID_2_"><use xlink:href="#SVGID_1_" overflow="visible"/></clipPath><path class="st0" d="M28.5 60.9v83.4l65.3 32.8V93.6L28.5 60.9zm0 0"/><path class="st0" d="M179.8 45L102.6 6.5c-2-1.1-4.3-1.1-6.5 0L19.5 44.8c-2.7 1.1-4.7 3.7-4.7 6.8v96.7c0 2.6 1.4 5.1 4 6.4L96 193.4c2 .9 4.4 1 6.5 0l76.6-38.3c2.8-1 4.6-3.6 4.6-6.7V51.6c.1-2.7-1.4-5.2-3.9-6.6zM99.4 21l64.4 32.2L137.9 66 73.7 33.8 99.4 21zm0 64.4L35 53.2l29-14.5 64.3 32.1-28.9 14.6zm70 58.3l-65.7 33V92.9C125.6 82 147.5 71 169.4 60.1v83.6zm0 0"/></svg>