<svg id="图层_1" data-name="图层 1" xmlns="http://www.w3.org/2000/svg" viewBox="0 0 200 162.5"><defs><style>.cls-1{fill:#333}</style></defs><path class="cls-1" d="M50 78.35a25 25 0 1 0 34.15 34.15H50z" transform="translate(0 -18.75)"/><path class="cls-1" d="M175 18.75H25a25 25 0 0 0-25 25v112.5a25 25 0 0 0 25 25h150a25 25 0 0 0 25-25V43.75a25 25 0 0 0-25-25zM62.5 137.5a37.5 37.5 0 0 1 0-75V100H100a37.5 37.5 0 0 1-37.5 37.5zm6.25-43.75v-37.5a37.5 37.5 0 0 1 37.5 37.5zm100 43.75h-37.5a6.25 6.25 0 0 1 0-12.5h37.5a6.25 6.25 0 0 1 0 12.5zm0-31.25h-37.5a6.25 6.25 0 0 1 0-12.5h37.5a6.25 6.25 0 0 1 0 12.5zm0-31.25h-37.5a6.25 6.25 0 0 1 0-12.5h37.5a6.25 6.25 0 0 1 0 12.5z" transform="translate(0 -18.75)"/></svg>