<svg xmlns="http://www.w3.org/2000/svg" viewBox="0 0 171.4 200"><path d="M85.7 87.9c14.1.1 28.2-1.3 42-4.1 13-2.7 23.3-6.7 30.8-12v16.1c0 4.4-3.3 8.4-9.8 12.1-6.5 3.7-15.4 6.7-26.6 8.9-12 2.3-24.3 3.4-36.5 3.3-12.3.1-24.5-1-36.5-3.3-11.2-2.2-20-5.1-26.6-8.9-6.5-3.7-9.7-7.8-9.7-12.2V71.7c7.5 5.3 17.8 9.3 30.8 12 13.9 2.9 28 4.2 42.1 4.2zm0 72.8c14.1.1 28.2-1.3 42-4.1 13-2.7 23.3-6.7 30.8-12.1v16.1c0 4.4-3.3 8.4-9.8 12.1s-15.4 6.7-26.6 8.9c-12 2.3-24.3 3.4-36.5 3.3-12.3.1-24.5-1-36.5-3.3-11.2-2.2-20-5.1-26.6-8.9s-9.7-7.8-9.7-12.2v-16.1c7.5 5.3 17.8 9.3 30.8 12.1 13.9 2.9 28 4.3 42.1 4.2zm0-36.4c14.1.1 28.2-1.3 42-4.1 13-2.7 23.3-6.7 30.8-12v16.1c0 4.4-3.3 8.4-9.8 12.1-6.5 3.7-15.4 6.7-26.6 8.9-12 2.3-24.3 3.4-36.5 3.3-12.3.1-24.5-1-36.5-3.3-11.2-2.2-20-5.1-26.6-8.9s-9.7-7.8-9.7-12.2v-16.1c7.5 5.3 17.8 9.4 30.8 12.1 13.9 2.8 28 4.2 42.1 4.1zm0-109.3c12.3-.1 24.5 1 36.5 3.3 11.2 2.2 20 5.1 26.6 8.9s9.8 7.8 9.8 12.1v12.1c0 4.4-3.3 8.4-9.8 12.1s-15.4 6.7-26.6 8.9c-12 2.3-24.3 3.4-36.5 3.3-12.3.1-24.5-1-36.5-3.3-11.2-2.2-20-5.1-26.5-8.9s-9.8-7.8-9.8-12.1V39.3c0-4.4 3.3-8.4 9.8-12.1s15.4-6.7 26.6-8.9C61.2 16 73.5 14.9 85.7 15z"/></svg>