<svg data-name="图层 1" xmlns="http://www.w3.org/2000/svg" viewBox="0 0 188.46 200"><path d="M153.85 130.77c10.25 0 17.94 3.85 24.35 10.26a35 35 0 0 1 10.26 24.35 34.62 34.62 0 1 1-69.23 0c0-3.84 1.28-7.69 1.28-11.53l-37.18-21.8-1.28 1.28c-10.26 9-21.79 14.11-34.61 14.11C21.79 147.44 0 125.64 0 100s21.79-47.44 47.44-47.44c12.82 0 25.64 5.13 33.33 14.11L82.05 68l37.18-21.85c0-3.84-1.28-7.69-1.28-11.53a34.62 34.62 0 1 1 34.61 34.61c-10.25 0-18-3.85-24.36-10.26l-37.18 21.8a50 50 0 0 1 0 38.46L128.23 141a35.82 35.82 0 0 1 25.62-10.23z"/><path d="M166.67 151.28c-3.85-3.84-9-5.13-14.11-5.13s-10.25 2.57-14.1 5.13c-3.85 3.85-5.13 9-5.13 14.1 0 10.26 9 19.24 19.23 19.24s19.23-9 19.23-19.24c1.29-5.12-1.28-10.25-5.12-14.1zM70.51 76.92c-6.41-5.13-14.1-9-23.07-9a32.05 32.05 0 1 0 0 64.1 30.92 30.92 0 0 0 21.79-9C76.92 116.67 79.49 109 79.49 100s-2.57-16.67-8.98-23.08zm83.34-61.54c-10.26 0-19.24 9-19.24 19.24a24.16 24.16 0 0 0 2.62 10.25c1.28 1.28 1.28 2.57 2.56 2.57 3.85 3.84 9 5.12 14.11 5.12 10.25 0 19.23-9 19.23-19.23-.05-8.97-9.03-17.95-19.28-17.95z"/></svg>