<svg xmlns="http://www.w3.org/2000/svg" viewBox="0 0 171.4 200"><path d="M27.2 158.4c0 7.2 5.8 13 13 13s13-5.8 13-13c0-7.1-5.8-13-12.9-13-7.3 0-13.1 5.8-13.1 13zm41.6-153H11.5c-4 0-7.1 3.3-7.1 7.2v174.9c0 4 3.1 7.2 7.1 7.3h57.2c4-.1 7.2-3.3 7.2-7.3V12.6c.1-4-3.1-7.2-7.1-7.2zM25.9 27.2h28.6v72.9H25.9V27.2zM40.2 181c-12.5.2-22.8-9.7-23-22.2s9.7-22.8 22.2-23c12.5-.2 22.8 9.7 23 22.2v.4c0 12.3-9.9 22.4-22.2 22.6zm87.2-38.1c-6.9 1-11.7 7.4-10.8 14.4.8 6.9 7 11.8 13.9 11h.2c7-.9 11.9-7.3 11-14.3-.9-7.1-7.3-12-14.3-11.1zm39.5 35.9L145.1 11.3c-.5-3.8-4-6.5-7.8-6l-54.8 7.4c-3.8.6-6.5 4.1-6 7.9l21.8 167.6c.5 3.8 4 6.5 7.8 6l54.8-7.4c3.9-.6 6.5-4.1 6-8zm-68-147.1l27.4-3.7 9.1 69.8-27.4 3.7-9.1-69.8zm33 145.5c-11.8 1.5-22.6-6.8-24.1-18.6v-.2c-1.7-11.9 6.6-22.9 18.5-24.6 11.8-1.5 22.6 6.9 24 18.7v.1c1.6 11.9-6.6 22.9-18.4 24.6z"/></svg>