<svg xmlns="http://www.w3.org/2000/svg" viewBox="0 0 200 194.2"><path d="M119.6 106l-.9.5c.3-.1.6-.3.9-.5z"/><path d="M118.7 106.5c-.6.2-1.2.3-1.8.4H34c-2.7 0-4.9-2.2-4.9-4.9s2.2-4.9 4.9-4.9h82.9c2.7 0 4.9 2.2 4.9 4.9 0 1.6-.8 3.1-2.1 4 16.7-8.1 36.2-8.1 52.9 0V55.3c0-3.5-2.1-9.1-4.9-11.8L137 12.2c-3.2-3-7.4-4.7-11.8-4.9H21.4c-7.7 0-13.9 6.3-13.9 14V173c0 7.7 6.3 13.9 13.9 13.9H92c-14.6-29.6-2.7-65.4 26.7-80.4zm3-81.8c0-4.2 2.1-4.9 4.9-2.1l31.3 31.3c2.8 2.8 2.1 4.9-2.1 4.9h-20.2c-7.7 0-13.9-6.3-13.9-13.9V24.7zM34 41.4h62c2.7 0 4.9 2.2 4.9 4.9s-2.2 4.9-4.9 4.9H34c-2.7 0-4.9-2.2-4.9-4.9s2.2-4.9 4.9-4.9zm0 27.8h113.5c2.7 0 4.9 2.2 4.9 4.9s-2.2 4.9-4.9 4.9H34c-2.7 0-4.9-2.2-4.9-4.9s2.2-4.9 4.9-4.9z"/><path d="M173.6 130.3l-18.9 18.9h14.2c0 15.6-12.7 28.3-28.3 28.3-4.6 0-9.1-1.1-13.2-3.3l-6.9 6.9c17.6 11.1 40.8 5.9 52-11.7 3.8-6.1 5.9-13.1 5.8-20.2h14.2l-18.9-18.9zm-61.3 18.9c0-15.6 12.7-28.3 28.3-28.3 4.6 0 9.1 1.1 13.2 3.3l6.9-6.9c-17.6-11.1-40.8-5.9-52 11.7-3.8 6-5.9 13.1-5.8 20.2H88.8l18.9 18.9 18.9-18.9h-14.3z"/></svg>