<svg data-name="图层 1" xmlns="http://www.w3.org/2000/svg" viewBox="0 0 200 192.9"><path d="M11.6 81.25h121.17a11.74 11.74 0 0 1 11.61 12v87.73a11.74 11.74 0 0 1-11.61 12H11.6a11.73 11.73 0 0 1-11.6-12V93.21a11.73 11.73 0 0 1 11.6-11.96zm54.14 58.48v18.61a1.28 1.28 0 0 0 1.29 1.33h10.31a1.29 1.29 0 0 0 1.29-1.33v-18.61a14.68 14.68 0 0 0 7.74-13.28c0-8-6.45-14.62-14.18-14.62S58 118.45 58 126.45c0 6.65 2.58 10.63 7.74 13.29z"/><path d="M180.06 50.51c0-16-13.3-30.57-30.58-30.57-16 0-30.57 13.29-30.57 30.57v31.94h-17.28V49.18a49.19 49.19 0 0 1 98.37 0v31.9h-18.61l-1.33-30.57z"/></svg>