<svg data-name="图层 1" xmlns="http://www.w3.org/2000/svg" viewBox="0 0 175.68 200"><path d="M89.7 54.42a7.14 7.14 0 0 0 7.14-7.14c0-7.11 10.54-30.76 28.84-33A7.14 7.14 0 1 0 123.94.12c-27.3 3.33-41.38 34.57-41.38 47.16a7.14 7.14 0 0 0 7.14 7.14zM56.07 37.34c17.49 0 31.67-8.25 31.67-18.44S73.56.46 56.07.46 24.4 8.72 24.4 18.9s14.18 18.44 31.67 18.44z"/><path d="M56.07 14.74c8.4 0 13.89 2.42 16.32 4.16-2.43 1.74-7.92 4.17-16.32 4.17s-13.89-2.43-16.32-4.17c2.43-1.74 7.91-4.16 16.32-4.16z"/><path d="M.03 0h175.64v200H.03z"/><path d="M130.52 115.33c0-20.14 12.56-37.7 31.19-47-8.87-11.43-21.74-18.5-37.36-18.5-8.54 0-30 12.64-36.6 12.86h-.26c-8.59 0-26.8-12.86-37.12-12.86-34.5 0-50.37 28-50.37 62.48 0 52.92 44.11 87.42 87.67 87.42 27.63 0 55.73-14.28 72.46-38.19-17.76-9.54-29.61-26.65-29.61-46.21zM54.84 89.31c-10.53 3.58-16.28 18-16.28 24.47a7.14 7.14 0 1 1-14.27 0c0-12.22 9-32.23 25.95-38a7.145 7.145 0 0 1 4.6 13.53z"/></svg>