<svg version="1.1" id="图层_1" xmlns="http://www.w3.org/2000/svg" x="0" y="0" viewBox="0 0 200 200" xml:space="preserve"><style>.st0{fill:#e95c57}.st1{fill:#fff}</style><path class="st0" d="M184.1 42.8v144.6c0 7-5.6 12.6-12.6 12.6H28c-7 0-12.6-5.6-12.6-12.6V13.7c0-7 5.6-12.6 12.6-12.6h113.8"/><path class="st0" d="M184.6 42.8h-30.2c-7 0-12.6-5.6-12.6-12.6V0"/><path class="st1" d="M184.6 45.3h-30.2c-8.3 0-15.1-6.8-15.1-15.1V0h5v30.2c0 5.6 4.5 10.1 10.1 10.1h30.2v5zm0 0M172.7 131.8V179c0 6-4.9 10.9-10.9 10.9H38.1c-6 0-10.9-4.9-10.9-10.9v-47.2h145.5zM142.8 80.5c-2-2.3-6-3.5-12.3-3.5-3.7 0-8.1.4-13.2 1.2C103.4 68 99.5 56.8 99.5 56.8s2.4-6.1 2.5-15.9c.1-6.2-.9-10.4-3.4-12.9-1-1-2.6-1.6-4.1-1.6-1.2 0-2.3.4-3.3 1-7.2 5.2.7 30.2.9 30.8-3.4 8.4-7.7 17.3-12.1 25.1-1.4 2.5-1.3 2.3-2.5 4.4 0 0-12.2 5.8-18.2 12.8-3.4 4-3.8 6.7-3.6 8.7.3 2.4 3.4 4.7 6.5 4.7h.4c3.1-.2 6.7-2.4 10.6-6.9 2.6-2.9 6-8.1 10.2-15.3 11.8-3.4 22.1-5.7 30.8-7.1 6.4 3.4 15.8 7.3 22.3 7.3 2.2 0 3.9-.5 5.2-1.3 1.5-1 2.2-2.3 2.6-4.8.2-2.2-.3-4-1.5-5.3zm-13.7 2.9c5.7 0 8.7.8 10.2 1.5l1.1.6c-.5.3-1.3.6-2.9.6-2.6 0-6-.9-10.2-2.7h1.8zm-33.5-52c1.2.6 1.8 5.1 1.7 7.7-.1 3.5-.2 4.8-.8 7-1.7-4.5-1.8-12.5-.9-14.7zm.4 35.4c2.8 4.7 7.1 9.7 11.1 13.2-8 1.7-15.6 3.8-20.3 5.5 5.1-8.7 8.9-17.8 9.2-18.7zm-32.7 40c.7-1.2 2.6-3.4 7.4-7.7-3.3 4.9-5.7 7.6-8.1 9.3.1-.5.4-1.1.7-1.6zm0 0"/><path class="st0" d="M50.9 181.2v-40.8h13.4c1.6 0 3.1.1 4.3.1 1.3.1 2.4.3 3.4.5 1 .3 1.9.6 2.7 1 .8.4 1.5.8 2.2 1.5 1.5 1.3 2.7 2.9 3.6 4.7.8 1.9 1.3 3.9 1.3 6.2 0 2.1-.4 4.1-1.2 5.9-.8 1.9-1.8 3.4-3.1 4.7-1.4 1.3-3 2.2-4.8 2.7-1.8.6-4.2.8-7.1.8h-4.5v12.8H50.9zm10-21.9h4.2c4.3 0 6.5-1.6 6.5-4.8 0-1.7-.6-2.9-1.6-3.7-1-.8-2.9-1.1-5.3-1.1h-3.8v9.6zm25.4 21.9v-40.8H100c1.5 0 2.9.1 4.1.1 1.2.1 2.3.3 3.3.5s2 .6 2.8.9c.9.4 1.7.8 2.6 1.4 1.9 1.2 3.6 2.7 5 4.7 2.5 3.5 3.7 7.7 3.7 12.6 0 3.1-.5 5.9-1.4 8.5-.9 2.5-2.2 4.7-3.9 6.5-1.7 1.8-3.7 3.2-6.1 4.2-2.4 1-5 1.5-7.9 1.5H86.3zm10.4-9.1h4.5c3.3 0 5.7-1 7.4-2.9 1.7-1.9 2.5-4.6 2.5-8.2 0-3.7-.8-6.5-2.6-8.5-1.7-2-4.2-2.9-7.3-2.9h-4.5v22.5zm30.1 9.1v-40.8h22.3v9.2h-12.3v6.9h11.9v9.2h-11.9v15.5h-10zm0 0"/></svg>