<svg version="1.1" id="图层_1" xmlns="http://www.w3.org/2000/svg" x="0" y="0" viewBox="0 0 200 200" xml:space="preserve"><style>.st0{fill:#fff}.st1{fill:#e0653e}</style><path class="st1" d="M184.1 42.8v144.5c0 7-5.6 12.6-12.6 12.6H28c-7 0-12.6-5.6-12.6-12.6V13.7c0-7 5.6-12.6 12.6-12.6h113.7"/><path class="st1" d="M184.5 42.8h-30.2c-7 0-12.6-5.6-12.6-12.6V0"/><path class="st0" d="M184.5 45.3h-30.2c-8.3 0-15.1-6.8-15.1-15.1V0h5v30.2c0 5.5 4.5 10.1 10.1 10.1h30.2v5zm0 0M172.6 131.7v47.2c0 6-4.9 10.9-10.9 10.9H38.1c-6 0-10.9-4.9-10.9-10.9v-47.2h145.4zM96.3 34.6c-22.4 0-39.9 17.6-39.9 39.9s17.6 39.9 39.9 39.9c22.4 0 39.9-17.6 39.9-39.9H96.3V34.6z"/><path class="st0" d="M104.3 26.7v39.9h39.9c0-22.4-17.5-39.9-39.9-39.9z"/><text transform="translate(38.977 182.068)" class="st1" font-size="58.477" font-family="Arial-Black">PPT</text></svg>