<svg data-name="图层 1" xmlns="http://www.w3.org/2000/svg" viewBox="0 0 200 177.78"><path d="M105.56 144.45H27.78a5.56 5.56 0 1 0 0 11.11h77.78a5.56 5.56 0 0 0 0-11.11zM172.22 144.45h-33.33a5.57 5.57 0 0 0-5.56 5.55 6 6 0 0 0 5.56 5.56h33.33a6 6 0 0 0 5.56-5.56 5.57 5.57 0 0 0-5.56-5.55zM123.33 90a33.69 33.69 0 0 0 3.89-43.33L80.56 93.33A33 33 0 0 0 123.33 90zM119.44 40a33 33 0 0 0-42.77 3.33 33.7 33.7 0 0 0-3.89 43.34z"/><path d="M194.44 0H5.56A5.25 5.25 0 0 0 0 5.56v166.66a5.25 5.25 0 0 0 5.56 5.56h188.88a5.25 5.25 0 0 0 5.56-5.56V5.56A5.25 5.25 0 0 0 194.44 0zM68.89 35.56a44.39 44.39 0 0 1 62.78 62.77c-17.78 17.23-45.56 17.23-62.78 0a44.59 44.59 0 0 1 0-62.77zm120 131.11H11.11v-33.34h177.78z"/></svg>