<svg xmlns="http://www.w3.org/2000/svg" viewBox="0 0 200 200"><path fill="none" d="M332.1 82.9h200v170.4h-200z"/><path d="M100 97.2c-3 0-5.4 2.4-5.4 5.4v28.8c0 3 2.4 5.4 5.4 5.4s5.4-2.4 5.4-5.4v-28.8c-.1-3-2.5-5.4-5.4-5.4zm-21.5 0c-3 0-5.4 2.4-5.4 5.4v28.8c0 3 2.4 5.4 5.4 5.4s5.4-2.4 5.4-5.4v-28.8c0-3-2.4-5.4-5.4-5.4zm42.9 0c-3 0-5.4 2.4-5.4 5.4v28.8c0 3 2.4 5.4 5.4 5.4 3 0 5.4-2.4 5.4-5.4v-28.8c0-3-2.4-5.4-5.4-5.4zM100 0C44.8 0 0 44.8 0 100s44.8 100 100 100 100-44.8 100-100S155.2 0 100 0zm8.2 51.2c2.6-1.4 5.9-.4 7.3 2.2L130 81h-12.1L106 58.4c-1.4-2.6-.4-5.8 2.2-7.2zm-23.7 2.1c1.3-2.7 4.5-3.8 7.1-2.5 1.9.9 3 2.8 3 4.9 0 .9-.2 1.8-.7 2.6v.1L82.1 81H69.9l14.6-27.7zm72.6 38v.4c0 3-2.4 5.4-5.4 5.4H147l-11.5 46.3c-.6 2.4-2.7 4.1-5.1 4.2H69.6c-2.5 0-4.6-1.7-5.2-4.1L52.9 97.2h-4.8c-3-.1-5.3-2.6-5.2-5.6.1-2.8 2.4-5.1 5.2-5.2h104.1c2.5.2 4.4 2.1 4.8 4.5v.2c.1.1.1.2.1.2z"/></svg>