<svg xmlns="http://www.w3.org/2000/svg" viewBox="0 0 200 200"><path d="M64.5 64.5c-8.3 8.4-12.9 19-14.1 29.9h99.3c-1.2-10.9-5.8-21.5-14.1-29.9-19.7-19.6-51.5-19.6-71.1 0zm0 71c19.6 19.6 51.5 19.6 71 0 8.3-8.4 12.9-18.9 14.2-29.8H50.3c1.3 10.9 5.8 21.5 14.2 29.8z"/><path d="M154.7 0H45.3C20.3 0 0 20.3 0 45.3v109.4c0 25 20.3 45.3 45.3 45.3h109.4c25 0 45.3-20.3 45.3-45.3V45.3c0-25-20.3-45.3-45.3-45.3zM100 161.6c-33.9 0-61.6-27.6-61.6-61.6 0-33.9 27.6-61.6 61.6-61.6S161.6 66 161.6 100s-27.7 61.6-61.6 61.6z"/></svg>