<svg xmlns="http://www.w3.org/2000/svg" viewBox="0 0 200 200"><path d="M22.3 5.8c6.3-6.3 3.8-6.3 10 0 10 11.3 21.3 21.3 31.3 32.6 2.5 2.5 2.5 3.8 0 6.3-5 3.8-5 3.8 0 7.5 7.5 8.8 16.3 16.3 23.8 22.6 1.3 1.3 1.3 3.8 0 5-3.8 3.8-6.3 7.5-10 10-1.3 1.3-2.5 1.3-3.8 0-8.7-8.8-16.2-16.3-25-25.1-2.5-2.5-3.8-2.5-6.3 0-3.8 5-3.8 5-7.5 0C26 57.2 7.2 38.4.9 30.9c-1.3-1.3-1.3-2.5 0-3.8 5.1-5 15.1-15 21.4-21.3z"/><path d="M153.9 4.5c-11.3 12.5-22.6 25.1-35.1 37.6-2.5 2.5-2.5 5-1.3 8.8 3.8 8.8 6.3 17.6 8.8 26.3 1.3 2.5 2.5 3.8 5 3.8 8.8 1.3 18.8 3.8 27.6 5 3.8 1.3 5 0 7.5-2.5 10-10 18.8-21.3 28.8-31.3l3.8-3.8c1.3 6.3 1.3 12.5 0 17.6-5 22.6-21.3 36.4-43.9 40.1-7.5 1.3-15 0-22.6-2.5-1.3 0-5 0-6.3 1.3-20.1 12.5-37.6 28.8-52.7 47.6-1.3 2.5-2.5 3.8-1.3 6.3 5 17.6-6.3 35.1-22.6 38.9-18.8 3.8-33.9-7.5-37.6-23.8-3.8-18.8 10-37.6 30.1-37.6h8.8c1.3 0 2.5 0 3.8-1.3 17.6-16.3 32.6-35.1 45.1-56.4 1.3-1.3 1.3-3.8 0-6.3-11.3-30.1 7.5-62.7 38.9-67.7 5.2-1.3 10.2-.1 15.2-.1zm-94 163.1c0-10-7.5-17.6-17.6-17.6s-17.6 7.5-17.6 17.6c0 10 7.5 17.6 17.6 17.6s17.6-8.9 17.6-17.6z"/><path d="M157.7 198.9c-5 0-10-1.3-13.8-5-15-15-28.8-30.1-43.9-45.1-1.3-1.3-1.3-3.8 0-5 8.8-13.8 20.1-25.1 36.4-31.3 2.5-1.3 3.8-1.3 5 1.3 13.8 13.8 27.6 26.3 41.4 38.9 10 8.8 10 21.3 0 30.1l-10 10c-3.8 3.6-8.9 6.1-15.1 6.1zm20-37.6l-37.6-37.6c-2.5-2.5-5-1.3-7.5 0-2.5 2.5-2.5 5 0 7.5 0 1.3 38.9 38.9 38.9 38.9s3.8 1.3 7.5-1.3c1.3-2.5-1.3-7.5-1.3-7.5zM115 140c-2.5 2.5-1.3 7.5 0 8.8 11.3 12.5 23.8 23.8 36.4 36.4 2.5 2.5 6.3 3.8 8.8 1.3s2.5-6.3-1.3-8.8c-11.3-12.5-23.8-23.8-36.4-35.1.1-2.6-3.7-5.1-7.5-2.6z"/></svg>