<svg xmlns="http://www.w3.org/2000/svg" viewBox="0 0 200 200"><path d="M0 38.9v33.3h200V38.9H0zm33.3 22.2H22.2V50h11.1v11.1zm22.3 0H44.4V50h11.1v11.1zm55.5 22.2H0v33.3h111.1V83.3zm-77.8 22.3H22.2V94.4h11.1v11.2zm22.3 0H44.4V94.4h11.1v11.2zM0 127.8v33.3h111.1v-33.3H0zM33.3 150H22.2v-11.1h11.1V150zm22.3 0H44.4v-11.1h11.1V150zm105.3-66.1c-21 0-38.1 17-38.1 38.1 0 21 17 38.1 38.1 38.1s38.1-17 38.1-38.1-17-38.1-38.1-38.1zm13.7 57.6c-1.2 1.2-3.3 1.2-4.5 0l-11.3-11.3c-.8-.8-.8-2-.8-3.8 0-1.8-.4-22.5-.4-22.5 0-1.8 1.4-3.2 3.2-3.2 1.8 0 3.2 1.4 3.2 3.2v22.5c0 .1 10.6 10.6 10.6 10.6 1.3 1.2 1.2 3.2 0 4.5z"/></svg>