<svg xmlns="http://www.w3.org/2000/svg" viewBox="0 0 200 200"><path d="M134.2 108.1h-25.8c-.9 0-1.6.7-1.6 1.6v14.6c0 .9.7 1.6 1.6 1.6h25.8c.9 0 1.6-.7 1.6-1.6v-14.6c.1-.9-.7-1.6-1.6-1.6zm0 28.8h-25.8c-.9 0-1.6.7-1.6 1.6v14.9c0 .9.7 1.6 1.6 1.6h25.8c.9 0 1.6-.7 1.6-1.6v-14.9c.1-.9-.7-1.6-1.6-1.6zm51.5-104c-1.8-1.7-4.1-2.7-6.5-2.7H142l-.5-2.1c-1.1-4.5-5.6-7.9-10.4-7.9h-10.7c-.8-.2-1.6-.8-2-1.5l-.1-.2-2.7-10.6C114.4 3.4 110 0 105.3 0H94.9c-4.8 0-9.2 3.4-10.4 7.9l-2.7 10.6-.1.2c-.4.7-1.2 1.3-2 1.5H69c-4.8 0-9.2 3.4-10.4 7.9l-.5 2.2H20.9c-5.1 0-9.3 4.1-9.3 9.1v151.5c0 5 4.1 9.1 9.3 9.1h158.3c5.1 0 9.2-4.1 9.2-9.1V39.4c0-2.5-1-4.8-2.7-6.5zM66.9 29.5h10.3c6.4 0 12.2-4.3 13.7-10.2l3-10.7h12.2l2.7 10.1c1.5 6 7.4 10.5 13.7 10.5h10.3l2.6 10.6H64.5l2.4-10.3zm8.5 96.8c-.8-.9-1.9-2.3-2.6-3 0-.1-.1-.1-.1-.1 0 .1-.1.3-.1.6v43.5c0 1.5-1.2 2.8-2.8 2.8h-5.9c-1.5 0-2.8-1.2-2.8-2.8v-37.9l-.6 1.2c-.5 1.1-1.4 2.8-1.9 3.9l-7.4 12.8c-.7 1-1.5 2.3-1.9 2.8-.2.4-.6.6-.9.6-.5 0-.9-.3-1-.8-.2-.6-.8-1.9-1.2-3l-2.1-5.2c-.4-1.1-.9-2.1-.9-2.3-.2-.4-.1-.8.1-1.1.1-.2 13.3-22.6 15.9-33.3-.1-.1-.6-.3-1.3-.3H46.4c-1.5 0-2.8-1.2-2.8-2.8v-5.6c0-1.5 1.2-2.8 2.8-2.8h13.1c.9 0 1.6-.7 1.6-1.6V81.7c0-.8-.2-1.4-.3-1.6-.5 0-1.7.1-2.8.2l-7.8.6c-1.2.1-2.4.2-2.7.2h-.1c-.6 0-1-.4-1.1-1 0-.3-.3-1.5-.5-2.7l-.6-3.4-.7-2.8c-.1-.3 0-.7.2-.9.2-.3.5-.5.9-.5s1.7-.1 2.9-.2l34.1-3.1c1.2-.1 2.4-.3 2.7-.3h.1c.9 0 1.3 1.6 1.6 2.5l1.5 6.3c.1.4.4 1.9-.1 2.5-.1.2-.3.3-.6.3-.4 0-1.7.2-2.8.3l-9.5.9c-1 .1-2.1.2-2.6.2-.1.2-.2.9-.2 1.7v11c0 .9.7 1.6 1.6 1.6h12.6c1.5 0 2.8 1.2 2.8 2.8v5.6c0 1.5-1.2 2.8-2.8 2.8H74.2c-.9 0-1.6.7-1.6 1.6v6.4c0 .4 0 .5.1.6.1 0 .3 0 .5-.3l.3-.3c.3-.3 1.5-1.2 2.2-1.2.2 0 .4.1.5.2l1.9 1.9 10.3 10.9c.8.9 1.8 1.9 2.1 2.4.1.2.3.4.4 1 0 .7-.6 1.5-1.3 2.1l-4.6 4c-.3.2-1.4 1.1-2.2 1.1-.4 0-.6-.2-.7-.3-.2-.3-1-1.2-1.8-2.2l-4.9-6.3zm81.6 37c0 1.5-1.2 2.8-2.8 2.8H84.9c-1.5 0-2.8-1.2-2.8-2.8v-5.6c0-1.5 1.2-2.8 2.8-2.8h8.5c.9 0 1.6-.7 1.6-1.6V71c0-1.5 1.2-2.8 2.8-2.8H145c1.5 0 2.8 1.2 2.8 2.8v82.5c0 .9.7 1.6 1.6 1.6h4.9c1.5 0 2.7 1.2 2.8 2.7v5.5zm-22.8-84h-25.8c-.9 0-1.6.7-1.6 1.6v14.6c0 .9.7 1.6 1.6 1.6h25.8c.9 0 1.6-.7 1.6-1.6V80.9c.1-.9-.7-1.6-1.6-1.6z"/></svg>