<svg xmlns="http://www.w3.org/2000/svg" viewBox="0 0 200 200"><path d="M186.1 84.4c-7.9-1-15.3 3.9-17.4 11.5-2.1 7.6 1.8 15.6 9.2 18.6-2.9 15.4-10.4 29.7-21.9 41-14.8 14.8-35 23.1-56 23-29 0-55.6-15.7-69.6-40.9-.8-1.5-2.4-2.4-4.1-2.5-1.7 0-3.3.8-4.2 2.3-.9 1.5-.9 3.3-.1 4.8 15.6 28.3 45.5 45.8 78 45.8 23.6 0 46.2-9.3 62.9-25.8 8.1-8 14.6-17.5 19-28 2.6-6.1 4.5-12.4 5.6-18.9 7.3-1.6 12.4-8 12.4-15.4 0-7.8-5.9-14.5-13.8-15.5zM31.8 100c0-6.5-4-12.1-9.7-14.5C25 70.1 32.5 55.8 44 44.5c14.8-14.8 35-23.1 56-23 29 0 55.6 15.7 69.5 40.9.8 1.5 2.4 2.4 4.1 2.5 1.7 0 3.3-.8 4.2-2.3.9-1.5.9-3.3.1-4.8-15.6-28.3-45.5-45.8-78-45.8-11.9 0-23.6 2.3-34.6 6.9C54.8 23.3 45.2 29.7 37 37.8c-12.8 12.6-21.4 29-24.6 46.8C4.3 86.4-1.1 94.1.2 102.3c1.2 8.2 8.6 14 16.9 13.4 8.2-.6 14.7-7.5 14.7-15.7zm102.8-29.5l-41.8 42.2-27.6-27.9c-1.5-1.5-3.5-2.3-5.5-2.3-2.1 0-4.1.8-5.5 2.3-3.1 3.1-3.1 8.1 0 11.1l33.2 33.5c1.5 1.5 3.5 2.3 5.5 2.3 2.1 0 4.1-.8 5.5-2.3l47.3-47.8c3.1-3.1 3.1-8.1 0-11.2-1.5-1.5-3.5-2.3-5.5-2.3-2.1.1-4.1.9-5.6 2.4zm0 0"/><path fill="none" d="M0 11.7h200v176.6H0z"/></svg>