<svg xmlns="http://www.w3.org/2000/svg" viewBox="0 0 200 200"><path d="M170.5 31.3h-41.2V17.6c0-10-7.5-17.5-17.5-17.5H88.1c-10 0-17.5 7.5-17.5 17.5v13.7H28.2c-10 0-17.5 7.5-17.5 17.5v22.4c0 3.7 2.5 6.2 6.2 6.2h7.5V171c0 16.2 12.5 28.7 28.7 28.7h92.4c17.5 0 32.4-12.5 32.4-29.9V77.5h6.2c3.7 0 5-3.7 5-5V48.8c.1-10-7.4-17.5-18.6-17.5zM81.9 17.6c0-3.7 2.5-6.2 6.2-6.2h22.4c3.7 0 6.2 2.5 6.2 6.2v13.7H81.9V17.6zM23.2 48.8c0-3.7 2.5-6.2 5-6.2h142.3c3.7 0 6.2 2.5 6.2 6.2v17.5H23.2V48.8zm142.3 121c0 10-7.5 17.5-17.5 17.5H54.4c-10 0-17.5-7.5-17.5-17.5V77.5h128.6v92.3zm0 0"/><path fill="none" d="M10.8 0h178.5v200H10.8z"/><path d="M100.1 149.7l-.8 19.7-.1 1.2-22.5-1.6c-1.3-.1-2.5-.7-3.6-1.7s-1.9-2.2-2.5-3.5c-.4-1-.6-1.9-.8-3-.1-1-.1-2.2.2-3.5.3-1.3.5-2.3.6-3 .2-.6.6-1.8 1.1-3.4.6-1.6.9-2.6 1-2.8 2.9.5 12 1 27.4 1.6zm-20.7-31.4l9.6 20.3-7.9-4.9c-2.3 2.6-4.2 5.2-6 7.7-1.7 2.6-3 4.8-3.9 6.7-.9 1.9-1.6 3.6-2.1 5.1-.6 1.5-.9 2.6-1 3.4l-.2 1.1-10.2-19.1c-.6-.9-.9-1.9-1-3 0-1.1.1-1.9.3-2.5l.4-1c1.3-2.3 3.3-5.6 6.1-10.1l-7.4-4.6 23.3.9zm66 27.7l-10.1 19.2c-.4 1-1.1 1.9-2 2.5-.9.6-1.6 1-2.3 1.1l-1 .2c-2.5.3-6.5.5-11.8.6l.4 8.8-12.3-19.7 11.4-19.4.4 9.3c6.1.6 11.1.7 15.2.3 4-.4 7.1-1 9.1-1.8l3-1.1zm-42.1-49.6c-1.7 2.3-6.4 10-14.2 23.3l-17-10-1-.6 12-19.1c.7-1.1 1.8-1.9 3.2-2.4 1.4-.5 2.9-.7 4.3-.5.9.1 1.7.3 2.6.6.9.4 1.6.7 2.3 1.1.6.4 1.4 1 2.2 1.8.9.8 1.5 1.4 1.9 1.8.4.4 1.1 1.1 1.9 2.1.9 1 1.5 1.6 1.8 1.9zm35.1 16.5l11.4 19.5c.6 1.3.9 2.7.7 4.1-.2 1.4-.7 2.7-1.5 4-.5.7-1.1 1.4-1.8 2-.7.6-1.4 1.1-2 1.5-.6.4-1.5.8-2.6 1.2-1.1.4-1.9.7-2.5.9-.6.2-1.5.4-2.8.8-1.3.3-2.1.5-2.5.6-1.2-2.6-6-10.4-14.2-23.4l16.8-10.4 1-.8zm-7.7-12.1l7.6-4.5-11.8 20-22.4-1.1 8.1-4.6c-1.2-3.2-2.6-6.2-4-8.9-1.5-2.8-2.8-5-4-6.6-1.2-1.7-2.4-3.1-3.5-4.3-1.1-1.2-1.9-2-2.5-2.5l-.9-.7 21.7.1c1.1-.1 2.1.1 3.1.6s1.7 1 2.1 1.5l.6.8c1.3 2.2 3.3 5.6 5.9 10.2zm0 0"/></svg>