<svg xmlns="http://www.w3.org/2000/svg" viewBox="0 0 200 200"><path d="M196 32.9c7.5 18.1 3.9 39.7-10.8 54.4-16.2 16.2-40.7 18.7-59.7 8l-13.8 15 9.8 9.8 5.9-5.9c3-3 7.9-3 10.9 0l47.6 48.1c3 3 3 7.9 0 10.9L164.1 195c-3 3-7.9 3-10.9 0l-47.6-48.1c-3-3-3-7.9 0-10.9l5.4-5.3-9.4-9.4-65.8 71.9c-6 6-15.7 6-21.7 0l-5.4-5.4c-6-6-6-15.7 0-21.7l75-62.8-49.8-49.9H18.2L0 24.1 14.6 9.4l29.9 18.3.2 15.4 50.4 50.6 14.7-12.3c-14.3-19.5-12.8-47 4.8-64.7 14.6-14.6 36.1-18.3 54.2-10.9l-32.3 31.8 27.1 27.1L196 32.9zM26.7 173.8c-3-3-7.9-3-10.9 0s-3 7.9 0 10.9 7.9 3 10.9 0c3-3.1 3-7.9 0-10.9zm0 0"/><path fill="none" d="M0 2h200v196.1H0z"/></svg>