<svg xmlns="http://www.w3.org/2000/svg" viewBox="0 0 200 200"><path d="M199.9 143.9s-1-1.8-2.1-4.1l-29.2-58.4c-1.1-2.2-4.1-4.1-6.6-4.1h-24.2c-2.5 0-4.5 2-4.5 4.5v7.7c0 2.5 2 4.5 4.5 4.5h7.7c2.5 0 5.4 1.8 6.5 4.1l20.7 41.9c1.1 2.2 0 4.1-2.5 4.1h-32.9c-2.5 0-4.5 2-4.5 4.5v23.7c0 2.5-2 4.5-4.5 4.5h-57c-2.5 0-4.5-2-4.5-4.5v-23.7c0-2.5-2-4.5-4.5-4.5H28.7c-2.5 0-3.6-1.8-2.5-4l21.7-42c1.1-2.2 4.1-4 6.6-4H62c2.5 0 4.5-2 4.5-4.5V82c0-2.5-2-4.5-4.5-4.5H37.9c-2.5 0-5.4 1.8-6.6 4.1L2 139.9l-2 4s.1 2 .1 4.5v41.1c0 2.5 2 4.5 4.5 4.5h190.9c2.5 0 4.5-2 4.5-4.5v-41.2c0-2.4 0-4.4-.1-4.4zM58.5 57.2h24.9V127h33.3V57.2h26.2c2.5 0 3.2-1.5 1.5-3.4L103.1 7.3c-1.7-1.9-4.3-1.8-6 0L56.9 53.8c-1.6 1.9-.9 3.4 1.6 3.4z"/></svg>