<svg data-name="图层 1" xmlns="http://www.w3.org/2000/svg" viewBox="0 0 199.98 154.53"><defs><clipPath id="a" transform="translate(.03 -22.65)"><path d="M0 22.58h200v154.83H0z"/></clipPath></defs><g clip-path="url(#a)"><path d="M100.91 124.82a35.13 35.13 0 1 1 35.12-35.12 35.12 35.12 0 0 1-35.12 35.12zm0-19.67A15.46 15.46 0 1 0 85.45 89.7a15.45 15.45 0 0 0 15.46 15.45zm0 0"/><path d="M101.62 134.86c24.61 0 49.26-14.47 74-44.3-21.59-29.85-46.11-44.31-74-44.31S48.29 60.74 25.03 90.57c26.41 29.78 52 44.29 76.59 44.29zm73.72-75.15a176.36 176.36 0 0 1 20.69 25.83l4 5.91-4.36 5.59c-29.62 38-61 57.49-94 57.49s-65.15-19.4-96.73-57.24L.03 91.44l4.46-6.19a180.69 180.69 0 0 1 27.86-31.12L15.69 36.35a7.011 7.011 0 1 1 10.24-9.58l17.55 18.68A105.55 105.55 0 0 1 75.24 30.2l-8.51-20.09a7.026 7.026 0 1 1 12.94-5.48l9.63 22.72a99.52 99.52 0 0 1 12.32-.77 95.67 95.67 0 0 1 21 2.3l11.26-24.76a7.026 7.026 0 0 1 12.79 5.82l-10.5 23.08a105.5 105.5 0 0 1 28.86 17.17l20.49-20.54a7.029 7.029 0 1 1 9.94 9.94l-20.12 20.12zm0 0"/></g></svg>