<svg data-name="图层 1" xmlns="http://www.w3.org/2000/svg" viewBox="0 0 199.88 77"><defs><clipPath id="a" transform="translate(.04 -61.48)"><path d="M-.04 61.34h200v77.31h-200z"/></clipPath></defs><g clip-path="url(#a)"><path d="M199.23 33.94l-11.86-16.85a123.7 123.7 0 0 0 10-8.73 5.68 5.68 0 0 0 .62-6.87 4.8 4.8 0 0 0-6.24-.62c-22.46 21.22-46.8 34.32-70.52 39.31a108.57 108.57 0 0 1-58-4.37 144.16 144.16 0 0 1-39.98-21.84C13.26 7.73 7.64 2.12 7.64 1.52a4.17 4.17 0 0 0-6.24 0 4.91 4.91 0 0 0 0 6.87 115.2 115.2 0 0 0 11.86 11.2L2.65 33.94a5.67 5.67 0 0 0 .63 6.87 4.73 4.73 0 0 0 2.49 1.24 5.39 5.39 0 0 0 3.75-1.87l10.61-14.35a159.68 159.68 0 0 0 31.82 18.1l-6.86 16.22a4.85 4.85 0 0 0 1.87 6.24c.62 0 1.25.63 1.87.63a4.23 4.23 0 0 0 3.75-2.5l7.46-16.85c11.23 3.75 23.09 6.24 34.32 6.24v18.1c0 2.5 1.87 5 4.37 5s4.37-1.87 4.37-5v-18.1c6.24 0 12.48-1.25 18.09-1.87a113 113 0 0 0 19.35-5.62l7.5 17.48a3.87 3.87 0 0 0 3.74 2.49 2.29 2.29 0 0 0 1.87-.62c2.5-1.25 3.12-3.75 1.88-6.24l-5.62-18.1a137 137 0 0 0 30-18.1l11.86 16.85c.63 1.25 2.5 1.87 3.75 1.87a3.75 3.75 0 0 0 2.49-.62c1.87-2.5 2.5-5 1.25-7.49zm0 0"/></g></svg>