<svg class="icon" width="28" height="28" viewBox="0 0 1024 1024" xmlns="http://www.w3.org/2000/svg"><path d="M929.98 164.526H94.019c-16.954 0-30.699 13.745-30.699 30.7s13.745 30.699 30.7 30.699h66.512v701.954c0 16.954 13.745 30.699 30.7 30.699H832.77c16.954 0 30.699-13.745 30.699-30.7V225.926h66.512c16.954 0 30.699-13.746 30.699-30.7s-13.745-30.699-30.7-30.699zM802.07 897.18H221.93V225.925h580.14V897.18zM393.047 126.14h237.906c16.954 0 30.7-13.744 30.7-30.698s-13.746-30.7-30.7-30.7H393.047c-16.954 0-30.7 13.746-30.7 30.7s13.745 30.699 30.7 30.699z"/><path d="M385.55 756.577c16.954 0 30.7-13.745 30.7-30.699V411.535c0-16.954-13.746-30.7-30.7-30.7s-30.7 13.746-30.7 30.7v314.343c0 16.954 13.746 30.7 30.7 30.7zm254.256 0c16.954 0 30.699-13.745 30.699-30.699V411.535c0-16.954-13.745-30.7-30.7-30.7s-30.698 13.746-30.698 30.7v314.343c0 16.954 13.745 30.7 30.699 30.7z"/></svg>