<svg xmlns="http://www.w3.org/2000/svg" viewBox="0 0 200.4 200"><path d="M100.2 0C45 0 .2 44.8.2 100s44.8 100 100 100 100-44.8 100-100S155.4 0 100.2 0zm-6.8 154H51.1v-18.8s5.3-13.4 30.3-23.3c1-.4 5.8-3 3.1-10-6.9-7-12.1-18.5-12.1-29.7C72.4 55 83.7 46 97 46s24.7 9 24.7 26.2c0 11.2-5.2 22.6-12.1 29.6-4 6.9 1.6 9.9 2.2 10.1 1.1.3 2.1.7 3.2 1.1l-14.6 14.6-7 26.4zm29.6-6c-.3.3-.6.6-1 .7l-21 5.3 5.8-20.5c.1-.4.4-.8.8-1.1l24.8-24.5 5.4 5.4 4.1 4.1 6 6L123 148zm27.1-27.1l-15.6-15.5 3.6-3.3 15.6 15.6-3.6 3.2zm7.7-8.3l-2.3 2.3-14.9-14.9 2.3-2.3c2-2 5.4-2 7.4 0l7.5 7.5c2 2 2 5.3 0 7.4zm-47.2 23.5c-.4 1.8-2.9 11.6-2.9 11.6l11.7-2.8s-3.6-6.6-8.8-8.8z"/></svg>