<svg class="icon" viewBox="0 0 1026 1024" xmlns="http://www.w3.org/2000/svg" width="200.391" height="200"><defs><style/></defs><path d="M607.315 635.883c-10.094-3.75-20.124-7.308-30.09-10.587-6.322-2.08-59.02-30.368-21.323-95.883h-.322c65-66.951 114.657-174.728 114.657-280.812C670.237 85.489 561.774 0 435.737 0 309.594 0 201.71 85.489 201.71 248.6c0 106.514 49.441 214.74 114.806 281.52 25.46 66.844-20.188 91.425-29.64 95.176C50.643 719.12 0 845.972 0 845.972V1024h400.74l68.323-249.287 138.252-138.83zm252.608 41.062l-38.554-38.64.214-.236-51.627-51.564-234.843 232.742c-3.214 2.593-5.957 5.894-7.2 10.159L473.349 1024l199.052-50.149c3.986-1.178 7.072-3.643 9.601-6.622l235.4-233.32-57.243-57.2-.236.236zm-322.902 287.22s23.445-93.312 27.067-109.942c49.85 21.388 83.475 83.452 83.475 83.452l-110.542 26.49zM791.28 563.06l147.467 147.424 33.733-31.632-147.49-147.446-33.71 31.654zm219.969-2.122l-70.68-70.637c-19.503-19.502-50.963-19.695-70.251-.386l-21.667 21.881 141.274 141.339 21.71-21.946c19.287-19.245 19.116-50.727-.386-70.251zm0 0"/></svg>