<svg xmlns="http://www.w3.org/2000/svg" viewBox="0 0 200 200"><path d="M181.2 138.9c-1.6 0-3.1.4-4.5 1.2-1-3.9-4.6-6.7-8.8-6.7-1.8 0-3.5.6-4.9 1.5a9.04 9.04 0 0 0-8.3-5.4c-1.5 0-2.9.4-4.2 1v-18.8c0-5-4.1-9.1-9.1-9.1s-9.2 4.1-9.2 9.1v33.2c-1-1.2-2.1-2.2-3.3-2.9-3.6-2.1-7.1-1.7-8.8-1.5-.2 0-.5.1-.6.1h-.1l-3 .4c-.7.1-1.3.5-1.7 1.1-.4.6-.5 1.3-.3 2 2.6 9.9 6.9 26.1 7.1 27.4 1.4 8 5.5 15.2 11.7 20.4 6.3 5.3 14.2 8.2 22.4 8.2 19.1 0 34.7-15.5 34.7-34.7V148c.1-5-4-9.1-9.1-9.1zm0 0"/><path d="M145.5 16.5h-38.8c-.4 0-.7 0-1.1.1h-1.2c-1.7-4.8-4.7-8.8-8.7-11.9-4-3.2-8.7-4.7-14-4.7-5.3 0-10 1.6-14 4.7-4.1 3-6.9 7-8.7 11.9h-.4c-.3 0-.7-.1-1.1-.1H18.7c-5 0-9 4.1-9 9.1v2.6c0 .1 0 .1-.1.2v143.3c0 .5 0 1.1.1 1.6v11.4c0 5 4 9.1 9 9.1h86.6c2.3 0 12.1.6 11-5.5l-7-24c-.8-4.3-1.7-8.7-2.7-13 0-.4 0-.7-.2-.9-1-4.3-2.1-8.9-3.2-13.2-.2-.9-.1-1.8.4-2.5s1.3-1.3 2.2-1.4l3.8-.5h.2c.1 0 .4 0 .7-.1 2.1-.3 6.7-1.8 11.6 0l.5.1s.2.1.7.2v-31.5c0-6.3 8.4-11.5 17.9-11.5 4 0 9.7 2.1 13.3 5.3V25.5c0-5-4-9-9-9zm-63.4-2.6c6.3 0 11.5 5.1 11.5 11.5 0 6.3-5.1 11.5-11.5 11.5-6.3 0-11.5-5.1-11.5-11.5s5.2-11.5 11.5-11.5zm1.8 137.4H38.1c-2.1 0-5.5-2.6-5.5-5.9 0-3.3 3.4-5.9 5.5-5.9h45.8c2.1 0 5.5 2.6 5.5 5.9 0 3.2-3.3 5.9-5.5 5.9zM96.2 113H37.6c-2.7 0-4.9-2.6-4.9-5.9 0-3.3 2.2-5.9 4.9-5.9h58.6c2.7 0 4.9 2.6 4.9 5.9 0 3.3-2.2 5.9-4.9 5.9zm22.6-38.2H38.6c-3.7 0-5.9-2.6-5.9-5.9 0-3.3 2.2-5.9 5.9-5.9h80.2c3.7 0 5.9 2.6 5.9 5.9 0 3.3-2.2 5.9-5.9 5.9zm0 0"/></svg>