<svg class="icon" viewBox="0 0 1024 1024" xmlns="http://www.w3.org/2000/svg" width="200" height="200"><defs><style/></defs><path d="M429.504 309.952c-12.928-13.056-39.104-4.224-39.104 17.344v380.672c0 17.344 21.76 30.528 39.104 17.344l191.104-176.256a42.24 42.24 0 0 0 0-60.928L429.504 309.952z"/><path d="M1015.552 512.128a502.656 502.656 0 0 0-503.68-503.68 502.208 502.208 0 0 0-356.096 147.264A502.016 502.016 0 0 0 8.448 512.128a500.288 500.288 0 0 0 146.816 356.736 499.584 499.584 0 0 0 356.544 146.688c277.312-2.816 503.744-226.24 503.744-503.424zm-947.968 0A444.288 444.288 0 0 1 511.872 67.584c246.976 0 447.296 200.128 447.296 444.544 0 244.032-200.32 444.416-447.296 444.416A442.304 442.304 0 0 1 67.584 512.128z"/></svg>