<svg class="icon" viewBox="0 0 1024 1024" xmlns="http://www.w3.org/2000/svg" width="200" height="200"><defs><style/></defs><path d="M909.892 343.858c-21.798-51.477-52.909-97.631-92.514-137.236-39.605-39.605-85.862-70.819-137.236-92.514C626.926 91.593 570.333 80.13 512 80.13s-114.824 11.462-168.142 33.977c-51.477 21.798-97.631 52.909-137.236 92.514s-70.819 85.862-92.514 137.236C91.593 397.074 80.13 453.667 80.13 512s11.462 114.824 33.977 168.142c21.798 51.477 52.909 97.631 92.514 137.236 39.605 39.605 85.862 70.819 137.236 92.514C397.074 932.407 453.667 943.87 512 943.87s114.824-11.462 168.142-33.977c51.477-21.798 97.631-52.909 137.236-92.514 39.605-39.605 70.819-85.862 92.514-137.236C932.407 626.926 943.87 570.333 943.87 512s-11.36-114.824-33.977-168.142zM512 898.84c-213.274 0-386.84-173.566-386.84-386.84S298.726 125.16 512 125.16 898.84 298.726 898.84 512 725.274 898.84 512 898.84z"/><path d="M598.68 445.173c0-11.257-9.21-20.468-20.467-20.468h-133.04c-11.257 0-20.468 9.21-20.468 20.468v133.04c0 11.257 9.21 20.468 20.468 20.468h133.04c11.257 0 20.468-9.21 20.468-20.468v-133.04z"/></svg>