<svg xmlns="http://www.w3.org/2000/svg" viewBox="0 0 200 200"><path d="M180.5 100.8c0 10.8 8.5 19.5 19.2 19.9-2.8 13.4-8.2 25.8-15.6 36.7-7.8-7-19.8-6.7-27.3.8-7.4 7.4-7.8 19.2-1.1 27-10.9 7.2-23.3 12.3-36.6 14.8-.9-10.2-9.4-18.1-19.8-18.1-10.3 0-18.8 7.8-19.8 17.8-13-2.7-25.2-7.9-35.8-15 6.1-7.8 5.6-19.2-1.6-26.4-7.2-7.2-18.6-7.7-26.4-1.6C8.3 146 3 133.8.3 120.6c10-1 17.8-9.5 17.8-19.8 0-10.4-8-18.9-18.1-19.8 2.5-13.3 7.6-25.7 14.8-36.6 7.8 6.8 19.7 6.5 27.2-1s7.8-19.6.7-27.5C53.5 8.5 65.9 3.1 79.3.3c.4 10.7 9.2 19.2 19.9 19.2 10.8 0 19.7-8.7 19.9-19.5 13.7 2.6 26.4 8 37.5 15.4-7.7 7.8-7.7 20.3.1 28.1 7.7 7.7 20.3 7.8 28 .1 7.4 11.1 12.6 23.7 15.2 37.2-10.7.3-19.4 9.1-19.4 20zm-81-45.3c-23.8 0-43.1 19.3-43.1 43.1s19.3 43.1 43.1 43.1 43.1-19.3 43.1-43.1-19.3-43.1-43.1-43.1z"/></svg>