<svg version="1.1" id="图层_1" xmlns="http://www.w3.org/2000/svg" x="0" y="0" viewBox="0 0 200 200" xml:space="preserve"><style/><path class="st0" d="M51.8 0h96.4c9.7 0 17.7 8 17.7 17.7v164.5c0 9.7-8 17.7-17.7 17.7H51.8c-9.7 0-17.7-8-17.7-17.7V17.7C34.1 8 42 0 51.8 0zm-2.9 28.5v70.3h101.7V28.5H48.9zm26-19.2v7.5h46.3V9.3H74.9zm14.5 97.2c-3.4 0-6.2 2.8-6.2 6.2v9.6c0 3.4 2.8 6.2 6.2 6.2h18.9c3.4 0 6.2-2.8 6.2-6.2v-9.6c0-3.4-2.8-6.2-6.2-6.2H89.4zm-10.7 7.7H50.6v6.8h28.1v-6.8zm68.3 0h-28v6.8h28v-6.8zm-68.4 20.4H50.5v13.3h28.1v-13.3zm34.3 0H84.7v13.3h28.1v-13.3h.1zm33.9 0h-28.1v13.3h28.1v-13.3zm-68.2 17.2H50.5v13.3h28.1v-13.3zm34.3 0H84.7v13.3h28.1v-13.3h.1zm33.9 0h-28.1v13.3h28.1v-13.3zm-68.2 18.5H50.5v13.3h28.1v-13.3zm34.3 0H84.7v13.3h28.1v-13.3h.1zm33.9 0h-28.1v13.3h28.1v-13.3z"/></svg>