<svg data-name="图层 1" xmlns="http://www.w3.org/2000/svg" viewBox="0 0 200 199.88"><path d="M162.51 199.88h-125A37.5 37.5 0 0 1 0 162.4V37.48A37.36 37.36 0 0 1 25 2.3v16.44a18.75 18.75 0 0 0 37.49 0V0h75v18.74a18.75 18.75 0 0 0 37.49 0V2.3a37.36 37.36 0 0 1 25 35.18V162.4a37.49 37.49 0 0 1-37.49 37.48zM175 62.46H25v99.94a12.49 12.49 0 0 0 12.51 12.54h125A12.49 12.49 0 0 0 175 162.4zm-50 62.48h25v25h-25zm0-37.47h25v25h-25zm-37.5 37.47h25v25h-25zm0-37.47h25v25h-25zM50 124.94h25v25H50zm0-37.47h25v25H50zm106.26-62.48a6.25 6.25 0 0 1-6.26-6.25V0h12.5v18.74a6.27 6.27 0 0 1-6.25 6.25zm-112.5 0a6.25 6.25 0 0 1-6.25-6.25V0H50v18.74a6.26 6.26 0 0 1-6.25 6.25zm0 0"/></svg>