<svg xmlns="http://www.w3.org/2000/svg" viewBox="0 0 200 200"><path d="M100.1 0c11.6-.2 9.2 11.7 9.2 22.8 0 4.7.8 10.6-1 13.6-1.3 2.2-3.5 3.5-6.5 4-1.7.3-3.4-.4-4.4-.9-6.4-3.3-4.6-12.8-4.6-22.1 0-3.9-.8-9.1.4-12.1 1.4-3.4 3.6-3.9 6.9-5.3zM40.7 20c2.7 0 4.6.7 6.1 1.9 3.9 4.7 7.7 9.5 11.6 14.2 1.9 2.5 4.8 4.8 6.1 7.8 1.8 4.3-.8 8.5-3.5 10-2.8 1.7-7.1 1.2-9.4-.5-2.8-2-5-5.9-7.1-8.6-2.1-2.6-4.3-5.2-6.4-7.8-2.9-3.8-7.7-8.2-3.1-14.1 1.4-1.8 3.2-1.9 5.7-2.9zm119 2.8c6-.1 11.7 4.5 9.1 11-1.3 3.2-4.3 5.2-6.3 7.6l-8.1 9c-1.4 1.8-3 4.1-4.9 5.3-2.1 1.4-6.3 1.9-8.8.4-3.3-1.9-5.8-7-3.1-11.4 2.7-3 5.3-5.9 8-8.9 2.1-2.3 4.2-4.7 6.3-7 1.4-1.7 2.8-3.7 4.7-4.9 1-.3 2-.7 3.1-1.1zm-8.6 146.7H48.6v-47c0-9.5-.6-19.9 1.6-27.3 4.1-13.8 12-23.4 23.2-30.1 4.9-2.9 10.4-5 17-6.4 2.2-.2 4.3-.4 6.5-.6 2 0 4-.1 6-.1 4.4.7 8.5.9 12.2 2.1 17.3 5.4 29.2 17.6 34.4 35.2 2.2 7.4 1.6 17.8 1.6 27.2v47zM7.2 73.5c3-.1 5.1.6 7.5 1.2l13.8 2.7c3.5.8 7.2.9 9.3 2.9 2.2 2.1 3.8 6.6 1.7 10.2-1.2 1.9-3.2 3.4-5.7 4-2.6.6-5.3-.4-7.4-.9l-13.8-2.7c-3.5-.8-7.3-.9-9.7-2.8-3.4-2.6-3.9-9.5-.3-12.3 1.4-1.3 2.8-1.5 4.6-2.3zm183.7 4.2c6.9-.1 11.7 7.2 7.3 13.1-2.4 3.2-6.5 3.1-11.2 4-4.7.7-9.3 1.4-14 2.1-2.1.4-4.8 1.2-7.2.7-2.7-.6-5.1-2.3-6.1-4.6-2-4.6.6-9.4 4-10.9 1.9-.9 4.4-.8 6.8-1.3 4.6-.7 9.3-1.5 13.9-2.2 2.1-.3 4.3-.6 6.5-.9zM38.6 176.6h100.3c12.7 0 23.9-2.3 28.9 6.1.9 1.6 2 4.1 1.5 7-2.2 12.7-15.6 10.2-30 10.2H46.2c-3.6 0-7.9.4-10.6-.6-5.7-2.2-10.5-9.8-6.2-17 1.2-2 3.3-3.9 5.7-4.8 1.2-.4 2.3-.7 3.5-.9z"/></svg>