<svg xmlns="http://www.w3.org/2000/svg" viewBox="0 0 200 185.6"><path d="M100 15.8c-45.1 0-82 36.9-82 82s36.9 82 82 82 82-36.9 82-82-36.9-82-82-82zm0 152.2c-38.6 0-70.3-31.7-70.3-70.3 0-39.3 31.7-70.8 70.3-70.8s70.8 31.7 70.8 70.8c0 38.7-31.5 70.3-70.8 70.3zm67.3-137c1.1.6 1.7 1.1 3 1.1 1.7 0 3.5-1.1 4.7-2.4l1.1-1.7c.6-1.1 1.1-3 1.1-4.1 0-1.7-1.1-3-2.4-3.5L155.7 7c-1.1-.6-1.7-1.1-3-1.1-1.7 0-3.5 1.1-4.7 2.4l-1.1 1.7c-.6 1.1-1.1 3-1.1 4.1s1.1 3 2.4 3.5L167.3 31zM25.1 32.2c1.1 1.1 3 2.4 4.7 2.4 1.1 0 2.4-.6 3.5-1.1l17.5-15.3c2.4-2.4 3-5.8.6-8.2l-.6-1.1c-1.1-1.1-3-1.7-4.7-1.7-1.1 0-2.4.6-3.5 1.1L25.1 23.4c-2.4 1.7-3 5.2-.6 7.6l.6 1.2z"/><path d="M127 92.5H98.3V61.4c0-3-2.4-5.8-5.8-6.5h-.6c-3.5 0-6.5 3-6.5 6.5v43.4H127c3.5 0 6.5-3 6.5-6.5-.1-2.9-3.1-5.8-6.5-5.8z"/></svg>