<svg xmlns="http://www.w3.org/2000/svg" viewBox="0 0 200 200"><path d="M94.6 155.4c-1.7 0-2.9 0-4.2-1.2-.8-1.6-1.5-3.1-1.5-4.5 0-1.7 0-3 1.4-4.3l14.9-17.1H86.4c-3.2 0-5.5-.8-7-2.3-1-1-1.6-2.4-1.6-3.9s.6-2.9 1.6-3.9l21.7-20.8c1-1 2.4-1.6 3.9-1.6 1.4 0 2.7.5 3.7 1.4.8 1.6 1.5 3.1 1.5 4.5 0 1.7 0 3-1.4 4.3l-11.7 11.7h20c4.1 0 6.6 2.5 6.6 6.6 0 1.7 0 4.8-3.2 8L99 153.8c-1.5.8-3 1.6-4.4 1.6zm73-42.6v-11.4h24.7c2.8 0 5.7 2.9 5.7 5.7 0 2.8-2.9 5.7-5.7 5.7h-24.7zm-159.9 0c-2.8 0-5.7-2.9-5.7-5.7 0-2.8 2.9-5.7 5.7-5.7h24.7v11.4H7.7zm143.9-47.7c-.7-.6-1.3-1.2-1.9-1.8-1.9-1.8-3.6-3.3-4.8-5.7l-.2-.5-.4-.2 17.5-17.5c1.1-1.1 2.7-1.7 4.4-1.7 1.2 0 2.3.3 3.2.8.8 1.5 1.5 3 1.5 4.3 0 1.7 0 3-1.4 4.3l-17.9 18zM30.7 47.4c-.8-1.6-1.5-3.1-1.5-4.5s.7-2.9 1.5-4.5c1-.9 2.3-1.4 3.8-1.4 1.6 0 3.3.6 4.8 1.7L57.6 57h-.1c-2.8 1.8-5.5 4.6-8.3 8.1L30.7 47.4zm63.6-5.2V15.7c0-2.8 2.9-5.7 5.7-5.7 3.7 0 5.7 2.9 5.7 5.7v26.5H94.3z"/><path d="M30.3 188c-2.8 0-5.7-2.9-5.7-5.7s2.9-5.7 5.7-5.7h13.3V109c0-14.9 5.9-29 16.6-39.7C71 58.5 85.1 52.6 100 52.6s29 5.9 39.7 16.6 16.6 24.8 16.6 39.7v67.6h13.3c2.8 0 5.7 2.9 5.7 5.7s-2.9 5.7-5.7 5.7H30.3v.1zM100 66.7c-12.6 0-23.6 4.9-31.9 14.1-8.6 9.5-13.1 20.8-13.1 32.7v63.1h90v-63.1c0-12.5-4.8-24.4-13.1-32.7-8.3-9.3-19.3-14.1-31.9-14.1z"/></svg>