<svg xmlns="http://www.w3.org/2000/svg" viewBox="0 0 200 200"><path d="M14.8 164.2v-137c0-4.7 3.8-8.5 8.6-8.5h128.2c4.7 0 8.5 3.8 8.5 8.5v46.3h14.8V27.2c0-12.9-10.4-23.3-23.3-23.3H23.4C10.5 3.9 0 14.3 0 27.2v137c.1 12.9 10.5 23.3 23.4 23.3h63.8v-14.8H23.4c-4.7 0-8.6-3.8-8.6-8.5z"/><path d="M28.1 56h114.6v14.8H28.1V56zm159.2 96.2H177l-14.9-19c11.5-7.5 14.8-23 7.2-34.5s-23-14.8-34.5-7.2c-11.5 7.5-14.8 23-7.2 34.5 1.9 2.9 4.3 5.3 7.2 7.2l-14.9 19h-10.3c-7 0-12.7 5.7-12.7 12.7v18.5c0 7 5.7 12.7 12.7 12.7h77.6c7 0 12.7-5.7 12.7-12.7v-18.5c.1-7-5.5-12.7-12.6-12.7.1 0 .1 0 0 0zm-38.8-49.5v-1.8l.2 1.8c5.6.1 10.2 4.7 10.1 10.3-.1 5.6-4.7 10.2-10.3 10.1-5.6-.1-10.2-4.7-10.1-10.3.1-5.6 4.6-10.1 10.1-10.1zm9.8 49.5h-19.5l9.8-12.3 9.7 12.3zm26.9 29l-73.5.3-.2-14.5 73.7-.3v14.5zM28.1 118.3h68.8v14.8H28.1v-14.8zm0-33.2h82.2v14.8H28.1V85.1z"/></svg>