<svg xmlns="http://www.w3.org/2000/svg" viewBox="0 0 200 200"><path d="M63.1 80.9c-3.5.2-13.2 13-13.2 19.6v2.2h28.3V80.9s-6.9-.3-15.1 0zM100 0C44.8 0 0 44.8 0 100s44.8 100 100 100 100-44.8 100-100S155.2 0 100 0zM65.1 141.9c-6 0-10.9-4.9-10.9-10.9s4.9-10.9 10.9-10.9S76 125 76 131s-4.8 10.9-10.9 10.9zm26.2-17.4c0 2.4-1.9 4.4-4.4 4.4h-4.5c-1.2-9.5-9.9-16.3-19.5-15.1-7.9 1-14.1 7.2-15.1 15.1h-4.5c-2.4 0-4.4-1.9-4.4-4.4v-24c0-8.7 14.9-30.5 21.8-30.5h26.1c2.4 0 4.3 1.9 4.4 4.3v50.2zm37.6 18.5c-6.3 0-11.4-5.1-11.4-11.4 0-6.3 5.1-11.4 11.4-11.4 6.3 0 11.4 5.1 11.4 11.4 0 6.3-5.1 11.4-11.4 11.4zM161 63.5v58.8c0 3.6-2.9 6.5-6.5 6.5h-8.9c-1.2-9.5-9.9-16.3-19.4-15.1-7.9 1-14.1 7.2-15.1 15.1h-6.7c-3.6 0-6.5-2.9-6.5-6.5V63.5c0-3.6 2.9-6.5 6.5-6.5h50.1c3.6 0 6.5 2.9 6.5 6.5z"/></svg>