<svg class="icon" viewBox="0 0 1024 1024" xmlns="http://www.w3.org/2000/svg" width="200" height="200"><defs><style/></defs><path d="M796.479 354.576c0-156.872-127.204-284.076-284.081-284.076-156.873 0-284.077 127.204-284.077 284.076 0 146.08 110.665 265.014 252.515 280.859v66.35h-126.26c-17.42 0-31.561 14.142-31.561 31.566 0 17.42 14.141 31.562 31.561 31.562h126.26v157.821c0 17.426 14.142 31.566 31.562 31.566 17.425 0 31.565-14.141 31.565-31.566V764.913H670.22c17.425 0 31.565-14.142 31.565-31.562 0-17.425-14.141-31.566-31.565-31.566H543.964v-66.35c141.85-15.908 252.515-134.779 252.515-280.859zm-505.03 0c0-121.833 99.115-220.949 220.95-220.949 121.838 0 220.953 99.116 220.953 220.949 0 121.839-99.115 220.954-220.953 220.954-121.835 0-220.95-99.115-220.95-220.954zm0 0"/></svg>