<svg version="1.1" id="图层_1" xmlns="http://www.w3.org/2000/svg" x="0" y="0" viewBox="0 0 200 200" xml:space="preserve"><style>.st0{fill:#549cd5}.st1{fill:#fff}</style><path class="st0" d="M184.4 42.8v144.6c0 7-5.6 12.6-12.6 12.6H28.3c-7 0-12.6-5.6-12.6-12.6V13.7c0-7 5.6-12.6 12.6-12.6H142"/><path class="st0" d="M184.9 42.8h-30.2c-7 0-12.6-5.6-12.6-12.6V0"/><path class="st1" d="M184.9 45.3h-30.2c-8.3 0-15.1-6.8-15.1-15.1V0h5v30.2c0 5.6 4.5 10.1 10.1 10.1h30.2v5zm0 0M172.9 131.8V179c0 6-4.9 10.9-10.9 10.9H38.3c-6 0-10.9-4.9-10.9-10.9v-47.2h145.5zm0 0M54.1 46.9h12.6l13.4 45.3 14.3-45.3H107l14.3 45.3 12.6-45.3h12.6l-19.3 58.7h-12.6l-14.3-45.3L86 105.6H72.6L54.1 46.9zm0 0"/><g><path class="st0" d="M42.8 140.1h16.6c3.3 0 5.9.5 7.9 1.5s3.7 2.5 5 4.4c1.3 1.9 2.3 4.1 2.9 6.6.6 2.5.9 5.2.9 8 0 4.4-.4 7.9-1.3 10.3-.9 2.4-2.1 4.5-3.7 6.1-1.6 1.7-3.2 2.7-5 3.3-2.4.8-4.7 1.1-6.6 1.1H42.8v-41.3zm11.1 9.4v22.7h2.7c2.3 0 4-.3 5-.9 1-.6 1.8-1.6 2.3-3.1.6-1.5.8-3.9.8-7.2 0-4.4-.6-7.4-1.9-9-1.2-1.6-3.3-2.4-6.2-2.4h-2.7zM80.4 160.8c0-6.8 1.6-12 4.9-15.8 3.3-3.8 7.8-5.7 13.7-5.7 6 0 10.6 1.9 13.9 5.6 3.2 3.7 4.9 8.9 4.9 15.6 0 4.8-.7 8.8-2.1 11.9s-3.5 5.5-6.1 7.2c-2.7 1.7-6 2.6-10 2.6-4.1 0-7.4-.7-10.1-2.2-2.7-1.5-4.8-3.8-6.5-7.1-1.8-3.2-2.6-7.2-2.6-12.1zm11.1.1c0 4.2.7 7.2 2 9 1.4 1.8 3.2 2.7 5.5 2.7 2.4 0 4.2-.9 5.6-2.7 1.3-1.8 2-5 2-9.6 0-3.9-.7-6.8-2.1-8.6-1.4-1.8-3.2-2.7-5.6-2.7-2.2 0-4 .9-5.4 2.7-1.3 1.9-2 5-2 9.2zM147.8 164.6l9.8 3.4c-.7 3.2-1.7 5.8-3.1 7.9-1.4 2.1-3.2 3.7-5.3 4.8-2.1 1.1-4.8 1.6-8 1.6-3.9 0-7.1-.7-9.6-2s-4.6-3.6-6.4-6.9c-1.8-3.3-2.7-7.5-2.7-12.7 0-6.9 1.6-12.1 4.8-15.8 3.2-3.7 7.7-5.5 13.5-5.5 4.5 0 8.1 1.1 10.7 3.2 2.6 2.1 4.5 5.4 5.8 9.7l-9.8 2.5c-.3-1.3-.7-2.2-1.1-2.8-.6-1-1.4-1.7-2.3-2.3-.9-.5-1.9-.8-3-.8-2.5 0-4.5 1.2-5.8 3.5-1 1.7-1.5 4.5-1.5 8.2 0 4.6.6 7.7 1.8 9.5 1.2 1.7 2.9 2.6 5.1 2.6 2.1 0 3.7-.7 4.8-2.1 1-1.4 1.8-3.4 2.3-6z"/></g></svg>