<svg class="icon" viewBox="0 0 1024 1024" xmlns="http://www.w3.org/2000/svg" width="200" height="200"><defs><style/></defs><path d="M953.38 512c0-243.767-197.613-441.38-441.38-441.38S70.62 268.234 70.62 512 268.234 953.38 512 953.38 953.38 755.766 953.38 512zM512 462.064L362.213 312.276c-13.889-13.888-36.169-13.811-49.958-.021-13.886 13.885-13.78 36.156.021 49.958L462.064 512 312.276 661.787c-13.888 13.889-13.811 36.169-.021 49.958 13.885 13.886 36.156 13.78 49.958-.021L512 561.936l149.787 149.788c13.889 13.888 36.169 13.811 49.958.021 13.886-13.885 13.78-36.156-.021-49.958L561.936 512l149.788-149.787c13.888-13.889 13.811-36.169.021-49.958-13.885-13.886-36.156-13.78-49.958.021L512 462.064zM0 512C0 229.23 229.23 0 512 0s512 229.23 512 512-229.23 512-512 512S0 794.77 0 512z"/></svg>