<svg version="1.1" id="图层_1" xmlns="http://www.w3.org/2000/svg" x="0" y="0" viewBox="0 0 200 200" xml:space="preserve"><style>.st0{fill:#8bbf1c}</style><path class="st0" d="M2.4 71c-3.2 3.2-3.2 8.3 0 11.5s8.3 3.2 11.5 0C61.4 35 138.6 35 186.1 82.5c3.2 3.2 8.3 3.2 11.5 0s3.2-8.3 0-11.5C143.8 17.2 56.2 17.2 2.4 71zm76.3 77.8c0 11.4 9.2 20.6 20.6 20.6s20.6-9.2 20.6-20.6-9.2-20.6-20.6-20.6-20.6 9.2-20.6 20.6z"/><path class="st0" d="M158.9 85.5c2.4 0 4.7.2 7 .6C124.4 53 63.7 55.7 25.4 94c-3.2 3.2-3.2 8.3 0 11.5s8.3 3.2 11.5 0c28.3-28.3 71-33.6 104.7-15.9 5.2-2.6 11-4.1 17.3-4.1z"/><path class="st0" d="M127.3 100.8c-26.3-10.5-57.6-5.2-78.9 16.1-3.2 3.2-3.2 8.3 0 11.5 3.2 3.2 8.3 3.2 11.5 0 16.4-16.4 40.4-20.7 60.8-12.8 1-5.4 3.3-10.4 6.6-14.8z"/><path d="M154.7 96.8c2.1 0 4 .4 5.9 1.2 1.9.8 3.6 1.8 5.1 3.2 1.5 1.3 2.7 2.9 3.6 4.7.9 1.8 1.3 3.7 1.3 5.8v9.5h-7.8v-7.7c0-2.7-.8-4.8-2.3-6.3s-3.6-2.2-6.1-2.2c-2.3 0-4.2.7-5.6 2.2-1.4 1.5-2.1 3.6-2.1 6.3v7.8h-8.1v-9.6c0-2.1.4-4 1.2-5.8s1.9-3.4 3.4-4.7c1.4-1.3 3.1-2.4 5.1-3.2 1.9-.8 4.1-1.2 6.4-1.2zm24 43.8v8.5c0 1.2-.2 2.2-.6 3.3-.4 1-1 1.9-1.7 2.6-.7.7-1.5 1.3-2.5 1.7s-2 .6-3.2.6h-32.5c-1.2 0-2.2-.2-3.1-.6-.9-.4-1.8-1-2.4-1.7-.7-.7-1.2-1.5-1.6-2.5-.4-.9-.5-1.9-.5-3v-20.4c0-1.2.4-2.2 1.3-3 .8-.8 1.8-1.2 2.9-1.2h39.7c1.2 0 2.2.4 3 1.2.8.8 1.2 1.8 1.2 3v11.5z"/></svg>