<svg xmlns="http://www.w3.org/2000/svg" viewBox="0 0 200 200"><path d="M100 0C44.8 0 0 44.8 0 100s100 100 100 100 100-44.8 100-100S155.2 0 100 0zm9.1 152.5c-2.5 2.3-5.4 3.4-8.5 3.4-2.8.1-5.4-.9-8-2.9-2.6-2-4.1-4.8-4.5-8.5-.4-3.7.7-6.8 3.3-9.3 2.6-2.5 5.6-3.8 9-3.8 3.4 0 6.4 1.2 8.9 3.6 2.5 2.4 3.8 5.3 3.8 8.7-.2 3.6-1.5 6.5-4 8.8zm23-77.7c-.2 4.1-1.1 7.7-2.8 10.6-1.6 3-4.6 6.1-9 9.4-4.3 3.3-7 5.5-8.1 6.5-1 1-1.8 2.2-2.4 3.5-.5 1.4-.8 3.2-.8 5.6v10.3c0 1.5-.6 2.9-1.7 4-1.1 1.2-3.2 1.9-6.2 2-3 .2-5.3-.4-6.8-1.7-1.5-1.3-2.3-3.2-2.3-5.7v-9.2c0-5.7.8-10 2.4-12.9 1.6-2.8 3.8-5.4 6.6-7.8l4-3.1c2.6-2 4.8-4.3 6.9-6.8 2-2.6 2.9-5.1 2.6-7.8-.3-2.9-2-5.4-5.1-7.6-3.1-2.2-6.5-3.4-10.2-3.6-4.4-.2-8 .5-10.8 2.3-2.8 1.7-4.8 3.6-6 5.6-1.2 2-2.1 4.4-2.7 7.1-.6 2.8-1.2 4.7-1.8 5.7-.6 1-1.6 1.8-2.9 2.2-1.3.5-2.5.7-3.7.7-2 .1-3.8-.4-5.4-1.3-1.6-.9-2.7-2.4-3.1-4.4-.5-2-.4-4.4.1-7.3.8-4.3 1.9-7.8 3.2-10.5 1.3-2.6 3.1-5.1 5.3-7.4 2.2-2.3 4.8-4.2 7.8-5.6 3-1.4 6-2.5 9.1-3.2 3.1-.7 6.3-1.1 9.6-1.1 4.3-.1 8.3.5 11.9 1.6 3.6 1.1 6.8 2.7 9.4 4.5 2.6 1.9 4.8 3.7 6.5 5.6 1.7 1.9 3.2 4.6 4.5 8.1 1.5 3.9 2.1 7.6 1.9 11.7z"/></svg>