<svg xmlns="http://www.w3.org/2000/svg" viewBox="0 0 200 200"><circle cx="100" cy="100" r="100" fill="#8bbf1c"/><path d="M100 48.8c-28.7 0-51.7 21.1-51.7 47.4 0 14 6.6 27.3 17.8 35.7.9 1.4 2.8 9.4 3.8 16 0 .9.9 2.4 1.9 2.8.5.5.9.5 1.9.5.5.1 1-.1 1.4-.5l15-7.1h9.9c28.7 0 51.7-21.6 51.7-47.4s-23-47.4-51.7-47.4zm-26.1 56.9c-4.8 0-8.8-3.9-8.8-8.8s3.9-8.8 8.8-8.8 8.8 3.9 8.8 8.8c0 4.8-3.9 8.8-8.8 8.8zm26.8 0c-4.8 0-8.8-3.9-8.8-8.8 0-4.8 3.9-8.8 8.8-8.8 4.8 0 8.8 3.9 8.8 8.8 0 4.8-3.9 8.8-8.8 8.8zm26 0c-4.8 0-8.7-3.9-8.7-8.8 0-4.8 3.9-8.7 8.8-8.7 4.8 0 8.7 3.9 8.7 8.8 0 4.7-3.9 8.7-8.8 8.7z" fill="#fff"/></svg>