<svg xmlns="http://www.w3.org/2000/svg" viewBox="0 0 200 200"><circle cx="100" cy="100" r="100" fill="#6ca6ef"/><path d="M121.2 74.3c8.7 5.9 14.4 15.2 15.2 27.1 2.8 0 5.9.8 8.7 2-.8-15.2-8.7-29-21.2-36.7-.8 1.7-.8 4.8-2.7 7.6zm-6 63.7c-4.8 2-9.6 3.7-15.2 3.7s-10.7-.8-15.2-3.7c-2 2.8-3.7 4.8-5.9 6.8 6.8 3.7 13.5 5.9 21.2 5.9 7.6 0 15.2-2 21.2-5.9-1.8-2.2-3.8-3.9-6.1-6.8zm-51.9-36.9C64 90.2 69.6 80.3 78.5 74c-.8-2.8-2-5.9-2.8-8.7-12.4 7.9-20.3 22.3-21.2 37.8 2.9-1.2 5.7-2 8.8-2zm1.2 5.1c-10.7 0-19.4 8.7-19.5 19.5 0 10.7 8.7 19.4 19.5 19.5 10.7 0 19.4-8.7 19.5-19.5-.4-10.8-9.1-19.5-19.5-19.5zM100 43.3c-10.7 0-19.4 8.7-19.5 19.5 0 10.7 8.7 19.4 19.5 19.5 10.7 0 19.4-8.7 19.5-19.5-.1-10.8-8.8-19.5-19.5-19.5zm35.5 62.9c-10.7 0-19.4 8.7-19.5 19.5 0 10.7 8.7 19.4 19.5 19.5 10.7 0 19.4-8.7 19.5-19.5 0-10.8-8.7-19.5-19.5-19.5z" fill="#fff"/></svg>