<svg xmlns="http://www.w3.org/2000/svg" viewBox="0 0 200 200"><path d="M121.5 116.3c-13.7 12.2-21.5 29.7-21.5 48 0 13.2 4 25.5 10.8 35.7H7.1c-4 0-7.1-3.2-7.1-7.1v-21.4c0-38 66.6-57.2 100-57.2 6.2 0 13.6.6 21.5 2zM100 100c-27.6 0-50-22.4-50-50C50 28.5 63.5 8.8 84.1 2.5 118.5-8.2 150 17.2 150 50c0 27.6-22.4 50-50 50zm89.5 46.5c5.8 0 10.5 4.7 10.5 10.5v.4c0 5.8-4.7 10.5-10.5 10.5h-21.6v21.6c0 5.8-4.7 10.5-10.5 10.5h-.4c-5.8 0-10.5-4.7-10.6-10.5v-21.6h-21.5c-5.8 0-10.6-4.7-10.6-10.6v-.3c.1-5.8 4.8-10.5 10.6-10.5h21.5v-21.7c0-5.8 4.7-10.5 10.6-10.5h.3c5.8 0 10.5 4.7 10.5 10.5v21.7h21.7z"/></svg>