<svg xmlns="http://www.w3.org/2000/svg" viewBox="0 0 200 200"><path d="M200 142.3v38.4c0 3.2-1.1 5.9-3.4 8.2-2.3 2.3-5 3.4-8.2 3.4H11.5c-3.2 0-6-1.1-8.2-3.4-2.3-2.3-3.4-5-3.4-8.2v-38.4c0-3.2 1.1-5.9 3.4-8.2 2.3-2.3 5-3.4 8.2-3.4h55.9l16.2 16.4c4.7 4.5 10.1 6.7 16.3 6.7 6.3 0 11.7-2.3 16.4-6.7l16.4-16.4h55.8c3.2 0 5.9 1.1 8.2 3.4 2.2 2.3 3.3 5 3.3 8.2zm-39.1-68.4c1.4 3.3.8 6.1-1.7 8.4l-53.9 53.8c-1.4 1.5-3.2 2.3-5.4 2.3s-4-.8-5.4-2.3L40.7 82.3c-2.5-2.3-3.1-5.1-1.7-8.4 1.4-3.1 3.7-4.7 7.1-4.7h30.8V15.4c0-2.1.8-3.9 2.3-5.4s3.3-2.3 5.4-2.3h30.8c2.1 0 3.9.8 5.4 2.3s2.3 3.3 2.3 5.4v53.8h30.8c3.3 0 5.7 1.6 7 4.7zm-9.3 100.7c1.5-1.5 2.3-3.3 2.3-5.4s-.8-3.9-2.3-5.4-3.3-2.3-5.4-2.3-3.9.8-5.4 2.3-2.3 3.3-2.3 5.4.8 3.9 2.3 5.4 3.3 2.3 5.4 2.3c2 0 3.9-.7 5.4-2.3zm30.7 0c1.5-1.5 2.3-3.3 2.3-5.4s-.8-3.9-2.3-5.4-3.3-2.3-5.4-2.3-3.9.8-5.4 2.3-2.3 3.3-2.3 5.4.8 3.9 2.3 5.4 3.3 2.3 5.4 2.3c2.1 0 3.9-.7 5.4-2.3z"/></svg>