<svg xmlns="http://www.w3.org/2000/svg" viewBox="0 0 200 200"><path d="M126.8 122.5c3.7 0 6.6-3 6.6-6.6 0-3.7-3-6.6-6.6-6.6H95.9V93.5H127c3.7 0 6.6-3 6.6-6.6s-3-6.6-6.6-6.6H99.2l28.9-27.1c2.7-2.6 2.8-6.7.3-9.4-2.6-2.7-6.7-2.8-9.4-.3L89.3 71.3 59.7 43.4c-2.7-2.6-6.9-2.3-9.4.3-2.6 2.7-2.3 6.9.3 9.4l28.6 27H51.4c-3.7 0-6.6 3-6.6 6.6s3 6.6 6.6 6.6h31.1V109H51.4c-3.7 0-6.6 3-6.6 6.6s3 6.6 6.6 6.6h31.1v15.9c0 3.7 3 6.6 6.6 6.6 3.6 0 6.6-3 6.6-6.6v-15.8h31.1v.2zM197.4 130.7l-66.1 66.1c-3 3-8 3-11 0l-5.5-5.5 71.6-71.6c3-3 8-3 11 0 3.1 3 3.1 7.9 0 11z"/><path d="M120.3 196.8l-27.6-27.6c-3-3-3-8 0-11s8-3 11 0l33.1 33.1-5.5 5.5c-3.1 3-8 3-11 0z"/><path d="M78.7 176.8H20c-2.8 0-5-2.2-5-5V28.2c0-2.8 2.2-5 5-5h135c2.8 0 5 2.2 5 5v78.5h15V28.2c0-11-9-20-20-20H20c-11 0-20 9-20 20v143.6c0 11 9 20 20 20h58.7v-15z"/></svg>