<svg xmlns="http://www.w3.org/2000/svg" viewBox="0 0 200 200"><path d="M197.8 94.7l-39.6-39.6c-2.9-2.9-7.6-2.9-10.5 0-2.9 2.9-2.9 7.6 0 10.5l26.8 26.8H86.2c-4.2.3-7.3 3.9-7.1 8 .2 3.8 3.3 6.8 7.1 7.1h88.4l-26.8 26.8c-2.9 2.9-2.9 7.6 0 10.5 2.9 2.9 7.6 2.9 10.5 0l39.6-39.6c2.8-2.9 2.8-7.5-.1-10.5zM14 185c-7.7 0-14-6.3-14-14V29c0-7.7 6.3-14 14-14s14 6.3 14 14v142c0 7.7-6.3 14-14 14z"/><path d="M114 43H14C6.3 43 0 36.7 0 29s6.3-14 14-14h100c7.7 0 14 6.3 14 14s-6.3 14-14 14zM114 185H14c-7.7 0-14-6.3-14-14s6.3-14 14-14h100c7.7 0 14 6.3 14 14s-6.3 14-14 14z"/></svg>