<svg xmlns="http://www.w3.org/2000/svg" viewBox="0 0 200 200"><path d="M124.3 118.4c3.2 0 5.7-2.6 5.7-5.7 0-3.2-2.6-5.7-5.7-5.7H97.7V93.5h26.7c3.2 0 5.7-2.6 5.7-5.7s-2.6-5.7-5.7-5.7h-23.8l24.8-23.3c2.3-2.2 2.4-5.8.3-8.1-2.2-2.3-5.8-2.4-8.1-.3l-25.5 24-25.5-24c-2.3-2.2-5.9-2-8.1.3-2.2 2.3-2 5.9.3 8.1L83.4 82H59.5c-3.2 0-5.7 2.6-5.7 5.7s2.6 5.7 5.7 5.7h26.7v13.5H59.5c-3.2 0-5.7 2.6-5.7 5.7s2.6 5.7 5.7 5.7h26.7V132c0 3.2 2.6 5.7 5.7 5.7s5.7-2.6 5.7-5.7v-13.6h26.7z"/><path d="M72.9 175H37.5c-6.8 0-12.3-4.8-12.3-10.7V35.7c0-5.9 5.5-10.7 12.3-10.7h107.1c6.8 0 12.3 4.8 12.3 10.7v44.5c0 4 8.5 7.3 12.5 7.3s12.5-3.2 12.5-7.3v-55c0-13.9-12-25.2-26.8-25.2h-128C12.3 0 .3 11.3.3 25.2v149.6c0 13.9 12 25.2 26.8 25.2H73c4 0 7.3-8.5 7.3-12.5-.1-4-3.4-12.5-7.4-12.5zM197.4 130.7l-66.1 66.1c-3 3-8 3-11 0l-5.5-5.5 71.6-71.6c3-3 8-3 11 0 3.1 3 3.1 7.9 0 11z"/><path d="M120.3 196.8l-27.6-27.6c-3-3-3-8 0-11s8-3 11 0l33.1 33.1-5.5 5.5c-3.1 3-8 3-11 0z"/></svg>