<svg xmlns="http://www.w3.org/2000/svg" viewBox="0 0 200 200"><path d="M153.9 29c6.3 4.5 11.9 9.6 16.8 15.2 4.9 5.7 9.1 11.8 12.6 18.4 3.5 6.6 6.2 13.5 8 20.9 1.8 7.4 2.7 14.8 2.7 22.4 0 13-2.5 25.2-7.5 36.7-5 11.4-11.7 21.4-20.2 29.8-8.5 8.5-18.4 15.2-29.8 20.2-11.4 5-23.6 7.5-36.7 7.5-12.9 0-25-2.5-36.4-7.5-11.4-5-21.4-11.7-29.9-20.2S18.2 154 13.3 142.6C8.4 131.1 6 118.9 6 105.9c0-7.4.9-14.7 2.6-21.9 1.8-7.1 4.2-13.9 7.5-20.4 3.2-6.4 7.2-12.5 12-18.1 4.8-5.6 10.1-10.6 16-15.1 3.1-2.2 6.4-3.1 10-2.5 3.6.6 6.5 2.3 8.7 5.3 2.2 2.9 3.1 6.2 2.5 9.9-.6 3.6-2.3 6.6-5.3 8.8-8.8 6.4-15.6 14.4-20.3 23.7s-7 19.5-7 30.3c0 9.2 1.8 18 5.3 26.2s8.3 15.3 14.4 21.4c6.1 6.1 13.2 10.9 21.4 14.5 8.2 3.6 16.9 5.4 26.2 5.4 9.2 0 18-1.8 26.2-5.4 8.2-3.6 15.3-8.4 21.4-14.5 6.1-6.1 10.9-13.2 14.5-21.4 3.6-8.2 5.4-16.9 5.4-26.2 0-10.9-2.5-21.3-7.6-31-5-9.7-12.1-17.8-21.2-24.1-3.1-2.1-4.9-5-5.6-8.6-.6-3.6.1-7 2.2-10.1 2.1-2.9 5-4.7 8.6-5.4 3.5-.5 6.9.2 10 2.3zm-54 77.5c-3.6 0-6.8-1.3-9.3-3.9-2.6-2.6-3.9-5.7-3.9-9.3V13.4c0-3.6 1.3-6.8 3.9-9.5s5.7-4 9.3-4c3.8 0 7 1.3 9.6 4 2.6 2.7 3.9 5.8 3.9 9.5v79.8c0 3.6-1.3 6.8-3.9 9.3-2.6 2.7-5.8 4-9.6 4z"/></svg>