<svg xmlns="http://www.w3.org/2000/svg" viewBox="0 0 200 200"><path fill="#fff" d="M26 55h151v81H26z"/><path d="M148.4 89h-25.6v6.8h25.6V89zM0 38.5v115.4c0 4.2 3.7 7.7 8.3 7.7l93.4-15.4 89.9 15.4c4.6 0 8.3-3.4 8.3-7.7V38.5H0zm95.8 83.4c-5.6-.6-9.7-.8-12.1-.8H42.3c-3.9 0-7.5.3-10.7.8v-6.2c3.6.4 7 .6 10.4.6h1.4v-9.8c.2-12.9.1-20.3-.3-21.9 4.7 0 7.1.3 7.3.8 0 .2-.1.6-.3 1.1-.4.9-.7 1.9-.8 2.8 0 15-.1 24-.3 27h13.2V73.5H50.5c-5.6.2-10 .4-13.2.6v-6.5c4.9.4 9.3.6 13.2.6h27.3c4.1 0 8.6-.2 13.5-.6v6.5c-3-.2-7.4-.4-13.2-.6h-9.8v16.9h7.9c5.1 0 9.1-.2 12.1-.6v6.5c-4.1-.4-8-.6-11.5-.6h-8.4v20.5h15.2c4.1 0 8.2-.2 12.4-.6v6.3h-.2zm24.5-57.4c1.5 1.1 3.6 3.3 6.2 6.5l.6.6-5.6 2.8c-1.7-2.6-4-5-7-7l5.8-2.9zm38.8 47v7.9c-.4 3.4-4 5.2-11 5.6-.2-2.4-1-4.6-2.5-6.5 5.2.8 7.9.4 7.9-1.1v-7h-15.2v9.8c0 2.6.2 5.1.6 7.3h-6.5c.4-2.1.6-4.5.6-7.3v-9.8h-14.3v8.7c0 1.5.1 3.3.3 5.3h-6.2v-1.7c.2-1.7.3-2.9.3-3.7v-9c0-3-.1-4.5-.3-4.5.9.2 2.8.3 5.6.3H133V100h-10.1c-2.1 0-3.9.1-5.6.3.2-.9.3-2.4.3-4.5v-6.5c0-3.2-.1-4.8-.3-4.8 1.5.2 3.4.3 5.6.3h25.6c2.3 0 4.2-.1 5.9-.3-.4 1.1-.6 2.6-.6 4.5v6.8c0 2.1.2 3.6.6 4.5-1.1-.2-3.3-.3-6.5-.3h-9.6v5.9h15.2c2.6 0 4.6-.1 5.9-.3-.2.9-.3 2.9-.3 5.9zm6.4-23.3h-5.9c.2-.7.3-2.8.3-6.2v-2.3h-48.4v2.5c0 1.1.1 2.7.3 4.8v2h-6.2c.2-.6.4-2.8.6-6.8v-2.8c0-1.9-.1-3.6-.3-5.1h3.1c1.1.2 2.1.3 2.8.3h21.1v-8.2c0-2.3-.1-3.7-.3-4.5 3.9 0 6.4.2 7.3.6 0 .2-.1.4-.3.6-.8.9-1.2 2.1-1.4 3.4v8.2h5.9c2.4-3 4.4-6.7 5.9-11 4.5 1.7 6.8 2.8 6.8 3.4 0 .2-.2.4-.6.6-.8.4-1.4.8-2 1.4-2.1 2.3-3.7 4.1-4.8 5.6h9.6c3.2 0 5.3-.1 6.5-.3l-.3 5.3V82c.1 3.3.1 5.4.3 6.2z" fill="#8bbf1c"/></svg>