<svg data-name="图层 1" xmlns="http://www.w3.org/2000/svg" viewBox="0 0 199.06 200"><path class="cls-1" d="M182.08 0H16.98a17 17 0 0 0-17 17v166a17 17 0 0 0 17 17l76.89-51.54h7.08L182.08 200a17 17 0 0 0 17-17V17a17 17 0 0 0-17-17zM93.53 111.32l-19.17 2.83v29.33h-9.5v-27.91l-27.91 4.25-1.42-9.91q13.89-1.68 29.33-3.73V87.53H38.53v-8.62a264 264 0 0 0 12.69-33.45H37.07v-8.75h16.79Q56.7 27 59.33 16.13l10.55 2.06q-2.89 9.45-5.86 18.52h27.73v8.75H61.13q-5.79 17.24-12 33.32h15.73V53.44h9.52v25.34h17.37v8.75H74.38v17.36q9.7-1.35 20.07-2.83-.53 4.5-.92 9.26zm70-40h-48q-2.38 8.61-4.76 16.72h46.76v9.13l-24.44 28q7.65 5.08 15.18 10.23l-6.74 8.47q-20.83-15.57-43.35-29.72l5.79-7.71q10.68 6.69 21.1 13.5L145 96.79h-44.38v-8.88q2.44-7.78 4.89-16.59H90.85v-8.75h17.11q2.11-8.1 4.31-17H96.89v-8.73h17.5q2.25-9.45 4.5-19.68h9.91q-2.19 10.1-4.51 19.68h34.61v8.75h-36.66q-2.19 8.74-4.31 17h45.6z"/></svg>