<svg version="1.1" id="图层_1" xmlns="http://www.w3.org/2000/svg" x="0" y="0" viewBox="0 0 200 200" xml:space="preserve"><style>.st1{enable-background:new}.st2{fill:#2870bf}.st3{fill:#fff}</style><path d="M178.3 157h-168C4 157-.6 151.6.1 145l9-90c.7-6.6 6.4-12 12.7-12h167.9c6.3 0 10.9 5.4 10.2 12l-9 90c-.7 6.6-6.3 12-12.6 12z" fill="#6ca6ef"/><g class="st1"><path class="st2" d="M37.3 120.1c1.9-.4 4-1 6.4-1.6l1.7-9.7H31l.2-5.5c2.5-3.6 4.2-6.2 5.2-7.8 1-1.6 2.5-4.4 4.6-8.2h-1.8l-5.1.3 1.5-8.7 5 .3h4.2c.8-1.7 1.3-2.7 1.4-3l2.4-6.3c4.5 1.3 7.4 2 8.7 2.3-1.4 2.6-2.7 4.9-3.8 7H59l6.1-.3-1.5 8.7-6.1-.3h-8.1c-2.4 4.6-4.8 9-7.3 13.4h4.6l.9-5.1.6-5.3h9.1L56 95.8l-.9 4.9h5.8l1.2-6.9 6.5.3h5.3c.7-1.8 1.1-2.8 1.2-3.1l1.4-4.2h-6.1l-5.3.2 1.5-8.2 5.1.2h7.5c.6-1.9.9-2.9 1-3.2l1.6-5.4c2.9.7 6 1.2 9.1 1.4-1 2.5-1.9 4.9-2.8 7.2h8.8l5.5-.2-1.5 8.2-5.5-.2h-9.7L83.2 94h10.4l7.8-.3-1.5 8.7-7.7-.3h-12l-1.8 4.6h16.7l2.7 5.4c-4.7 5.1-7.7 8.2-8.9 9.4l-6.1 6c2.9 2.5 5.5 4.8 7.8 6.8-3.5 2.9-5.4 4.5-5.7 4.8l-1.6 1.7c-5.6-5.7-11.1-10.6-16.5-14.5l-6-4.5c2.7-2 5.1-4.1 7.1-6.2L77 123c2.6-2.8 5.3-5.7 8.1-8.9h-14l-5.4.2c2.3-4.6 3.7-7.4 4.1-8.6l1.4-3.6H62l-1.2 6.9-4.1-.1H54l-1.3 7.6c3.1-.8 6.3-1.6 9.4-2.5-.4 1.1-.7 2.1-.9 2.9-.2.8-.4 1.7-.6 2.7l-.5 2.7c-2.8.6-5.7 1.4-8.8 2.3L50 132l-1 7.2h-9.1l1.6-7.4.8-4.8c-2.6.6-6.9 1.9-12.9 3.9-.3-2.5-.7-4.3-1-5.5l-.9-3.6c4.7-.7 7.9-1.3 9.8-1.7zM111.6 111.3c2.1-2.4 3.8-4.5 5.1-6.5 1.3-1.9 2.7-4.2 4.1-6.7h-6.5l-5.9.1 1.5-8.4 6.1.2h6.6l1.4-8c-2.1.2-5.7.7-10.6 1.3-.2-2.9-.5-4.9-.8-6.2l-.6-2.2c6.1 0 11.4-.3 16-1.2 4.5-.8 8.5-1.9 11.9-3.1.1 1.1.3 1.9.4 2.4.1.5.7 2.4 1.7 5.6-1.2.3-2.1.5-2.6.6l-4.6.8-2.6.5-1.7 9.4h5.4l4-.2-1.5 8.4-3.9-.1h-5.4l-1.4 7.7c2.9-1.6 4.5-2.5 5-2.8.7 1.9 1.5 3.8 2.4 5.6.9 1.9 1.6 3.6 2.2 5.3-.6.3-1.1.5-1.3.7l-5 2.8-1.5.8c-.6-2.3-.9-3.7-1.1-4.1l-1.4-3.5-3.8 21.4-1 7.2h-8.5l1.5-7.2 3-16.9c-4 4.4-7 7.4-8.9 8.8l-3.6 2.9c-.3-2.9-.7-5.1-1.1-6.8l-.7-2.6c3.1-1.6 5.6-3.6 7.7-6zm23.5 18l8.6-48.6.9-6.6 7.2.3h17.7l6-.3-1.7 7.7-8.4 47.5 6.1-.3-1.5 8.4-6.4-.3h-29.2l-7.6.3 1.5-8.4 6.8.3zm8.4 0h13.8l2.2-12.7h-13.8l-2.2 12.7zm17.4-20.4l1.7-9.4h-13.8l-1.7 9.4h13.8zm3-17.1l1.8-9.9h-13.8l-1.8 9.9h13.8z"/></g><g class="st1"><path class="st3" d="M32.9 115.6c1.9-.4 4-1 6.4-1.6l1.7-9.7H26.6l.2-5.5c2.5-3.6 4.2-6.2 5.2-7.8 1-1.6 2.5-4.4 4.6-8.2h-1.8l-5.1.2 1.5-8.7 5 .3h4.2c.8-1.7 1.3-2.7 1.4-3l2.4-6.3c4.5 1.3 7.4 2 8.7 2.3-1.4 2.6-2.7 4.9-3.8 7h5.5l6.1-.3-1.4 8.7-6.1-.3h-8.1c-2.4 4.6-4.8 9-7.3 13.4h4.6l.9-5.1.6-5.3H53l-1.3 5.5-.9 4.9h5.8l1.2-6.9 6.5.3h5.3c.7-1.8 1.1-2.8 1.2-3.1l1.4-4.2h-6.1l-5.1.1 1.5-8.2 5.1.2H75c.6-1.9.9-2.9 1-3.2l1.6-5.4c2.9.7 6 1.2 9.1 1.4-1 2.5-1.9 4.9-2.8 7.2h8.8l5.5-.2-1.5 8.2-5.5-.2h-10l-2.5 7.4h10.4l7.8-.3-1.5 8.7-7.7-.3H75.8l-1.8 4.6h16.7l2.7 5.4c-4.7 5.1-7.7 8.2-8.9 9.4l-6.1 6c2.9 2.5 5.5 4.8 7.8 6.8-3.5 2.9-5.4 4.5-5.7 4.8l-1.6 1.7c-5.6-5.7-11.1-10.6-16.5-14.5l-6-4.5c2.7-2 5.1-4.1 7.1-6.2l9.1 7.4c2.6-2.8 5.3-5.7 8.1-8.9H66.6l-5.4.2c2.3-4.6 3.7-7.4 4.1-8.6l1.4-3.6h-9.2l-1.2 6.9-4.1-.1h-2.8l-1.3 7.6c3.1-.8 6.3-1.6 9.4-2.5-.4 1.1-.7 2.1-.9 2.9-.2.8-.4 1.7-.6 2.7l-.5 2.7c-2.8.6-5.7 1.4-8.8 2.3l-1.3 7.4-1 7.2h-9.1l1.6-7.4.8-4.8c-2.6.6-6.9 1.9-12.9 3.9-.3-2.5-.7-4.3-1-5.5l-.9-3.6c4.8-.7 8.1-1.3 10-1.7zM107.2 106.9c2.1-2.4 3.8-4.5 5.1-6.5 1.3-1.9 2.7-4.2 4.1-6.7h-6.5l-5.9.1 1.5-8.4 6.1.2h6.6l1.4-8c-2.1.2-5.7.7-10.6 1.3-.2-2.9-.5-4.9-.8-6.2l-.6-2.2c6.1 0 11.4-.3 16-1.2 4.5-.8 8.5-1.9 11.9-3.1.1 1.1.3 1.9.4 2.4.1.5.7 2.4 1.7 5.6-1.2.3-2.1.5-2.6.6l-4.6.8-2.6.5-1.7 9.4h5.4l4-.2-1.5 8.4-3.9-.1h-5.4l-1.4 7.7c2.9-1.6 4.5-2.5 5-2.8.7 1.9 1.5 3.8 2.4 5.6.9 1.9 1.6 3.6 2.2 5.3-.6.3-1.1.5-1.3.7l-5 2.8-1.5.8c-.6-2.3-.9-3.7-1.1-4.1l-1.4-3.5-3.8 21.4-1 7.2h-8.5l1.5-7.2 3-16.9c-4 4.4-7 7.4-8.9 8.8l-3.6 2.9c-.3-2.9-.7-5.1-1.1-6.8l-.7-2.6c3-1.6 5.6-3.6 7.7-6zm23.4 17.9l8.6-48.6.9-6.6 7.2.3H165l6-.3-1.7 7.7-8.4 47.5 6.1-.3-1.5 8.4-6.4-.3H130l-7.6.3 1.5-8.4 6.7.3zm8.4 0h13.8l2.2-12.7h-13.8l-2.2 12.7zm17.4-20.3l1.7-9.4h-13.8l-1.7 9.4h13.8zm3-17.2l1.8-9.9h-13.8l-1.8 9.9h13.8z"/></g></svg>