<svg xmlns="http://www.w3.org/2000/svg" viewBox="0 0 199.1 200"><path d="M182.1 0H17C7.6 0 0 7.6 0 17v166c0 9.4 7.6 17 17 17l76.9-51.5h7.1l81.1 51.5c9.4 0 17-7.6 17-17V17c0-9.4-7.6-17-17-17zm-48 80.5c9.1 0 15.7-.5 19.8-1.5v10.7c-5.8-.7-11.9-1-18.3-1H96.5c-2 2.7-5.9 6.6-11.7 11.7v19.8c3.4-1.3 7.8-4.6 13.2-9.6l3 9.6c-4.1 2-10.7 6.1-19.8 12.2-2.7 1.7-4.6 2.9-5.6 3.6l-5.1-9.1c.3-.7.8-1.4 1.5-2 1-1 1.7-1.9 2-2.5.7-.7 1.2-1.9 1.5-3.6v-12.2c-9.8 7.5-20 12.7-30.5 15.7-2-3.4-4.2-6.6-6.6-9.6 17.3-2.4 32.3-10.3 45.2-23.9H62c-6.4 0-12.5.3-18.3 1V79c6.1 1 12.2 1.5 18.3 1.5h35c-.7-3.4-2-6.9-4.1-10.7l10.7-1c0 .7.2 1.5.5 2.5 1.3 4.1 2.2 7.1 2.5 9.1l27.5.1zM86.3 59.7c0 4.4.2 8.3.5 11.7v2H76.2c.7-2 1-6.6 1-13.7v-3.6c-3 1.4-9 4.1-17.8 8.1-6.4 3-10.5 4.9-12.2 5.6l-6.1-11.2C50.6 57 62.5 53.1 76.7 47V27.2c0-5.1-.2-8.6-.5-10.7 8.5-.3 12.7 0 12.7 1 0 .7-.3 1.5-1 2.5-1 2-1.5 4.2-1.5 6.6l-.1 33.1zM64 45.5c-7.1-7.8-12.9-12.9-17.3-15.2l6.6-7.6c5.4 3.7 11.5 8.6 18.3 14.7L64 45.5zm63-11.7h14.2c5.8 0 10.3-.3 13.7-1v9.6c.3-.3-4.1-.5-13.2-.5H127v15.7h10.2c4.4 0 8.8-.3 13.2-1v9.6c-4.7-.3-9.3-.5-13.7-.5h-25.9c-5.1 0-9.6.3-13.7 1V56.6c2.7.7 6.9 1 12.7 1h8.1V41.9h-10.2c-5.1 0-9.6.3-13.7 1V32.8c.7.7 5.2 1 13.7 1h10.2V22.6c0-1.7-.3-4.2-1-7.6 6.8 0 11 .5 12.7 1.5 0 .7-.3 1.9-1 3.6-1 1.7-1.5 3-1.5 4.1l-.1 9.6zm-20.9 57.9c1.3 3.7 4.2 8.5 8.6 14.2 5.8-3.4 11.2-8 16.3-13.7 3.4 2 6.8 4.4 10.2 7.1 0 .3-.5.8-1.5 1.5-5.1 2-11.5 5.4-19.3 10.2 8.8 5.8 20.8 8.8 36.1 9.1-3.4 4.1-6.1 8.3-8.1 12.7-25.1-6.1-42.7-18.4-52.8-37.1l10.5-4z"/></svg>