<svg xmlns="http://www.w3.org/2000/svg" viewBox="0 0 200 200"><path fill="#fff" d="M31 56h145v79H31z"/><path d="M0 38.5v115.4c0 4.2 3.7 7.7 8.3 7.7l93.4-15.4 89.9 15.4c4.6 0 8.3-3.4 8.3-7.7V38.5H0zm87.6 87.9h-6.8l.3-6.5H47.4c0 2.1.1 4.2.3 6.5h-6.8c.2-1.3.3-4 .3-8.2v-38c0-3.2-.2-6-.6-8.4h.8c1.9.2 3.7.3 5.6.3h6.8c1.3-2.6 2.3-5.9 2.8-9.8 1.7.4 3.8.8 6.5 1.1l2.3.6c0 .2-.2.5-.6.8-1.5 1.5-3 3.9-4.5 7.3h18.6c2.3 0 4.7-.1 7.3-.3h1.7c-.4 2.6-.6 5.4-.6 8.4v38c0 4.6.1 7.3.3 8.2zm25.6 1.1c.4-3 .6-6.8.6-11.5V92.9c-1.7 7.3-4.2 13.5-7.6 18.6l-4.2-5.6c3.7-4.3 7.6-12.2 11.5-23.6h-.8c-4.3 0-7.2.1-8.7.3v-5.3c2.3.4 5.1.6 8.4.6h1.4v-9.3c0-2.6-.1-4.5-.3-5.6 3.9 0 6.4.4 7.3 1.1 0 .4-.2.9-.6 1.7-.4 1.3-.7 2.5-.8 3.7 0 1.1-.1 2.5-.3 4.2v3.9h3.7c2.4-.2 4.1-.3 5.1-.3v5.6c-1.7-.4-4.2-.6-7.6-.6h-1.1v12.1l4.2-2.3c2.1 2.8 4.2 6 6.5 9.6l-5.3 3.1c-1.3-3.4-3.1-6.4-5.3-9V116c0 4.1.2 8 .6 11.5h-6.7zm53.7-3.6c-2.4-.2-5.9-.4-10.4-.6h-20.3c-2.8 0-6.8.2-11.8.6V118c5.2.4 9 .6 11.3.6h12.9c2.8-5.1 5.5-13.6 8.2-25.6.6.2 1.4.5 2.5.8 3.7 1.3 5.5 2.2 5.3 2.5 0 .2-.3.6-.8 1.1-1.1 1.1-2.1 2.6-2.8 4.5-2.4 6.2-4.8 11.7-7 16.6h2c4.7-.2 8.3-.4 11-.6l-.1 6zm-19.4-34.3c-3.2 0-6.6.1-10.1.3v-5.1c2.8.4 7.4.5 13.8.3h3.7v5.1c-1.7-.3-4.2-.4-7.4-.6zm2.6 20.8l-6.2 1.1c-.9-6.9-2.2-12.5-3.7-16.6l5.9-.8c1.3 4.3 2.6 9.7 4 16.3zm-10.2 2.5l-6.2.8c-.8-7.3-2-13.1-3.7-17.4l5.6-.8c2 6.2 3.4 12 4.3 17.4zm24.8-20.8c-10.1-6.6-16.5-14.3-19.1-23.3-4.7 10.5-10.4 18.8-17.2 24.8-1.9-1.7-3.9-2.9-6.2-3.7 9-4.9 15.7-14.2 20-28.1 4.7.6 7.2 1.3 7.6 2.3 0 .2-.2.5-.6.8-.6.2-.8.4-.8.6 3.7 9.9 10.8 16.7 21.1 20.3-2.3 2.3-3.9 4.4-4.8 6.3zM47.4 100h33.8v-8.4H47.4v8.4zm0-13.2h33.8v-9H47.4v9zm0 27.8h33.8V105H47.4v9.6z" fill="#6ca6ef"/></svg>