<?xml version="1.0" encoding="utf-8"?>
<!-- Generator: Adobe Illustrator 22.0.1, SVG Export Plug-In . SVG Version: 6.00 Build 0)  -->
<svg version="1.1" id="图层_1" xmlns="http://www.w3.org/2000/svg" xmlns:xlink="http://www.w3.org/1999/xlink" x="0px" y="0px"
	 viewBox="0 0 200 200" style="enable-background:new 0 0 200 200;" xml:space="preserve">
<g>
	<g>
		<path d="M100,0C44.8,0,0,44.8,0,100s44.8,100,100,100s100-44.8,100-100S155.2,0,100,0z M100,44c16.5,0,29.8,13.4,29.8,29.8
			c0,16.5-13.4,29.8-29.8,29.8S70.2,90.4,70.2,73.8C70.2,57.4,83.5,44,100,44z M122.4,156H77.6c-12.3,0-22.4-10.1-22.4-22.4
			c0-14.2,6.7-26.9,16.8-35.1c7.1,7.8,16.8,12.7,28,12.7s20.9-4.9,28-12.7c10.1,8.2,16.8,20.9,16.8,35.1
			C144.8,145.9,134.7,156,122.4,156z"/>
	</g>
</g>
</svg>
