<?xml version="1.0" encoding="utf-8"?>
<!-- Generator: Adobe Illustrator 22.0.1, SVG Export Plug-In . SVG Version: 6.00 Build 0)  -->
<svg version="1.1" id="图层_1" xmlns="http://www.w3.org/2000/svg" xmlns:xlink="http://www.w3.org/1999/xlink" x="0px" y="0px"
	 viewBox="0 0 200 200" style="enable-background:new 0 0 200 200;" xml:space="preserve">
<style type="text/css">
	.st0{fill:#FF6161;}
</style>
<g>
	<path class="st0" d="M40.6,107l8.7-0.8c0.2,2,0.6,3.5,1.1,4.5c0.9,1.7,2.3,2.5,4,2.5c1.3,0,2.3-0.4,3-1.3c0.7-0.9,1.1-1.8,1.1-3
		c0-1.1-0.3-2-1-2.9c-0.7-0.8-2.2-1.6-4.7-2.4c-4-1.3-6.8-2.9-8.5-5c-1.7-2.1-2.6-4.7-2.6-8c0-2.1,0.4-4.1,1.3-6
		c0.9-1.9,2.2-3.4,4-4.4c1.8-1.1,4.2-1.6,7.2-1.6c3.8,0,6.6,1,8.6,2.9c2,2,3.2,5.1,3.5,9.4l-8.6,0.7c-0.2-1.9-0.7-3.2-1.4-4.1
		c-0.7-0.8-1.7-1.3-3-1.3c-1.1,0-1.9,0.3-2.4,0.9c-0.5,0.6-0.8,1.4-0.8,2.3c0,0.7,0.2,1.2,0.7,1.8c0.4,0.5,1.4,1.1,3.1,1.5
		c4,1.2,6.8,2.4,8.6,3.6c1.7,1.2,3,2.8,3.8,4.6c0.8,1.8,1.2,3.9,1.2,6.1c0,2.6-0.5,5.1-1.6,7.3c-1,2.2-2.5,3.9-4.4,5.1
		s-4.2,1.7-7.1,1.7c-5,0-8.5-1.4-10.4-4.1C41.9,114.6,40.8,111.1,40.6,107z"/>
	<path class="st0" d="M69.8,79.4h27.7v10.2h-9.3v31.1h-9.1V89.6h-9.3C69.8,89.6,69.8,79.4,69.8,79.4z"/>
	<path class="st0" d="M99,100c0-6.7,1.3-12,4-15.7c2.7-3.8,6.4-5.6,11.2-5.6c4.9,0,8.7,1.8,11.3,5.5c2.7,3.7,4,8.8,4,15.5
		c0,4.8-0.6,8.8-1.7,11.9c-1.2,3.1-2.8,5.5-5,7.2s-4.9,2.6-8.2,2.6s-6.1-0.7-8.3-2.2c-2.2-1.5-3.9-3.8-5.3-7
		C99.7,108.9,99,104.8,99,100z M108.2,100.1c0,4.2,0.6,7.2,1.7,9c1.1,1.8,2.6,2.7,4.5,2.7c2,0,3.5-0.9,4.5-2.7
		c1.1-1.8,1.6-5,1.6-9.6c0-3.9-0.6-6.7-1.7-8.5c-1.1-1.8-2.6-2.7-4.6-2.7c-1.8,0-3.3,0.9-4.4,2.7C108.7,92.9,108.2,95.9,108.2,100.1
		z"/>
	<path class="st0" d="M134.4,79.4h15.1c3.3,0,5.8,1.1,7.4,3.3c1.6,2.2,2.5,5.3,2.5,9.4c0,4.2-0.9,7.4-2.7,9.8
		c-1.8,2.3-4.5,3.5-8.2,3.5h-5v15.3h-9.1V79.4z M143.6,97h2.2c1.8,0,3-0.4,3.7-1.3c0.7-0.9,1.1-1.9,1.1-3.3c0-1.3-0.3-2.4-0.9-3.3
		c-0.6-0.9-1.8-1.4-3.5-1.4h-2.6V97z"/>
</g>
<g>
	<path class="st0" d="M100,25.5c41.1,0,74.5,33.4,74.5,74.5s-33.4,74.5-74.5,74.5S25.5,141.1,25.5,100S58.9,25.5,100,25.5 M100,10.5
		c-49.4,0-89.5,40.1-89.5,89.5s40.1,89.5,89.5,89.5s89.5-40.1,89.5-89.5S149.4,10.5,100,10.5L100,10.5z"/>
</g>
</svg>
