<?xml version="1.0" encoding="utf-8"?>
<!-- Generator: Adobe Illustrator 22.0.1, SVG Export Plug-In . SVG Version: 6.00 Build 0)  -->
<svg version="1.1" id="图层_1" xmlns="http://www.w3.org/2000/svg" xmlns:xlink="http://www.w3.org/1999/xlink" x="0px" y="0px"
	 viewBox="0 0 200.2 200" style="enable-background:new 0 0 200.2 200;" xml:space="preserve">
<style type="text/css">
	.st0{fill:#57B4FD;}
</style>
<g>
	<path class="st0" d="M142.7,43.8H95.3c-3.4,0-6.1,2.7-6.1,6.1c0,3.4,2.7,6.1,6.1,6.1h47.4c3.4,0,6.1-2.7,6.1-6.1
		S146.1,43.8,142.7,43.8z"/>
	<path class="st0" d="M68.7,43.8H55.4c-3.4,0-6.1,2.7-6.1,6.1c0,3.4,2.7,6.1,6.1,6.1h13.3c3.4,0,6.1-2.7,6.1-6.1
		S72.1,43.8,68.7,43.8z"/>
</g>
<g>
	<path class="st0" d="M142.7,71.8H95.3c-3.4,0-6.1,2.7-6.1,6.1s2.7,6.1,6.1,6.1h47.4c3.4,0,6.1-2.7,6.1-6.1S146.1,71.8,142.7,71.8z"
		/>
	<path class="st0" d="M68.7,71.8H55.4c-3.4,0-6.1,2.7-6.1,6.1S52,84,55.4,84h13.3c3.4,0,6.1-2.7,6.1-6.1S72.1,71.8,68.7,71.8z"/>
</g>
<g>
	<path class="st0" d="M113.4,99.8H95.9c-3.4,0-6.1,2.7-6.1,6.1s2.7,6.1,6.1,6.1h17.4c3.4,0,6.1-2.7,6.1-6.1S116.7,99.8,113.4,99.8z"
		/>
	<path class="st0" d="M69.4,99.8H56.1c-3.4,0-6.1,2.7-6.1,6.1s2.7,6.1,6.1,6.1h13.3c3.4,0,6.1-2.7,6.1-6.1S72.7,99.8,69.4,99.8z"/>
</g>
<path class="st0" d="M180.3,133.5c-0.7-2.2-2.6-3.8-4.9-4.1l-22-3.2l-9.8-19.9c-1-2.1-3.1-3.4-5.4-3.4c-2.3,0-4.4,1.3-5.4,3.4
	l-9.8,19.9l-22,3.2c-2.3,0.3-4.2,1.9-4.9,4.1c-0.7,2.2-0.1,4.6,1.5,6.2l15.9,15.5l-3.8,21.9c-0.4,2.3,0.6,4.6,2.4,5.9
	c1.9,1.4,4.3,1.5,6.4,0.5l19.7-10.3l19.7,10.4c0.9,0.5,1.9,0.7,2.8,0.7c1.3,0,2.5-0.4,3.6-1.2c1.9-1.4,2.8-3.7,2.4-5.9l-3.8-21.9
	l15.9-15.5C180.4,138.1,181,135.7,180.3,133.5z M152.1,148.7c-1.4,1.4-2.1,3.4-1.7,5.4l2.2,12.9l-11.6-6.1c-0.9-0.5-1.9-0.7-2.8-0.7
	c-1,0-1.9,0.2-2.8,0.7l-11.6,6.1l2.2-12.9c0.3-2-0.3-4-1.7-5.4l-9.4-9.2l13-1.9c2-0.3,3.7-1.5,4.6-3.3l5.8-11.8l5.8,11.8
	c0.9,1.8,2.6,3,4.6,3.3l13,1.9L152.1,148.7L152.1,148.7z"/>
<g>
	<g>
		<path class="st0" d="M162.4,14.8h-127c-11,0-20,9-20,20v130c0,11,9,20,20,20H97l2.9-12H35.4c-4.3,0-8-3.7-8-8v-130
			c0-4.3,3.7-8,8-8h127c4.3,0,8,3.7,8,8v84.7l12,1.8V34.8C182.4,23.8,173.4,14.8,162.4,14.8z"/>
	</g>
</g>
</svg>
