<?xml version="1.0" encoding="utf-8"?>
<!-- Generator: Adobe Illustrator 22.0.1, SVG Export Plug-In . SVG Version: 6.00 Build 0)  -->
<svg version="1.1" id="图层_1" xmlns="http://www.w3.org/2000/svg" xmlns:xlink="http://www.w3.org/1999/xlink" x="0px" y="0px"
	 viewBox="0 0 200 200" style="enable-background:new 0 0 200 200;" xml:space="preserve">
<style type="text/css">
	.st0{fill:#57B4FD;}
</style>
<g>
	<g>
		<path class="st0" d="M82.3,146c-4.5,9.5-10.4,22.9-10.4,28.9c0,8.4,15.6,14.3,15.6,14.3s15.6-5.9,15.6-14.3
			c0-6-5.9-19.4-10.4-28.9C89.3,147.6,85.5,147.6,82.3,146L82.3,146z"/>
		<path class="st0" d="M87.4,129.5c-3.4,0-6.2,2.8-6.2,6.2s2.8,6.2,6.2,6.2c3.4,0,6.2-2.8,6.2-6.2C93.6,132.3,90.8,129.5,87.4,129.5
			L87.4,129.5z"/>
		<path class="st0" d="M140.7,64.1c0-29.4-23.9-53.3-53.3-53.3l0,0C58,10.8,34.1,34.6,34.1,64c0,18,9,34.7,24.1,44.6
			c-29.9,12.1-49.5,41-49.7,73.2c0,4,3.3,7.3,7.3,7.3c4,0,7.3-3.3,7.3-7.3c0-35.5,28.8-64.3,64.4-64.4
			C116.8,117.4,140.7,93.6,140.7,64.1C140.7,64.2,140.7,64.1,140.7,64.1L140.7,64.1z M48.6,64.2c0-21.4,17.4-38.8,38.8-38.8
			c21.4,0,38.8,17.4,38.8,38.8l0,0c0,21.4-17.4,38.8-38.8,38.8C66,103,48.6,85.6,48.6,64.2z"/>
	</g>
	<g>
		<path class="st0" d="M183.5,157.7h-58c-4.4,0-8-3.6-8-8v0c0-4.4,3.6-8,8-8h58c4.4,0,8,3.6,8,8v0
			C191.5,154.1,187.9,157.7,183.5,157.7z"/>
		<path class="st0" d="M162.5,120.7v58c0,4.4-3.6,8-8,8h0c-4.4,0-8-3.6-8-8v-58c0-4.4,3.6-8,8-8h0
			C158.9,112.7,162.5,116.3,162.5,120.7z"/>
	</g>
</g>
</svg>
