<?xml version="1.0" encoding="utf-8"?>
<!-- Generator: Adobe Illustrator 22.0.1, SVG Export Plug-In . SVG Version: 6.00 Build 0)  -->
<svg version="1.1" id="图层_1" xmlns="http://www.w3.org/2000/svg" xmlns:xlink="http://www.w3.org/1999/xlink" x="0px" y="0px"
	 viewBox="0 0 200 200" style="enable-background:new 0 0 200 200;" xml:space="preserve">
<style type="text/css">
	.st0{fill:#FF9344;}
</style>
<g>
	<g>
		<g>
			<path class="st0" d="M127.3,170.8H37.8c-5.6,0-10.2-4.6-10.2-10.2V39.3c0-5.6,4.6-10.2,10.2-10.2h89.6v-13H37.8
				c-12.8,0-23.2,10.4-23.2,23.2v121.4c0,12.8,10.4,23.2,23.2,23.2h89.6v-13.1H127.3z"/>
		</g>
	</g>
	<path class="st0" d="M63.4,82.2L63.4,82.2L63.4,82.2C63.6,82.2,63.6,82.2,63.4,82.2z M62.7,84.2L62.7,84.2
		C62.7,84.1,62.7,84.2,62.7,84.2z M185.4,100l-51.6-44.2c-1.1-0.9-2.8-0.2-2.8,1.3v18.1c0,0.8-0.6,1.6-1.5,1.7
		c-6.8,1-36.1,5.8-50.7,18.4c-14.8,12.8-17.3,41.6-17.7,49.3c-0.1,1,0.8,1.9,1.9,1.8l0,0c0.6-0.1,1.1-0.4,1.3-0.9
		c2.1-4.1,12.9-22.4,36.2-22.2c12.9,0.1,22.5,0.1,28.8,0.1c0.9,0,1.7,0.8,1.7,1.7v17.8c0,1.5,1.7,2.2,2.8,1.3L185.4,100L185.4,100z"
		/>
</g>
</svg>
