<?xml version="1.0" encoding="utf-8"?>
<!-- Generator: Adobe Illustrator 22.0.1, SVG Export Plug-In . SVG Version: 6.00 Build 0)  -->
<svg version="1.1" id="图层_1" xmlns="http://www.w3.org/2000/svg" xmlns:xlink="http://www.w3.org/1999/xlink" x="0px" y="0px"
	 viewBox="0 0 200 200" style="enable-background:new 0 0 200 200;" xml:space="preserve">
<style type="text/css">
	.st0{fill:#88BF25;}
</style>
<g>
	<g>
		<path class="st0" d="M124.5,169.8H35.1c-5.7,0-10.3-4.6-10.3-10.3V38.4c0-5.7,4.6-10.3,10.3-10.3h89.5v-13H35.1
			c-12.9,0-23.3,10.4-23.3,23.3v121.2c0,12.9,10.4,23.3,23.3,23.3h89.5v-13.1H124.5z"/>
	</g>
</g>
<path class="st0" d="M183.4,81.2h0.2H183.4C183.4,81.2,183.4,81.2,183.4,81.2z M184.3,83.1L184.3,83.1
	C184.3,83.2,184.3,83.1,184.3,83.1z M61.5,99l54.4,46.6v-23.2c6.3,0,16.4,0,30.5-0.1c23.3-0.2,34,18.1,36.2,22.2
	c0.3,0.5,0.8,0.9,1.3,0.9l1.9,0.2c0,0-0.5-36.5-17.7-51.3c-16.7-14.3-52.2-18.6-52.2-18.6V52.4L61.5,99L61.5,99z"/>
</svg>
