<?xml version="1.0" encoding="utf-8"?>
<!-- Generator: Adobe Illustrator 22.0.1, SVG Export Plug-In . SVG Version: 6.00 Build 0)  -->
<svg version="1.1" id="图层_1" xmlns="http://www.w3.org/2000/svg" xmlns:xlink="http://www.w3.org/1999/xlink" x="0px" y="0px"
	 viewBox="0 0 200 177.8" style="enable-background:new 0 0 200 177.8;" xml:space="preserve">
<style type="text/css">
	.st0{fill:#95BF25;}
</style>
<title>main-r5</title>
<g>
	<path class="st0" d="M167.9,88.9c0-8.3,3.7-15.7,9.5-20.8c2.7-2.4,3.4-6.3,1.6-9.4l-13-22.1c-1.8-3-5.4-4.4-8.8-3.4
		c-2.8,0.9-5.8,1.4-8.8,1.4c-13.8,0-25.4-9.5-28.1-22.1c-0.8-3.4-3.8-5.9-7.3-5.9H87.1c-3.5,0-6.6,2.5-7.3,5.9
		c-2.8,12.5-14.3,22-28.2,22c-3.1,0-6.1-0.5-8.8-1.4c-3.4-1.1-7,0.3-8.8,3.4L21,58.7c-1.8,3.1-1.1,7.1,1.6,9.4
		c5.8,5.1,9.5,12.6,9.5,20.8c0,8.3-3.7,15.7-9.5,20.8c-2.7,2.4-3.4,6.3-1.6,9.4l13,22.1c1.8,3,5.4,4.4,8.8,3.4
		c2.8-0.9,5.8-1.4,8.8-1.4c13.8,0,25.4,9.5,28.1,22.1c0.8,3.4,3.8,5.9,7.3,5.9h25.8c3.5,0,6.6-2.5,7.3-5.9
		c2.8-12.7,14.3-22.1,28.1-22.1c3.1,0,6.1,0.5,8.8,1.4c3.4,1.1,7-0.3,8.8-3.4l13-22.1c1.8-3.1,1.1-7.1-1.6-9.4
		C171.6,104.6,167.9,97.2,167.9,88.9L167.9,88.9z M157.5,132.5c-3-0.7-6-1-9.1-1c-5.4,0-10.7,1-15.7,3.1c-4.8,2-9.2,4.8-12.9,8.5
		c-3.7,3.7-6.7,7.9-8.7,12.7c-0.5,1.3-1,2.5-1.4,3.8H90.4c-0.4-1.3-0.9-2.6-1.4-3.8c-2.1-4.8-5-9-8.7-12.7
		c-3.7-3.6-8.1-6.5-12.9-8.5c-5-2.1-10.3-3.1-15.7-3.1c-3.1,0-6.1,0.3-9.1,1L33,116.1c2-2.1,3.7-4.4,5.2-6.8
		c3.7-6.1,5.7-13.2,5.7-20.4c0-7.2-2-14.2-5.7-20.4C36.7,66,35,63.8,33,61.7l9.6-16.4c3,0.7,6,1,9.1,1c5.4,0,10.7-1,15.7-3.1
		c4.8-2,9.2-4.8,12.9-8.5C84,31,87,26.8,89,22c0.5-1.3,1-2.5,1.4-3.8h19.2c0.4,1.3,0.9,2.6,1.4,3.8c2.1,4.8,5,9,8.7,12.7
		c3.7,3.6,8.1,6.5,12.9,8.5c5,2.1,10.3,3.1,15.7,3.1c3.1,0,6.1-0.3,9.1-1l9.6,16.4c-2,2.1-3.7,4.4-5.2,6.8
		c-3.7,6.1-5.7,13.2-5.7,20.4c0,7.2,2,14.2,5.7,20.4c1.5,2.5,3.2,4.7,5.2,6.8L157.5,132.5L157.5,132.5z"/>
	<path class="st0" d="M100,53.6c-19.5,0-35.3,15.8-35.3,35.3s15.8,35.3,35.3,35.3s35.3-15.8,35.3-35.3S119.5,53.6,100,53.6L100,53.6
		z M116.7,105.6c-4.4,4.4-10.4,6.9-16.7,6.9s-12.2-2.4-16.7-6.9c-4.4-4.4-6.9-10.4-6.9-16.7c0-6.3,2.4-12.2,6.9-16.7
		c4.4-4.4,10.4-6.9,16.7-6.9s12.2,2.4,16.7,6.9c4.4,4.4,6.9,10.4,6.9,16.7C123.6,95.2,121.1,101.1,116.7,105.6L116.7,105.6z"/>
</g>
</svg>
