<?xml version="1.0" encoding="utf-8"?>
<!-- Generator: Adobe Illustrator 22.0.1, SVG Export Plug-In . SVG Version: 6.00 Build 0)  -->
<svg version="1.1" id="图层_1" xmlns="http://www.w3.org/2000/svg" xmlns:xlink="http://www.w3.org/1999/xlink" x="0px" y="0px"
	 viewBox="0 0 200 200" style="enable-background:new 0 0 200 200;" xml:space="preserve">
<style type="text/css">
	.st0{fill:#FF9344;}
</style>
<path class="st0" d="M85.5,119.6C85.5,119.6,85.5,119.6,85.5,119.6L85.5,119.6C85.6,119.6,85.5,119.6,85.5,119.6z M85,120.7
	L85,120.7C85,120.7,85,120.7,85,120.7z M159,130.3l-31-26.6c-0.7-0.6-1.7-0.1-1.7,0.8v10.9c0,0.5-0.4,0.9-0.9,1
	c-4.1,0.6-21.7,3.5-30.5,11.1c-8.9,7.7-10.4,25-10.6,29.7c0,0.6,0.5,1.1,1.1,1.1h0c0.3,0,0.6-0.2,0.8-0.5
	c1.3-2.5,7.7-13.5,21.8-13.4c7.8,0.1,13.5,0.1,17.3,0.1c0.6,0,1,0.5,1,1v10.7c0,0.9,1,1.3,1.7,0.8L159,130.3L159,130.3z"/>
<path class="st0" d="M129.4,40.6H68.6c-6,0-10.9-5.2-10.9-11.7s4.9-11.7,10.9-11.7h60.9c6,0,10.9,5.2,10.9,11.7
	S135.4,40.6,129.4,40.6z"/>
<g>
	<g>
		<path class="st0" d="M163,17.2h-19.8c3.5,2.5,5.8,6.8,5.8,11.7c0,0.1,0,0.2,0,0.3H163c4.4,0,8,3.6,8,8v128c0,4.4-3.6,8-8,8H35
			c-4.4,0-8-3.6-8-8v-128c0-4.4,3.6-8,8-8h14.1c0-0.1,0-0.2,0-0.3c0-4.9,2.3-9.1,5.8-11.7H35c-11,0-20,9-20,20v128c0,11,9,20,20,20
			h128c11,0,20-9,20-20v-128C183,26.2,174,17.2,163,17.2z"/>
	</g>
</g>
<path class="st0" d="M148,80.9H50c-3.3,0-6-2.7-6-6v0c0-3.3,2.7-6,6-6h98c3.3,0,6,2.7,6,6v0C154,78.2,151.3,80.9,148,80.9z"/>
<g>
	<g>
		<path class="st0" d="M50,105.9c-3.3,0-6,2.7-6,6v0c0,3.3,2.7,6,6,6h27.2c4.4-4.9,9.7-8.9,14.7-12H50z M44,148.9L44,148.9
			c0,3.3,2.7,6,6,6h13.3c0.2-3.3,0.8-7.4,1.8-12H50C46.6,142.9,44,145.6,44,148.9z"/>
	</g>
</g>
</svg>
