<svg id="图层_1" data-name="图层 1" xmlns="http://www.w3.org/2000/svg" viewBox="0 0 184.03 184"><defs><style>.cls-1{fill:#57b4fd;}</style></defs><title>App-yslb</title><path class="cls-1" d="M133,86.84a6.57,6.57,0,1,0,0-13.14H110l-.24-.24,21-21a6.87,6.87,0,0,0-9.71-9.71l-21,21-21-21a6.87,6.87,0,0,0-9.71,9.71l21,21-.23.22H67.24a6.57,6.57,0,1,0,0,13.14H93.52V100H67.24a6.57,6.57,0,1,0,0,13.14H93.52v19.71a6.57,6.57,0,1,0,13.14,0V113.12h26.28a6.57,6.57,0,1,0,0-13.14H106.66V86.84ZM189.41,100c-4.87-8.72-12.47-6.54-12.47-6.54H165.8V34.28A26.28,26.28,0,0,0,139.52,8H60.68A26.29,26.29,0,0,0,34.4,34.28V93.5H20.87s-4.89-1.26-8.5,3.76c-6.83,9.5-5.64,18.62,3.3,27.55l66,59.59a25.85,25.85,0,0,0,36.61,0l66-59.59c8-8.08,9.83-16.29,5.08-24.78ZM175.18,115.6l-66,59.46a12.94,12.94,0,0,1-18.29,0l0,0-66-59.46c-2.48-6.67-2.77-4.52.2-9.06H47.53V34.27A13.14,13.14,0,0,1,60.67,21.13h78.84a13.14,13.14,0,0,1,13.14,13.14v72.27h22.53C176.8,111.13,177.86,110.12,175.18,115.6Z" transform="translate(-7.98 -8)"/></svg>