<?xml version="1.0" encoding="utf-8"?>
<!-- Generator: Adobe Illustrator 22.0.1, SVG Export Plug-In . SVG Version: 6.00 Build 0)  -->
<svg version="1.1" id="图层_1" xmlns="http://www.w3.org/2000/svg" xmlns:xlink="http://www.w3.org/1999/xlink" x="0px" y="0px"
	 viewBox="0 0 200 200" style="enable-background:new 0 0 200 200;" xml:space="preserve">
<style type="text/css">
	.st0{fill:#88BF25;}
</style>
<path class="st0" d="M188.4,111.8c-1.2-0.2-2.5,0.2-3.5,0.9L163.7,130c-1.6,1.3-2.1,3.5-1.2,5.3c0.9,1.8,2.9,2.8,4.9,2.4l5.9-2.1
	c-13.1,30.8-39.3,47.2-73.4,47.5c-41.3,0-73.3-26.9-79.5-67.2c-0.4-2.4-1.5-4.5-6.2-4.5S8,114.3,8,116.8
	C14.8,161.4,54.3,195,100,195c38.2,0.1,72.5-22.9,86.5-58c2.6-6.5,4.5-13.3,5.5-20.3c0.2-1.2-0.1-2.3-0.8-3.3
	C190.6,112.6,189.5,111.9,188.4,111.8L188.4,111.8z M11.6,88.2c1.2,0.2,2.5-0.2,3.5-0.9L36.3,70c1.6-1.3,2.1-3.5,1.2-5.3
	c-0.9-1.8-2.9-2.8-4.9-2.4l-5.9,2.1C39.8,33.6,65.9,17.2,100,16.9c41.3,0,73.3,26.9,79.5,67.2c0.4,2.4,1.5,4.5,6.2,4.5
	c4.8,0,6.3-2.9,6.3-5.4C185.2,38.6,145.7,5,100,5C61.8,4.9,27.5,27.9,13.5,63C10.8,69.5,9,76.3,7.9,83.2c-0.2,1.2,0.1,2.3,0.8,3.3
	C9.4,87.4,10.5,88.1,11.6,88.2L11.6,88.2z M120.8,52.5l-19.3,28.9L82.2,52.5H70.3l21.8,32.7H70.3v8.9H97v14.8H70.3v8.9H97v29.7h8.9
	v-29.7h26.7v-8.9h-26.7V94.1h26.7v-8.9h-21.8l21.8-32.7H120.8z M120.8,52.5"/>
</svg>
