<?xml version="1.0" encoding="utf-8"?>
<!-- Generator: Adobe Illustrator 22.0.1, SVG Export Plug-In . SVG Version: 6.00 Build 0)  -->
<svg version="1.1" id="图层_1" xmlns="http://www.w3.org/2000/svg" xmlns:xlink="http://www.w3.org/1999/xlink" x="0px" y="0px"
	 viewBox="0 0 200 200" style="enable-background:new 0 0 200 200;" xml:space="preserve">
<style type="text/css">
	.st0{fill:#FF6161;}
</style>
<g>
	<g>
		<g>
			<path class="st0" d="M130.1,17.2H69.2c-6,0-10.9,5.2-10.9,11.7s4.9,11.7,10.9,11.7h60.9c6,0,10.9-5.2,10.9-11.7
				S136.1,17.2,130.1,17.2z M163.7,185.2c0.6,0,1.3,0,1.9-0.1l-11.8,0.1H163.7z M163.7,17.2h-19.8c3.5,2.5,5.8,6.8,5.8,11.7
				c0,0.1,0,0.2,0,0.3h14.1c4.4,0,8,3.6,8,8v55.9l12,10.6V37.2C183.7,26.2,174.7,17.2,163.7,17.2z M35.7,173.2c-4.4,0-8-3.6-8-8
				v-128c0-4.4,3.6-8,8-8h14.1c0-0.1,0-0.2,0-0.3c0-4.9,2.3-9.1,5.8-11.7H35.7c-11,0-20,9-20,20v128c0,11,9,20,20,20h65.7l-9.1-12
				H35.7z"/>
		</g>
	</g>
	<path class="st0" d="M142.4,77.6h-92c-3.3,0-6-2.7-6-6v0c0-3.3,2.7-6,6-6h92c3.3,0,6,2.7,6,6v0C148.4,74.9,145.8,77.6,142.4,77.6z"
		/>
	<g>
		<g>
			<path class="st0" d="M78.1,135.6H50.4c-3.3,0-6,2.7-6,6s2.7,6,6,6h27.7c3.3,0,6-2.7,6-6S81.5,135.6,78.1,135.6z M87.6,100.6H50.4
				c-3.3,0-6,2.7-6,6s2.7,6,6,6h37.2c3.3,0,6-2.7,6-6S90.9,100.6,87.6,100.6z"/>
		</g>
	</g>
	<g>
		<path class="st0" d="M139.7,107.3c18.7,0,33.9,15.2,33.9,33.9s-15.2,33.9-33.9,33.9s-33.9-15.2-33.9-33.9S121,107.3,139.7,107.3
			 M139.7,97.3c-24.3,0-43.9,19.7-43.9,43.9s19.7,43.9,43.9,43.9s43.9-19.7,43.9-43.9S164,97.3,139.7,97.3L139.7,97.3z"/>
	</g>
	<g>
		<path class="st0" d="M128.4,160.2h-0.1c-3.1,0-5.6-2.5-5.6-5.6V128c0-3.1,2.5-5.6,5.6-5.6h0.1c3.1,0,5.6,2.5,5.6,5.6v26.6
			C134.1,157.7,131.5,160.2,128.4,160.2z"/>
		<path class="st0" d="M151.1,160.2H151c-3.1,0-5.6-2.5-5.6-5.6V128c0-3.1,2.5-5.6,5.6-5.6h0.1c3.1,0,5.6,2.5,5.6,5.6v26.6
			C156.7,157.7,154.2,160.2,151.1,160.2z"/>
	</g>
</g>
</svg>
