<?xml version="1.0" encoding="utf-8"?>
<!-- Generator: Adobe Illustrator 22.0.1, SVG Export Plug-In . SVG Version: 6.00 Build 0)  -->
<svg version="1.1" id="图层_1" xmlns="http://www.w3.org/2000/svg" xmlns:xlink="http://www.w3.org/1999/xlink" x="0px" y="0px"
	 viewBox="0 0 200 200" style="enable-background:new 0 0 200 200;" xml:space="preserve">
<style type="text/css">
	.st0{fill:#88BF25;}
</style>
<g>
	<g>
		<path class="st0" d="M85.6,146c-4.5,9.5-10.4,22.9-10.4,28.9c0,8.4,15.6,14.3,15.6,14.3s15.6-5.9,15.6-14.3
			c0-6-5.9-19.4-10.4-28.9C92.7,147.6,88.9,147.6,85.6,146L85.6,146z"/>
		<path class="st0" d="M90.8,129.5c-3.4,0-6.2,2.8-6.2,6.2c0,3.4,2.8,6.2,6.2,6.2c3.4,0,6.2-2.8,6.2-6.2
			C96.9,132.3,94.2,129.5,90.8,129.5L90.8,129.5z"/>
		<path class="st0" d="M144.1,64.1c0-29.4-23.9-53.3-53.3-53.3l0,0c-29.4,0-53.3,23.8-53.3,53.2c0,18,9,34.7,24.1,44.6
			c-29.9,12.1-49.5,41-49.7,73.2c0,4,3.3,7.3,7.3,7.3c4,0,7.3-3.3,7.3-7.3c0-35.5,28.8-64.3,64.4-64.4
			C120.2,117.4,144.1,93.6,144.1,64.1C144.1,64.2,144.1,64.1,144.1,64.1L144.1,64.1z M52,64.2c0-21.4,17.4-38.8,38.8-38.8
			c21.4,0,38.8,17.4,38.8,38.8l0,0c0,21.4-17.4,38.8-38.8,38.8C69.3,103,52,85.6,52,64.2z"/>
	</g>
	<g>
		<path class="st0" d="M177.6,186.1h-30.5v-0.2c-2.3-0.6-3.9-2.6-3.9-4.9c0-2.3,1.6-4.4,3.9-4.9v-0.5h22.1c2.2,0,4.4-0.9,5.9-2.4
			c1.6-1.6,2.5-3.7,2.5-5.9v-35.7c0-2.2-0.9-4.4-2.5-5.9c-1.6-1.6-3.7-2.5-5.9-2.4h-29.4c-2.2,0-4.4,0.9-5.9,2.4
			c-1.6,1.6-2.5,3.7-2.5,5.9v30.4H131c-0.2,2.7-2.4,4.8-5.1,4.8c-2.7,0-4.9-2.1-5.1-4.8h0v-38.8c0-2.8,1.1-5.5,3.1-7.4
			c2-2,4.6-3.1,7.4-3.1h46.3c2.8,0,5.5,1.1,7.4,3.1c2,2,3.1,4.6,3.1,7.4v52.4c0,2.8-1.1,5.5-3.1,7.4
			C183.1,185,180.4,186.1,177.6,186.1L177.6,186.1z"/>
		<path class="st0" d="M142.3,135.1h25.5c2.8,0,5.1,2.3,5.1,5.1s-2.3,5.1-5.1,5.1h-25.5c-2.8,0-5.1-2.3-5.1-5.1
			S139.4,135.1,142.3,135.1L142.3,135.1z"/>
		<path class="st0" d="M142.3,152.4h25.5c2.8,0,5.1,2.3,5.1,5.1c0,2.8-2.3,5.1-5.1,5.1h-25.5c-2.8,0-5.1-2.3-5.1-5.1
			C137.2,154.7,139.4,152.4,142.3,152.4L142.3,152.4z"/>
	</g>
</g>
</svg>
