<?xml version="1.0" encoding="utf-8"?>
<!-- Generator: Adobe Illustrator 22.0.1, SVG Export Plug-In . SVG Version: 6.00 Build 0)  -->
<svg version="1.1" id="图层_1" xmlns="http://www.w3.org/2000/svg" xmlns:xlink="http://www.w3.org/1999/xlink" x="0px" y="0px"
	 viewBox="0 0 200 200" style="enable-background:new 0 0 200 200;" xml:space="preserve">
<style type="text/css">
	.st0{fill:#95BF25;}
</style>
<g>
	<path class="st0" d="M151.2,107c-0.1,0-0.1,0-0.2,0c-3.3,0.3-6.3-2.2-6.5-5.6c-0.3-3.3,2.2-6.3,5.6-6.5c0.2,0,0.4,0,0.5,0
		c12.2-3.1,20.8-14.1,20.8-26.7c0-11.4-7-21.6-17.7-25.7c-1.9-4.3-4.3-8.4-7.3-12.1c15.7,1.1,29.1,11.8,33.7,26.9
		c4.8,16.1-1.5,33.5-15.6,42.7c21.3,8.6,35.3,29.3,35.4,52.3c0,2.9-2.3,5.2-5.2,5.2s-5.2-2.3-5.2-5.2
		C189.7,129.4,173,110.6,151.2,107L151.2,107z"/>
	<path class="st0" d="M49,107c0.1,0,0.1,0,0.2,0c3.3,0.3,6.3-2.2,6.5-5.6c0.3-3.3-2.2-6.3-5.6-6.5c-0.2,0-0.4,0-0.5,0
		c-12.2-3.1-20.8-14.1-20.8-26.7c0-11.4,7-21.6,17.7-25.7c1.9-4.3,4.3-8.4,7.3-12.1c-15.7,1.1-29.1,11.8-33.7,26.9
		c-5,16.1,1.4,33.4,15.4,42.6c-21.3,8.7-35.3,29.3-35.4,52.3c0,2.9,2.3,5.2,5.2,5.2s5.2-2.3,5.2-5.2C10.5,129.4,27.2,110.6,49,107
		L49,107z M94.9,139.9c-4.1,8.5-9.3,20.5-9.3,25.8c0,7.5,13.9,12.8,13.9,12.8s13.9-5.2,13.9-12.8c0-5.3-5.2-17.3-9.3-25.8
		C101.2,141.4,97.8,141.4,94.9,139.9L94.9,139.9z M99.5,125.2c-3.1,0-5.5,2.5-5.5,5.5c0,3.1,2.5,5.5,5.5,5.5c3.1,0,5.5-2.5,5.5-5.5
		C105,127.6,102.6,125.2,99.5,125.2L99.5,125.2z M142.2,115.9c-2.8-2.2-6.9-1.6-9.1,1.2c-2.2,2.8-1.6,6.9,1.2,9.1l0,0
		c14.3,10.8,22.7,28.9,22.6,46.9c0,3.6,2.9,7.6,6.5,7.6l0,0c3.6,0,6.5-4.1,6.5-7.6C170,151.1,159.7,129.2,142.2,115.9z"/>
	<path class="st0" d="M147.1,66.9c0-26.3-21.3-47.6-47.6-47.6l0,0c-26.2,0-47.5,21.2-47.6,47.5c0,16,8.1,31,21.5,39.8
		c-26.7,10.8-44.2,36.6-44.3,65.3c0,3.6,2.9,6.5,6.5,6.5s6.5-2.9,6.5-6.5c0-31.7,25.7-57.4,57.4-57.5
		C125.8,114.4,147.1,93.1,147.1,66.9L147.1,66.9L147.1,66.9z M64.9,66.9c0-19.1,15.5-34.6,34.6-34.6s34.6,15.5,34.6,34.6l0,0
		c0,19.1-15.5,34.6-34.6,34.6S64.9,86,64.9,66.9z"/>
</g>
</svg>
