<?xml version="1.0" encoding="utf-8"?>
<!-- Generator: Adobe Illustrator 22.0.1, SVG Export Plug-In . SVG Version: 6.00 Build 0)  -->
<svg version="1.1" id="图层_1" xmlns="http://www.w3.org/2000/svg" xmlns:xlink="http://www.w3.org/1999/xlink" x="0px" y="0px"
	 viewBox="0 0 200 200" style="enable-background:new 0 0 200 200;" xml:space="preserve">
<style type="text/css">
	.st0{fill:#57B4FD;}
</style>
<g>
	<path class="st0" d="M177.5,159.3h-63.8c-1.7,0-3.1-1.4-3.1-3.1v-12.5c0-1.7,1.4-3.1,3.1-3.1h63.8c1.7,0,3.1,1.4,3.1,3.1v12.5
		C180.6,158,179.2,159.3,177.5,159.3z"/>
	<path class="st0" d="M155,118.1v63.8c0,1.7-1.4,3.1-3.1,3.1h-12.5c-1.7,0-3.1-1.4-3.1-3.1v-63.8c0-1.7,1.4-3.1,3.1-3.1h12.5
		C153.6,115,155,116.4,155,118.1z"/>
	<g>
		<g>
			<path class="st0" d="M113.5,171.9H37.8c-4.3,0-7.9-3.6-7.9-7.9V34.9c0-4.3,3.6-7.9,7.9-7.9h124.1c4.3,0,7.9,3.6,7.9,7.9v87.6
				h11.9V34.9c0-10.9-8.9-19.9-19.9-19.9H37.8C26.9,15,18,23.9,18,34.9v129.1c0,10.9,8.9,19.9,19.9,19.9h75.7V171.9z"/>
		</g>
	</g>
	<path class="st0" d="M63.6,51h17c0.9,2.9,2,5,4.7,9.7l14.6,25.1l14.6-25c2.8-4.6,4-7.1,4.7-9.8h17.1c-1.3,1.7-5.2,7.3-7,10.2
		L115.8,83h5.5c4.4,0,7.1-0.2,10.4-0.8v11.3c-3.4-0.6-6-0.8-10.4-0.8h-11.6l-3.3,5.1v2.9h14.6c4.4,0,6.9-0.2,10.4-0.8v11.3
		c-3.4-0.6-6-0.8-10.4-0.8h-14.6v6.7c0,5.6,0.2,8.7,0.8,12.7H92.6c0.5-3.9,0.8-7.8,0.8-12.7v-6.7H78.5c-4.4,0-7,0.2-10.4,0.8V99.9
		c3.5,0.6,5.8,0.8,10.4,0.8h14.9v-3l-3.3-5H78.7c-4.5,0-7,0.2-10.4,0.8V82.2c3.3,0.6,5.8,0.8,10.4,0.8h5.5L70.5,61.2
		C67.6,56.8,65.1,52.9,63.6,51z"/>
</g>
</svg>
