<?xml version="1.0" encoding="utf-8"?>
<!-- Generator: Adobe Illustrator 22.0.1, SVG Export Plug-In . SVG Version: 6.00 Build 0)  -->
<svg version="1.1" id="图层_1" xmlns="http://www.w3.org/2000/svg" xmlns:xlink="http://www.w3.org/1999/xlink" x="0px" y="0px"
	 viewBox="0 0 185.7 199.6" style="enable-background:new 0 0 185.7 199.6;" xml:space="preserve">
<style type="text/css">
	.st0{fill:#57B4FD;}
</style>
<title>main-r3</title>
<path class="st0" d="M166,159.8h-51.7c-5.2,0-9.4-4.2-9.4-9.4v0c0-5.2,4.2-9.4,9.4-9.4H166c5.2,0,9.4,4.2,9.4,9.4v0
	C175.4,155.6,171.2,159.8,166,159.8z"/>
<path class="st0" d="M149.5,124.5v51.7c0,5.2-4.2,9.4-9.4,9.4h0c-5.2,0-9.4-4.2-9.4-9.4v-51.7c0-5.2,4.2-9.4,9.4-9.4h0
	C145.3,115.1,149.5,119.3,149.5,124.5z"/>
<g>
	<g>
		<path class="st0" d="M107.8,172.4H31.5c-4.3,0-8-3.7-8-8v-130c0-4.3,3.7-8,8-8h125c4.3,0,8,3.7,8,8v88.2h12V34.4c0-11-9-20-20-20
			h-125c-11,0-20,9-20,20v130c0,11,9,20,20,20h76.2V172.4z"/>
	</g>
</g>
<g>
	<g>
		<path class="st0" d="M136.8,50.2H89.4c-3.4,0-6.1,2.7-6.1,6.1c0,3.4,2.7,6.1,6.1,6.1h47.4c3.4,0,6.1-2.7,6.1-6.1
			S140.2,50.2,136.8,50.2z"/>
		<path class="st0" d="M62.8,50.2H49.5c-3.4,0-6.1,2.7-6.1,6.1c0,3.4,2.7,6.1,6.1,6.1h13.3c3.4,0,6.1-2.7,6.1-6.1
			S66.2,50.2,62.8,50.2z"/>
	</g>
	<g>
		<path class="st0" d="M136.8,78.2H89.4c-3.4,0-6.1,2.7-6.1,6.1c0,3.4,2.7,6.1,6.1,6.1h47.4c3.4,0,6.1-2.7,6.1-6.1
			C142.9,80.9,140.2,78.2,136.8,78.2z"/>
		<path class="st0" d="M62.8,78.2H49.5c-3.4,0-6.1,2.7-6.1,6.1c0,3.4,2.7,6.1,6.1,6.1h13.3c3.4,0,6.1-2.7,6.1-6.1
			C68.9,80.9,66.2,78.2,62.8,78.2z"/>
	</g>
	<g>
		<path class="st0" d="M107.5,106.1H90c-3.4,0-6.1,2.7-6.1,6.1s2.7,6.1,6.1,6.1h17.4c3.4,0,6.1-2.7,6.1-6.1S110.8,106.1,107.5,106.1
			z"/>
		<path class="st0" d="M63.5,106.1H50.2c-3.4,0-6.1,2.7-6.1,6.1s2.7,6.1,6.1,6.1h13.3c3.4,0,6.1-2.7,6.1-6.1S66.8,106.1,63.5,106.1z
			"/>
	</g>
</g>
</svg>
