<?xml version="1.0" encoding="utf-8"?>
<!-- Generator: Adobe Illustrator 22.0.1, SVG Export Plug-In . SVG Version: 6.00 Build 0)  -->
<svg version="1.1" id="图层_1" xmlns="http://www.w3.org/2000/svg" xmlns:xlink="http://www.w3.org/1999/xlink" x="0px" y="0px"
	 viewBox="0 0 200 200" style="enable-background:new 0 0 200 200;" xml:space="preserve">
<style type="text/css">
	.st0{fill:#FF9344;}
</style>
<g>
	<path class="st0" d="M190,80.3V64.9c0,0-25.7,21.9-25.7,41.1c0,15.4,11.6,27,11.6,27v34.7c0,3.9-2.6,6.4-6.4,6.4H28
		c-1.3,0-5.1-2.6-5.1-6.4v-33.4c1.3-1.3,12.9-15.4,12.9-28.3c0-15.4-11.6-28.3-11.6-28.3V44.3c0-3.9,2.6-6.4,6.4-6.4h82.3l11.6-14.1
		H29.3C15.1,23.7,10,34,10,44.3v33.4C10,88,22.9,91.9,22.9,106c0,14.1-12.9,20.6-12.9,28.3v33.4c0,11.6,7.7,19.3,19.3,19.3h140.1
		c11.6,0,19.3-9,19.3-19.3V133c0-9-11.6-16.7-11.6-27C177.1,94.5,190,85.5,190,80.3L190,80.3z M190,80.3"/>
	<path class="st0" d="M55,154.9h90c3.9,0,6.4-2.6,6.4-6.4c0-3.9-2.6-6.4-6.4-6.4H55c-3.9,0-6.4,2.6-6.4,6.4
		C48.6,152.3,51.1,154.9,55,154.9L55,154.9z M138.6,109.9c0,3.9,2.6,6.4,6.4,6.4c3.9,0,6.4-2.6,6.4-6.4c0-3.9-2.6-6.4-6.4-6.4
		C141.1,103.5,138.6,106,138.6,109.9L138.6,109.9z M55,77.8h12.9c3.9,0,6.4-2.6,6.4-6.4c0-3.9-2.6-6.4-6.4-6.4H55
		c-3.9,0-6.4,2.6-6.4,6.4C48.6,75.2,51.1,77.8,55,77.8L55,77.8z M55,116.3h12.9c3.9,0,6.4-2.6,6.4-6.4c0-3.9-2.6-6.4-6.4-6.4H55
		c-3.9,0-6.4,2.6-6.4,6.4C48.6,113.8,51.1,116.3,55,116.3L55,116.3z M85.9,116.3h34.7l63-61.7c2.6-2.6,5.1-6.4,6.4-11.6
		c0-5.1-1.3-9-3.8-12.9L172,16c-3.9-2.6-7.7-3.9-12.9-2.6c-3.9,0-9,2.6-11.6,6.4L85.9,81.6L85.9,116.3L85.9,116.3z M98.7,86.8
		l57.9-59.1c1.3-1.3,2.6-1.3,3.9-1.3h2.6l14.1,14.1V43c0,1.3-1.3,2.6-2.6,3.9l-59.1,56.6H98.7L98.7,86.8L98.7,86.8z M98.7,86.8"/>
</g>
</svg>
