<?xml version="1.0" encoding="utf-8"?>
<!-- Generator: Adobe Illustrator 22.0.1, SVG Export Plug-In . SVG Version: 6.00 Build 0)  -->
<svg version="1.1" id="图层_1" xmlns="http://www.w3.org/2000/svg" xmlns:xlink="http://www.w3.org/1999/xlink" x="0px" y="0px"
	 viewBox="0 0 200 200" style="enable-background:new 0 0 200 200;" xml:space="preserve">
<style type="text/css">
	.st0{fill:#FF6161;}
</style>
<path class="st0" d="M71.7,62.2h17.2c0.9,2.9,2,5.1,4.8,9.8l14.8,25.4l14.8-25.3c2.8-4.7,4-7.2,4.8-9.9h17.3
	c-1.3,1.7-5.3,7.4-7.1,10.3l-13.8,22h5.6c4.5,0,7.2-0.2,10.5-0.8v11.4c-3.4-0.6-6.1-0.8-10.5-0.8h-11.7l-3.3,5.2v2.9h14.8
	c4.5,0,7-0.2,10.5-0.8V123c-3.4-0.6-6.1-0.8-10.5-0.8H115v6.8c0,5.7,0.2,8.8,0.8,12.8h-14.8c0.5-3.9,0.8-7.9,0.8-12.8v-6.8H86.8
	c-4.5,0-7.1,0.2-10.5,0.8v-11.4c3.5,0.6,5.9,0.8,10.5,0.8h15.1v-3l-3.3-5.1H87c-4.6,0-7.1,0.2-10.5,0.8V93.7
	c3.3,0.6,5.9,0.8,10.5,0.8h5.6l-13.9-22C75.8,68,73.2,64.1,71.7,62.2z M107.2,192.8c-27.5,0-52.2-12-69.1-31.1l11.3-8.8
	c14.4,15.7,34.9,25.6,57.9,25.6c43.4,0,78.5-35.2,78.5-78.5s-35.2-78.5-78.5-78.5c-35.4,0-65.2,23.4-75,55.6L44,64.6
	c2.5-2.7,6.6-2.7,9-0.1c2.4,2.6,2.4,6.8-0.1,9.5L30,98.1c-1.8,1.9-4.3,2.4-6.4,1.7c-2.6,0.6-5.4-0.6-6.8-3.2l-16-29.4
	c-1.8-3.2-0.7-7.4,2.3-9.3c3.1-1.9,7-0.8,8.7,2.5l6.7,12.2C30.3,34.8,65.5,7.2,107.2,7.2c51.2,0,92.8,41.5,92.8,92.8
	S158.5,192.8,107.2,192.8z"/>
</svg>
