<?xml version="1.0" encoding="utf-8"?>
<!-- Generator: Adobe Illustrator 22.0.1, SVG Export Plug-In . SVG Version: 6.00 Build 0)  -->
<svg version="1.1" id="图层_1" xmlns="http://www.w3.org/2000/svg" xmlns:xlink="http://www.w3.org/1999/xlink" x="0px" y="0px"
	 viewBox="0 0 200 200" style="enable-background:new 0 0 200 200;" xml:space="preserve">
<style type="text/css">
	.st0{fill:none;stroke:#000000;stroke-width:8;stroke-miterlimit:10;}
</style>
<path class="st0" d="M168.7,155.1H14.2c-4.7,0-7.9-4.4-7.1-9.7l14.1-90.8c0.8-5.4,5.4-9.7,10.1-9.7h154.5c4.7,0,7.9,4.4,7.1,9.7
	l-14.1,90.8C177.9,150.8,173.4,155.1,168.7,155.1z"/>
<g>
	<path d="M154.2,80.6l-24-19.7c-3.9-2.7-8.9-0.4-8.9,4.3V74H99.7c-3.1,0-5.4,2.3-5.4,5v10.4c0,3.1,2.3,5.4,5.4,5.4h21.7v9.3
		c0,4.6,5.4,7,8.9,4.3l24-19.7C156.9,86.8,156.9,82.5,154.2,80.6L154.2,80.6z"/>
	<path d="M99.6,105.1H78.3v-8.5c0-4.6-5.4-7-8.9-4.3l-23.6,19.3c-2.7,2.3-2.7,6.2,0,8.1l23.6,19.3c3.5,2.7,8.9,0.4,8.9-4.3v-9.3
		h21.3c2.7,0,5-2.3,5-5v-10.4C104.6,107.4,102.3,105.1,99.6,105.1L99.6,105.1z"/>
</g>
</svg>
