<?xml version="1.0" encoding="utf-8"?>
<!-- Generator: Adobe Illustrator 22.0.1, SVG Export Plug-In . SVG Version: 6.00 Build 0)  -->
<svg version="1.1" id="图层_1" xmlns="http://www.w3.org/2000/svg" xmlns:xlink="http://www.w3.org/1999/xlink" x="0px" y="0px"
	 viewBox="0 0 200 200" style="enable-background:new 0 0 200 200;" xml:space="preserve">
<g>
	<g>
		<path d="M185.7,0H32.2c-7.9,0-14.3,7.1-14.3,15.8v17.1v16.4H9c-5,0-9,3.7-9,8.2c0,4.5,4,8.2,9,8.2h9v68.5H9c-5,0-9,3.7-9,8.2
			c0,4.5,4,8.2,9,8.2h9v16.5v17.1c0,8.7,6.4,15.8,14.3,15.8h153.5c7.9,0,14.3-7.1,14.3-15.8V15.8C200,7.1,193.6,0,185.7,0z
			 M182,159.7h-1.2c-5.9,3.5-34.4,6.2-68.9,6.2c-34.4,0-63-2.7-68.9-6.2h-0.9c0-0.2,0.1-0.4,0.1-0.6c-0.2-0.2-0.4-0.5-0.4-0.8
			c0-0.3,0.3-0.6,0.6-1c0.6-3.9,2.2-7.6,4.9-10.8c2.6-3,6-5.3,9.7-7.3c8.4-4.4,18.1-6.5,27-10.3c4-1.8,8.3-4.1,9.9-7.9
			c0.6-4.3,0.4-8.7,0.4-13c-2-1.2-3.3-3.1-4.4-4.8c-2-3.2-3.5-6.7-4.1-10.3c-2.3-0.3-4-1.9-4.8-3.7c-1-1.9-1.5-4-1.6-6
			c-0.1-2.1,0.9-4.2,2.9-5.5c-1.9-6.3-3.2-12.8-2.9-19.3c0.2-4,1.1-8.1,3.2-11.8c1.7-3,4.3-5.6,7.5-7.6c6.4-3.9,14.6-5,22.3-5.1
			c4.4,0.1,9,0.6,12.8,2.5c1.4,0.7,2.6,1.7,3.5,2.9c3.7,0.5,7.4,1.6,10.2,3.8c4,3.1,5.9,7.7,6.5,12.2c0.9,7.6-0.9,15.1-3.4,22.4
			c2.1,1.4,3.1,3.6,2.9,5.8c-0.3,2.5-0.9,5.1-2.6,7.2c-0.9,1.1-2.3,1.9-3.9,2.2c-0.6,3.8-2.1,7.5-4.3,10.8c-1.1,1.6-2.2,3.2-4,4.3
			c0,4.3-0.2,8.7,0.4,13c1.3,3.2,4.6,5.3,7.8,7c9.8,4.7,21.2,6.7,30.5,12.1c4.7,2.7,8.8,6.3,11,10.7c1.1,2.2,1.8,4.5,2.1,6.9
			c0.1,0.2,0.2,0.3,0.2,0.5c0,0.1-0.1,0.2-0.1,0.3C181.9,159,182,159.3,182,159.7z"/>
	</g>
</g>
</svg>
