<?xml version="1.0" encoding="utf-8"?>
<!-- Generator: Adobe Illustrator 22.0.1, SVG Export Plug-In . SVG Version: 6.00 Build 0)  -->
<svg version="1.1" id="图层_1" xmlns="http://www.w3.org/2000/svg" xmlns:xlink="http://www.w3.org/1999/xlink" x="0px" y="0px"
	 viewBox="0 0 200 200" style="enable-background:new 0 0 200 200;" xml:space="preserve">
<style type="text/css">
	.st0{font-family:'FZDBSJW--GB1-0';}
	.st1{font-size:118px;}
</style>
<path d="M100,198.5c-54.3,0-98.5-44.2-98.5-98.5C1.5,45.7,45.7,1.5,100,1.5c18.2,0,35.9,5,51.2,14.4c2.8,1.7,3.7,5.4,2,8.3
	c-1.7,2.8-5.4,3.7-8.3,2c-13.4-8.3-29-12.6-45-12.6c-47.7,0-86.5,38.8-86.5,86.5s38.8,86.5,86.5,86.5s86.5-38.8,86.5-86.5
	c0-3.3,2.7-6,6-6s6,2.7,6,6C198.5,154.3,154.3,198.5,100,198.5z"/>
<text transform="matrix(1 0 0 1 41.0002 140.0684)" class="st0 st1">押</text>
</svg>
