<?xml version="1.0" encoding="utf-8"?>
<!-- Generator: Adobe Illustrator 22.0.1, SVG Export Plug-In . SVG Version: 6.00 Build 0)  -->
<svg version="1.1" id="图层_1" xmlns="http://www.w3.org/2000/svg" xmlns:xlink="http://www.w3.org/1999/xlink" x="0px" y="0px"
	 viewBox="0 0 200 200" style="enable-background:new 0 0 200 200;" xml:space="preserve">
<style type="text/css">
	.st0{fill:#6CA6EF;}
	.st1{fill:none;}
	.st2{fill:#4F92DB;}
	.st3{fill:#ECF8FF;}
</style>
<circle class="st0" cx="100" cy="100" r="100"/>
<circle class="st1" cx="105" cy="97" r="100"/>
<circle class="st1" cx="100" cy="100" r="100"/>
<g>
	<path class="st2" d="M130.4,114.1l-17,57.2l-4.4-53.8h-6l-4.2,51l-19.6-54.3c0,0-45-1.3-54.6,43.5v8c18.3,21,45.3,34.3,75.4,34.3
		c36.4,0,68.3-19.5,85.8-48.6C173.3,113,130.4,114.1,130.4,114.1z"/>
	<ellipse transform="matrix(0.7071 -0.7071 0.7071 0.7071 -25.5926 98.4141)" class="st2" cx="106" cy="80.1" rx="28.1" ry="28.1"/>
</g>
<circle class="st1" cx="100" cy="100" r="100"/>
<g>
	<path class="st3" d="M181.5,156.6c-9.7-44.7-57.1-43.5-57.1-43.5l-17,57.2l-4.4-53.8h-6l-4.2,51l-19.6-54.3c0,0-45-1.3-54.6,43.5
		v1.4C36.7,183.5,66.4,200,100,200c33.6,0,63.4-16.6,81.5-42V156.6z"/>
	<ellipse transform="matrix(0.7071 -0.7071 0.7071 0.7071 -26.6428 93.8785)" class="st3" cx="100" cy="79.1" rx="28.1" ry="28.1"/>
</g>
</svg>
