<?xml version="1.0" encoding="utf-8"?>
<!-- Generator: Adobe Illustrator 22.0.1, SVG Export Plug-In . SVG Version: 6.00 Build 0)  -->
<svg version="1.1" id="图层_1" xmlns="http://www.w3.org/2000/svg" xmlns:xlink="http://www.w3.org/1999/xlink" x="0px" y="0px"
	 viewBox="0 0 200 200" style="enable-background:new 0 0 200 200;" xml:space="preserve">
<g>
	<path d="M34.7,73.2H8.5c-4.1,0-7.5-3.4-7.5-7.5v-0.5c0-4.1,3.4-7.5,7.5-7.5h26.2c4.1,0,7.5,3.4,7.5,7.5v0.5
		C42.2,69.8,38.9,73.2,34.7,73.2z"/>
	<path d="M34.7,107.7H8.5c-4.1,0-7.5-3.4-7.5-7.5v-0.5c0-4.1,3.4-7.5,7.5-7.5h26.2c4.1,0,7.5,3.4,7.5,7.5v0.5
		C42.2,104.4,38.9,107.7,34.7,107.7z"/>
	<path d="M34.7,142.3H8.5c-4.1,0-7.5-3.4-7.5-7.5v-0.5c0-4.1,3.4-7.5,7.5-7.5h26.2c4.1,0,7.5,3.4,7.5,7.5v0.5
		C42.2,138.9,38.9,142.3,34.7,142.3z"/>
	<g>
		<g>
			<path d="M98.6,122.8c2.2-0.4,3.3-1.1,3.3-2.3l0.1-43.1h-3.4L98.6,122.8z M192,25.8H22.4c-4.4,0-8,3.6-8,8v19.8c0.1,0,0.1,0,0.2,0
				h20.3c6.3,0,11.5,5.2,11.5,11.5v0.7c0,6.3-5.2,11.5-11.5,11.5H14.6c-0.1,0-0.1,0-0.2,0v10.8c0.1,0,0.1,0,0.2,0h20.3
				c6.3,0,11.5,5.2,11.5,11.5v0.7c0,6.3-5.2,11.5-11.5,11.5H14.6c-0.1,0-0.1,0-0.2,0v10.8c0.1,0,0.1,0,0.2,0h20.3
				c6.3,0,11.5,5.2,11.5,11.5v0.7c0,6.3-5.2,11.5-11.5,11.5H14.6c-0.1,0-0.1,0-0.2,0v19.8c0,4.4,3.6,8,8,8H192c4.4,0,8-3.6,8-8V33.8
				C200,29.3,196.4,25.8,192,25.8z M112.3,76.4v49.3c0,1.7-0.1,2.9-0.4,3.6c-0.3,0.8-1.3,1.5-3.2,2.4c-1.8,0.8-4.3,1.4-7.2,1.7
				c-0.5-3.1-1.1-5.1-1.6-6.1l-1.3-2.5l-0.1,13.4l0.4,9.6H87.4l0.4-9.7V77.4h-2.9v42.9l0.3,9.8H73.8l0.3-12.1V76.4l-0.3-9.6l5.8,0.3
				h8.1v-6.6l-0.4-8.6h11.5l-0.4,8.6V67h7.5l6.6-0.3L112.3,76.4z M168.3,140.9c-1,1.1-2.4,3.4-4.2,6.9c-2.2-1.5-4.2-2.9-5.9-4.2
				c-1.7-1.4-3.7-3.4-6.1-6.1c-2.3-2.7-4.3-5.5-5.7-8.4c-1.5-2.9-2.9-6.5-4.2-10.8c-1.3-4.3-2.2-7.7-2.6-10.2l-1.3-7.3h-5.9v27.5
				c3.2-2.5,6.2-4.9,8.8-7.2c0.4,1.7,0.8,3.4,1.2,5.2c0.4,1.7,0.8,2.9,1.1,3.5l1.1,2.3c-0.9,0.8-1.6,1.3-2.1,1.6l-9.5,7
				c-3.5,2.6-6.8,5.6-10.2,8.9c-0.4-1.3-0.8-2.5-1.2-3.7s-1.9-4.1-4.4-8.7c0.7-0.4,1.5-1,2.3-1.8c0.8-0.8,1.2-2.5,1.2-5.3v-29.4
				l-6.6,0.3V89.4l6.6,0.4V61.7l-0.4-10.1h12.4l-0.4,10.1v11c6.8-3.3,11.7-6.2,14.8-8.6c3.1-2.4,6.2-5.1,9.1-8.2
				c3,3.9,5.2,6.4,6.6,7.6l2.7,2.5c-6.4,4.1-11.8,7.7-16.3,10.7c-4.5,3-7.1,4.7-7.8,5.1l-4.9,2.9c-0.9-2.6-1.6-4.2-2.1-5l-2.2-3.2
				v13.3h27.3l8.4-0.2V101l-8.4-0.3h-10c0.5,3.1,1.1,6.1,1.7,8.9c0.6,2.8,1.6,6,3.1,9.4c1.4,3.5,3.3,6.6,5.5,9.4
				c2.2,2.8,4.2,4.8,5.9,6c1.8,1.2,3.6,2.2,5.5,3.1C170.4,138.6,169.3,139.8,168.3,140.9z"/>
		</g>
	</g>
</g>
</svg>
