<?xml version="1.0" encoding="utf-8"?>
<!-- Generator: Adobe Illustrator 22.0.1, SVG Export Plug-In . SVG Version: 6.00 Build 0)  -->
<svg version="1.1" id="图层_1" xmlns="http://www.w3.org/2000/svg" xmlns:xlink="http://www.w3.org/1999/xlink" x="0px" y="0px"
	 viewBox="0 0 200 200" style="enable-background:new 0 0 200 200;" xml:space="preserve">
<style type="text/css">
	.st0{fill:#FBAB4A;}
	.st1{fill:#D37F22;}
	.st2{fill:#FFF2E2;}
</style>
<circle class="st0" cx="100" cy="100" r="100"/>
<g>
	<g>
		<g>
			<path class="st1" d="M132.6,62.4h-25l-10.3-0.4l0.3,9.3v68.8l-9.6-0.4v11.9l10.7-0.4h14.9c-3.7-5.4-5.9-12-5.9-19.1
				c0-7.9,2.7-15.1,7.2-20.9h-5.4V98H129v2.9c3.6-1.4,7.5-2.2,11.6-2.3V73l0.4-10.9L132.6,62.4z M129,87.1h-19.5V73H129V87.1z
				 M95.4,119.5c0.3-0.2,0.9-0.5,1.7-1c-1.3-2.3-2.8-4.8-4.4-7.5c-1.7-2.7-3.3-5.3-4.7-8c-0.6,0.4-2.7,1.7-6.3,4V96.2h7.7l5.6,0.2
				V84.5l-5.6,0.3h-7.7V71.5l3.6-0.8l6.3-1.1c0.8-0.1,2-0.4,3.6-0.9c-2.3-4.6-3.6-7.2-3.9-7.9c-0.3-0.7-0.7-1.9-1.2-3.5
				c-4.5,1.7-9.8,3.2-16.1,4.4c-6.2,1.2-13.7,1.8-22.3,1.7l1.3,3.1c0.8,1.8,1.7,4.7,2.7,8.7c6.8-0.9,11.7-1.5,14.7-1.9v11.4H61
				l-8.7-0.3v11.9l8.3-0.2h9.2c-1.4,3.6-2.8,6.7-4.2,9.4c-1.3,2.7-3.2,5.8-5.6,9.2c-2.4,3.4-5.5,6.2-9.3,8.6l1.6,3.7
				c1,2.4,2.1,5.6,3.3,9.7l4.3-4.1c2.3-2.1,5.8-6.3,10.4-12.5v24l-0.4,10.2h12l-0.4-10.2v-30.3l2.8,5c0.3,0.6,1.2,2.6,2.6,5.8l2-1.1
				L95.4,119.5z"/>
		</g>
	</g>
	<g>
		<g>
			<path class="st1" d="M142.7,106.7c-14.1,0-25.5,11.4-25.5,25.5c0,14.1,11.4,25.5,25.5,25.5s25.5-11.4,25.5-25.5
				C168.2,118.1,156.8,106.7,142.7,106.7z M159.4,132.5c0,2.3-1.9,4.3-4.3,4.3h-24.8c-2.3,0-4.3-1.9-4.3-4.3v-0.6
				c0-2.3,1.9-4.3,4.3-4.3h24.8c2.3,0,4.3,1.9,4.3,4.3V132.5z"/>
		</g>
	</g>
</g>
<g>
	<g>
		<g>
			<path class="st2" d="M91.4,115.5c0.3-0.2,0.9-0.5,1.7-1c-1.3-2.3-2.8-4.8-4.4-7.5c-1.7-2.7-3.3-5.3-4.7-8c-0.6,0.4-2.7,1.7-6.3,4
				V92.2h7.7l5.6,0.2V80.5l-5.6,0.3h-7.7V67.5l3.6-0.8l6.3-1.1c0.8-0.1,2-0.4,3.6-0.9c-2.3-4.6-3.6-7.2-3.9-7.9
				c-0.3-0.7-0.7-1.9-1.2-3.5c-4.5,1.7-9.8,3.2-16.1,4.4c-6.2,1.2-13.7,1.8-22.3,1.7l1.3,3.1c0.8,1.8,1.7,4.7,2.7,8.7
				c6.8-0.9,11.7-1.5,14.7-1.9v11.4H57l-8.7-0.3v11.9l8.3-0.2h9.2c-1.4,3.6-2.8,6.7-4.2,9.4c-1.3,2.7-3.2,5.8-5.6,9.2
				c-2.4,3.4-5.5,6.2-9.3,8.6l1.6,3.7c1,2.4,2.1,5.6,3.3,9.7l4.3-4.1c2.3-2.1,5.8-6.3,10.4-12.5v24l-0.4,10.2h12l-0.4-10.2v-30.3
				l2.8,5c0.3,0.6,1.2,2.6,2.6,5.8l2-1.1L91.4,115.5z M128.6,58.4h-25l-10.3-0.4l0.3,9.3v68.8l-9.6-0.4v11.9l10.7-0.4h14.9
				c-3.7-5.4-5.9-12-5.9-19.1c0-7.9,2.7-15.1,7.2-20.9h-5.4V94H125v2.9c3.6-1.4,7.5-2.2,11.6-2.3V69l0.4-10.9L128.6,58.4z M125,83.1
				h-19.5V69H125V83.1z"/>
		</g>
	</g>
	<g>
		<g>
			<path class="st2" d="M138.7,102.7c-14.1,0-25.5,11.4-25.5,25.5c0,14.1,11.4,25.5,25.5,25.5s25.5-11.4,25.5-25.5
				C164.2,114.1,152.8,102.7,138.7,102.7z M155.4,128.5c0,2.3-1.9,4.3-4.3,4.3h-24.8c-2.3,0-4.3-1.9-4.3-4.3v-0.6
				c0-2.3,1.9-4.3,4.3-4.3h24.8c2.3,0,4.3,1.9,4.3,4.3V128.5z"/>
		</g>
	</g>
</g>
</svg>
