<?xml version="1.0" encoding="utf-8"?>
<!-- Generator: Adobe Illustrator 22.0.1, SVG Export Plug-In . SVG Version: 6.00 Build 0)  -->
<svg version="1.1" id="图层_1" xmlns="http://www.w3.org/2000/svg" xmlns:xlink="http://www.w3.org/1999/xlink" x="0px" y="0px"
	 viewBox="0 0 200 200" style="enable-background:new 0 0 200 200;" xml:space="preserve">
<style type="text/css">
	.st0{fill:#8BBF1C;}
	.st1{fill:#F5FCE3;}
</style>
<circle class="st0" cx="100" cy="100" r="100"/>
<path class="st1" d="M105.8,50.5V46c0-3.7-3-6.7-6.7-6.7c-3.7,0-6.7,3-6.7,6.7v4.5H81.2v6.7H117v-6.7H105.8z"/>
<g>
	<g>
		<path class="st1" d="M138.3,50.5h-16.8v11.1H76.7V50.5H61.8c-4.8,0-8.8,3.9-8.8,8.8v87.1c0,4.8,3.9,8.8,8.8,8.8h76.5
			c4.8,0,8.8-3.9,8.8-8.8V59.3C147,54.5,143.1,50.5,138.3,50.5z M83.7,81c4.8-3.4,10.4-5.2,16.2-5.2c0,0,0,0,0.1,0
			c0.1,0,0.3,0,0.4,0c0.7,0,1.5,0,2.3,0.1c0.3,0,0.6,0.1,0.9,0.1c0.4,0.1,0.9,0.1,1.3,0.2c0.2,0,0.3,0.1,0.5,0.1
			c0.3,0.1,0.7,0.2,1,0.2c0.6,0.1,1.2,0.3,1.8,0.5c0.2,0.1,0.5,0.2,0.7,0.2c0.7,0.2,1.3,0.5,2,0.7c0.1,0,0.2,0.1,0.3,0.2
			c4.1,1.8,7.7,4.5,10.6,8.1c0.1,0.1,0.1,0.1,0.1,0.2c0.4,0.5,0.9,1.1,1.2,1.6c0,0.1,0.1,0.2,0.1,0.2c3.1,4.6,5,10.2,5,16.2h0l0,0h5
			c0.1,0,0.3,0.1,0.3,0.2c0.1,0.1,0.1,0.3,0,0.4l-8.4,12.8c-0.1,0.1-0.2,0.2-0.3,0.2c-0.1,0-0.2-0.1-0.3-0.2l-8.4-12.8
			c-0.1-0.1-0.1-0.3,0-0.4c0.1-0.1,0.2-0.2,0.3-0.2h5c0-5.2-1.8-10.1-4.9-13.8c0,0,0,0,0-0.1c-2.2-2.7-5-4.8-8.1-6.2
			c-0.1,0-0.1,0-0.2-0.1c-0.5-0.2-1.1-0.4-1.6-0.6c-0.2-0.1-0.3-0.1-0.5-0.2c-0.5-0.1-1-0.3-1.5-0.4c-0.2,0-0.4-0.1-0.7-0.1
			c-0.5-0.1-1-0.2-1.5-0.2c-0.2,0-0.4-0.1-0.6-0.1c-0.6-0.1-1.3-0.1-1.9-0.1c-4.5,0-8.8,1.3-12.5,3.9c-1.5,1.1-3.7,0.7-4.7-0.8
			C81.8,84.2,82.2,82.1,83.7,81z M66.3,104l8.4-12.8c0.1-0.1,0.2-0.2,0.3-0.2c0.1,0,0.2,0.1,0.3,0.2l8.4,12.8c0.1,0.1,0.1,0.3,0,0.4
			c-0.1,0.1-0.2,0.2-0.3,0.2h-5c0,5.1,1.8,9.9,4.7,13.6c0.1,0.1,0.2,0.2,0.3,0.3c0.4,0.5,0.8,1,1.3,1.4c0,0,0,0.1,0.1,0.1
			c1.5,1.5,3.1,2.7,4.9,3.7c0,0,0,0,0.1,0c0.5,0.3,1.1,0.6,1.6,0.8c0.1,0,0.2,0.1,0.3,0.1c0.5,0.2,1,0.4,1.5,0.5
			c0.2,0.1,0.4,0.1,0.6,0.2c0.4,0.1,0.9,0.2,1.3,0.3c0.3,0.1,0.5,0.1,0.8,0.2c0.4,0.1,0.9,0.2,1.4,0.2c0.2,0,0.5,0.1,0.7,0.1
			c0.6,0.1,1.2,0.1,1.8,0.1c4.5,0.1,8.9-1.3,12.6-3.9c1.5-1.1,3.7-0.7,4.7,0.8c1.1,1.6,0.7,3.7-0.8,4.8c-4.8,3.4-10.5,5.2-16.2,5.2
			c-0.9,0-1.9-0.1-2.8-0.2c-0.2,0-0.4-0.1-0.6-0.1c-0.5-0.1-1.1-0.1-1.6-0.2c-0.2,0-0.3-0.1-0.5-0.1c-0.4-0.1-0.7-0.2-1.1-0.3
			c-0.6-0.1-1.1-0.3-1.7-0.4c-0.3-0.1-0.6-0.2-0.9-0.3c-0.6-0.2-1.2-0.4-1.8-0.7c-0.2-0.1-0.3-0.2-0.5-0.2c-0.7-0.3-1.4-0.6-2.1-1
			c-0.1,0-0.1-0.1-0.2-0.1c-2.3-1.3-4.5-2.9-6.4-4.8c-0.1-0.1-0.1-0.1-0.2-0.2c-0.6-0.6-1.1-1.2-1.6-1.8c-0.1-0.2-0.3-0.3-0.4-0.5
			c-0.4-0.4-0.7-0.9-1-1.4c0-0.1-0.1-0.1-0.1-0.2c-3.2-4.6-5-10.2-5-16.3h-5c-0.1,0-0.3-0.1-0.3-0.2C66.2,104.2,66.2,104.1,66.3,104
			z M136.4,148.8H63.6c-1.3,0-2.3-1-2.3-2.3c0-1.3,1-2.3,2.3-2.3h72.7c1.3,0,2.3,1,2.3,2.3C138.6,147.8,137.6,148.8,136.4,148.8z"/>
	</g>
</g>
</svg>
