<?xml version="1.0" encoding="utf-8"?>
<!-- Generator: Adobe Illustrator 22.0.1, SVG Export Plug-In . SVG Version: 6.00 Build 0)  -->
<svg version="1.1" id="图层_1" xmlns="http://www.w3.org/2000/svg" xmlns:xlink="http://www.w3.org/1999/xlink" x="0px" y="0px"
	 viewBox="0 0 200 200" style="enable-background:new 0 0 200 200;" xml:space="preserve">
<path d="M153.4,28.8H46.6c-9.8,0-17.8,8-17.8,17.8v5.9h142.5v-5.9C171.3,36.7,163.3,28.8,153.4,28.8 M122.3,16.9l2.6,18.7H75.1
	l2.6-18.7H122.3 M123.8,5H76.2c-4.9,0-9.5,4-10.1,8.8l-3.5,24.8c-0.7,4.9,2.8,8.8,7.7,8.8h59.4c4.9,0,8.4-4,7.7-8.8l-3.5-24.8
	C133.2,9,128.7,5,123.8,5 M156.4,64.4H43.6c-6.5,0-11.4,5.3-10.8,11.8l9.7,107c0.6,6.5,6.4,11.8,12.9,11.8h89.1
	c6.5,0,12.4-5.3,12.9-11.8l9.7-107C167.8,69.7,162.9,64.4,156.4,64.4 M76.2,171.2H58.4l-5.9-83.1h23.8L76.2,171.2L76.2,171.2z
	 M111.9,171.2H88.1V88.1h23.8V171.2L111.9,171.2z M141.6,171.2h-17.8V88.1h23.8L141.6,171.2L141.6,171.2z"/>
</svg>
