<?xml version="1.0" encoding="utf-8"?>
<!-- Generator: Adobe Illustrator 22.0.1, SVG Export Plug-In . SVG Version: 6.00 Build 0)  -->
<svg version="1.1" id="图层_1" xmlns="http://www.w3.org/2000/svg" xmlns:xlink="http://www.w3.org/1999/xlink" x="0px" y="0px"
	 viewBox="0 0 199.7 199.7" style="enable-background:new 0 0 199.7 199.7;" xml:space="preserve">
<style type="text/css">
	.st0{fill:none;}
</style>
<title>删除</title>
<rect x="529.4" y="71.3" class="st0" width="108.2" height="108.4"/>
<g>
	<g>
		<path d="M99.9-0.1c-55.2,0-100,44.8-100,100c0,55.2,44.8,100,100,100c55.2,0,100-44.8,100-100C199.9,44.6,155.1-0.1,99.9-0.1z
			 M146.1,146.1c-3.8,3.8-10,3.8-13.9,0l-32.4-32.4v0l-32.4,32.4c-3.8,3.8-10,3.8-13.9,0c-3.8-3.8-3.8-10,0-13.9L86,99.9L53.6,67.5
			c-3.5-3.8-3.5-9.5,0-13.3c3.7-4,9.9-4.3,13.9-0.6L99.9,86l32.4-32.4c3.8-3.8,10-3.8,13.9,0c3.8,3.8,3.8,10,0,13.9l-32.4,32.4
			l32.4,32.4C150,136.1,150,142.3,146.1,146.1z"/>
	</g>
</g>
</svg>
