<?xml version="1.0" encoding="utf-8"?>
<!-- Generator: Adobe Illustrator 22.0.1, SVG Export Plug-In . SVG Version: 6.00 Build 0)  -->
<svg version="1.1" id="图层_1" xmlns="http://www.w3.org/2000/svg" xmlns:xlink="http://www.w3.org/1999/xlink" x="0px" y="0px"
	 viewBox="0 0 200 200" style="enable-background:new 0 0 200 200;" xml:space="preserve">
<style type="text/css">
	.st0{fill:#FFFFFF;}
	.st1{fill:#FD6969;}
</style>
<g>
	<rect x="25" y="55" class="st0" width="154" height="82"/>
	<g>
		<g>
			<path class="st1" d="M139.1,115.7h17.7v-11h-17.7V115.7z M0,38.5v115.4c0,4.2,3.7,7.7,8.3,7.7l93.4-15.4l89.9,15.4
				c4.6,0,8.3-3.4,8.3-7.7V38.5H0z M38.4,69c1.5,1.5,4.2,4.9,8.2,10.1c0.9,1.1,1.6,2,2,2.5L43,85.3c-2.8-4.7-6-9-9.6-12.9L38.4,69z
				 M31.7,114c3.9-5.1,7.5-12.7,10.7-22.8l5.1,5.1c-2.8,8.4-6.2,15.9-10.1,22.5L31.7,114z M55.3,118c-1.9,1.9-3.2,3.3-3.9,4.2
				l-6.5-3.1c6.4-3.9,11.1-9.2,14.1-15.8c4.7,1.3,7,2.4,7,3.4c0,0.4-0.3,0.8-0.8,1.1c-1.5,0.8-2.9,2-4.2,3.7
				C60,112.8,58.1,115,55.3,118z M76.4,118.8c0,2.4-0.9,4.3-2.8,5.6c-1.3,1.1-4.6,2-9.8,2.5v-0.8c-0.2-2.8-1-5.2-2.5-7
				c3.6,0.8,5.9,1,7,0.8c1.3-0.4,2-1.5,2-3.4V98.3H59.8c-2.8,0-5.5,0.5-8.2,1.4l-2-6.2c2.6-0.4,5.9-4.6,9.8-12.7
				c0.6-1.3,1-2.3,1.4-2.8H58c-4.9,0-8,0.3-9.3,0.8v-6.5c1.5,0.4,4.7,0.6,9.6,0.6h4.5c0.6-0.6,1.4-2.7,2.5-6.5
				c0.6-1.9,0.9-3.2,1.1-3.9c4.9,1.1,7.4,2.1,7.6,2.8c0,0.4-0.3,0.8-0.8,1.4c-1.7,1.5-3.1,3.6-4.2,6.2h13.5c6.6,0,10.5-0.2,11.8-0.6
				v6.5C93,78.2,89,78,82.5,78H67.1c-2.8,5.3-5.6,10.3-8.4,15.2h11.5V89c0-2.8-0.2-4.6-0.6-5.3c4.9,0,7.4,0.3,7.6,0.8
				c0,0.2-0.1,0.5-0.3,0.8c-0.4,1.3-0.6,2.5-0.6,3.7v4.2H82c5.1,0,8.2-0.3,9.6-0.8v6.5c-1.3-0.4-4.4-0.6-9.3-0.6h-5.9
				C76.4,98.3,76.4,118.8,76.4,118.8z M90.2,120.8c-2.8-4.7-6.7-9.4-11.5-14.1l5.1-3.1c4.3,3.8,8.5,8.3,12.7,13.5L90.2,120.8z
				 M129,118.3c-1.3,0.2-3.4,0.6-6.2,1.1c-8.8,1.5-14.4,2.5-16.9,3.1l-1.4-7c7.5-0.4,15.9-1.3,25.3-2.8L129,118.3z M130.9,80.6
				c-0.2,0.2-0.5,0.4-0.8,0.6c-0.8,0.6-1.4,1.2-2,2c-4.5,6.4-9.1,12.8-13.8,19.4c2.3-0.4,5.3-0.7,9.3-1.1c2.6-0.4,4.5-0.7,5.6-0.8
				l-1.1,5.9c-7.9,0.4-14.9,1.1-21.1,2.3l-1.1-6.2c2.3,0.4,6.3-3.9,12.1-12.9c-5.8,0.4-9.8,0.8-12.1,1.4l-1.4-5.9
				c4.3-1.5,8.2-8.7,11.5-21.7c4.9,1.5,7.5,2.8,7.9,3.9c0,0.4-0.3,0.8-0.8,1.1c-1.1,0.6-2,1.4-2.5,2.5c-1.9,3.2-3.9,6.6-6.2,10.1
				c-1.3,2.1-2.2,3.5-2.5,4.2l8.7-0.6c2.3-4.3,3.5-7,3.7-8.2C128.9,79.1,131.1,80.4,130.9,80.6z M162.7,106.4v13.2
				c-0.2,1.9,0,4,0.6,6.5h-7c0.4-1.7,0.6-3.2,0.6-4.5v-1.1h-17.7v1.1c0,1.1,0.2,2.6,0.6,4.5h-7.6c0.6-2.4,0.8-4.8,0.8-7v-11.8
				c0.2-1.9,0-4.6-0.6-8.2c3.2,0.4,5.5,0.6,7,0.6h17.2c2.1,0,4.3-0.3,6.8-0.8C162.7,102.2,162.5,104.8,162.7,106.4z M167.5,79.4
				c-3.2-0.2-6.9-0.4-11.3-0.6h-6.5v9.6h4.5c3,0,6.2-0.2,9.6-0.6V94c-2.8-0.4-5.9-0.6-9.3-0.6H141c-3.2,0-6.5,0.2-9.8,0.6v-6.2
				c1.7,0.2,4.9,0.4,9.6,0.6h3.4v-9.6H140c-5.3,0-8.6,0.1-10.1,0.3v-5.6h5.1c2.3,0.2,3.8,0.3,4.8,0.3h4.5v-5.9
				c0-1.3-0.1-2.9-0.3-4.8c5.1,0.6,7.4,1.1,7,1.7c0,0.2-0.1,0.5-0.3,0.8c-0.6,1.1-0.8,2.3-0.8,3.7v4.5h6.8c3.6,0,7.2-0.2,11-0.6v6.2
				H167.5z"/>
		</g>
	</g>
</g>
</svg>
