<?xml version="1.0" encoding="utf-8"?>
<!-- Generator: Adobe Illustrator 22.0.1, SVG Export Plug-In . SVG Version: 6.00 Build 0)  -->
<svg version="1.1" id="图层_1" xmlns="http://www.w3.org/2000/svg" xmlns:xlink="http://www.w3.org/1999/xlink" x="0px" y="0px"
	 viewBox="0 0 200 200" style="enable-background:new 0 0 200 200;" xml:space="preserve">
<g>
	<g>
		<path d="M143.8,44H96.4c-3.4,0-6.1,2.7-6.1,6.1c0,3.4,2.7,6.1,6.1,6.1h47.4c3.4,0,6.1-2.7,6.1-6.1S147.2,44,143.8,44z"/>
		<path d="M69.8,44H56.5c-3.4,0-6.1,2.7-6.1,6.1c0,3.4,2.7,6.1,6.1,6.1h13.3c3.4,0,6.1-2.7,6.1-6.1S73.2,44,69.8,44z"/>
	</g>
	<g>
		<path d="M143.8,72H96.4c-3.4,0-6.1,2.7-6.1,6.1s2.7,6.1,6.1,6.1h47.4c3.4,0,6.1-2.7,6.1-6.1S147.2,72,143.8,72z"/>
		<path d="M69.8,72H56.5c-3.4,0-6.1,2.7-6.1,6.1s2.7,6.1,6.1,6.1h13.3c3.4,0,6.1-2.7,6.1-6.1S73.2,72,69.8,72z"/>
	</g>
	<g>
		<path d="M70.5,100H57.2c-3.4,0-6.1,2.7-6.1,6.1s2.7,6.1,6.1,6.1h13.3c3.4,0,6.1-2.7,6.1-6.1S73.8,100,70.5,100z"/>
	</g>
	<g>
		<g>
			<path d="M163.5,15h-127c-11,0-20,9-20,20v130c0,11,9,20,20,20h68.6l-0.1-12H36.5c-4.3,0-8-3.7-8-8V35c0-4.3,3.7-8,8-8h127
				c4.3,0,8,3.7,8,8v57.7l12-0.2V35C183.5,24,174.5,15,163.5,15z"/>
		</g>
	</g>
	<path d="M110.8,106.2h17c0.9,2.9,2,5,4.7,9.7l14.6,25.1l14.6-25c2.8-4.6,4-7.1,4.7-9.8h17.1c-1.3,1.7-5.2,7.3-7,10.2L163,138.2h5.5
		c4.4,0,7.1-0.2,10.4-0.8v11.3c-3.4-0.6-6-0.8-10.4-0.8h-11.6l-3.3,5.1v2.9h14.6c4.4,0,6.9-0.2,10.4-0.8v11.3
		c-3.4-0.6-6-0.8-10.4-0.8h-14.6v6.7c0,5.6,0.2,8.7,0.8,12.7h-14.6c0.5-3.9,0.8-7.8,0.8-12.7v-6.7h-14.9c-4.4,0-7,0.2-10.4,0.8
		v-11.3c3.5,0.6,5.8,0.8,10.4,0.8h14.9v-3l-3.3-5h-11.4c-4.5,0-7,0.2-10.4,0.8v-11.3c3.3,0.6,5.8,0.8,10.4,0.8h5.5l-13.7-21.8
		C114.8,112,112.3,108.1,110.8,106.2z"/>
</g>
</svg>
