<?xml version="1.0" encoding="utf-8"?>
<!-- Generator: Adobe Illustrator 22.0.1, SVG Export Plug-In . SVG Version: 6.00 Build 0)  -->
<svg version="1.1" id="图层_1" xmlns="http://www.w3.org/2000/svg" xmlns:xlink="http://www.w3.org/1999/xlink" x="0px" y="0px"
	 viewBox="0 0 200 200" style="enable-background:new 0 0 200 200;" xml:space="preserve">
<style type="text/css">
	.st0{fill:#3BA547;}
	.st1{fill:#FFFFFF;}
	.st2{font-family:'Arial-Black';}
	.st3{font-size:58.4769px;}
</style>
<g>
	<g>
		<path class="st0" d="M184.1,42.8v144.5c0,7-5.6,12.6-12.6,12.6H28c-7,0-12.6-5.6-12.6-12.6V13.7c0-7,5.6-12.6,12.6-12.6h113.7"/>
		<path class="st0" d="M184.5,42.8h-30.2c-7,0-12.6-5.6-12.6-12.6V0"/>
	</g>
	<path class="st1" d="M184.5,45.3h-30.2c-8.3,0-15.1-6.8-15.1-15.1V0h5v30.2c0,5.5,4.5,10.1,10.1,10.1h30.2V45.3z M184.5,45.3"/>
	<path class="st1" d="M172.6,131.7v47.2c0,6-4.9,10.9-10.9,10.9H38.1c-6,0-10.9-4.9-10.9-10.9v-47.2H172.6z"/>
	<text transform="matrix(1 0 0 1 38.9767 182.0684)" class="st0 st2 st3">XLS</text>
	<path class="st1" d="M133.6,36.5h-74c-2,0-4,2-4,4v64c0,2,2,4,4,4h74c2,0,4-2,4-4v-64C137.6,38.5,135.6,36.5,133.6,36.5L133.6,36.5
		z M133.6,51.8v15.3h-22V51.8H133.6z M85.6,85.8V71.2h22v14.7H85.6z M107.6,89.8v14.7h-22V89.8H107.6z M81.6,85.8h-22V71.2h22V85.8z
		 M107.6,51.8v15.3h-22V51.8H107.6z M111.6,71.2h22v14.7h-22V71.2z M86.3,40.5c2,0,4,2,4,4c0,2-2,4-4,4c-2,0-4-2-4-4
		C82.3,42.5,84.3,40.5,86.3,40.5L86.3,40.5z M75,40.5c2,0,4,2,4,4c0,2-2,4-4,4c-2,0-4-2-4-4C71,42.5,73,40.5,75,40.5L75,40.5z
		 M63.6,40.5c2,0,4,2,4,4c0,2-2,4-4,4c-2,0-4-2-4-4C59.6,42.5,61,40.5,63.6,40.5L63.6,40.5z M63.6,51.8h18.7v15.3h-22V51.8H63.6z
		 M59.6,89.8h22v14.7h-22V89.8z M111.6,104.5V89.8h22v14.7H111.6z M111.6,104.5"/>
</g>
</svg>
