<?xml version="1.0" encoding="utf-8"?>
<!-- Generator: Adobe Illustrator 22.0.1, SVG Export Plug-In . SVG Version: 6.00 Build 0)  -->
<svg version="1.1" id="图层_1" xmlns="http://www.w3.org/2000/svg" xmlns:xlink="http://www.w3.org/1999/xlink" x="0px" y="0px"
	 viewBox="0 0 200 200" style="enable-background:new 0 0 200 200;" xml:space="preserve">
<g>
	<g>
		<path d="M185.7,0H32.2c-7.9,0-14.3,7.1-14.3,15.8v17.1v16.4H9c-5,0-9,3.7-9,8.2c0,4.5,4,8.2,9,8.2h9v68.5H9c-5,0-9,3.7-9,8.2
			c0,4.5,4,8.2,9,8.2h9v16.5v17.1c0,8.7,6.4,15.8,14.3,15.8h153.5c7.9,0,14.3-7.1,14.3-15.8V15.8C200,7.1,193.6,0,185.7,0z
			 M178.1,168.6H47.9V151l41.2-27.1c0,0,0,0,0,0l0,0l7.2-4.7h0v-1.8H71.5V68.5c0-20.5,18.6-37.1,41.5-37.1s41.5,16.6,41.5,37.1v48.8
			h-24.8v1.8l48.5,32V168.6z M94.9,149.8c11.9,11.5,18-6,18-6s6.1,17.4,18,6c0,0,5.2-3.4,5.8-26l-23.8,20l-23.8-20l0,0
			C89.7,146.5,94.9,149.8,94.9,149.8z"/>
	</g>
</g>
</svg>
