<?xml version="1.0" encoding="utf-8"?>
<!-- Generator: Adobe Illustrator 22.0.1, SVG Export Plug-In . SVG Version: 6.00 Build 0)  -->
<svg version="1.1" id="图层_1" xmlns="http://www.w3.org/2000/svg" xmlns:xlink="http://www.w3.org/1999/xlink" x="0px" y="0px"
	 viewBox="0 0 200 200" style="enable-background:new 0 0 200 200;" xml:space="preserve">
<g>
	<g>
		<path d="M100,0C44.8,0,0,44.8,0,100s44.8,100,100,100s100-44.8,100-100S155.2,0,100,0z M41.5,89.3c0.7-4.4,1.8-8.7,3.6-12.8
			c8.9-22.3,30.7-37,55-36.9c29.1,0,54.2,21.4,58.5,49.7c0,1.6-1,3.4-4,3.4c-3,0-3.7-1.3-3.9-2.9c-3.9-25.6-24.3-42.7-50.6-42.7
			c-21.7,0.2-38.3,10.6-46.6,30.2l3.8-1.3c1.3-0.3,2.5,0.4,3.1,1.5s0.3,2.5-0.8,3.4L46,91.9c-0.6,0.4-1.5,0.7-2.2,0.6
			c-0.7-0.1-1.4-0.5-1.8-1.1C41.5,90.8,41.3,90.1,41.5,89.3z M120.8,90.6v5.7h-17v9.4h17v5.7h-17v18.9h-5.7v-18.9h-17v-5.7h17v-9.4
			h-17v-5.7H95L81.1,69.8h7.6L101,88.2l12.3-18.4h7.5l-13.9,20.8H120.8z M158.5,110.6c-0.6,4.5-1.8,8.8-3.5,12.9
			c-8.9,22.3-30.7,37-55,36.9c-29.1,0-54.2-21.4-58.5-49.7c0-1.6,1-3.4,3.9-3.4s3.7,1.3,3.9,2.9c3.9,25.6,24.3,42.7,50.6,42.7
			c21.7-0.2,38.4-10.6,46.7-30.2l-3.8,1.3c-1.3,0.3-2.5-0.4-3.1-1.5s-0.3-2.5,0.8-3.4l13.5-11c0.6-0.4,1.5-0.7,2.2-0.6
			c0.7,0.1,1.4,0.5,1.8,1C158.5,109.2,158.7,109.9,158.5,110.6z"/>
	</g>
</g>
</svg>
