<?xml version="1.0" encoding="utf-8"?>
<!-- Generator: Adobe Illustrator 22.0.1, SVG Export Plug-In . SVG Version: 6.00 Build 0)  -->
<svg version="1.1" id="图层_1" xmlns="http://www.w3.org/2000/svg" xmlns:xlink="http://www.w3.org/1999/xlink" x="0px" y="0px"
	 viewBox="0 0 200 200" style="enable-background:new 0 0 200 200;" xml:space="preserve">
<g>
	<path d="M67.2,160.6c-1.6-5.4-2.7-11-2.7-16.8c0-2.7,0.6-5.3,0.9-8c-34.5-4-59.5-15.4-59.5-31.9V125
		C5.9,141.7,31.8,155.8,67.2,160.6z"/>
	<path d="M156.9,76c15.3-6.7,24.7-15.9,24.7-26V37.5C181.6,16.8,142.3,0,93.8,0C45.3,0,5.9,16.8,5.9,37.5V50
		c0,20.7,39.3,37.5,87.8,37.5c1.9,0,3.6-0.2,5.5-0.3C112.3,79.6,128,75,145,75C149.1,75,153,75.5,156.9,76z"/>
	<path d="M68.6,123.2c3.2-8.8,8.4-16.7,15.1-23.6C40,98,5.9,85.6,5.9,66.4v21.1C5.9,104.4,32.4,118.6,68.6,123.2z"/>
	<path d="M75.5,178c-0.8-1.3-1.7-2.6-2.4-3.9c-38.5-3.1-67.2-15-67.2-32.7v21.1c0,5.5,2.8,10.8,7.8,15.5c13.8,13,44.5,22,80,22
		c1.7,0,3.2-0.2,4.9-0.2C89.1,194.1,81.3,186.6,75.5,178z"/>
	<path d="M105.2,136.5h88.9v17.8h-88.9C105.2,154.3,105.2,136.5,105.2,136.5z"/>
</g>
</svg>
