<?xml version="1.0" encoding="utf-8"?>
<!-- Generator: Adobe Illustrator 22.0.1, SVG Export Plug-In . SVG Version: 6.00 Build 0)  -->
<svg version="1.1" id="图层_1" xmlns="http://www.w3.org/2000/svg" xmlns:xlink="http://www.w3.org/1999/xlink" x="0px" y="0px"
	 viewBox="0 0 199.9 200" style="enable-background:new 0 0 199.9 200;" xml:space="preserve">
<title>进场管理</title>
<g>
	<g>
		<path d="M143.5,141.8c0.6,0,1.1-0.2,1.5-0.5l-1.7,0.5H143.5z M100,0C44.7,0,0,44.8,0,100s44.8,100,100,100
			c55.2,0,100-44.8,100-100S155.2,0,100,0z M48,116.5c-1.7-0.1-3-1.5-2.9-3.2V112c0-0.1,0-0.1,0-0.1c0-1.6,1.3-3.1,3-3.1h25.8
			l-0.6-0.4c-1.5-0.9-1.9-2.8-1.1-4.3l0.6-1.2c0-0.1,0-0.1,0.1-0.2c0.8-1.4,2.7-1.8,4-1l10.5,6.4l1.6,1c1.9,1.9,1.9,4.8,0.2,6.7
			l-1.9,1.2l-10.6,6.4c-0.1,0.1-0.1,0.1-0.2,0.1c-1.4,0.8-3.2,0.2-3.9-1.2l-0.6-1.2c-0.8-1.5-0.3-3.4,1.1-4.3l0.6-0.4H48
			C48,116.5,48,116.5,48,116.5z M150.9,53.7v83.1v6.8c0,1.7-1.4,3.1-3.2,3.1h-22.1l-26,7.2c-1,0.3-1.8-0.7-1.8-2.3v-4.9H63
			c-0.1,0-0.1,0-0.1,0c-1.7,0-3.1-1.4-3.1-3.1v-19.5h4.5v14.8c0,1.5,1.2,2.8,2.8,2.8h30.6V68.6c0-1.6,0.8-3.1,1.8-3.4L143.5,53
			c0,0,0,0-0.1,0H67.2c-0.1,0-0.1,0-0.1,0c-1.6,0-2.8,1.2-2.8,2.8v45.4h-4.5v-50c0-1.8,1.4-3.2,3.2-3.2h84.7c1.8,0,3.2,1.4,3.2,3.2
			V53.7z"/>
	</g>
</g>
</svg>
