<?xml version="1.0" encoding="utf-8"?>
<!-- Generator: Adobe Illustrator 22.0.1, SVG Export Plug-In . SVG Version: 6.00 Build 0)  -->
<svg version="1.1" id="图层_1" xmlns="http://www.w3.org/2000/svg" xmlns:xlink="http://www.w3.org/1999/xlink" x="0px" y="0px"
	 viewBox="0 0 200 200" style="enable-background:new 0 0 200 200;" xml:space="preserve">
<g>
	<path d="M0,64.2C0,56.5,6.6,50,14.7,50h81.8c-2.3,6.5-3.6,13.3-3.6,20.5c0,3.2,0.2,6.5,0.7,9.5H0V64.2z"/>
	<g>
		<g>
			<path d="M153.8,131.3c-22.3,0-41.7-12-52.3-29.8H0v59.8c0,7.7,6.6,14.2,14.7,14.2h135.1c8.3,0,14.9-6.3,14.9-14.2v-30.9
				C161.2,130.9,157.6,131.3,153.8,131.3z M116.3,153.7H104v-13.5h12.2V153.7z M131.2,153.7H119v-13.5h12.2V153.7z M147,153.7h-12.2
				v-13.5H147V153.7z"/>
		</g>
	</g>
	<g>
		<g>
			<path d="M200,70.7c0-25.5-20.7-46.2-46.2-46.2C135.7,24.5,120,35,112.5,50c-3.1,6.1-4.9,13.1-4.9,20.5c0,3.2,0.4,6.5,1.1,9.5
				c1.8,8.1,5.6,15.5,11,21.4c8.4,9.2,20.7,15.1,34.1,15.1c3.8,0,7.4-0.4,11-1.3h0C184.9,110.4,199.8,92.3,200,70.7z M180.2,74.5
				c-0.9,0.9-2.3,1.6-4,1.6h-17.1V93c0,3.1-2.5,5.4-5.4,5.4c-1.4,0-2.9-0.5-3.8-1.6c-1.1-0.9-1.6-2.3-1.6-4V75.7h-17.1
				c-3.1,0-5.4-2.5-5.4-5.4c0-1.4,0.5-2.9,1.6-4c1.1-0.9,2.3-1.6,4-1.6h17.1V48.1c0-3.1,2.5-5.4,5.4-5.4c1.4,0,2.9,0.5,4,1.6
				c1.1,1.1,1.6,2.3,1.6,4v17.1h17.1c2.7-0.2,5.2,2.2,5.2,5.2C181.9,72,181.3,73.4,180.2,74.5z"/>
		</g>
	</g>
</g>
</svg>
