<?xml version="1.0" encoding="utf-8"?>
<!-- Generator: Adobe Illustrator 22.0.1, SVG Export Plug-In . SVG Version: 6.00 Build 0)  -->
<svg version="1.1" id="图层_1" xmlns="http://www.w3.org/2000/svg" xmlns:xlink="http://www.w3.org/1999/xlink" x="0px" y="0px"
	 viewBox="0 0 200 200" style="enable-background:new 0 0 200 200;" xml:space="preserve">
<path d="M116.2,59.2l-45.1,79.6l9,4.2l45.2-79.7L116.2,59.2z M82,81.3c0.1,5.3-4.2,9.7-9.5,9.7c-0.1,0-0.2,0-0.3,0
	c-2.6,0.1-5-0.9-6.9-2.8c-3.8-3.8-3.9-10.1,0-13.9c0,0,0,0,0,0c3.9-3.7,9.9-3.7,13.8,0c1.9,1.9,3,4.5,2.9,7.2V81.3z M52.1,81.3
	c0,2.7,0.5,5.4,1.5,7.8c1.1,2.4,2.5,4.5,4.3,6.4c1.8,1.9,4,3.3,6.4,4.3c5,2.2,10.8,2.2,15.8,0c2.4-1,4.6-2.5,6.4-4.3
	c1.8-1.9,3.2-4,4.3-6.4c1-2.5,1.6-5.2,1.5-7.8c0-2.7-0.5-5.4-1.5-7.8c-1.1-2.4-2.5-4.5-4.3-6.4c-1.8-1.9-4-3.3-6.4-4.3
	c-5-2.2-10.8-2.2-15.8,0c-2.4,1-4.6,2.5-6.4,4.3c-1.8,1.9-3.2,4-4.3,6.4c-1.1,2.6-1.6,5.3-1.5,8.1V81.3z M133.5,120.4
	c0.1,2.6-0.9,5-2.8,6.9c-3.8,4-10.2,4.2-14.2,0.4c-4-3.8-4.2-10.2-0.4-14.2c3.8-4,10.2-4.2,14.2-0.4
	C132.4,115,133.6,117.7,133.5,120.4z M103.6,120.4c0,2.7,0.5,5.4,1.5,7.8c1.1,2.4,2.6,4.6,4.4,6.4c1.9,1.8,4,3.3,6.4,4.3
	c2.5,1,5.2,1.6,7.8,1.5c2.7,0,5.4-0.5,7.8-1.5c2.4-1.1,4.5-2.5,6.4-4.3c1.9-1.8,3.3-4,4.3-6.4c2.1-5.1,2.1-10.7,0-15.8
	c-1-2.4-2.5-4.6-4.3-6.4c-1.9-1.8-4-3.2-6.4-4.3c-2.5-1-5.2-1.5-7.8-1.5c-2.7,0-5.4,0.5-7.8,1.5c-2.4,1-4.5,2.5-6.4,4.3
	c-1.9,1.8-3.4,4-4.4,6.4c-1.1,2.6-1.6,5.4-1.5,8.2V120.4z M74.3,194.5c-2.9,1.8-6.6,0.9-8.4-2c-0.2-0.3-0.3-0.6-0.5-0.9l-8-20.3
	l-22.1,2.7c-3.3,0.4-6.3-2-6.7-5.4c0-0.3,0-0.7,0-1l1.5-22.1l-20.7-7c-3.2-1.1-4.9-4.6-3.8-7.7c0.1-0.3,0.3-0.7,0.5-1l11.1-18.9
	L1.8,95.9c-2.4-2.4-2.4-6.2,0-8.6c0.3-0.3,0.5-0.5,0.8-0.7l18.1-12.4l-7.4-20.6c-1.1-3.1,0.4-6.5,3.5-7.7c0.4-0.1,0.7-0.2,1.1-0.3
	L40,42.4l2.3-22.1c0.5-3.3,3.5-5.5,6.8-5c0.2,0,0.5,0.1,0.7,0.2l21,6.4L81.9,3.2c1.7-2.8,5.4-3.7,8.2-2c0.3,0.2,0.7,0.5,1,0.7
	l16.1,14.6l18.5-11.1c2.9-1.8,6.6-0.9,8.4,2c0.2,0.3,0.3,0.6,0.5,0.9l8.1,20.3l22.1-2.7c3.3-0.4,6.3,1.9,6.7,5.1
	c0.1,0.4,0.1,0.9,0,1.3l-1.5,22.1l20.3,6.2c3.2,1.1,4.8,4.6,3.6,7.8c-0.1,0.3-0.3,0.6-0.4,0.9l-10.9,18.9l15.7,15.4
	c2.4,2.4,2.4,6.2,0,8.6c-0.3,0.3-0.5,0.5-0.8,0.7l-18.1,12.4l7.5,20.6c1.1,3.2-0.6,6.6-3.8,7.7c-0.3,0.1-0.6,0.2-1,0.2l-22.1,3.3
	l-2.2,22.1c-0.4,3.3-3.4,5.8-6.7,5.4c-0.4,0-0.7-0.1-1-0.2l-21-6.4L118,196.8c-1.7,2.8-5.4,3.7-8.2,2c-0.3-0.2-0.7-0.5-1-0.7
	l-16.1-14.8L74.3,194.5z"/>
</svg>
