<?xml version="1.0" encoding="utf-8"?>
<!-- Generator: Adobe Illustrator 22.0.1, SVG Export Plug-In . SVG Version: 6.00 Build 0)  -->
<svg version="1.1" id="图层_1" xmlns="http://www.w3.org/2000/svg" xmlns:xlink="http://www.w3.org/1999/xlink" x="0px" y="0px"
	 viewBox="0 0 200 200" style="enable-background:new 0 0 200 200;" xml:space="preserve">
<g>
	<path d="M122.4,54.3h-81c-3.4,0-6.9-3.4-6.9-6.9s3.4-6.9,6.9-6.9h81c3.4,0,6.9,3.4,6.9,6.9C129.3,52.6,125.9,54.3,122.4,54.3z"/>
	<path d="M87.9,87.1H43.1c-3.4,0-6.9-3.4-6.9-6.9s3.4-6.9,6.9-6.9h44.8c3.4,0,6.9,3.4,6.9,6.9C96.6,83.6,93.1,87.1,87.9,87.1z"/>
	<path d="M62.1,118.1H44.8c-3.4,0-6.9-3.4-6.9-6.9s3.4-6.9,6.9-6.9h17.2c3.4,0,6.9,3.4,6.9,6.9S65.5,118.1,62.1,118.1z"/>
	<g>
		<g>
			<path d="M141.4,81.9c-32.8,0-58.6,25.9-58.6,58.6c0,32.8,25.9,58.6,58.6,58.6s58.6-25.9,58.6-58.6S174.1,81.9,141.4,81.9z
				 M141.4,185.3c-24.1,0-44.8-20.7-44.8-44.8c0-24.1,19-44.8,44.8-44.8c24.1,0,44.8,20.7,44.8,44.8S165.5,185.3,141.4,185.3z"/>
		</g>
	</g>
	<path d="M143.1,114.7l5.2,12.1c0,1.7,1.7,1.7,1.7,1.7l15.5,1.7c1.7,0,3.4,3.4,1.7,5.2l-10.3,10.3c-1.7,1.7-1.7,1.7-1.7,3.4
		l1.7,13.8c0,1.7-1.7,3.4-3.4,3.4l-12.1-6.9h-3.4l-12.1,5.2c-1.7,1.7-5.2-1.7-3.4-3.4l1.7-13.8c0-1.7,0-1.7-1.7-3.4l-6.9-8.6
		c-1.7-1.7-1.7-5.2,1.7-5.2l13.8-1.7c1.7,0,1.7-1.7,1.7-1.7l5.2-12.1C139.7,112.9,143.1,112.9,143.1,114.7L143.1,114.7z"/>
	<path d="M63.8,168.1H19c-3.4,0-5.2-3.4-5.2-5.2V19.8c0-3.4,3.4-5.2,5.2-5.2h124.1c3.4,0,5.2,3.4,5.2,5.2v44.8h13.8V19.8
		c0-10.3-8.6-19-19-19H19c-10.3,0-19,8.6-19,19v143.1c0,10.3,8.6,19,19,19h44.8V168.1z"/>
</g>
</svg>
