<?xml version="1.0" encoding="utf-8"?>
<!-- Generator: Adobe Illustrator 22.0.1, SVG Export Plug-In . SVG Version: 6.00 Build 0)  -->
<svg version="1.1" id="图层_1" xmlns="http://www.w3.org/2000/svg" xmlns:xlink="http://www.w3.org/1999/xlink" x="0px" y="0px"
	 viewBox="0 0 200 200" style="enable-background:new 0 0 200 200;" xml:space="preserve">
<g>
	<path d="M190.9,121.1H155v-14.4c0-7.8-9.1-11.8-15-7.2l-39.8,32.7c-4.6,3.9-4.6,10.5,0,13.7l39.8,32.7c5.9,4.6,15,0.7,15-7.2v-15.7
		h35.9c4.6,0,8.5-3.9,8.5-8.5v-17.6C199.4,125,195.5,121.1,190.9,121.1L190.9,121.1z"/>
	<g>
		<g>
			<path d="M13.8,128.9c-8,0-13.3,5.3-13.3,13.3c0,8,5.3,13.3,13.3,13.3S27,150.2,27,142.2C27,134.2,21.7,128.9,13.8,128.9z
				 M53.6,89.2c0,8,5.3,13.3,13.3,13.3h44.4l26.5-26.5H66.8C58.9,75.9,53.6,81.2,53.6,89.2z M172.9,22.9H66.8
				c-8,0-13.3,5.3-13.3,13.3s5.3,13.3,13.3,13.3h106.1c8,0,13.3-5.3,13.3-13.3S180.9,22.9,172.9,22.9z M84.4,129.2l0.3-0.3H66.8
				c-8,0-13.3,5.3-13.3,13.3c0,8,5.3,13.3,13.3,13.3h26.3l-8.8-8.8C79.6,141.9,79.6,134.1,84.4,129.2z M13.8,22.9
				c-8,0-13.3,5.3-13.3,13.3s5.3,13.3,13.3,13.3S27,44.1,27,36.1S21.7,22.9,13.8,22.9z M13.8,75.9c-8,0-13.3,5.3-13.3,13.3
				c0,8,5.3,13.3,13.3,13.3S27,97.1,27,89.2C27,81.2,21.7,75.9,13.8,75.9z"/>
		</g>
	</g>
</g>
</svg>
