<?xml version="1.0" encoding="utf-8"?>
<!-- Generator: Adobe Illustrator 22.0.1, SVG Export Plug-In . SVG Version: 6.00 Build 0)  -->
<svg version="1.1" id="图层_1" xmlns="http://www.w3.org/2000/svg" xmlns:xlink="http://www.w3.org/1999/xlink" x="0px" y="0px"
	 viewBox="0 0 200 200" style="enable-background:new 0 0 200 200;" xml:space="preserve">
<g>
	<g>
		<path d="M13.6,127.4c-8,0-13.3,5.3-13.3,13.3S5.7,154,13.6,154c8,0,13.3-5.3,13.3-13.3S21.6,127.4,13.6,127.4z M53.6,87.5
			c0,8,5.3,13.3,13.3,13.3h57.6l26.6-26.6H66.9C58.9,74.2,53.6,79.5,53.6,87.5z M173.4,21H66.9c-8,0-13.3,5.3-13.3,13.3
			s5.3,13.3,13.3,13.3h106.5c8,0,13.3-5.3,13.3-13.3S181.3,21,173.4,21z M53.6,140.7c0,8,5.3,13.3,13.3,13.3h18.8v-26.6H66.9
			C58.9,127.4,53.6,132.8,53.6,140.7z M13.6,74.2c-8,0-13.3,5.3-13.3,13.3s5.3,13.3,13.3,13.3c8,0,13.3-5.3,13.3-13.3
			S21.6,74.2,13.6,74.2z M13.6,21c-8,0-13.3,5.3-13.3,13.3s5.3,13.3,13.3,13.3c8,0,13.3-5.3,13.3-13.3S21.6,21,13.6,21z"/>
	</g>
</g>
<path d="M105.3,124.1c-4.6,0-8.5,3.9-8.5,8.5v17.6c0,4.6,3.9,8.5,8.5,8.5h35.9v15.7c0,7.9,9.1,11.8,15,7.2l39.8-32.7
	c4.6-3.2,4.6-9.8,0-13.7l-39.8-32.7c-5.9-4.6-15-0.6-15,7.2v14.4H105.3L105.3,124.1z"/>
</svg>
