<?xml version="1.0" encoding="utf-8"?>
<!-- Generator: Adobe Illustrator 22.0.1, SVG Export Plug-In . SVG Version: 6.00 Build 0)  -->
<svg version="1.1" id="图层_1" xmlns="http://www.w3.org/2000/svg" xmlns:xlink="http://www.w3.org/1999/xlink" x="0px" y="0px"
	 viewBox="0 0 200 200" style="enable-background:new 0 0 200 200;" xml:space="preserve">
<g>
	<path d="M143.7,25.1h46c5.7,0,10.3,4.2,10.3,9.5v0c0,5.2-4.6,9.5-10.3,9.5h-46c-5.7,0-10.3-4.2-10.3-9.5v0
		C133.4,29.4,138,25.1,143.7,25.1z"/>
	<path d="M143.9,62.4h19.7c5.8,0,10.5,4.3,10.5,9.6v0c0,5.3-4.7,9.6-10.5,9.6h-19.7c-5.8,0-10.5-4.3-10.5-9.6v0
		C133.4,66.7,138.1,62.4,143.9,62.4z"/>
	<path d="M143.9,99.9h37.4c5.8,0,10.5,4.3,10.5,9.6v0c0,5.3-4.7,9.6-10.5,9.6h-37.4c-5.8,0-10.5-4.3-10.5-9.6v0
		C133.4,104.2,138.1,99.9,143.9,99.9z"/>
	<path d="M46.5,112.5c-0.6,1.8-0.9,3.7-0.9,5.7v18.2c0,10.1,8.2,18.3,18.3,18.3l0,0h18.3c10.1,0,18.3-8.2,18.3-18.3v-18.2
		c0-2-0.3-3.9-0.9-5.7c27.2,7.3,46.5,25.5,46.5,46.8V173c0,10.1-8.2,18.3-18.3,18.3H18.3C8.2,191.3,0,183.1,0,173v-13.7
		C0,138,19.3,119.8,46.5,112.5L46.5,112.5z"/>
	<path d="M73,118.2c5,0,9.1,4.1,9.1,9.1v9.1c0,5-4.1,9.1-9.1,9.1s-9.1-4.1-9.1-9.1c0,0,0,0,0,0v-9.1C63.9,122.3,68,118.2,73,118.2z"
		/>
	<path d="M73,109.1c-25.2,0-45.6-22.5-45.6-50.2C27.4,31.2,47.8,8.7,73,8.7s45.6,22.5,45.6,50.2C118.7,86.6,98.2,109.1,73,109.1z"/>
</g>
</svg>
