<?xml version="1.0" encoding="utf-8"?>
<!-- Generator: Adobe Illustrator 22.0.1, SVG Export Plug-In . SVG Version: 6.00 Build 0)  -->
<svg version="1.1" id="图层_1" xmlns="http://www.w3.org/2000/svg" xmlns:xlink="http://www.w3.org/1999/xlink" x="0px" y="0px"
	 viewBox="0 0 200.2 200" style="enable-background:new 0 0 200.2 200;" xml:space="preserve">
<g>
	<path d="M7.3,129.3h43c4,0,7.2-5.1,7.2-11.5s-3.2-11.5-7.2-11.5h-43c-4,0-7.2,5.1-7.2,11.5S3.3,129.3,7.3,129.3z"/>
	<path d="M7.3,43.3h129c4,0,7.2-5.1,7.2-11.5s-3.2-11.5-7.2-11.5H7.3c-4,0-7.2,5.1-7.2,11.5S3.3,43.3,7.3,43.3z"/>
	<path d="M64.6,63.4H7.3c-4,0-7.2,5.1-7.2,11.5c0,6.3,3.2,11.5,7.2,11.5h57.3c4,0,7.2-5.1,7.2-11.5C71.8,68.5,68.5,63.4,64.6,63.4z"
		/>
	<path d="M64.6,149.4H7.3c-4,0-7.2,5.1-7.2,11.5s3.2,11.5,7.2,11.5h57.3c4,0,7.2-5.1,7.2-11.5S68.5,149.4,64.6,149.4z"/>
	<g>
		<path d="M141.6,62.7c-32.2,0-58.5,26.3-58.5,58.5s26.3,58.5,58.5,58.5s58.5-26.3,58.5-58.5S173.8,62.7,141.6,62.7z M141.6,167.9
			c-25.7,0-46.8-21-46.8-46.8s21-46.8,46.8-46.8s46.8,21,46.8,46.8S167.4,167.9,141.6,167.9z"/>
		<path d="M129.1,96L129.1,96c3.5,0,6.3,2.8,6.3,6.3V140c0,3.5-2.8,6.3-6.3,6.3l0,0c-3.5,0-6.3-2.8-6.3-6.3v-37.7
			C122.8,98.9,125.6,96,129.1,96z"/>
		<path d="M154.2,96L154.2,96c3.5,0,6.3,2.8,6.3,6.3V140c0,3.5-2.8,6.3-6.3,6.3h0c-3.5,0-6.3-2.8-6.3-6.3v-37.7
			C147.9,98.9,150.7,96,154.2,96z"/>
	</g>
</g>
</svg>
