<svg id="图层_1" data-name="图层 1" xmlns="http://www.w3.org/2000/svg" viewBox="0 0 173.01 193.24"><title>logo</title><path d="M100,69.51A28.1,28.1,0,1,0,128.1,97.6,28.09,28.09,0,0,0,100,69.51ZM175.94,44,110.56,6.21a21.13,21.13,0,0,0-21.12,0L24.06,44A21.1,21.1,0,0,0,13.5,62.25v75.5A21.1,21.1,0,0,0,24.06,156l65.38,37.75a21.13,21.13,0,0,0,21.12,0L175.94,156a21.1,21.1,0,0,0,10.56-18.29V62.25A21.1,21.1,0,0,0,175.94,44Zm-59.77,99.5-13.11,18.93a3.72,3.72,0,0,1-6.12,0L83.83,143.46a48.63,48.63,0,1,1,32.34,0Z" transform="translate(-13.5 -3.38)"/></svg>