<svg id="图层_1" data-name="图层 1" xmlns="http://www.w3.org/2000/svg" viewBox="0 0 200 170.83"><title>main-r2</title><path d="M197,122.32c-2-2-5-2-6.19-2-6.85,0-11.49-1.44-14.7-4.64-3.53-3.54-5.52-9.17-5.52-15.58,0-6.08,1.88-11,5.52-14.81l.22-.22c3.1-3.53,7.85-5.3,14.48-5.3a8.46,8.46,0,0,0,3-.66c.22-.11.44-.11.67-.23h1.43l1.22-1.21c2-2,2-4.31,2-6.3V37.13c0-16.47-6.08-22.54-22.54-22.54H22.43c-8.18,0-13.48,1.54-17,5.08C1.66,23.32,0,28.73,0,37.24V71.49a10.16,10.16,0,0,0,2.87,6.3c2,2,4.31,2,6.19,2,7.18,0,12.16,1.33,15.69,4C28,87.07,29.28,91.93,29.28,100c0,13.59-6.63,20.33-20.22,20.33a8.08,8.08,0,0,0-8.29,8.29v34.25c0,16.47,6.08,22.54,22.54,22.54H177.46c16.35,0,22.54-6.07,22.54-22.54V128.62a10.92,10.92,0,0,0-3-6.3Zm-53,14.92H58.23a6.52,6.52,0,1,1,0-13H144a6.52,6.52,0,1,1,0,13Zm0-61.44H58.23a6.52,6.52,0,0,1,0-13H144a6.54,6.54,0,0,1,6.52,6.52A6.46,6.46,0,0,1,144,75.8Zm0,0" transform="translate(0 -14.59)"/></svg>