<?xml version="1.0" encoding="utf-8"?>
<!-- Generator: Adobe Illustrator 22.0.1, SVG Export Plug-In . SVG Version: 6.00 Build 0)  -->
<svg version="1.1" id="图层_1" xmlns="http://www.w3.org/2000/svg" xmlns:xlink="http://www.w3.org/1999/xlink" x="0px" y="0px"
	 viewBox="0 0 200 200" style="enable-background:new 0 0 200 200;" xml:space="preserve">
<path d="M121.8,85.7H78.2c-1.4,0-2.5,1.1-2.5,2.5v109.3c0,1.4,1.1,2.5,2.5,2.5h43.5c1.4,0,2.5-1.1,2.5-2.5V88.2
	C124.3,86.8,123.2,85.7,121.8,85.7z"/>
<path d="M108.3,91.5h-33c-4,0-7.3-3.3-7.3-7.3l-35-77c0-4,3.3-7.3,7.3-7.3h33c4,0,7.3,3.3,7.3,7.3l35,77
	C115.5,88.3,112.3,91.5,108.3,91.5z"/>
<path d="M91.7,91.5h33c4,0,7.3-3.3,7.3-7.3l35-77c0-4-3.3-7.3-7.3-7.3l-33,0c-4,0-7.3,3.3-7.3,7.3l-35,77
	C84.5,88.3,87.7,91.5,91.7,91.5z"/>
<rect x="29.1" y="83" width="141.7" height="15"/>
<rect x="35.4" y="137.1" width="129.1" height="17.8"/>
</svg>
