<?xml version="1.0" encoding="utf-8"?>
<!-- Generator: Adobe Illustrator 22.0.1, SVG Export Plug-In . SVG Version: 6.00 Build 0)  -->
<svg version="1.1" id="图层_1" xmlns="http://www.w3.org/2000/svg" xmlns:xlink="http://www.w3.org/1999/xlink" x="0px" y="0px"
	 viewBox="0 0 200 200" style="enable-background:new 0 0 200 200;" xml:space="preserve">
<g>
	<g>
		<path d="M27,73C12.1,73,0,85.1,0,100c0,14.9,12.1,27,27,27s27-12.1,27-27C54,85.1,41.9,73,27,73z M100,73c-14.9,0-27,12.1-27,27
			c0,14.9,12.1,27,27,27s27-12.1,27-27C127,85.1,114.9,73,100,73z M173,73c-14.9,0-27,12.1-27,27c0,14.9,12.1,27,27,27
			s27-12.1,27-27C200,85.1,187.9,73,173,73z"/>
	</g>
</g>
</svg>
