<svg id="图层_1" data-name="图层 1" xmlns="http://www.w3.org/2000/svg" viewBox="0 0 177.91 200"><title>结算管理</title><path d="M123.59,93.46a8.13,8.13,0,1,1,0,16.26H107.46v17.92a8.14,8.14,0,0,1-16.27,0V109.72H74.92a8.13,8.13,0,1,1,0-16.26H91.19V85.83H74.92a8.13,8.13,0,0,1,0-16.14H86.61L73.91,57A8.18,8.18,0,1,1,85.47,45.42L99.32,59.27,113.43,45A8.13,8.13,0,1,1,124.86,56.6l-12.7,12.71H124a8.13,8.13,0,1,1,0,16.14H107.46v7.63ZM162.86.56H35.78A25.42,25.42,0,0,0,10.37,26V189.65A6,6,0,0,0,20.53,194L40,175.29a6,6,0,0,1,8.38,0l11.06,22.88a8.51,8.51,0,0,0,11.82,0L95,175.29a6,6,0,0,1,8.39,0L127,198.17a8.66,8.66,0,0,0,12,0l11.31-22.88a6,6,0,0,1,8.39,0L178,194a6.09,6.09,0,0,0,10.29-4.32V26A25.42,25.42,0,0,0,162.86.56Zm0,0" transform="translate(-10.37 -0.56)"/></svg>