<?xml version="1.0" encoding="utf-8"?>
<!-- Generator: Adobe Illustrator 22.0.1, SVG Export Plug-In . SVG Version: 6.00 Build 0)  -->
<svg version="1.1" id="图层_1" xmlns="http://www.w3.org/2000/svg" xmlns:xlink="http://www.w3.org/1999/xlink" x="0px" y="0px"
	 viewBox="0 0 200 200" style="enable-background:new 0 0 200 200;" xml:space="preserve">
<style type="text/css">
	.st0{fill:#E95C57;}
	.st1{fill:#FFFFFF;}
</style>
<g>
	<path class="st0" d="M184.1,42.8v144.6c0,7-5.6,12.6-12.6,12.6H28c-7,0-12.6-5.6-12.6-12.6V13.7c0-7,5.6-12.6,12.6-12.6h113.8"/>
	<path class="st0" d="M184.6,42.8h-30.2c-7,0-12.6-5.6-12.6-12.6V0"/>
	<path class="st1" d="M184.6,45.3h-30.2c-8.3,0-15.1-6.8-15.1-15.1V0h5v30.2c0,5.6,4.5,10.1,10.1,10.1h30.2V45.3z M184.6,45.3"/>
	<path class="st1" d="M172.7,131.8V179c0,6-4.9,10.9-10.9,10.9H38.1c-6,0-10.9-4.9-10.9-10.9v-47.2H172.7z"/>
	<path class="st1" d="M172.7,131.8"/>
	<path class="st1" d="M142.8,80.5c-2-2.3-6-3.5-12.3-3.5c-3.7,0-8.1,0.4-13.2,1.2C103.4,68,99.5,56.8,99.5,56.8s2.4-6.1,2.5-15.9
		c0.1-6.2-0.9-10.4-3.4-12.9c-1-1-2.6-1.6-4.1-1.6c-1.2,0-2.3,0.4-3.3,1c-7.2,5.2,0.7,30.2,0.9,30.8c-3.4,8.4-7.7,17.3-12.1,25.1
		c-1.4,2.5-1.3,2.3-2.5,4.4c0,0-12.2,5.8-18.2,12.8c-3.4,4-3.8,6.7-3.6,8.7v0c0.3,2.4,3.4,4.7,6.5,4.7h0.4c3.1-0.2,6.7-2.4,10.6-6.9
		c2.6-2.9,6-8.1,10.2-15.3c11.8-3.4,22.1-5.7,30.8-7.1c6.4,3.4,15.8,7.3,22.3,7.3c2.2,0,3.9-0.5,5.2-1.3c1.5-1,2.2-2.3,2.6-4.8
		C144.5,83.6,144,81.8,142.8,80.5L142.8,80.5z M129.1,83.4c5.7,0,8.7,0.8,10.2,1.5l1.1,0.6c-0.5,0.3-1.3,0.6-2.9,0.6
		c-2.6,0-6-0.9-10.2-2.7C127.9,83.4,128.5,83.4,129.1,83.4L129.1,83.4z M95.6,31.4c1.2,0.6,1.8,5.1,1.7,7.7c-0.1,3.5-0.2,4.8-0.8,7
		C94.8,41.6,94.7,33.6,95.6,31.4L95.6,31.4z M96,66.8c2.8,4.7,7.1,9.7,11.1,13.2c-8,1.7-15.6,3.8-20.3,5.5
		C91.9,76.8,95.7,67.7,96,66.8L96,66.8z M63.3,106.8c0.7-1.2,2.6-3.4,7.4-7.7c-3.3,4.9-5.7,7.6-8.1,9.3
		C62.7,107.9,63,107.3,63.3,106.8L63.3,106.8z M63.3,106.8"/>
	<path class="st0" d="M50.9,181.2v-40.8h13.4c1.6,0,3.1,0.1,4.3,0.1c1.3,0.1,2.4,0.3,3.4,0.5c1,0.3,1.9,0.6,2.7,1
		c0.8,0.4,1.5,0.8,2.2,1.5c1.5,1.3,2.7,2.9,3.6,4.7c0.8,1.9,1.3,3.9,1.3,6.2c0,2.1-0.4,4.1-1.2,5.9c-0.8,1.9-1.8,3.4-3.1,4.7
		c-1.4,1.3-3,2.2-4.8,2.7c-1.8,0.6-4.2,0.8-7.1,0.8h-4.5v12.8H50.9z M60.9,159.3h4.2c4.3,0,6.5-1.6,6.5-4.8c0-1.7-0.6-2.9-1.6-3.7
		c-1-0.8-2.9-1.1-5.3-1.1h-3.8V159.3z M86.3,181.2v-40.8H100c1.5,0,2.9,0.1,4.1,0.1c1.2,0.1,2.3,0.3,3.3,0.5c1,0.2,2,0.6,2.8,0.9
		c0.9,0.4,1.7,0.8,2.6,1.4c1.9,1.2,3.6,2.7,5,4.7c2.5,3.5,3.7,7.7,3.7,12.6c0,3.1-0.5,5.9-1.4,8.5c-0.9,2.5-2.2,4.7-3.9,6.5
		c-1.7,1.8-3.7,3.2-6.1,4.2c-2.4,1-5,1.5-7.9,1.5H86.3z M96.7,172.1h4.5c3.3,0,5.7-1,7.4-2.9c1.7-1.9,2.5-4.6,2.5-8.2
		c0-3.7-0.8-6.5-2.6-8.5c-1.7-2-4.2-2.9-7.3-2.9h-4.5L96.7,172.1L96.7,172.1z M126.8,181.2v-40.8h22.3v9.2h-12.3v6.9h11.9v9.2h-11.9
		v15.5L126.8,181.2L126.8,181.2z M126.8,181.2"/>
</g>
</svg>
