<?xml version="1.0" encoding="utf-8"?>
<!-- Generator: Adobe Illustrator 22.0.1, SVG Export Plug-In . SVG Version: 6.00 Build 0)  -->
<svg version="1.1" id="图层_1" xmlns="http://www.w3.org/2000/svg" xmlns:xlink="http://www.w3.org/1999/xlink" x="0px" y="0px"
	 viewBox="0 0 200 200" style="enable-background:new 0 0 200 200;" xml:space="preserve">
<style type="text/css">
	.st0{fill:#FFFFFF;}
	.st1{fill:#E0653E;}
	.st2{font-family:'Arial-Black';}
	.st3{font-size:58.4769px;}
</style>
<g>
	<path class="st0" d="M172.6,131.7"/>
	<g>
		<g>
			<path class="st1" d="M184.1,42.8v144.5c0,7-5.6,12.6-12.6,12.6H28c-7,0-12.6-5.6-12.6-12.6V13.7c0-7,5.6-12.6,12.6-12.6h113.7"/>
			<path class="st1" d="M184.5,42.8h-30.2c-7,0-12.6-5.6-12.6-12.6V0"/>
		</g>
		<path class="st0" d="M184.5,45.3h-30.2c-8.3,0-15.1-6.8-15.1-15.1V0h5v30.2c0,5.5,4.5,10.1,10.1,10.1h30.2V45.3z M184.5,45.3"/>
		<path class="st0" d="M172.6,131.7v47.2c0,6-4.9,10.9-10.9,10.9H38.1c-6,0-10.9-4.9-10.9-10.9v-47.2H172.6z"/>
		<g>
			<path class="st0" d="M96.3,34.6c-22.4,0-39.9,17.6-39.9,39.9s17.6,39.9,39.9,39.9c22.4,0,39.9-17.6,39.9-39.9H96.3V34.6z"/>
			<path class="st0" d="M104.3,26.7v39.9h39.9C144.2,44.2,126.7,26.7,104.3,26.7L104.3,26.7z"/>
		</g>
		<text transform="matrix(1 0 0 1 38.9767 182.0684)" class="st1 st2 st3">PPT</text>
	</g>
</g>
</svg>
