<?xml version="1.0" encoding="utf-8"?>
<!-- Generator: Adobe Illustrator 22.0.1, SVG Export Plug-In . SVG Version: 6.00 Build 0)  -->
<svg version="1.1" id="图层_1" xmlns="http://www.w3.org/2000/svg" xmlns:xlink="http://www.w3.org/1999/xlink" x="0px" y="0px"
	 viewBox="0 0 200 200" style="enable-background:new 0 0 200 200;" xml:space="preserve">
<g>
	<g>
		<path d="M100,0C44.8,0,0,44.8,0,100s44.8,100,100,100s100-44.8,100-100S155.2,0,100,0z M100.6,151.9c-21,0-39.5-13.7-45.6-33.8
			l-7.5,13l-7.5-4.3l13-22.5h21.6v8.6h-12c4.1,17.8,19.8,30.3,38,30.3c21.5,0,38.9-17.4,38.9-38.9h8.6
			C148.1,130.6,126.8,151.9,100.6,151.9z M148.2,95.7h-21.6V87h12c-4-17.8-19.8-30.3-38-30.3c-21.5,0-38.9,17.4-39,39H53
			c0.1-20.7,13.4-39,33-45.3c25-8.1,51.8,5.7,59.9,30.7l6.6-11.4l7.5,4.3L148.2,95.7z"/>
	</g>
</g>
</svg>
