<?xml version="1.0" encoding="utf-8"?>
<!-- Generator: Adobe Illustrator 22.0.1, SVG Export Plug-In . SVG Version: 6.00 Build 0)  -->
<svg version="1.1" id="图层_1" xmlns="http://www.w3.org/2000/svg" xmlns:xlink="http://www.w3.org/1999/xlink" x="0px" y="0px"
	 viewBox="0 0 200 200" style="enable-background:new 0 0 200 200;" xml:space="preserve">
<g>
	<path d="M124.3,114.8L46.1,36.5c-8.2-8.2-8.2-21.4,0-29.6l0,0c8.2-8.2,21.4-8.2,29.6,0l78.3,78.3c8.2,8.2,8.2,21.4,0,29.6l0,0
		C145.7,122.9,132.5,122.9,124.3,114.8z"/>
	<path d="M75.7,193l78.3-78.3c8.2-8.2,8.2-21.4,0-29.6l0,0c-8.2-8.2-21.4-8.2-29.6,0l-78.3,78.3c-8.2,8.2-8.2,21.4,0,29.6l0,0
		C54.3,201.2,67.5,201.2,75.7,193z"/>
</g>
</svg>
