<?xml version="1.0" encoding="utf-8"?>
<!-- Generator: Adobe Illustrator 22.0.1, SVG Export Plug-In . SVG Version: 6.00 Build 0)  -->
<svg version="1.1" id="图层_1" xmlns="http://www.w3.org/2000/svg" xmlns:xlink="http://www.w3.org/1999/xlink" x="0px" y="0px"
	 viewBox="0 0 200 200" style="enable-background:new 0 0 200 200;" xml:space="preserve">
<style type="text/css">
	.st0{fill:none;}
</style>
<title>设备采购</title>
<rect x="332.1" y="82.9" class="st0" width="200" height="170.4"/>
<g>
	<g>
		<path d="M100,97.2c-3,0-5.4,2.4-5.4,5.4c0,0,0,0,0,0v28.8c0,3,2.4,5.4,5.4,5.4s5.4-2.4,5.4-5.4c0,0,0,0,0,0v-28.8
			C105.3,99.6,102.9,97.2,100,97.2z M78.5,97.2c-3,0-5.4,2.4-5.4,5.4c0,0,0,0,0,0v28.8c0,3,2.4,5.4,5.4,5.4s5.4-2.4,5.4-5.4
			c0,0,0,0,0,0v-28.8C83.9,99.6,81.5,97.2,78.5,97.2z M121.4,97.2c-3,0-5.4,2.4-5.4,5.4c0,0,0,0,0,0v28.8c0,3,2.4,5.4,5.4,5.4
			c3,0,5.4-2.4,5.4-5.4c0,0,0,0,0,0v-28.8C126.8,99.6,124.4,97.2,121.4,97.2z M100,0C44.8,0,0,44.8,0,100c0,55.2,44.8,100,100,100
			c55.2,0,100-44.8,100-100C200,44.8,155.2,0,100,0z M108.2,51.2c2.6-1.4,5.9-0.4,7.3,2.2L130,81h-12.1L106,58.4
			C104.6,55.8,105.6,52.6,108.2,51.2z M84.5,53.3c1.3-2.7,4.5-3.8,7.1-2.5c1.9,0.9,3,2.8,3,4.9c0,0.9-0.2,1.8-0.7,2.6l0,0.1L82.1,81
			H69.9L84.5,53.3z M157.1,91.3c0,0.1,0,0.3,0,0.4c0,0,0,0,0,0c0,3-2.4,5.4-5.4,5.4c0,0,0,0,0,0H147l-11.5,46.3
			c-0.6,2.4-2.7,4.1-5.1,4.2H69.6c-2.5,0-4.6-1.7-5.2-4.1L52.9,97.2h-4.8c-3-0.1-5.3-2.6-5.2-5.6c0.1-2.8,2.4-5.1,5.2-5.2h104.1
			c2.5,0.2,4.4,2.1,4.8,4.5l0,0.2C157.1,91.2,157.1,91.3,157.1,91.3z"/>
	</g>
</g>
</svg>
