<?xml version="1.0" encoding="utf-8"?>
<!-- Generator: Adobe Illustrator 22.0.1, SVG Export Plug-In . SVG Version: 6.00 Build 0)  -->
<svg version="1.1" id="图层_1" xmlns="http://www.w3.org/2000/svg" xmlns:xlink="http://www.w3.org/1999/xlink" x="0px" y="0px"
	 viewBox="0 0 200 200" style="enable-background:new 0 0 200 200;" xml:space="preserve">
<style type="text/css">
	.st0{fill:none;}
</style>
<path d="M186.1,84.4c-7.9-1-15.3,3.9-17.4,11.5c-2.1,7.6,1.8,15.6,9.2,18.6c-2.9,15.4-10.4,29.7-21.9,41c-14.8,14.8-35,23.1-56,23
	c-29,0-55.6-15.7-69.6-40.9c-0.8-1.5-2.4-2.4-4.1-2.5c-1.7,0-3.3,0.8-4.2,2.3c-0.9,1.5-0.9,3.3-0.1,4.8c15.6,28.3,45.5,45.8,78,45.8
	c23.6,0,46.2-9.3,62.9-25.8c8.1-8,14.6-17.5,19-28c2.6-6.1,4.5-12.4,5.6-18.9c7.3-1.6,12.4-8,12.4-15.4
	C199.9,92.1,194,85.4,186.1,84.4L186.1,84.4z M31.8,100c0-6.5-4-12.1-9.7-14.5c2.9-15.4,10.4-29.7,21.9-41c14.8-14.8,35-23.1,56-23
	c29,0,55.6,15.7,69.5,40.9c0.8,1.5,2.4,2.4,4.1,2.5c1.7,0,3.3-0.8,4.2-2.3c0.9-1.5,0.9-3.3,0.1-4.8c-15.6-28.3-45.5-45.8-78-45.8
	c-11.9,0-23.6,2.3-34.6,6.9c-10.5,4.4-20.1,10.8-28.3,18.9C24.2,50.4,15.6,66.8,12.4,84.6c-8.1,1.8-13.5,9.5-12.2,17.7
	c1.2,8.2,8.6,14,16.9,13.4C25.3,115.1,31.8,108.2,31.8,100L31.8,100z M134.6,70.5l-41.8,42.2L65.2,84.8c-1.5-1.5-3.5-2.3-5.5-2.3
	c-2.1,0-4.1,0.8-5.5,2.3c-3.1,3.1-3.1,8.1,0,11.1l33.2,33.5c1.5,1.5,3.5,2.3,5.5,2.3c2.1,0,4.1-0.8,5.5-2.3l47.3-47.8
	c3.1-3.1,3.1-8.1,0-11.2c-1.5-1.5-3.5-2.3-5.5-2.3C138.1,68.2,136.1,69,134.6,70.5L134.6,70.5z M134.6,70.5"/>
<rect y="11.7" class="st0" width="200" height="176.6"/>
</svg>
