<?xml version="1.0" encoding="utf-8"?>
<!-- Generator: Adobe Illustrator 22.0.1, SVG Export Plug-In . SVG Version: 6.00 Build 0)  -->
<svg version="1.1" id="图层_1" xmlns="http://www.w3.org/2000/svg" xmlns:xlink="http://www.w3.org/1999/xlink" x="0px" y="0px"
	 viewBox="0 0 200 200" style="enable-background:new 0 0 200 200;" xml:space="preserve">
<style type="text/css">
	.st0{fill:none;}
</style>
<path d="M170.5,31.3h-41.2V17.6c0-10-7.5-17.5-17.5-17.5H88.1c-10,0-17.5,7.5-17.5,17.5v13.7H28.2c-10,0-17.5,7.5-17.5,17.5v22.4
	c0,3.7,2.5,6.2,6.2,6.2h7.5v93.6c0,16.2,12.5,28.7,28.7,28.7h92.4c17.5,0,32.4-12.5,32.4-29.9V77.5h6.2c3.7,0,5-3.7,5-5V48.8
	C189.2,38.8,181.7,31.3,170.5,31.3L170.5,31.3z M81.9,17.6c0-3.7,2.5-6.2,6.2-6.2h22.4c3.7,0,6.2,2.5,6.2,6.2v13.7H81.9V17.6z
	 M23.2,48.8c0-3.7,2.5-6.2,5-6.2h142.3c3.7,0,6.2,2.5,6.2,6.2v17.5H23.2V48.8z M165.5,169.8c0,10-7.5,17.5-17.5,17.5H54.4
	c-10,0-17.5-7.5-17.5-17.5V77.5h128.6V169.8z M165.5,169.8"/>
<rect x="10.8" class="st0" width="178.5" height="200"/>
<path d="M100.1,149.7l-0.8,19.7l-0.1,1.2L76.7,169c-1.3-0.1-2.5-0.7-3.6-1.7c-1.1-1-1.9-2.2-2.5-3.5c-0.4-1-0.6-1.9-0.8-3
	c-0.1-1-0.1-2.2,0.2-3.5c0.3-1.3,0.5-2.3,0.6-3c0.2-0.6,0.6-1.8,1.1-3.4c0.6-1.6,0.9-2.6,1-2.8C75.6,148.6,84.7,149.1,100.1,149.7
	L100.1,149.7z M79.4,118.3l9.6,20.3l-7.9-4.9c-2.3,2.6-4.2,5.2-6,7.7c-1.7,2.6-3,4.8-3.9,6.7c-0.9,1.9-1.6,3.6-2.1,5.1
	c-0.6,1.5-0.9,2.6-1,3.4l-0.2,1.1l-10.2-19.1c-0.6-0.9-0.9-1.9-1-3c0-1.1,0.1-1.9,0.3-2.5l0.4-1c1.3-2.3,3.3-5.6,6.1-10.1l-7.4-4.6
	L79.4,118.3z M145.4,146l-10.1,19.2c-0.4,1-1.1,1.9-2,2.5c-0.9,0.6-1.6,1-2.3,1.1l-1,0.2c-2.5,0.3-6.5,0.5-11.8,0.6l0.4,8.8
	l-12.3-19.7l11.4-19.4l0.4,9.3c6.1,0.6,11.1,0.7,15.2,0.3c4-0.4,7.1-1,9.1-1.8L145.4,146z M103.3,96.4c-1.7,2.3-6.4,10-14.2,23.3
	l-17-10l-1-0.6L83.1,90c0.7-1.1,1.8-1.9,3.2-2.4c1.4-0.5,2.9-0.7,4.3-0.5c0.9,0.1,1.7,0.3,2.6,0.6c0.9,0.4,1.6,0.7,2.3,1.1
	c0.6,0.4,1.4,1,2.2,1.8c0.9,0.8,1.5,1.4,1.9,1.8c0.4,0.4,1.1,1.1,1.9,2.1C102.4,95.5,103,96.1,103.3,96.4L103.3,96.4z M138.4,112.9
	l11.4,19.5c0.6,1.3,0.9,2.7,0.7,4.1c-0.2,1.4-0.7,2.7-1.5,4c-0.5,0.7-1.1,1.4-1.8,2c-0.7,0.6-1.4,1.1-2,1.5
	c-0.6,0.4-1.5,0.8-2.6,1.2c-1.1,0.4-1.9,0.7-2.5,0.9c-0.6,0.2-1.5,0.4-2.8,0.8c-1.3,0.3-2.1,0.5-2.5,0.6c-1.2-2.6-6-10.4-14.2-23.4
	l16.8-10.4L138.4,112.9z M130.7,100.8l7.6-4.5l-11.8,20l-22.4-1.1l8.1-4.6c-1.2-3.2-2.6-6.2-4-8.9c-1.5-2.8-2.8-5-4-6.6
	c-1.2-1.7-2.4-3.1-3.5-4.3c-1.1-1.2-1.9-2-2.5-2.5l-0.9-0.7l21.7,0.1c1.1-0.1,2.1,0.1,3.1,0.6c1,0.5,1.7,1,2.1,1.5l0.6,0.8
	C126.1,92.8,128.1,96.2,130.7,100.8L130.7,100.8z M130.7,100.8"/>
</svg>
