<?xml version="1.0" encoding="utf-8"?>
<!-- Generator: Adobe Illustrator 22.0.1, SVG Export Plug-In . SVG Version: 6.00 Build 0)  -->
<svg version="1.1" id="图层_1" xmlns="http://www.w3.org/2000/svg" xmlns:xlink="http://www.w3.org/1999/xlink" x="0px" y="0px"
	 viewBox="0 0 200 200" style="enable-background:new 0 0 200 200;" xml:space="preserve">
<style type="text/css">
	.st0{fill:none;}
</style>
<path d="M196,32.9c7.5,18.1,3.9,39.7-10.8,54.4c-16.2,16.2-40.7,18.7-59.7,8l-13.8,15l9.8,9.8l5.9-5.9c3-3,7.9-3,10.9,0l47.6,48.1
	c3,3,3,7.9,0,10.9L164.1,195c-3,3-7.9,3-10.9,0l-47.6-48.1c-3-3-3-7.9,0-10.9l5.4-5.3l-9.4-9.4l-65.8,71.9c-6,6-15.7,6-21.7,0
	l-5.4-5.4c-6-6-6-15.7,0-21.7l75-62.8L33.9,53.4l-15.7,0L0,24.1L14.6,9.4l29.9,18.3l0.2,15.4l50.4,50.6l14.7-12.3
	c-14.3-19.5-12.8-47,4.8-64.7c14.6-14.6,36.1-18.3,54.2-10.9l-32.3,31.8l27.1,27.1L196,32.9z M26.7,173.8c-3-3-7.9-3-10.9,0
	c-3,3-3,7.9,0,10.9c3,3,7.9,3,10.9,0C29.7,181.6,29.7,176.8,26.7,173.8L26.7,173.8z M26.7,173.8"/>
<rect y="2" class="st0" width="200" height="196.1"/>
</svg>
