<svg id="图层_1" data-name="图层 1" xmlns="http://www.w3.org/2000/svg" xmlns:xlink="http://www.w3.org/1999/xlink" viewBox="0 0 199.98 154.53"><defs><style>.cls-1{fill:none;}.cls-2{clip-path:url(#clip-path);}</style><clipPath id="clip-path" transform="translate(0.03 -22.65)"><rect class="cls-1" y="22.58" width="200" height="154.83"/></clipPath></defs><title>see1</title><g class="cls-2"><path d="M100.88,147.47A35.13,35.13,0,1,1,136,112.35a35.12,35.12,0,0,1-35.12,35.12Zm0-19.67a15.46,15.46,0,1,0-15.46-15.45,15.45,15.45,0,0,0,15.46,15.45Zm0,0" transform="translate(0.03 -22.65)"/><path d="M101.59,157.51c24.61,0,49.26-14.47,74-44.3C154,83.36,129.48,68.9,101.59,68.9S48.26,83.39,25,113.22C51.41,143,77,157.51,101.59,157.51Zm73.72-75.15A176.36,176.36,0,0,1,196,108.19L200,114.1l-4.36,5.59c-29.62,38-61,57.49-94,57.49s-65.15-19.4-96.73-57.24L0,114.09l4.46-6.19A180.69,180.69,0,0,1,32.32,76.78L15.66,59A7,7,0,1,1,25.9,49.42L43.45,68.1A105.55,105.55,0,0,1,75.21,52.85L66.7,32.76a7,7,0,1,1,12.94-5.48L89.27,50a99.52,99.52,0,0,1,12.32-.77,95.67,95.67,0,0,1,21,2.3l11.26-24.76a7,7,0,0,1,12.79,5.82l-10.5,23.08A105.5,105.5,0,0,1,165,72.84L185.49,52.3a7,7,0,1,1,9.94,9.94L175.31,82.36Zm0,0" transform="translate(0.03 -22.65)"/></g></svg>