<svg id="图层_1" data-name="图层 1" xmlns="http://www.w3.org/2000/svg" xmlns:xlink="http://www.w3.org/1999/xlink" viewBox="0 0 199.88 77"><defs><style>.cls-1{fill:none;}.cls-2{clip-path:url(#clip-path);}</style><clipPath id="clip-path" transform="translate(0.04 -61.48)"><rect class="cls-1" x="-0.04" y="61.34" width="200" height="77.31"/></clipPath></defs><title>see2</title><g class="cls-2"><path d="M199.19,95.42,187.33,78.57a123.7,123.7,0,0,0,10-8.73,5.68,5.68,0,0,0,.62-6.87,4.8,4.8,0,0,0-6.24-.62c-22.46,21.22-46.8,34.32-70.52,39.31a108.57,108.57,0,0,1-58-4.37A144.16,144.16,0,0,1,23.21,75.45C13.22,69.21,7.6,63.6,7.6,63a4.17,4.17,0,0,0-6.24,0,4.91,4.91,0,0,0,0,6.87A115.2,115.2,0,0,0,13.22,81.07L2.61,95.42a5.67,5.67,0,0,0,.63,6.87,4.73,4.73,0,0,0,2.49,1.24,5.39,5.39,0,0,0,3.75-1.87L20.09,87.31a159.68,159.68,0,0,0,31.82,18.1l-6.86,16.22a4.85,4.85,0,0,0,1.87,6.24c.62,0,1.25.63,1.87.63a4.23,4.23,0,0,0,3.75-2.5L60,109.15c11.23,3.75,23.09,6.24,34.32,6.24v18.1c0,2.5,1.87,5,4.37,5s4.37-1.87,4.37-5v-18.1c6.24,0,12.48-1.25,18.09-1.87a113,113,0,0,0,19.35-5.62L148,125.38a3.87,3.87,0,0,0,3.74,2.49,2.29,2.29,0,0,0,1.87-.62c2.5-1.25,3.12-3.75,1.88-6.24l-5.62-18.1a137,137,0,0,0,30-18.1l11.86,16.85c.63,1.25,2.5,1.87,3.75,1.87a3.75,3.75,0,0,0,2.49-.62c1.87-2.5,2.5-5,1.25-7.49Zm0,0" transform="translate(0.04 -61.48)"/></g></svg>