<?xml version="1.0" encoding="utf-8"?>
<!-- Generator: Adobe Illustrator 22.0.1, SVG Export Plug-In . SVG Version: 6.00 Build 0)  -->
<svg version="1.1" id="图层_1" xmlns="http://www.w3.org/2000/svg" xmlns:xlink="http://www.w3.org/1999/xlink" x="0px" y="0px"
	 viewBox="0 0 200.4 200" style="enable-background:new 0 0 200.4 200;" xml:space="preserve">
<g>
	<g>
		<path d="M100.2,0C45,0,0.2,44.8,0.2,100s44.8,100,100,100s100-44.8,100-100S155.4,0,100.2,0z M93.4,154H51.1v-18.8
			c0,0,5.3-13.4,30.3-23.3c1-0.4,5.8-3,3.1-10c-6.9-7-12.1-18.5-12.1-29.7C72.4,55,83.7,46,97,46c13.3,0,24.7,9,24.7,26.2
			c0,11.2-5.2,22.6-12.1,29.6h0c-4,6.9,1.6,9.9,2.2,10.1c1.1,0.3,2.1,0.7,3.2,1.1l-14.6,14.6L93.4,154z M123,148
			c-0.3,0.3-0.6,0.6-1,0.7l-21,5.3l5.8-20.5c0.1-0.4,0.4-0.8,0.8-1.1l24.8-24.5l5.4,5.4l0,0l4.1,4.1l0,0l6,6L123,148z M150.1,120.9
			l-15.6-15.5l3.6-3.3l15.6,15.6L150.1,120.9z M157.8,112.6l-2.3,2.3L140.6,100l2.3-2.3c2-2,5.4-2,7.4,0l7.5,7.5
			C159.8,107.2,159.8,110.5,157.8,112.6z M110.6,136.1c-0.4,1.8-2.9,11.6-2.9,11.6l11.7-2.8C119.4,144.9,115.8,138.3,110.6,136.1z"
			/>
	</g>
</g>
</svg>
