<?xml version="1.0" encoding="utf-8"?>
<!-- Generator: Adobe Illustrator 22.0.1, SVG Export Plug-In . SVG Version: 6.00 Build 0)  -->
<svg version="1.1" id="图层_1" xmlns="http://www.w3.org/2000/svg" xmlns:xlink="http://www.w3.org/1999/xlink" x="0px" y="0px"
	 viewBox="0 0 200 200" style="enable-background:new 0 0 200 200;" xml:space="preserve">
<g>
	<path d="M181.2,138.9c-1.6,0-3.1,0.4-4.5,1.2c-1-3.9-4.6-6.7-8.8-6.7c-1.8,0-3.5,0.6-4.9,1.5c-1.4-3.2-4.6-5.4-8.3-5.4
		c-1.5,0-2.9,0.4-4.2,1v-18.8c0-5-4.1-9.1-9.1-9.1c-5,0-9.2,4.1-9.2,9.1v33.2c-1-1.2-2.1-2.2-3.3-2.9c-3.6-2.1-7.1-1.7-8.8-1.5
		c-0.2,0-0.5,0.1-0.6,0.1h-0.1l-3,0.4c-0.7,0.1-1.3,0.5-1.7,1.1c-0.4,0.6-0.5,1.3-0.3,2c2.6,9.9,6.9,26.1,7.1,27.4
		c1.4,8,5.5,15.2,11.7,20.4c6.3,5.3,14.2,8.2,22.4,8.2c19.1,0,34.7-15.5,34.7-34.7v-17.4C190.4,143,186.3,138.9,181.2,138.9
		L181.2,138.9z M181.2,138.9"/>
	<path d="M145.5,16.5h-38.8c-0.4,0-0.7,0-1.1,0.1l-1.2,0c-1.7-4.8-4.7-8.8-8.7-11.9C91.7,1.5,87,0,81.7,0c-5.3,0-10,1.6-14,4.7
		c-4.1,3-6.9,7-8.7,11.9h-0.4c-0.3,0-0.7-0.1-1.1-0.1H18.7c-5,0-9,4.1-9,9.1v2.6c0,0.1,0,0.1-0.1,0.2v143.3c0,0.5,0,1.1,0.1,1.6
		v11.4c0,5,4,9.1,9,9.1h38.8c0.1,0,0.2,0,0.3,0h47.5c2.3,0,12.1,0.6,11-5.5l-7-24c-0.8-4.3-1.7-8.7-2.7-13c0-0.4,0-0.7-0.2-0.9
		c-1-4.3-2.1-8.9-3.2-13.2c-0.2-0.9-0.1-1.8,0.4-2.5c0.5-0.7,1.3-1.3,2.2-1.4l3.8-0.5h0.2c0.1,0,0.4,0,0.7-0.1
		c2.1-0.3,6.7-1.8,11.6,0l0.5,0.1c0,0,0.2,0.1,0.7,0.2v-31.5c0-6.3,8.4-11.5,17.9-11.5c4,0,9.7,2.1,13.3,5.3V25.5
		C154.5,20.5,150.5,16.5,145.5,16.5L145.5,16.5z M82.1,13.9c6.3,0,11.5,5.1,11.5,11.5c0,6.3-5.1,11.5-11.5,11.5
		c-6.3,0-11.5-5.1-11.5-11.5C70.6,19,75.8,13.9,82.1,13.9L82.1,13.9z M83.9,151.3H38.1c-2.1,0-5.5-2.6-5.5-5.9
		c0-3.3,3.4-5.9,5.5-5.9h45.8c2.1,0,5.5,2.6,5.5,5.9C89.4,148.6,86.1,151.3,83.9,151.3L83.9,151.3z M96.2,113H37.6
		c-2.7,0-4.9-2.6-4.9-5.9c0-3.3,2.2-5.9,4.9-5.9h58.6c2.7,0,4.9,2.6,4.9,5.9C101.1,110.4,98.9,113,96.2,113L96.2,113z M118.8,74.8
		H38.6c-3.7,0-5.9-2.6-5.9-5.9c0-3.3,2.2-5.9,5.9-5.9h80.2c3.7,0,5.9,2.6,5.9,5.9C124.7,72.2,122.5,74.8,118.8,74.8L118.8,74.8z
		 M118.8,74.8"/>
</g>
</svg>
