<?xml version="1.0" encoding="utf-8"?>
<!-- Generator: Adobe Illustrator 22.0.1, SVG Export Plug-In . SVG Version: 6.00 Build 0)  -->
<svg version="1.1" id="图层_1" xmlns="http://www.w3.org/2000/svg" xmlns:xlink="http://www.w3.org/1999/xlink" x="0px" y="0px"
	 viewBox="0 0 200 200" style="enable-background:new 0 0 200 200;" xml:space="preserve">
<g>
	<g>
		<path d="M100,70.2c-3.8,0-7.5,3-7.5,4.8l2.3,33.6c0,2.2,1.4,5.4,5.2,5.4s5.2-3.6,5.2-5.4l2.3-33.6C107.6,72.8,103.2,70.2,100,70.2
			z M100,119.2c-3.8,0-7,3.1-7,7c0,3.8,3.1,7,7,7s7-3.1,7-7C107,122.3,103.9,119.2,100,119.2z M100,0C44.8,0,0,44.8,0,100
			s44.8,100,100,100s100-44.8,100-100S155.2,0,100,0z M150.8,144.4H49.2c-5.4,0-9-6.2-6.1-10.9l50.8-88.1c2.6-5.1,9.8-5.1,12.4,0
			l50.8,88.1C159.9,138.3,156.3,144.4,150.8,144.4z"/>
	</g>
</g>
</svg>
