<?xml version="1.0" encoding="utf-8"?>
<!-- Generator: Adobe Illustrator 22.0.1, SVG Export Plug-In . SVG Version: 6.00 Build 0)  -->
<svg version="1.1" id="图层_1" xmlns="http://www.w3.org/2000/svg" xmlns:xlink="http://www.w3.org/1999/xlink" x="0px" y="0px"
	 viewBox="0 0 200 200" style="enable-background:new 0 0 200 200;" xml:space="preserve">
<title>退场管理</title>
<g>
	<path d="M10.1,15.4v156.8c0,3,2.4,5.3,5.4,5.3H146c3,0,5.4-2.3,5.4-5.3v-33h-7.7v25.2c0,2.7-2.2,4.9-4.9,4.9H22.7
		c-2.7,0-4.9-2.2-4.9-4.9l0,0V23.1c0-2.7,2.2-4.9,4.8-4.9l0,0h116.1c2.7,0,4.9,2.2,4.9,4.9l0,0v77.1h7.7V15.4c0-3-2.4-5.4-5.4-5.4
		H15.5C12.5,10,10.1,12.4,10.1,15.4z"/>
	<path d="M10,19.6v141.1c0,2.7,1.4,5.2,3.1,5.7l84.1,23.4c1.7,0.5,3.2-1.3,3.2-4V44.7c0-2.7-1.4-5.2-3.2-5.7L13.1,15.8
		C11.4,15.2,10,17,10,19.6z"/>
	<path d="M190,119.6c0-2-0.7-4-2.1-5.5l-3.2-2l-18-11c-2.3-1.4-5.4-0.6-6.8,1.7c-0.1,0.1-0.1,0.2-0.2,0.3l-1.1,2
		c-1.4,2.5-0.6,5.8,1.9,7.3l1.1,0.6h-43.7c-2.9,0.1-5.1,2.5-5.1,5.4l0,0v2.3c-0.1,2.9,2.2,5.3,5,5.4l0,0h43.9l-1.1,0.6
		c-2.4,1.5-3.2,4.8-1.9,7.3l1.1,2c1.3,2.4,4.2,3.3,6.7,2.2c0.1-0.1,0.2-0.1,0.3-0.2l17.9-10.9l2.9-1.7
		C189.2,123.9,190,121.8,190,119.6z M183.5,127.4c-0.2,0-0.3,0.1-0.4,0.1C183.3,127.4,183.3,127.4,183.5,127.4z"/>
</g>
</svg>
