<?xml version="1.0" encoding="utf-8"?>
<!-- Generator: Adobe Illustrator 22.0.1, SVG Export Plug-In . SVG Version: 6.00 Build 0)  -->
<svg version="1.1" id="图层_1" xmlns="http://www.w3.org/2000/svg" xmlns:xlink="http://www.w3.org/1999/xlink" x="0px" y="0px"
	 viewBox="0 0 200 200" style="enable-background:new 0 0 200 200;" xml:space="preserve">
<path d="M142.3,0H57.7C44.9,0,34.6,10.3,34.6,23.1v153.8c0,12.7,10.3,23.1,23.1,23.1h84.6c12.7,0,23.1-10.3,23.1-23.1l0-153.8
	C165.4,10.3,155.1,0,142.3,0z M92.3,7.7h15.4c2.1,0,3.8,1.7,3.8,3.8c0,2.1-1.7,3.8-3.8,3.8H92.3c-2.1,0-3.8-1.7-3.8-3.8
	C88.5,9.4,90.2,7.7,92.3,7.7z M100,190.6c-5.4,0-9.8-4.4-9.8-9.8c0-5.4,4.4-9.8,9.8-9.8c5.4,0,9.8,4.4,9.8,9.8
	C109.8,186.2,105.4,190.6,100,190.6z M150,157.7c0,2.1-1.7,3.8-3.8,3.8H53.8c-2.1,0-3.8-1.7-3.8-3.8l0-130.8c0-2.1,1.7-3.8,3.8-3.8
	h92.3c2.1,0,3.8,1.7,3.8,3.8V157.7z"/>
</svg>
