<?xml version="1.0" encoding="utf-8"?>
<!-- Generator: Adobe Illustrator 22.0.1, SVG Export Plug-In . SVG Version: 6.00 Build 0)  -->
<svg version="1.1" id="图层_1" xmlns="http://www.w3.org/2000/svg" xmlns:xlink="http://www.w3.org/1999/xlink" x="0px" y="0px"
	 viewBox="0 0 200 200" style="enable-background:new 0 0 200 200;" xml:space="preserve">
<g>
	<path d="M14.8,164.2v-137c0-4.7,3.8-8.5,8.6-8.5h128.2c4.7,0,8.5,3.8,8.5,8.5v46.3h14.8V27.2c0-12.9-10.4-23.3-23.3-23.3H23.4
		C10.5,3.9,0,14.3,0,27.2v137c0.1,12.9,10.5,23.3,23.4,23.3h63.8v-14.8H23.4C18.7,172.7,14.8,168.9,14.8,164.2z"/>
	<path d="M28.1,56h114.6v14.8H28.1V56z M187.3,152.2H177l-14.9-19c11.5-7.5,14.8-23,7.2-34.5s-23-14.8-34.5-7.2
		c-11.5,7.5-14.8,23-7.2,34.5c1.9,2.9,4.3,5.3,7.2,7.2l-14.9,19h-10.3c-7,0-12.7,5.7-12.7,12.7v18.5c0,7,5.7,12.7,12.7,12.7h77.6
		c7,0,12.7-5.7,12.7-12.7v-18.5C200,157.9,194.4,152.2,187.3,152.2C187.4,152.2,187.4,152.2,187.3,152.2L187.3,152.2z M148.5,102.7
		v-1.8l0.2,1.8c5.6,0.1,10.2,4.7,10.1,10.3c-0.1,5.6-4.7,10.2-10.3,10.1c-5.6-0.1-10.2-4.7-10.1-10.3
		C138.5,107.2,143,102.7,148.5,102.7z M158.3,152.2h-19.5l9.8-12.3L158.3,152.2z M185.2,181.2l-73.5,0.3l-0.2-14.5l73.7-0.3V181.2z
		 M28.1,118.3h68.8v14.8H28.1V118.3z M28.1,85.1h82.2v14.8H28.1V85.1z"/>
</g>
</svg>
