<?xml version="1.0" encoding="utf-8"?>
<!-- Generator: Adobe Illustrator 22.0.1, SVG Export Plug-In . SVG Version: 6.00 Build 0)  -->
<svg version="1.1" id="图层_1" xmlns="http://www.w3.org/2000/svg" xmlns:xlink="http://www.w3.org/1999/xlink" x="0px" y="0px"
	 viewBox="0 0 200 200" style="enable-background:new 0 0 200 200;" xml:space="preserve">
<title>物流管理</title>
<g>
	<g>
		<path d="M63.1,80.9c-3.5,0.2-13.2,13-13.2,19.6v2.2h28.3V80.9C78.2,80.9,71.3,80.6,63.1,80.9z M100,0C44.8,0,0,44.8,0,100
			c0,55.2,44.8,100,100,100s100-44.8,100-100C200,44.8,155.2,0,100,0z M65.1,141.9c-6,0-10.9-4.9-10.9-10.9c0-6,4.9-10.9,10.9-10.9
			c0,0,0,0,0,0c6,0,10.9,4.9,10.9,10.9S71.2,141.9,65.1,141.9z M91.3,124.5c0,2.4-1.9,4.4-4.4,4.4v0h-4.5
			c-1.2-9.5-9.9-16.3-19.5-15.1c-7.9,1-14.1,7.2-15.1,15.1h-4.5c-2.4,0-4.4-1.9-4.4-4.4v-24c0-8.7,14.9-30.5,21.8-30.5h26.1
			c2.4,0,4.3,1.9,4.4,4.3V124.5z M128.9,143c-6.3,0-11.4-5.1-11.4-11.4c0-6.3,5.1-11.4,11.4-11.4c0,0,0,0,0,0
			c6.3,0,11.4,5.1,11.4,11.4C140.3,137.9,135.2,143,128.9,143z M161,63.5v58.8c0,3.6-2.9,6.5-6.5,6.5h-8.9
			c-1.2-9.5-9.9-16.3-19.4-15.1c-7.9,1-14.1,7.2-15.1,15.1h-6.7c-3.6,0-6.5-2.9-6.5-6.5V63.5c0-3.6,2.9-6.5,6.5-6.5h50.1
			C158.1,57,161,59.9,161,63.5C161,63.5,161,63.5,161,63.5z"/>
	</g>
</g>
</svg>
