<?xml version="1.0" encoding="utf-8"?>
<!-- Generator: Adobe Illustrator 22.0.1, SVG Export Plug-In . SVG Version: 6.00 Build 0)  -->
<svg version="1.1" id="图层_1" xmlns="http://www.w3.org/2000/svg" xmlns:xlink="http://www.w3.org/1999/xlink" x="0px" y="0px"
	 viewBox="0 0 200 200" style="enable-background:new 0 0 200 200;" xml:space="preserve">
<style type="text/css">
	.st0{fill:#FD6969;}
	.st1{fill:#FFFFFF;}
</style>
<circle class="st0" cx="100" cy="100" r="100"/>
<g>
	<path class="st1" d="M100.1,44.9c6.2-0.1,4.9,6.2,4.9,12.1c0,2.5,0.4,5.6-0.5,7.2c-0.7,1.2-1.9,1.9-3.4,2.1
		c-0.9,0.2-1.8-0.2-2.3-0.5c-3.4-1.8-2.4-6.8-2.4-11.7c0-2.1-0.4-4.8,0.2-6.4C97.1,45.9,98.3,45.7,100.1,44.9L100.1,44.9z"/>
	<path class="st1" d="M68.5,55.5c1.4,0,2.4,0.4,3.2,1c2.1,2.5,4.1,5,6.2,7.5c1,1.3,2.5,2.5,3.2,4.1c1,2.3-0.4,4.5-1.9,5.3
		c-1.5,0.9-3.8,0.6-5-0.3c-1.5-1.1-2.7-3.1-3.8-4.6c-1.1-1.4-2.3-2.8-3.4-4.1c-1.5-2-4.1-4.4-1.6-7.5C66.3,56.1,67.2,56.1,68.5,55.5
		L68.5,55.5z"/>
	<path class="st1" d="M131.7,57c3.2-0.1,6.2,2.4,4.8,5.8c-0.7,1.7-2.3,2.8-3.3,4c-1.4,1.6-2.9,3.2-4.3,4.8c-0.7,1-1.6,2.2-2.6,2.8
		c-1.1,0.7-3.3,1-4.7,0.2c-1.8-1-3.1-3.7-1.6-6c1.4-1.6,2.8-3.1,4.2-4.7c1.1-1.2,2.2-2.5,3.3-3.7c0.7-0.9,1.5-2,2.5-2.6
		C130.6,57.4,131.1,57.2,131.7,57L131.7,57z"/>
	<path class="st1" d="M127.1,134.9H72.7v-24.9c0-5-0.3-10.6,0.8-14.5c2.2-7.3,6.4-12.4,12.3-16c2.6-1.5,5.5-2.7,9-3.4
		c1.2-0.1,2.3-0.2,3.4-0.3c1.1,0,2.1-0.1,3.2-0.1c2.3,0.4,4.5,0.5,6.5,1.1c9.2,2.9,15.5,9.3,18.3,18.7c1.2,3.9,0.8,9.4,0.8,14.4
		C127.1,118.2,127.1,126.5,127.1,134.9L127.1,134.9z"/>
	<path class="st1" d="M50.8,83.9c1.6-0.1,2.7,0.3,4,0.6c2.4,0.5,4.9,1,7.3,1.4c1.9,0.4,3.8,0.5,4.9,1.5c1.2,1.1,2,3.5,0.9,5.4
		c-0.6,1-1.7,1.8-3,2.1c-1.4,0.3-2.8-0.2-3.9-0.5c-2.4-0.5-4.9-1-7.3-1.4c-1.9-0.4-3.9-0.5-5.1-1.5c-1.8-1.4-2.1-5-0.2-6.5
		C49.1,84.4,49.8,84.3,50.8,83.9L50.8,83.9z"/>
	<path class="st1" d="M148.2,86.1c3.7-0.1,6.2,3.8,3.9,7c-1.3,1.7-3.4,1.6-5.9,2.1c-2.5,0.4-4.9,0.7-7.4,1.1
		c-1.1,0.2-2.5,0.6-3.8,0.4c-1.4-0.3-2.7-1.2-3.2-2.4c-1.1-2.4,0.3-5,2.1-5.8c1-0.5,2.3-0.4,3.6-0.7c2.4-0.4,4.9-0.8,7.4-1.2
		C145.9,86.5,147.1,86.3,148.2,86.1L148.2,86.1z"/>
	<path class="st1" d="M67.4,138.6h53.2c6.7,0,12.7-1.2,15.3,3.2c0.5,0.8,1.1,2.2,0.8,3.7c-1.2,6.7-8.3,5.4-15.9,5.4H82.6H71.5
		c-1.9,0-4.2,0.2-5.6-0.3c-3-1.2-5.6-5.2-3.3-9c0.6-1.1,1.8-2.1,3-2.5C66.2,138.9,66.8,138.7,67.4,138.6L67.4,138.6z"/>
</g>
</svg>
