<?xml version="1.0" encoding="utf-8"?>
<!-- Generator: Adobe Illustrator 22.0.1, SVG Export Plug-In . SVG Version: 6.00 Build 0)  -->
<svg version="1.1" id="图层_1" xmlns="http://www.w3.org/2000/svg" xmlns:xlink="http://www.w3.org/1999/xlink" x="0px" y="0px"
	 viewBox="0 0 200 200" style="enable-background:new 0 0 200 200;" xml:space="preserve">
<style type="text/css">
	.st0{fill:#8BBF1C;}
	.st1{fill:#FFFFFF;}
</style>
<circle class="st0" cx="100" cy="100" r="100"/>
<path class="st1" d="M100,48.8c-28.7,0-51.7,21.1-51.7,47.4c0,14,6.6,27.3,17.8,35.7c0.9,1.4,2.8,9.4,3.8,16c0,0.9,0.9,2.4,1.9,2.8
	c0.5,0.5,0.9,0.5,1.9,0.5c0.5,0.1,1-0.1,1.4-0.5l15-7.1h9.9c28.7,0,51.7-21.6,51.7-47.4S128.7,48.8,100,48.8z M73.9,105.7
	c-4.8,0-8.8-3.9-8.8-8.8s3.9-8.8,8.8-8.8s8.8,3.9,8.8,8.8c0,0,0,0,0,0C82.7,101.7,78.8,105.7,73.9,105.7
	C73.9,105.7,73.9,105.7,73.9,105.7z M100.7,105.7c-4.8,0-8.8-3.9-8.8-8.8c0-4.8,3.9-8.8,8.8-8.8c4.8,0,8.8,3.9,8.8,8.8c0,0,0,0,0,0
	C109.5,101.7,105.6,105.7,100.7,105.7C100.7,105.7,100.7,105.7,100.7,105.7z M126.7,105.7c-4.8,0-8.7-3.9-8.7-8.8
	c0-4.8,3.9-8.7,8.8-8.7c4.8,0,8.7,3.9,8.7,8.8C135.5,101.7,131.6,105.7,126.7,105.7C126.7,105.7,126.7,105.7,126.7,105.7
	L126.7,105.7z"/>
</svg>
