<?xml version="1.0" encoding="utf-8"?>
<!-- Generator: Adobe Illustrator 22.0.1, SVG Export Plug-In . SVG Version: 6.00 Build 0)  -->
<svg version="1.1" id="图层_1" xmlns="http://www.w3.org/2000/svg" xmlns:xlink="http://www.w3.org/1999/xlink" x="0px" y="0px"
	 viewBox="0 0 200 200" style="enable-background:new 0 0 200 200;" xml:space="preserve">
<style type="text/css">
	.st0{fill:#6CA6EF;}
	.st1{fill:#FFFFFF;}
</style>
<circle class="st0" cx="100" cy="100" r="100"/>
<path class="st1" d="M121.2,74.3c8.7,5.9,14.4,15.2,15.2,27.1c2.8,0,5.9,0.8,8.7,2c-0.8-15.2-8.7-29-21.2-36.7
	C123.1,68.4,123.1,71.5,121.2,74.3z M115.2,138c-4.8,2-9.6,3.7-15.2,3.7c-5.6,0-10.7-0.8-15.2-3.7c-2,2.8-3.7,4.8-5.9,6.8
	c6.8,3.7,13.5,5.9,21.2,5.9c7.6,0,15.2-2,21.2-5.9C119.5,142.6,117.5,140.9,115.2,138z M63.3,101.1c0.7-10.9,6.3-20.8,15.2-27.1
	c-0.8-2.8-2-5.9-2.8-8.7c-12.4,7.9-20.3,22.3-21.2,37.8C57.4,101.9,60.2,101.1,63.3,101.1z M64.5,106.2c-10.7,0-19.4,8.7-19.5,19.5
	c0,10.7,8.7,19.4,19.5,19.5c10.7,0,19.4-8.7,19.5-19.5C83.6,114.9,74.9,106.2,64.5,106.2z M100,43.3c-10.7,0-19.4,8.7-19.5,19.5
	c0,10.7,8.7,19.4,19.5,19.5c10.7,0,19.4-8.7,19.5-19.5C119.4,52,110.7,43.3,100,43.3L100,43.3z M135.5,106.2
	c-10.7,0-19.4,8.7-19.5,19.5c0,10.7,8.7,19.4,19.5,19.5c10.7,0,19.4-8.7,19.5-19.5C155,114.9,146.3,106.2,135.5,106.2z"/>
</svg>
