<?xml version="1.0" encoding="utf-8"?>
<!-- Generator: Adobe Illustrator 22.0.1, SVG Export Plug-In . SVG Version: 6.00 Build 0)  -->
<svg version="1.1" id="图层_1" xmlns="http://www.w3.org/2000/svg" xmlns:xlink="http://www.w3.org/1999/xlink" x="0px" y="0px"
	 viewBox="0 0 200 200" style="enable-background:new 0 0 200 200;" xml:space="preserve">
<path d="M126.8,122.5c3.7,0,6.6-3,6.6-6.6c0-3.7-3-6.6-6.6-6.6H95.9V93.5h31.1c3.7,0,6.6-3,6.6-6.6s-3-6.6-6.6-6.6H99.2l28.9-27.1
	c2.7-2.6,2.8-6.7,0.3-9.4c-2.6-2.7-6.7-2.8-9.4-0.3L89.3,71.3L59.7,43.4c-2.7-2.6-6.9-2.3-9.4,0.3c-2.6,2.7-2.3,6.9,0.3,9.4l28.6,27
	H51.4c-3.7,0-6.6,3-6.6,6.6s3,6.6,6.6,6.6h31.1v15.7H51.4c-3.7,0-6.6,3-6.6,6.6s3,6.6,6.6,6.6h31.1v15.9c0,3.7,3,6.6,6.6,6.6
	c3.6,0,6.6-3,6.6-6.6v-15.8H126.8L126.8,122.5z"/>
<path d="M197.4,130.7l-66.1,66.1c-3,3-8,3-11,0l-5.5-5.5l71.6-71.6c3-3,8-3,11,0C200.5,122.7,200.5,127.6,197.4,130.7z"/>
<path d="M120.3,196.8l-27.6-27.6c-3-3-3-8,0-11s8-3,11,0l33.1,33.1l-5.5,5.5C128.2,199.8,123.3,199.8,120.3,196.8z"/>
<g>
	<g>
		<path d="M78.7,176.8H20c-2.8,0-5-2.2-5-5V28.2c0-2.8,2.2-5,5-5h135c2.8,0,5,2.2,5,5v78.5h15V28.2c0-11-9-20-20-20H20
			c-11,0-20,9-20,20v143.6c0,11,9,20,20,20h58.7V176.8z"/>
	</g>
</g>
</svg>
