<?xml version="1.0" encoding="utf-8"?>
<!-- Generator: Adobe Illustrator 22.0.1, SVG Export Plug-In . SVG Version: 6.00 Build 0)  -->
<svg version="1.1" id="图层_1" xmlns="http://www.w3.org/2000/svg" xmlns:xlink="http://www.w3.org/1999/xlink" x="0px" y="0px"
	 viewBox="0 0 200 200" style="enable-background:new 0 0 200 200;" xml:space="preserve">
<path d="M197.8,94.7l-39.6-39.6c-2.9-2.9-7.6-2.9-10.5,0c-2.9,2.9-2.9,7.6,0,10.5l26.8,26.8H86.2c-4.2,0.3-7.3,3.9-7.1,8
	c0.2,3.8,3.3,6.8,7.1,7.1h88.4l-26.8,26.8c-2.9,2.9-2.9,7.6,0,10.5c2.9,2.9,7.6,2.9,10.5,0l39.6-39.6
	C200.7,102.3,200.7,97.7,197.8,94.7L197.8,94.7z"/>
<g>
	<path d="M14,185L14,185c-7.7,0-14-6.3-14-14L0,29c0-7.7,6.3-14,14-14h0c7.7,0,14,6.3,14,14v142C28,178.7,21.7,185,14,185z"/>
	<path d="M114,43H14C6.3,43,0,36.7,0,29v0c0-7.7,6.3-14,14-14h100c7.7,0,14,6.3,14,14v0C128,36.7,121.7,43,114,43z"/>
	<path d="M114,185H14c-7.7,0-14-6.3-14-14v0c0-7.7,6.3-14,14-14h100c7.7,0,14,6.3,14,14v0C128,178.7,121.7,185,114,185z"/>
</g>
</svg>
