<?xml version="1.0" encoding="utf-8"?>
<!-- Generator: Adobe Illustrator 22.0.1, SVG Export Plug-In . SVG Version: 6.00 Build 0)  -->
<svg version="1.1" id="图层_1" xmlns="http://www.w3.org/2000/svg" xmlns:xlink="http://www.w3.org/1999/xlink" x="0px" y="0px"
	 viewBox="0 0 200 200" style="enable-background:new 0 0 200 200;" xml:space="preserve">
<g>
	<polygon points="85.7,102.9 85.7,97.1 85.7,51.4 102.9,51.4 102.9,97.1 137.1,97.1 137.1,114.3 85.7,114.3 	"/>
	<path d="M197.1,102.9H180c-1.6,0-2.9-1.3-2.9-2.9v-2.9H177c-1.5-41.3-35.4-74.3-77-74.3c-42.6,0-77.1,34.5-77.1,77.1
		s34.5,77.1,77.1,77.1c18.4,0,35.2-6.6,48.4-17.3l-34.1-34.1h68.6v68.6l-18.2-18.2C147.2,190.9,124.7,200,100,200
		C44.8,200,0,155.2,0,100C0,44.8,44.8,0,100,0c52.8,0,95.8,41,99.5,92.8c0.3,0.4,0.5,0.9,0.5,1.5v5.7
		C200,101.6,198.7,102.9,197.1,102.9z"/>
</g>
</svg>
