<?xml version="1.0" encoding="utf-8"?>
<!-- Generator: Adobe Illustrator 22.0.1, SVG Export Plug-In . SVG Version: 6.00 Build 0)  -->
<svg version="1.1" id="图层_1" xmlns="http://www.w3.org/2000/svg" xmlns:xlink="http://www.w3.org/1999/xlink" x="0px" y="0px"
	 viewBox="0 0 200 200" style="enable-background:new 0 0 200 200;" xml:space="preserve">
<g>
	<path d="M124.3,118.4c3.2,0,5.7-2.6,5.7-5.7c0-3.2-2.6-5.7-5.7-5.7H97.7V93.5h26.7c3.2,0,5.7-2.6,5.7-5.7s-2.6-5.7-5.7-5.7h-23.8
		l24.8-23.3c2.3-2.2,2.4-5.8,0.3-8.1c-2.2-2.3-5.8-2.4-8.1-0.3l-25.5,24l-25.5-24c-2.3-2.2-5.9-2-8.1,0.3c-2.2,2.3-2,5.9,0.3,8.1
		L83.4,82H59.5c-3.2,0-5.7,2.6-5.7,5.7s2.6,5.7,5.7,5.7h26.7v13.5H59.5c-3.2,0-5.7,2.6-5.7,5.7s2.6,5.7,5.7,5.7h26.7V132
		c0,3.2,2.6,5.7,5.7,5.7s5.7-2.6,5.7-5.7v-13.6L124.3,118.4L124.3,118.4z"/>
	<path d="M72.9,175H37.5c-6.8,0-12.3-4.8-12.3-10.7V35.7c0-5.9,5.5-10.7,12.3-10.7h107.1c6.8,0,12.3,4.8,12.3,10.7v44.5
		c0,4,8.5,7.3,12.5,7.3s12.5-3.2,12.5-7.3V25.2c0-13.9-12-25.2-26.8-25.2h-128C12.3,0,0.3,11.3,0.3,25.2v149.6
		c0,13.9,12,25.2,26.8,25.2h45.9c4,0,7.3-8.5,7.3-12.5C80.2,183.5,76.9,175,72.9,175z"/>
	<path d="M197.4,130.7l-66.1,66.1c-3,3-8,3-11,0l-5.5-5.5l71.6-71.6c3-3,8-3,11,0C200.5,122.7,200.5,127.6,197.4,130.7z"/>
	<path d="M120.3,196.8l-27.6-27.6c-3-3-3-8,0-11c3-3,8-3,11,0l33.1,33.1l-5.5,5.5C128.2,199.8,123.3,199.8,120.3,196.8z"/>
</g>
</svg>
