<?xml version="1.0" encoding="utf-8"?>
<!-- Generator: Adobe Illustrator 22.0.1, SVG Export Plug-In . SVG Version: 6.00 Build 0)  -->
<svg version="1.1" id="图层_1" xmlns="http://www.w3.org/2000/svg" xmlns:xlink="http://www.w3.org/1999/xlink" x="0px" y="0px"
	 viewBox="0 0 200 200" style="enable-background:new 0 0 200 200;" xml:space="preserve">
<path d="M153.9,29c6.3,4.5,11.9,9.6,16.8,15.2c4.9,5.7,9.1,11.8,12.6,18.4c3.5,6.6,6.2,13.5,8,20.9c1.8,7.4,2.7,14.8,2.7,22.4
	c0,13-2.5,25.2-7.5,36.7c-5,11.4-11.7,21.4-20.2,29.8c-8.5,8.5-18.4,15.2-29.8,20.2c-11.4,5-23.6,7.5-36.7,7.5
	c-12.9,0-25-2.5-36.4-7.5c-11.4-5-21.4-11.7-29.9-20.2c-8.5-8.5-15.3-18.4-20.2-29.8C8.4,131.1,6,118.9,6,105.9
	C6,98.5,6.9,91.2,8.6,84c1.8-7.1,4.2-13.9,7.5-20.4c3.2-6.4,7.2-12.5,12-18.1c4.8-5.6,10.1-10.6,16-15.1c3.1-2.2,6.4-3.1,10-2.5
	c3.6,0.6,6.5,2.3,8.7,5.3c2.2,2.9,3.1,6.2,2.5,9.9c-0.6,3.6-2.3,6.6-5.3,8.8c-8.8,6.4-15.6,14.4-20.3,23.7s-7,19.5-7,30.3
	c0,9.2,1.8,18,5.3,26.2c3.5,8.2,8.3,15.3,14.4,21.4c6.1,6.1,13.2,10.9,21.4,14.5c8.2,3.6,16.9,5.4,26.2,5.4c9.2,0,18-1.8,26.2-5.4
	c8.2-3.6,15.3-8.4,21.4-14.5c6.1-6.1,10.9-13.2,14.5-21.4c3.6-8.2,5.4-16.9,5.4-26.2c0-10.9-2.5-21.3-7.6-31
	c-5-9.7-12.1-17.8-21.2-24.1c-3.1-2.1-4.9-5-5.6-8.6c-0.6-3.6,0.1-7,2.2-10.1c2.1-2.9,5-4.7,8.6-5.4C147.4,26.2,150.8,26.9,153.9,29
	L153.9,29z M99.9,106.5c-3.6,0-6.8-1.3-9.3-3.9c-2.6-2.6-3.9-5.7-3.9-9.3V13.4c0-3.6,1.3-6.8,3.9-9.5s5.7-4,9.3-4c3.8,0,7,1.3,9.6,4
	c2.6,2.7,3.9,5.8,3.9,9.5v79.8c0,3.6-1.3,6.8-3.9,9.3C106.9,105.2,103.7,106.5,99.9,106.5L99.9,106.5z"/>
</svg>
