<?xml version="1.0" encoding="utf-8"?>
<!-- Generator: Adobe Illustrator 22.0.1, SVG Export Plug-In . SVG Version: 6.00 Build 0)  -->
<svg version="1.1" id="图层_1" xmlns="http://www.w3.org/2000/svg" xmlns:xlink="http://www.w3.org/1999/xlink" x="0px" y="0px"
	 viewBox="0 0 200 200" style="enable-background:new 0 0 200 200;" xml:space="preserve">
<style type="text/css">
	.st0{fill:#FFFFFF;}
	.st1{fill:#8BBF1C;}
</style>
<g>
	<rect x="26" y="55" class="st0" width="151" height="81"/>
	<path class="st1" d="M148.4,89h-25.6v6.8h25.6V89z M0,38.5v115.4c0,4.2,3.7,7.7,8.3,7.7l93.4-15.4l89.9,15.4c4.6,0,8.3-3.4,8.3-7.7
		V38.5H0z M95.8,121.9c-5.6-0.6-9.7-0.8-12.1-0.8H42.3c-3.9,0-7.5,0.3-10.7,0.8v-6.2c3.6,0.4,7,0.6,10.4,0.6h1.4v-9.8
		c0.2-12.9,0.1-20.3-0.3-21.9c4.7,0,7.1,0.3,7.3,0.8c0,0.2-0.1,0.6-0.3,1.1c-0.4,0.9-0.7,1.9-0.8,2.8c0,15-0.1,24-0.3,27h13.2V73.5
		H50.5c-5.6,0.2-10,0.4-13.2,0.6v-6.5c4.9,0.4,9.3,0.6,13.2,0.6h27.3c4.1,0,8.6-0.2,13.5-0.6v6.5c-3-0.2-7.4-0.4-13.2-0.6h-9.8v16.9
		h7.9c5.1,0,9.1-0.2,12.1-0.6v6.5c-4.1-0.4-8-0.6-11.5-0.6h-8.4v20.5h15.2c4.1,0,8.2-0.2,12.4-0.6v6.3H95.8z M120.3,64.5
		c1.5,1.1,3.6,3.3,6.2,6.5c0.2,0.2,0.4,0.4,0.6,0.6l-5.6,2.8c-1.7-2.6-4-5-7-7L120.3,64.5z M159.1,111.5v7.9c-0.4,3.4-4,5.2-11,5.6
		c-0.2-2.4-1-4.6-2.5-6.5c5.2,0.8,7.9,0.4,7.9-1.1v-7h-15.2v9.8c0,2.6,0.2,5.1,0.6,7.3h-6.5c0.4-2.1,0.6-4.5,0.6-7.3v-9.8h-14.3v8.7
		c0,1.5,0.1,3.3,0.3,5.3h-6.2v-1.7c0.2-1.7,0.3-2.9,0.3-3.7v-9c0-3-0.1-4.5-0.3-4.5c0.9,0.2,2.8,0.3,5.6,0.3H133V100h-10.1
		c-2.1,0-3.9,0.1-5.6,0.3c0.2-0.9,0.3-2.4,0.3-4.5v-6.5c0-3.2-0.1-4.8-0.3-4.8c1.5,0.2,3.4,0.3,5.6,0.3h25.6c2.3,0,4.2-0.1,5.9-0.3
		c-0.4,1.1-0.6,2.6-0.6,4.5v6.8c0,2.1,0.2,3.6,0.6,4.5c-1.1-0.2-3.3-0.3-6.5-0.3h-9.6v5.9h15.2c2.6,0,4.6-0.1,5.9-0.3
		C159.2,106.5,159.1,108.5,159.1,111.5z M165.5,88.2h-5.9c0.2-0.7,0.3-2.8,0.3-6.2v-2.3h-48.4v2.5c0,1.1,0.1,2.7,0.3,4.8v2h-6.2
		c0.2-0.6,0.4-2.8,0.6-6.8v-2.8c0-1.9-0.1-3.6-0.3-5.1h3.1c1.1,0.2,2.1,0.3,2.8,0.3h21.1v-8.2c0-2.3-0.1-3.7-0.3-4.5
		c3.9,0,6.4,0.2,7.3,0.6c0,0.2-0.1,0.4-0.3,0.6c-0.8,0.9-1.2,2.1-1.4,3.4v8.2h5.9c2.4-3,4.4-6.7,5.9-11c4.5,1.7,6.8,2.8,6.8,3.4
		c0,0.2-0.2,0.4-0.6,0.6c-0.8,0.4-1.4,0.8-2,1.4c-2.1,2.3-3.7,4.1-4.8,5.6h9.6c3.2,0,5.3-0.1,6.5-0.3l-0.3,5.3V82
		C165.3,85.3,165.3,87.4,165.5,88.2z"/>
</g>
</svg>
