<?xml version="1.0" encoding="utf-8"?>
<!-- Generator: Adobe Illustrator 22.0.1, SVG Export Plug-In . SVG Version: 6.00 Build 0)  -->
<svg version="1.1" id="图层_1" xmlns="http://www.w3.org/2000/svg" xmlns:xlink="http://www.w3.org/1999/xlink" x="0px" y="0px"
	 viewBox="0 0 200 200" style="enable-background:new 0 0 200 200;" xml:space="preserve">
<style type="text/css">
	.st0{fill:#6CA6EF;}
	.st1{enable-background:new    ;}
	.st2{fill:#2870BF;}
	.st3{fill:#FFFFFF;}
</style>
<path class="st0" d="M178.3,157h-168c-6.3,0-10.9-5.4-10.2-12l9-90c0.7-6.6,6.4-12,12.7-12h167.9c6.3,0,10.9,5.4,10.2,12l-9,90
	C190.2,151.6,184.6,157,178.3,157z"/>
<g class="st1">
	<path class="st2" d="M37.3,120.1c1.9-0.4,4-1,6.4-1.6l1.7-9.7H31l0.2-5.5c2.5-3.6,4.2-6.2,5.2-7.8c1-1.6,2.5-4.4,4.6-8.2h-1.8
		l-5.1,0.3l1.5-8.7l5,0.3h4.2c0.8-1.7,1.3-2.7,1.4-3l2.4-6.3c4.5,1.3,7.4,2,8.7,2.3c-1.4,2.6-2.7,4.9-3.8,7h5.5l6.1-0.3l-1.5,8.7
		l-6.1-0.3h-8.1c-2.4,4.6-4.8,9-7.3,13.4h4.6l0.9-5.1l0.6-5.3h9.1l-1.3,5.5l-0.9,4.9h5.8l1.2-6.9l6.5,0.3h5.3
		c0.7-1.8,1.1-2.8,1.2-3.1l1.4-4.2h-6.1l-5.3,0.2l1.5-8.2l5.1,0.2h7.5c0.6-1.9,0.9-2.9,1-3.2l1.6-5.4c2.9,0.7,6,1.2,9.1,1.4
		c-1,2.5-1.9,4.9-2.8,7.2h8.8l5.5-0.2l-1.5,8.2l-5.5-0.2H85.7L83.2,94h10.4l7.8-0.3l-1.5,8.7l-7.7-0.3H80.2l-1.8,4.6h16.7l2.7,5.4
		c-4.7,5.1-7.7,8.2-8.9,9.4l-6.1,6c2.9,2.5,5.5,4.8,7.8,6.8c-3.5,2.9-5.4,4.5-5.7,4.8l-1.6,1.7c-5.6-5.7-11.1-10.6-16.5-14.5l-6-4.5
		c2.7-2,5.1-4.1,7.1-6.2l9.1,7.4c2.6-2.8,5.3-5.7,8.1-8.9H71.1l-5.4,0.2c2.3-4.6,3.7-7.4,4.1-8.6l1.4-3.6h-9.2l-1.2,6.9l-4.1-0.1H54
		l-1.3,7.6c3.1-0.8,6.3-1.6,9.4-2.5c-0.4,1.1-0.7,2.1-0.9,2.9c-0.2,0.8-0.4,1.7-0.6,2.7l-0.5,2.7c-2.8,0.6-5.7,1.4-8.8,2.3l-1.3,7.4
		l-1,7.2h-9.1l1.6-7.4l0.8-4.8c-2.6,0.6-6.9,1.9-12.9,3.9c-0.3-2.5-0.7-4.3-1-5.5l-0.9-3.6C32.2,121.1,35.4,120.5,37.3,120.1z"/>
	<path class="st2" d="M111.6,111.3c2.1-2.4,3.8-4.5,5.1-6.5c1.3-1.9,2.7-4.2,4.1-6.7h-6.5l-5.9,0.1l1.5-8.4l6.1,0.2h6.6l1.4-8
		c-2.1,0.2-5.7,0.7-10.6,1.3c-0.2-2.9-0.5-4.9-0.8-6.2l-0.6-2.2c6.1,0,11.4-0.3,16-1.2c4.5-0.8,8.5-1.9,11.9-3.1
		c0.1,1.1,0.3,1.9,0.4,2.4c0.1,0.5,0.7,2.4,1.7,5.6c-1.2,0.3-2.1,0.5-2.6,0.6l-4.6,0.8l-2.6,0.5l-1.7,9.4h5.4l4-0.2l-1.5,8.4
		l-3.9-0.1h-5.4l-1.4,7.7c2.9-1.6,4.5-2.5,5-2.8c0.7,1.9,1.5,3.8,2.4,5.6c0.9,1.9,1.6,3.6,2.2,5.3c-0.6,0.3-1.1,0.5-1.3,0.7l-5,2.8
		l-1.5,0.8c-0.6-2.3-0.9-3.7-1.1-4.1l-1.4-3.5l-3.8,21.4l-1,7.2h-8.5l1.5-7.2l3-16.9c-4,4.4-7,7.4-8.9,8.8l-3.6,2.9
		c-0.3-2.9-0.7-5.1-1.1-6.8l-0.7-2.6C107,115.7,109.5,113.7,111.6,111.3z M135.1,129.3l8.6-48.6l0.9-6.6l7.2,0.3h17.7l6-0.3
		l-1.7,7.7l-8.4,47.5l6.1-0.3l-1.5,8.4l-6.4-0.3h-29.2l-7.6,0.3l1.5-8.4L135.1,129.3z M143.5,129.3h13.8l2.2-12.7h-13.8L143.5,129.3
		z M160.9,108.9l1.7-9.4h-13.8l-1.7,9.4H160.9z M163.9,91.8l1.8-9.9h-13.8l-1.8,9.9H163.9z"/>
</g>
<g class="st1">
	<path class="st3" d="M32.9,115.6c1.9-0.4,4-1,6.4-1.6l1.7-9.7H26.6l0.2-5.5c2.5-3.6,4.2-6.2,5.2-7.8c1-1.6,2.5-4.4,4.6-8.2h-1.8
		L29.7,83l1.5-8.7l5,0.3h4.2c0.8-1.7,1.3-2.7,1.4-3l2.4-6.3c4.5,1.3,7.4,2,8.7,2.3c-1.4,2.6-2.7,4.9-3.8,7h5.5l6.1-0.3L59.3,83
		l-6.1-0.3h-8.1c-2.4,4.6-4.8,9-7.3,13.4h4.6l0.9-5.1l0.6-5.3h9.1l-1.3,5.5l-0.9,4.9h5.8l1.2-6.9l6.5,0.3h5.3
		c0.7-1.8,1.1-2.8,1.2-3.1l1.4-4.2h-6.1L61,82.3l1.5-8.2l5.1,0.2H75c0.6-1.9,0.9-2.9,1-3.2l1.6-5.4c2.9,0.7,6,1.2,9.1,1.4
		c-1,2.5-1.9,4.9-2.8,7.2h8.8l5.5-0.2l-1.5,8.2l-5.5-0.2H81.2l-2.5,7.4h10.4l7.8-0.3l-1.5,8.7l-7.7-0.3H75.8l-1.8,4.6h16.7l2.7,5.4
		c-4.7,5.1-7.7,8.2-8.9,9.4l-6.1,6c2.9,2.5,5.5,4.8,7.8,6.8c-3.5,2.9-5.4,4.5-5.7,4.8l-1.6,1.7c-5.6-5.7-11.1-10.6-16.5-14.5l-6-4.5
		c2.7-2,5.1-4.1,7.1-6.2l9.1,7.4c2.6-2.8,5.3-5.7,8.1-8.9H66.6l-5.4,0.2c2.3-4.6,3.7-7.4,4.1-8.6l1.4-3.6h-9.2l-1.2,6.9l-4.1-0.1
		h-2.8l-1.3,7.6c3.1-0.8,6.3-1.6,9.4-2.5c-0.4,1.1-0.7,2.1-0.9,2.9c-0.2,0.8-0.4,1.7-0.6,2.7l-0.5,2.7c-2.8,0.6-5.7,1.4-8.8,2.3
		l-1.3,7.4l-1,7.2h-9.1l1.6-7.4l0.8-4.8c-2.6,0.6-6.9,1.9-12.9,3.9c-0.3-2.5-0.7-4.3-1-5.5l-0.9-3.6C27.7,116.6,31,116,32.9,115.6z"
		/>
	<path class="st3" d="M107.2,106.9c2.1-2.4,3.8-4.5,5.1-6.5c1.3-1.9,2.7-4.2,4.1-6.7h-6.5l-5.9,0.1l1.5-8.4l6.1,0.2h6.6l1.4-8
		c-2.1,0.2-5.7,0.7-10.6,1.3c-0.2-2.9-0.5-4.9-0.8-6.2l-0.6-2.2c6.1,0,11.4-0.3,16-1.2c4.5-0.8,8.5-1.9,11.9-3.1
		c0.1,1.1,0.3,1.9,0.4,2.4c0.1,0.5,0.7,2.4,1.7,5.6c-1.2,0.3-2.1,0.5-2.6,0.6l-4.6,0.8l-2.6,0.5l-1.7,9.4h5.4l4-0.2l-1.5,8.4
		l-3.9-0.1h-5.4l-1.4,7.7c2.9-1.6,4.5-2.5,5-2.8c0.7,1.9,1.5,3.8,2.4,5.6c0.9,1.9,1.6,3.6,2.2,5.3c-0.6,0.3-1.1,0.5-1.3,0.7l-5,2.8
		l-1.5,0.8c-0.6-2.3-0.9-3.7-1.1-4.1l-1.4-3.5l-3.8,21.4l-1,7.2h-8.5l1.5-7.2l3-16.9c-4,4.4-7,7.4-8.9,8.8l-3.6,2.9
		c-0.3-2.9-0.7-5.1-1.1-6.8l-0.7-2.6C102.5,111.3,105.1,109.3,107.2,106.9z M130.6,124.8l8.6-48.6l0.9-6.6l7.2,0.3H165l6-0.3
		l-1.7,7.7l-8.4,47.5l6.1-0.3l-1.5,8.4l-6.4-0.3H130l-7.6,0.3l1.5-8.4L130.6,124.8z M139,124.8h13.8l2.2-12.7h-13.8L139,124.8z
		 M156.4,104.5l1.7-9.4h-13.8l-1.7,9.4H156.4z M159.4,87.3l1.8-9.9h-13.8l-1.8,9.9H159.4z"/>
</g>
</svg>
