<?xml version="1.0" encoding="utf-8"?>
<!-- Generator: Adobe Illustrator 22.0.1, SVG Export Plug-In . SVG Version: 6.00 Build 0)  -->
<svg version="1.1" id="图层_1" xmlns="http://www.w3.org/2000/svg" xmlns:xlink="http://www.w3.org/1999/xlink" x="0px" y="0px"
	 viewBox="0 0 200 200" style="enable-background:new 0 0 200 200;" xml:space="preserve">
<style type="text/css">
	.st0{fill:#FFFFFF;}
	.st1{fill:#6CA6EF;}
</style>
<g>
	<rect x="31" y="56" class="st0" width="145" height="79"/>
	<g>
		<g>
			<path class="st1" d="M0,38.5v115.4c0,4.2,3.7,7.7,8.3,7.7l93.4-15.4l89.9,15.4c4.6,0,8.3-3.4,8.3-7.7V38.5H0z M87.6,126.4h-6.8
				l0.3-6.5H47.4c0,2.1,0.1,4.2,0.3,6.5h-6.8c0.2-1.3,0.3-4,0.3-8.2v-38c0-3.2-0.2-6-0.6-8.4h0.8c1.9,0.2,3.7,0.3,5.6,0.3h6.8
				c1.3-2.6,2.3-5.9,2.8-9.8c1.7,0.4,3.8,0.8,6.5,1.1l2.3,0.6c0,0.2-0.2,0.5-0.6,0.8c-1.5,1.5-3,3.9-4.5,7.3h18.6
				c2.3,0,4.7-0.1,7.3-0.3h1.7c-0.4,2.6-0.6,5.4-0.6,8.4v38C87.3,122.8,87.4,125.5,87.6,126.4z M113.2,127.5c0.4-3,0.6-6.8,0.6-11.5
				V92.9c-1.7,7.3-4.2,13.5-7.6,18.6l-4.2-5.6c3.7-4.3,7.6-12.2,11.5-23.6h-0.8c-4.3,0-7.2,0.1-8.7,0.3v-5.3
				c2.3,0.4,5.1,0.6,8.4,0.6h1.4v-9.3c0-2.6-0.1-4.5-0.3-5.6c3.9,0,6.4,0.4,7.3,1.1c0,0.4-0.2,0.9-0.6,1.7c-0.4,1.3-0.7,2.5-0.8,3.7
				c0,1.1-0.1,2.5-0.3,4.2v3.9h3.7c2.4-0.2,4.1-0.3,5.1-0.3v5.6c-1.7-0.4-4.2-0.6-7.6-0.6h-1.1v12.1l4.2-2.3c2.1,2.8,4.2,6,6.5,9.6
				l-5.3,3.1c-1.3-3.4-3.1-6.4-5.3-9V116c0,4.1,0.2,8,0.6,11.5H113.2z M166.9,123.9c-2.4-0.2-5.9-0.4-10.4-0.6h-20.3
				c-2.8,0-6.8,0.2-11.8,0.6V118c5.2,0.4,9,0.6,11.3,0.6h12.9c2.8-5.1,5.5-13.6,8.2-25.6c0.6,0.2,1.4,0.5,2.5,0.8
				c3.7,1.3,5.5,2.2,5.3,2.5c0,0.2-0.3,0.6-0.8,1.1c-1.1,1.1-2.1,2.6-2.8,4.5c-2.4,6.2-4.8,11.7-7,16.6h2c4.7-0.2,8.3-0.4,11-0.6
				L166.9,123.9L166.9,123.9z M147.5,89.6c-3.2,0-6.6,0.1-10.1,0.3v-5.1c2.8,0.4,7.4,0.5,13.8,0.3h3.7v5.1
				C153.2,89.9,150.7,89.8,147.5,89.6z M150.1,110.4l-6.2,1.1c-0.9-6.9-2.2-12.5-3.7-16.6l5.9-0.8
				C147.4,98.4,148.7,103.8,150.1,110.4z M139.9,112.9l-6.2,0.8c-0.8-7.3-2-13.1-3.7-17.4l5.6-0.8
				C137.6,101.7,139,107.5,139.9,112.9z M164.7,92.1c-10.1-6.6-16.5-14.3-19.1-23.3c-4.7,10.5-10.4,18.8-17.2,24.8
				c-1.9-1.7-3.9-2.9-6.2-3.7c9-4.9,15.7-14.2,20-28.1c4.7,0.6,7.2,1.3,7.6,2.3c0,0.2-0.2,0.5-0.6,0.8c-0.6,0.2-0.8,0.4-0.8,0.6
				c3.7,9.9,10.8,16.7,21.1,20.3C167.2,88.1,165.6,90.2,164.7,92.1z M47.4,100h33.8v-8.4H47.4V100z M47.4,86.8h33.8v-9H47.4V86.8z
				 M47.4,114.6h33.8V105H47.4V114.6z"/>
		</g>
	</g>
</g>
</svg>
