<svg xmlns="http://www.w3.org/2000/svg" viewBox="0 0 144 139.57"><defs><style>.cls-1,.cls-2{fill:#95b223;}.cls-2{font-size:24px;font-family:PingFangSC-Semibold-GBpc-EUC-H, PingFang SC;font-weight:700;}</style></defs><title>ZKYGZZ</title><g id="图层_2" data-name="图层 2"><g id="图层_1-2" data-name="图层 1"><circle class="cls-1" cx="114.25" cy="54.59" r="6.3"/><circle class="cls-1" cx="95.62" cy="42.1" r="7.73"/><path class="cls-1" d="M107.95,34.8c0,.09,0,.18,0,.28V54.21h12.55V44.34a11.66,11.66,0,0,1,8.12,4.85,17,17,0,0,1,3,10.37q0,7.32-4.91,11.53t-13.45,4.21q-8.46,0-13.35-4.21T95.1,59.55a14.79,14.79,0,0,1,1.7-7.09,15.71,15.71,0,0,1,3-3.85L90.41,36.47A29,29,0,0,0,84.83,44a33.58,33.58,0,0,0-3.48,15.56,34.62,34.62,0,0,0,2.25,12.57,30.29,30.29,0,0,0,16.74,17.15,32.38,32.38,0,0,0,12.33,2.29A32.73,32.73,0,0,0,125,89.21a30.25,30.25,0,0,0,10.16-6.6,28.69,28.69,0,0,0,6.69-10.12A35.73,35.73,0,0,0,144,59.55q0-14.8-8.53-23-7.63-7.3-20.82-8.05h0c-.14,0-.27,0-.41,0A6.3,6.3,0,0,0,107.95,34.8Z"/><path class="cls-1" d="M126.09,11.61A36.27,36.27,0,0,0,71,13.79a34.33,34.33,0,0,0-5.84-.5,34.94,34.94,0,0,0-27.93,13.9q-1.25-.1-2.49-.1A34.75,34.75,0,0,0,10.57,86.8,32.71,32.71,0,0,0,34,96.63H80.32l.16,0,.16,0h.26v0a7.64,7.64,0,0,0,0-15.27v0H34A17.49,17.49,0,0,1,21.44,76l-.15-.15A19.38,19.38,0,0,1,39.25,43L45,44.34l2.78-5.23a19.58,19.58,0,0,1,24-9.32L77.94,32l3.15-5.72a21,21,0,0,1,33.46-4.59,7.73,7.73,0,1,0,11.55-10.07Z"/><text class="cls-2" transform="translate(0 134)">中科云谷智租</text></g></g></svg>